<svg id="Capa_1" data-name="Capa 1" xmlns="http://www.w3.org/2000/svg" xmlns:xlink="http://www.w3.org/1999/xlink" viewBox="0 0 83 50"><defs><style>.cls-1{fill:#f3c5dd;}.cls-2,.cls-3,.cls-8{fill:#9a6785;}.cls-2{clip-path:url(#clip-path);}.cls-3{clip-path:url(#clip-path-2);}.cls-4{fill:#e8cf00;}.cls-5{fill:#eee;}.cls-6{fill:#030202;}.cls-7{fill:#e7b9d6;}.cls-9{fill:#fff;}.cls-10{fill:#ece4e7;}.cls-11{clip-path:url(#clip-path-3);}.cls-12{fill:#b37aa4;}.cls-13{fill:#dbabca;}.cls-14{fill:#040304;}.cls-15{fill:#885b49;}.cls-16{clip-path:url(#clip-path-4);}.cls-17{fill:#cc1975;}</style><clipPath id="clip-path"><path class="cls-1" d="M45.6,22.92s-2.65.35-3.11-.28-1.11,3-.51,3.91c.71,1.13,1.82,1.31,3.76.73S45.6,22.92,45.6,22.92Z"/></clipPath><clipPath id="clip-path-2"><path class="cls-1" d="M37.51,22.58s2.65.35,3.1-.28,1.11,3,.52,3.91c-.72,1.12-1.83,1.31-3.77.73S37.51,22.58,37.51,22.58Z"/></clipPath><clipPath id="clip-path-3"><path class="cls-2" d="M43.92,27.71a2.19,2.19,0,0,1-2-1.11,4.47,4.47,0,0,1-.2-2.24,3.58,3.58,0,0,1,.56-1.85.23.23,0,0,1,.33.07c.34.47,2.28.33,3,.24h.07l0,.06c.06.1,1.38,2.53.86,3.81a1.17,1.17,0,0,1-.78.7A6.83,6.83,0,0,1,43.92,27.71Zm-1.54-5s-.06,0-.16.25c-.35.82-.56,2.93-.15,3.57.67,1.07,1.72,1.27,3.64.69a1,1,0,0,0,.65-.57c.44-1.09-.62-3.19-.82-3.58-.49.06-2.68.29-3.13-.33Z"/></clipPath><clipPath id="clip-path-4"><path class="cls-3" d="M39.17,27.36A6.57,6.57,0,0,1,37.33,27a1.17,1.17,0,0,1-.77-.7c-.53-1.28.8-3.71.86-3.81l0-.06h.07c.72.09,2.67.23,3-.24a.22.22,0,0,1,.32-.07A3.47,3.47,0,0,1,41.42,24a4.48,4.48,0,0,1-.21,2.24,2.19,2.19,0,0,1-1.49,1.06A3.16,3.16,0,0,1,39.17,27.36Zm-1.61-4.67c-.2.39-1.25,2.49-.81,3.58a1,1,0,0,0,.64.57,6.4,6.4,0,0,0,1.78.32,2,2,0,0,0,1.87-1c.4-.64.19-2.75-.15-3.57-.1-.22-.16-.25-.16-.25s0,0,0,0C40.25,23,38.05,22.75,37.56,22.69Z"/></clipPath></defs><title>icono_hermed</title><path class="cls-4" d="M68,22.55c2.68-6.09,1.83-10.68.72-13.36A15.27,15.27,0,0,0,55,0C47.89,0,44,5.71,42.12,9.69,40.26,5.71,36.35,0,29.26,0A15.26,15.26,0,0,0,15.52,9.19c-1.34,3.24-2.31,9.24,2.86,17.32C19.72,23.41,41.92,50.16,42.12,50,42.23,50.09,67.27,21.45,68,22.55Z"/><path class="cls-5" d="M59.67,14.94s8.1-7.17,12.08-7.17.31,4.79-.85,5.55c1.71.46.45,2.31-.85,2.88.33.82-1.84,2.38-4.2,2.3,0,1.14-1.19,1.43-2,1.61C60,23.14,54.06,21.21,59.67,14.94Z"/><path class="cls-6" d="M60,21.62a3,3,0,0,1-2.22-.8c-.54-.58-1.47-2.32,1.78-6h0s2-1.82,4.55-3.6c3.36-2.39,5.91-3.6,7.59-3.6h0c1,0,1.66.32,1.85.95.26.87-.41,2.09-.84,2.75a9.24,9.24,0,0,1-1.64,1.92.94.94,0,0,1,.71.83c.06.78-.81,1.73-1.65,2.14a.92.92,0,0,1-.2.68,5.29,5.29,0,0,1-4,1.67H66c-.08,1.17-1.38,1.45-2.1,1.6A6.57,6.57,0,0,1,60.5,21.6ZM59.75,15a8.89,8.89,0,0,0-2.17,3.55A2.19,2.19,0,0,0,58,20.68a2.79,2.79,0,0,0,2.05.73A6.24,6.24,0,0,0,63.74,20l0,0h0c1-.21,2-.53,2-1.51v-.11h.11a5.12,5.12,0,0,0,4-1.58.68.68,0,0,0,.15-.58l0-.09.09,0c.89-.39,1.66-1.33,1.61-2q0-.53-.75-.72l-.22-.06.19-.12c.9-.6,3-3.25,2.56-4.56-.16-.53-.71-.8-1.65-.8C67.89,7.88,60,14.82,59.75,15Z"/><path class="cls-7" d="M64.46,28c-2.37,1.65.8,12.15,1,12.86.25,1,5,1,4.85,0C70.17,39.58,73,30.33,73,30.33"/><path class="cls-8" d="M64.46,28a1.64,1.64,0,0,0-.53.74l0,.1,0,.11,0,.06v0l0,.11a3.58,3.58,0,0,0-.09.45,8.71,8.71,0,0,0-.05,1.84q0,.91.18,1.83c.08.61.18,1.21.3,1.82.24,1.2.51,2.4.83,3.59.15.59.31,1.19.48,1.78l.06.22,0,.11v0l0,0a.75.75,0,0,0,.3.25,1.92,1.92,0,0,0,.42.16,3.12,3.12,0,0,0,.44.09c.3.05.6.08.9.1s.61,0,.91,0a6.5,6.5,0,0,0,.9-.12,2.59,2.59,0,0,0,.42-.14l.19-.1a.53.53,0,0,0,.13-.13l0-.07v-.1a.48.48,0,0,1,0-.12v-.12c0-.16,0-.31.07-.47s.11-.61.18-.91c.13-.6.28-1.2.44-1.79.62-2.39,1.33-4.75,2.07-7.09l-.49,1.78c-.17.59-.33,1.18-.49,1.78l-.48,1.78c-.15.59-.31,1.19-.46,1.79s-.29,1.19-.42,1.79c-.06.3-.12.6-.17.9s0,.3,0,.45V41a.66.66,0,0,1,0,.15.69.69,0,0,1-.19.19.94.94,0,0,1-.22.12,2.64,2.64,0,0,1-.45.15,5.94,5.94,0,0,1-.93.13c-.31,0-.63,0-.94,0a7.32,7.32,0,0,1-.93-.09,3.84,3.84,0,0,1-.46-.11,2.07,2.07,0,0,1-.45-.17,1.2,1.2,0,0,1-.21-.13.7.7,0,0,1-.18-.2l0-.07v-.06l0-.11-.06-.23c-.16-.59-.32-1.18-.47-1.78-.3-1.2-.58-2.4-.79-3.61-.11-.61-.21-1.22-.28-1.83s-.13-1.23-.15-1.85a8.84,8.84,0,0,1,.1-1.85,3.63,3.63,0,0,1,.1-.45l0-.11,0-.06,0,0,0-.11,0-.11A1.72,1.72,0,0,1,64.46,28Z"/><path d="M70.45,40.7l-5.31-.31s.14,2.32.44,2.53c.81.56,2-.78,2.31-.62s.75,1,1.74,1.17C70.4,43.58,70.45,40.7,70.45,40.7Z"/><path class="cls-7" d="M56.6,34.13s.18,5.43,0,6.09c-.25.91-5,.89-4.86,0,.13-1.18.13-6.07.13-6.07"/><path class="cls-8" d="M56.6,34.13c0,.72.07,1.45.1,2.18s0,1.45.06,2.18c0,.36,0,.73,0,1.09,0,.19,0,.37,0,.56,0,0,0,0,0,.07a.08.08,0,0,0,0,0l0,0a.34.34,0,0,1-.09.14,1.06,1.06,0,0,1-.24.19,2.32,2.32,0,0,1-.54.19,5.17,5.17,0,0,1-.54.11,8.14,8.14,0,0,1-1.1.08,10,10,0,0,1-1.1,0l-.55-.1a2.14,2.14,0,0,1-.54-.18.92.92,0,0,1-.25-.2.39.39,0,0,1-.07-.16v-.16c0-.18,0-.36,0-.54s0-.37,0-.55,0-.36,0-.54c0-1.45.08-2.91.13-4.36,0,1.45.05,2.91,0,4.36,0,.37,0,.73,0,1.1,0,.18,0,.36,0,.54v.09h0v0a.59.59,0,0,0,0,.08.49.49,0,0,0,.18.13,2,2,0,0,0,.49.17,4.85,4.85,0,0,0,.53.08,7.82,7.82,0,0,0,1.08.06,9.45,9.45,0,0,0,1.07-.08l.52-.1a1.9,1.9,0,0,0,.49-.18.6.6,0,0,0,.2-.14l.06-.08v0a0,0,0,0,0,0,0,.13.13,0,0,0,0-.06,4.53,4.53,0,0,0,0-.53l0-1.09C56.61,37,56.6,35.58,56.6,34.13Z"/><path d="M51.58,40.07l5.27-.34s-.09,2.17-.4,2.37c-.81.52-2-.72-2.31-.57a3.4,3.4,0,0,1-1.73,1.07C51.64,42.7,51.58,40.07,51.58,40.07Z"/><path class="cls-1" d="M50,17.15s5.55-3.35,8.39-1.76c2.47,1.39,2.67,3.91,3.27,4.65.36.46-3.06.23-3.67.66-2.09,1.47-2.65.5-4.6.64"/><path class="cls-8" d="M55.88,21.63a5.48,5.48,0,0,1-.89-.09,6.65,6.65,0,0,0-1.56-.1l0-.2a7.09,7.09,0,0,1,1.61.09A3.29,3.29,0,0,0,58,20.61a5.85,5.85,0,0,1,2.12-.32,6.66,6.66,0,0,0,1.52-.19,4.64,4.64,0,0,1-.49-1,6.22,6.22,0,0,0-2.74-3.6c-1.43-.8-3.61-.28-5.17.29a20,20,0,0,0-3.12,1.47L50,17.06a20.66,20.66,0,0,1,3.15-1.48c2.34-.86,4.14-.95,5.35-.28A6.53,6.53,0,0,1,61.31,19a4.12,4.12,0,0,0,.46,1,.18.18,0,0,1,0,.19c-.09.2-.56.25-1.71.32a6.64,6.64,0,0,0-2,.29A3.63,3.63,0,0,1,55.88,21.63Z"/><path class="cls-1" d="M50.76,15.92c-4.46,1.91-8.71,6.31-5.82,13.85,2.64,6.92,33.5,17.2,35.27-2.48C81.7,10.67,63.36,16.68,62.46,16.68,60.19,16.68,55.15,14,50.76,15.92Z"/><path class="cls-8" d="M66.22,38.81A34.5,34.5,0,0,1,54,36.38a28.64,28.64,0,0,1-6-3.12,8.53,8.53,0,0,1-3.18-3.45c-1.32-3.46-1.27-6.53.16-9.13a11.67,11.67,0,0,1,5.72-4.85h0c3.07-1.32,6.5-.43,9,.21a12.81,12.81,0,0,0,2.75.54c.08,0,.38-.07.75-.15,2.5-.57,10.1-2.31,14.32,1.38,2.23,2,3.17,5.14,2.78,9.49-.74,8.19-6.4,10.67-11,11.31A23.44,23.44,0,0,1,66.22,38.81ZM50.76,15.92l0,.1C48.58,17,41.6,20.76,45,29.74a8.36,8.36,0,0,0,3.1,3.35,28.36,28.36,0,0,0,6,3.1,34.27,34.27,0,0,0,12.1,2.41,21.41,21.41,0,0,0,3-.2c4.54-.62,10.11-3.07,10.83-11.12.39-4.28-.52-7.41-2.71-9.32-4.14-3.61-11.66-1.89-14.14-1.33a5.24,5.24,0,0,1-.79.16,12.46,12.46,0,0,1-2.8-.55c-2.47-.64-5.85-1.51-8.86-.22Z"/><path class="cls-9" d="M64.41,15.57S75,8.6,78.92,9.19s-.51,4.77-1.78,5.36c1.61.7,0,2.34-1.33,2.71.18.86-2.22,2.08-4.53,1.65C71.07,20,69.85,20.37,69,20.42,62.38,19.94,57.81,20.92,64.41,15.57Z"/><path class="cls-6" d="M69,20.53h0c-1.12-.08-2.2-.12-3.15-.15-2.66-.1-4.41-.17-4.69-1s.73-1.87,3.23-3.89h0s2.68-1.76,5.78-3.41c4.18-2.22,7.14-3.23,8.8-3,1,.15,1.57.55,1.66,1.19.12.85-.63,1.88-1.28,2.6a9.39,9.39,0,0,1-1.95,1.66.94.94,0,0,1,.55.91c-.06.79-1.08,1.61-2,1.89a.9.9,0,0,1-.3.64,5.08,5.08,0,0,1-3.37,1.12,5.26,5.26,0,0,1-.89-.07C71,20.31,69.46,20.5,69,20.52Zm-4.5-4.88c-2.35,1.91-3.35,3.07-3.15,3.67s2.11.75,4.5.84c1,0,2,.08,3.15.16.47,0,2-.21,2.2-1.42l0-.11.1,0a5.18,5.18,0,0,0,4.18-1,.68.68,0,0,0,.24-.54l0-.1.09,0c.87-.23,1.88-1,1.94-1.72,0-.34-.19-.61-.62-.8l-.21-.09.21-.1c.85-.39,3.5-2.72,3.3-4.14-.08-.54-.58-.88-1.5-1C75.09,8.72,64.73,15.48,64.47,15.65Z"/><path class="cls-10" d="M74.46,14.26a1,1,0,0,1,.17.28.65.65,0,0,1,0,.34.84.84,0,0,1-.12.31,1.37,1.37,0,0,1-.23.25,2.69,2.69,0,0,1-.55.38,6.57,6.57,0,0,1-.61.26V16a1.44,1.44,0,0,1,.5.24.87.87,0,0,1,.19.23.77.77,0,0,1,.06.3.84.84,0,0,1-.09.28,1,1,0,0,1-.16.24,2.05,2.05,0,0,1-.42.36,2.65,2.65,0,0,1-1,.37,2,2,0,0,1-.55,0,1.48,1.48,0,0,1-.54-.17l.15-.11a.64.64,0,0,1-.08.45.94.94,0,0,1-.12.18l-.15.15a3,3,0,0,1-.71.41,6.75,6.75,0,0,1-.76.25,7.83,7.83,0,0,1-2.37.18,4.2,4.2,0,0,1-.79-.13,3.28,3.28,0,0,1-.74-.27,4,4,0,0,0,.75.22,5.16,5.16,0,0,0,.78.08,7.39,7.39,0,0,0,1.56-.09,6.43,6.43,0,0,0,.76-.17,5,5,0,0,0,.74-.25,2.67,2.67,0,0,0,.65-.39,1.59,1.59,0,0,0,.13-.13L71,18a.49.49,0,0,0,0-.31l0-.21.18.1a1.84,1.84,0,0,0,.47.15,2.09,2.09,0,0,0,.5,0,2.35,2.35,0,0,0,.95-.33,1.91,1.91,0,0,0,.38-.31.73.73,0,0,0,.21-.42.39.39,0,0,0,0-.21.73.73,0,0,0-.14-.18,1.67,1.67,0,0,0-.44-.23l-.2-.06L73.1,16a6.44,6.44,0,0,0,.61-.24,3.08,3.08,0,0,0,.55-.33,1.2,1.2,0,0,0,.22-.23.92.92,0,0,0,.14-.28A.75.75,0,0,0,74.46,14.26Z"/><path class="cls-1" d="M76.33,19.07a3.64,3.64,0,0,0,1.92.46,3.37,3.37,0,0,0,1-.17,2.55,2.55,0,0,0,.86-.46l.18-.17.07-.1.07-.09,0-.05v0l0,0,.05-.11,0-.11a.14.14,0,0,1,0-.06V18.1a1.75,1.75,0,0,0,0-1l0-.12,0-.11a.37.37,0,0,0,0-.11.39.39,0,0,0-.06-.11.71.71,0,0,0-.32-.3.58.58,0,0,0-.43,0,1,1,0,0,0-.39.27,1.16,1.16,0,0,0-.25.41.63.63,0,0,0,0,.45.59.59,0,0,0,.32.32,1.48,1.48,0,0,0,.48.13,2.86,2.86,0,0,0,.51,0l.52,0,.25,0,.26,0,.5-.14a2.47,2.47,0,0,0,.46-.23,1.56,1.56,0,0,0,.2-.16,1,1,0,0,0,.16-.2,1,1,0,0,0,.16-.47,1.45,1.45,0,0,0,0-.51,2.92,2.92,0,0,0-.19-.49,3.35,3.35,0,0,0-.27-.45,5.7,5.7,0,0,0-.66-.81,5.67,5.67,0,0,1,.68.79,3.68,3.68,0,0,1,.28.45,2.33,2.33,0,0,1,.21.49,1.58,1.58,0,0,1,.07.53,1.13,1.13,0,0,1-.16.51,1.84,1.84,0,0,1-.17.22l-.21.17a2.37,2.37,0,0,1-.47.25,3.33,3.33,0,0,1-.51.16l-.26.06-.26.05-.53.06a4.86,4.86,0,0,1-.54,0,1.8,1.8,0,0,1-.54-.14,1.11,1.11,0,0,1-.24-.16.7.7,0,0,1-.17-.24.72.72,0,0,1-.06-.29,1,1,0,0,1,0-.29,1.31,1.31,0,0,1,.27-.49,1.35,1.35,0,0,1,.47-.34.94.94,0,0,1,.29-.06.76.76,0,0,1,.3.05,1,1,0,0,1,.26.16,1,1,0,0,1,.19.23.75.75,0,0,1,.07.12.54.54,0,0,1,.07.13l.05.12c0,.05,0,.09,0,.13s0,.18.07.27a.68.68,0,0,1,0,.14l0,.14v.28l0,.15s0,0,0,.07l0,.07,0,.07a.14.14,0,0,1,0,.06l0,.14-.06.13,0,0,0,0,0,.06a.83.83,0,0,1-.08.12l-.09.11a1.26,1.26,0,0,1-.2.2,2.79,2.79,0,0,1-1,.55,3.57,3.57,0,0,1-1.07.21,4.05,4.05,0,0,1-1.1-.08,4.3,4.3,0,0,1-1-.37Z"/><path class="cls-1" d="M59.47,36.41s.18,5.43,0,6.08c-.25.92-4.95.9-4.85,0,.12-1.18.12-6.07.12-6.07"/><path class="cls-8" d="M59.47,36.41c.05.73.08,1.45.11,2.18s0,1.45.05,2.18c0,.36,0,.73,0,1.09a5.27,5.27,0,0,1,0,.56s0,0,0,.07l0,.08a.42.42,0,0,1-.09.14.8.8,0,0,1-.24.18,2.62,2.62,0,0,1-.53.2c-.19,0-.37.08-.55.1a8.16,8.16,0,0,1-1.1.09,10.14,10.14,0,0,1-1.1-.06,5.25,5.25,0,0,1-.55-.09,2.9,2.9,0,0,1-.54-.19.69.69,0,0,1-.24-.19.29.29,0,0,1-.07-.17.28.28,0,0,1,0-.09v-.07c0-.17,0-.35,0-.53s0-.37,0-.55,0-.36,0-.54c0-1.45.09-2.91.13-4.36,0,1.46,0,2.91,0,4.36l0,1.09,0,.55v.11a.2.2,0,0,0,0,.08.51.51,0,0,0,.18.14,2.66,2.66,0,0,0,.5.16A4.71,4.71,0,0,0,56,43a9.76,9.76,0,0,0,1.08,0A7.59,7.59,0,0,0,58.1,43a3.29,3.29,0,0,0,.53-.1,2,2,0,0,0,.49-.17.67.67,0,0,0,.19-.14.42.42,0,0,0,.06-.08s0,0,0,0,0,0,0-.06c0-.17,0-.36,0-.53,0-.37,0-.73,0-1.09C59.48,39.32,59.47,37.87,59.47,36.41Z"/><path d="M54.46,42.35,59.72,42s-.09,2.18-.39,2.37c-.81.52-2-.71-2.31-.56a3.56,3.56,0,0,1-1.74,1.06C54.51,45,54.46,42.35,54.46,42.35Z"/><path class="cls-1" d="M70.12,29.54c-2.5,1.65.84,12.15,1,12.86.27,1,5.21,1,5.11,0-.13-1.29,2.82-10.55,2.82-10.55"/><path class="cls-8" d="M70.12,29.54a1.72,1.72,0,0,0-.33.33,1.94,1.94,0,0,0-.22.4l0,.11a.76.76,0,0,1,0,.11l-.06.22a3.63,3.63,0,0,0-.1.45A9.62,9.62,0,0,0,69.26,33c0,.62.11,1.23.2,1.85s.2,1.22.32,1.83c.26,1.22.55,2.42.88,3.62l.51,1.79.07.23s0,0,0,0v0a.18.18,0,0,0,0,.07l.16.13.2.1a3.58,3.58,0,0,0,.87.22,7.16,7.16,0,0,0,.92.09c.31,0,.62,0,.92,0a6.66,6.66,0,0,0,.91-.11,3.17,3.17,0,0,0,.44-.12l.2-.09a.67.67,0,0,0,.16-.12.23.23,0,0,0,.07-.14v-.36s0-.08,0-.12l0-.12,0-.11c0-.16,0-.31.08-.47s.07-.3.11-.45c.14-.61.29-1.21.46-1.81.66-2.41,1.41-4.78,2.2-7.14l-.53,1.79c-.18.6-.35,1.19-.52,1.79l-.51,1.8c-.16.6-.33,1.2-.48,1.8s-.31,1.2-.45,1.81l-.09.45-.09.46v.11l0,.11s0,.08,0,.12v.34a.22.22,0,0,1,0,.08.19.19,0,0,1,0,.07l0,0,0,0,0,0a.82.82,0,0,1-.22.16l-.22.1a2.64,2.64,0,0,1-.46.13,6.2,6.2,0,0,1-.94.12c-.32,0-.63,0-1,0a7.61,7.61,0,0,1-.94-.08,4.3,4.3,0,0,1-.92-.24.94.94,0,0,1-.22-.12.65.65,0,0,1-.21-.16.5.5,0,0,1-.08-.12l0,0v0s0,0,0-.06L71,42.17c-.17-.6-.35-1.2-.51-1.8s-.31-1.2-.45-1.81-.28-1.22-.39-1.83-.22-1.23-.3-1.84-.14-1.24-.17-1.87a9,9,0,0,1,.11-1.87c0-.15.06-.3.1-.45l.08-.23a.76.76,0,0,1,0-.11l.05-.1a2,2,0,0,1,.24-.4A1.72,1.72,0,0,1,70.12,29.54Z"/><path d="M76.43,42.24l-5.59-.31s.14,2.32.46,2.53c.86.57,2.15-.78,2.44-.62s.78,1,1.82,1.17C76.37,45.12,76.43,42.24,76.43,42.24Z"/><path d="M52.13,24.48a.09.09,0,0,1-.1-.06c-.36-1-.84-1.54-1.42-1.65a2.19,2.19,0,0,0-1.71.72.1.1,0,0,1-.15,0,.11.11,0,0,1,0-.15,2.39,2.39,0,0,1,1.91-.78c.66.12,1.18.72,1.57,1.77a.11.11,0,0,1-.06.14Z"/><path class="cls-1" d="M45.6,22.92s-2.65.35-3.11-.28-1.11,3-.51,3.91c.71,1.13,1.82,1.31,3.76.73S45.6,22.92,45.6,22.92Z"/><path class="cls-1" d="M45.6,22.92s-2.65.35-3.11-.28-1.11,3-.51,3.91c.71,1.13,1.82,1.31,3.76.73S45.6,22.92,45.6,22.92Z"/><path class="cls-8" d="M43.92,27.71a2.19,2.19,0,0,1-2-1.11,4.47,4.47,0,0,1-.2-2.24,3.58,3.58,0,0,1,.56-1.85.23.23,0,0,1,.33.07c.34.47,2.28.33,3,.24h.07l0,.06c.06.1,1.38,2.53.86,3.81a1.17,1.17,0,0,1-.78.7A6.83,6.83,0,0,1,43.92,27.71Zm-1.54-5s-.06,0-.16.25c-.35.82-.56,2.93-.15,3.57.67,1.07,1.72,1.27,3.64.69a1,1,0,0,0,.65-.57c.44-1.09-.62-3.19-.82-3.58-.49.06-2.68.29-3.13-.33Z"/><g class="cls-11"><path class="cls-1" d="M42.43,22.34s1.66,5.89-.37,5.51S41.49,22.3,42.43,22.34Z"/><path class="cls-8" d="M42.24,28,42,28c-.85-.16-1.24-1.12-1.07-2.63s.83-3.09,1.45-3.09h.09l0,.07c0,.18,1.22,4.38.27,5.42A.74.74,0,0,1,42.24,28Zm.11-5.52c-.4.14-1,1.47-1.17,2.89-.08.66-.14,2.21.9,2.41a.59.59,0,0,0,.57-.16C43.45,26.71,42.52,23.06,42.35,22.45Z"/></g><path class="cls-12" d="M42.06,25.26c0,.44.1.79.23.79s.23-.35.23-.79-.1-.8-.23-.8S42.06,24.82,42.06,25.26Z"/><path class="cls-1" d="M53.88,17.69s5.55-3.35,8.39-1.76c2.48,1.38,2.67,3.9,3.27,4.65.36.45-3.06.23-3.67.65-2.08,1.47-2.65.51-4.6.65"/><path class="cls-8" d="M53.88,17.69A14.51,14.51,0,0,1,55.16,17c.43-.22.87-.42,1.32-.61a12.49,12.49,0,0,1,2.81-.85,6.57,6.57,0,0,1,1.47-.09,3.87,3.87,0,0,1,1.45.36l.32.19.16.1.08.05.07.05a6.28,6.28,0,0,1,.58.47,5.78,5.78,0,0,1,.93,1.16A9.5,9.5,0,0,1,65,19.12c.09.23.17.46.26.68s.09.23.14.34a2.85,2.85,0,0,0,.16.3l0,.07,0,0,0,0a.06.06,0,0,1,0,0v.06a.17.17,0,0,0,0,.05l0,0,0,0h0a.24.24,0,0,1-.1.05,2.74,2.74,0,0,1-.37.08l-.74.06c-.49,0-1,.05-1.45.09a4.2,4.2,0,0,0-.71.11l-.17,0-.07,0-.07,0-.16.11-.15.09a4.12,4.12,0,0,1-.66.34,2.9,2.9,0,0,1-.71.21,2.31,2.31,0,0,1-.37,0h-.37L58.73,22a6.49,6.49,0,0,0-1.46-.1,4.58,4.58,0,0,1,.74,0,5.85,5.85,0,0,1,.72.07l.73.08h.36a2,2,0,0,0,.35,0,3.59,3.59,0,0,0,1.32-.56l.15-.1.15-.1.08-.06.09,0,.18-.07a6.17,6.17,0,0,1,.73-.12c.49-.05,1-.08,1.46-.11l.72-.07.34-.07.06,0h0v0h0l-.06-.08a2.68,2.68,0,0,1-.18-.33c0-.12-.1-.23-.14-.34s-.18-.46-.27-.68a8.71,8.71,0,0,0-.64-1.3,5.94,5.94,0,0,0-.89-1.11,6.22,6.22,0,0,0-.56-.46l-.07,0-.07-.05-.15-.1L62.12,16a3.57,3.57,0,0,0-1.37-.36,7,7,0,0,0-1.44.07A11.45,11.45,0,0,0,57.9,16c-.47.14-.93.3-1.38.47A21.17,21.17,0,0,0,53.88,17.69Z"/><path class="cls-13" d="M55.86,18.4S60.63,16.12,62,17a5.6,5.6,0,0,1,2.66,3.18c.06.33-2.9.28-3.26.68C59.74,22.7,54.18,19.55,55.86,18.4Z"/><path class="cls-5" d="M23.43,14.6S15.34,7.43,11.36,7.43s-.31,4.79.85,5.55c-1.71.46-.46,2.31.84,2.88-.32.82,1.85,2.38,4.2,2.3,0,1.14,1.19,1.43,2.05,1.61C23.11,22.8,29,20.87,23.43,14.6Z"/><path class="cls-14" d="M23.06,21.28l-.46,0a6.5,6.5,0,0,1-3.34-1.39c-.73-.15-2-.43-2.11-1.6h-.06a5.25,5.25,0,0,1-4-1.67.92.92,0,0,1-.2-.68c-.85-.41-1.71-1.36-1.66-2.14A1,1,0,0,1,12,13,9.24,9.24,0,0,1,10.34,11c-.42-.66-1.09-1.88-.83-2.75.19-.63.81-.95,1.85-.95h0c1.67,0,4.22,1.21,7.59,3.6,2.49,1.78,4.53,3.58,4.55,3.6h0c3.24,3.63,2.32,5.37,1.77,6A3,3,0,0,1,23.06,21.28Zm-5.71-3.23v.11c0,1,1,1.32,2,1.51h0l0,0c1.94,1.54,4.63,1.84,5.76.65a2.18,2.18,0,0,0,.4-2.12,9,9,0,0,0-2.17-3.54c-.11-.1-2.1-1.85-4.53-3.58C15.55,8.77,13,7.54,11.36,7.54h0c-.94,0-1.5.27-1.66.8-.39,1.31,1.67,4,2.56,4.56l.2.12-.23.06c-.47.13-.72.37-.75.71-.05.65.72,1.59,1.62,2l.09,0,0,.09a.66.66,0,0,0,.15.58,5.09,5.09,0,0,0,3.95,1.58Z"/><path class="cls-7" d="M18.64,27.66c2.38,1.65-.79,12.15-1,12.86-.25,1-5,1-4.86,0C12.94,39.24,10.14,30,10.14,30"/><path class="cls-8" d="M18.64,27.66a1.74,1.74,0,0,1,.57.72l0,.11,0,.11,0,0,0,.06,0,.11c0,.15.07.3.1.45a9.53,9.53,0,0,1,.1,1.85c0,.62-.08,1.23-.15,1.85s-.17,1.22-.28,1.82c-.22,1.22-.49,2.42-.79,3.62-.15.59-.31,1.19-.48,1.78l-.06.22,0,.11v.07s0,0,0,.07a.67.67,0,0,1-.17.2,1,1,0,0,1-.22.13,1.74,1.74,0,0,1-.45.17,3.43,3.43,0,0,1-.46.11,7.32,7.32,0,0,1-.93.09c-.31,0-.62,0-.93,0a5.94,5.94,0,0,1-.93-.13,2.74,2.74,0,0,1-.46-.15A1.19,1.19,0,0,1,13,41a.55.55,0,0,1-.18-.19.3.3,0,0,1,0-.15.17.17,0,0,1,0-.07v-.28a3.47,3.47,0,0,0-.06-.45c-.05-.3-.1-.6-.17-.9q-.2-.9-.42-1.8c-.14-.59-.3-1.19-.46-1.78s-.31-1.19-.47-1.78-.33-1.19-.49-1.79L10.14,30c.74,2.34,1.45,4.7,2.08,7.08.16.6.31,1.2.44,1.8.07.3.13.61.18.91a3.55,3.55,0,0,1,.06.47v.34a.11.11,0,0,0,0,.07.32.32,0,0,0,.13.13,1,1,0,0,0,.18.1,2.25,2.25,0,0,0,.42.13,5.58,5.58,0,0,0,.9.13c.31,0,.61,0,.91,0a9,9,0,0,0,.91-.1,3.43,3.43,0,0,0,.44-.09,2.05,2.05,0,0,0,.41-.16.63.63,0,0,0,.3-.25l0,0v-.05l0-.11.06-.22c.16-.59.33-1.19.48-1.78.31-1.19.59-2.39.82-3.59.12-.61.23-1.21.31-1.82s.15-1.22.18-1.83a9.44,9.44,0,0,0-.06-1.84c0-.15,0-.3-.08-.45l0-.11,0-.06,0-.05,0-.11,0-.11A1.71,1.71,0,0,0,18.64,27.66Z"/><path d="M12.65,40.36,18,40.05s-.13,2.31-.44,2.53c-.81.56-2-.78-2.31-.62s-.74,1-1.73,1.16C12.71,43.24,12.65,40.36,12.65,40.36Z"/><path class="cls-7" d="M26.51,33.79s-.18,5.43,0,6.09c.25.91,4.95.89,4.85,0-.12-1.18-.12-6.07-.12-6.07"/><path class="cls-8" d="M26.51,33.79c0,1.45,0,2.91,0,4.36,0,.36,0,.72,0,1.09,0,.18,0,.36,0,.53,0,0,0,0,0,.06a0,0,0,0,1,0,0v0a.16.16,0,0,0,.06.08.67.67,0,0,0,.19.14,2.05,2.05,0,0,0,.49.18l.53.1a7.59,7.59,0,0,0,1.07.07A7.81,7.81,0,0,0,30,40.4a4.67,4.67,0,0,0,.52-.08,2,2,0,0,0,.5-.17.64.64,0,0,0,.18-.13l0-.08v0h0v-.09l0-.55c0-.36,0-.72,0-1.09,0-1.45,0-2.91,0-4.36,0,1.45.07,2.91.12,4.36,0,.18,0,.36,0,.54l0,.55c0,.18,0,.36,0,.54v.11a.06.06,0,0,1,0,0,.29.29,0,0,1-.07.17.88.88,0,0,1-.24.2,2.28,2.28,0,0,1-.54.18,5.25,5.25,0,0,1-.55.09,8.11,8.11,0,0,1-1.1.06,8,8,0,0,1-1.1-.08,4.86,4.86,0,0,1-.55-.11,2.1,2.1,0,0,1-.53-.19.88.88,0,0,1-.24-.19.5.5,0,0,1-.1-.14v0a.06.06,0,0,1,0,0s0,0,0-.07a3.52,3.52,0,0,1,0-.56c0-.36,0-.73,0-1.09,0-.73,0-1.46,0-2.18S26.46,34.51,26.51,33.79Z"/><path d="M31.52,39.73l-5.26-.34s.09,2.17.39,2.37c.81.52,2-.72,2.31-.57a3.49,3.49,0,0,0,1.74,1.07C31.46,42.36,31.52,39.73,31.52,39.73Z"/><path class="cls-1" d="M33.08,16.81s-5.55-3.35-8.39-1.76C22.21,16.44,22,19,21.42,19.7c-.36.46,3.06.23,3.66.66,2.09,1.47,2.66.5,4.6.64"/><path class="cls-8" d="M27.22,21.29A3.67,3.67,0,0,1,25,20.44a6.72,6.72,0,0,0-2-.29c-1.14-.07-1.62-.12-1.71-.32a.19.19,0,0,1,0-.19,4.12,4.12,0,0,0,.46-1A6.48,6.48,0,0,1,24.64,15c1.2-.67,3-.58,5.34.28a19.58,19.58,0,0,1,3.15,1.48l-.1.18a21.13,21.13,0,0,0-3.12-1.47c-1.57-.57-3.74-1.09-5.17-.29A6.21,6.21,0,0,0,22,18.74a4.68,4.68,0,0,1-.48,1,6.11,6.11,0,0,0,1.52.18,6,6,0,0,1,2.11.33,3.31,3.31,0,0,0,2.95.72,7,7,0,0,1,1.6-.09v.2a6.61,6.61,0,0,0-1.56.1A5.6,5.6,0,0,1,27.22,21.29Z"/><path class="cls-1" d="M32.35,15.58c4.45,1.91,8.7,6.31,5.82,13.85C35.52,36.35,4.67,46.63,2.9,27,1.4,10.33,19.74,16.34,20.64,16.34,22.92,16.34,28,13.7,32.35,15.58Z"/><path class="cls-8" d="M16.88,38.47a23.29,23.29,0,0,1-3.07-.2C9.19,37.63,3.53,35.15,2.8,27c-.39-4.35.54-7.54,2.78-9.49,4.21-3.69,11.82-1.95,14.32-1.38.37.08.66.15.74.15a12.69,12.69,0,0,0,2.75-.54c2.5-.64,5.92-1.53,9-.22a11.69,11.69,0,0,1,5.71,4.86c1.43,2.6,1.49,5.67.17,9.13a8.6,8.6,0,0,1-3.18,3.45,28.74,28.74,0,0,1-6,3.12A34.46,34.46,0,0,1,16.88,38.47ZM13,15.38c-2.6,0-5.35.51-7.33,2.24-2.18,1.91-3.09,5-2.71,9.32C3.73,35,9.29,37.43,13.84,38.06a21.37,21.37,0,0,0,3,.2A34.28,34.28,0,0,0,29,35.85a28.51,28.51,0,0,0,6-3.1,8.36,8.36,0,0,0,3.1-3.35c3.43-9-3.54-12.78-5.76-13.73h0c-3-1.28-6.4-.41-8.87.23a13.05,13.05,0,0,1-2.8.55,7.71,7.71,0,0,1-.79-.16A30.48,30.48,0,0,0,13,15.38Z"/><path class="cls-9" d="M18.69,15.23s-10.57-7-14.5-6.38S4.7,13.62,6,14.21c-1.61.7-.06,2.34,1.32,2.71-.18.86,2.23,2.08,4.54,1.65.21,1.12,1.43,1.46,2.3,1.51C20.73,19.6,25.3,20.58,18.69,15.23Z"/><path class="cls-14" d="M14.14,20.18h0c-.49,0-2.07-.21-2.38-1.49a5.39,5.39,0,0,1-4.26-1.05A.91.91,0,0,1,7.18,17c-.91-.28-1.94-1.1-2-1.89a1,1,0,0,1,.56-.91,9.4,9.4,0,0,1-2-1.66c-.65-.72-1.4-1.75-1.28-2.6.1-.64.66-1,1.67-1.19,1.65-.25,4.61.75,8.79,3,3.11,1.65,5.76,3.39,5.79,3.41h0c2.49,2,3.46,3.19,3.22,3.89s-2,.89-4.68,1c-.95,0-2,.07-3.16.15Zm-2.23-1.73,0,.1c.23,1.22,1.73,1.4,2.2,1.43,1.13-.09,2.21-.13,3.16-.16,2.38-.09,4.27-.16,4.5-.84s-.81-1.76-3.16-3.67C18.37,15.14,8,8.38,4.2,9c-.91.14-1.41.48-1.49,1-.2,1.42,2.44,3.75,3.3,4.14l.21.1L6,14.3c-.44.19-.65.46-.62.8.05.7,1.06,1.49,1.93,1.72l.1,0,0,.1a.66.66,0,0,0,.25.54,5.16,5.16,0,0,0,4.17,1Z"/><path class="cls-10" d="M8.65,13.92a.7.7,0,0,0,0,.89,1.25,1.25,0,0,0,.23.23,2.51,2.51,0,0,0,.55.33,6.25,6.25,0,0,0,.6.24l.2.06-.2.07a1.53,1.53,0,0,0-.44.23.59.59,0,0,0-.14.18.39.39,0,0,0,0,.21.8.8,0,0,0,.21.42,2,2,0,0,0,.39.31,2.35,2.35,0,0,0,.95.33,2.09,2.09,0,0,0,.5,0,1.77,1.77,0,0,0,.46-.15l.19-.1,0,.2a.59.59,0,0,0,.06.32.71.71,0,0,0,.1.14.8.8,0,0,0,.13.13,2.5,2.5,0,0,0,.65.39,4.49,4.49,0,0,0,.73.25,6.91,6.91,0,0,0,.76.17,7.43,7.43,0,0,0,1.56.09,6.87,6.87,0,0,0,.78-.08,3.26,3.26,0,0,0,.75-.23,2.76,2.76,0,0,1-.74.28A4.1,4.1,0,0,1,16,19a7.05,7.05,0,0,1-1.59,0,6.69,6.69,0,0,1-.78-.14,6.91,6.91,0,0,1-.77-.25,3,3,0,0,1-.7-.42.67.67,0,0,1-.15-.14l-.13-.18a.7.7,0,0,1-.08-.45l.15.11a1.73,1.73,0,0,1-.53.17,1.75,1.75,0,0,1-.56,0,2.37,2.37,0,0,1-1-.37,1.57,1.57,0,0,1-.42-.35,1,1,0,0,1-.17-.24.83.83,0,0,1-.08-.28.52.52,0,0,1,.06-.3.71.71,0,0,1,.19-.23,1.36,1.36,0,0,1,.5-.24v.13a6.39,6.39,0,0,1-.6-.26,3.07,3.07,0,0,1-.56-.38,1.31,1.31,0,0,1-.22-.25.93.93,0,0,1-.13-.31.78.78,0,0,1,0-.34A.68.68,0,0,1,8.65,13.92Z"/><path class="cls-1" d="M7.36,18.35a3.78,3.78,0,0,1-.94.58,4.25,4.25,0,0,1-1,.32,4,4,0,0,1-1.1,0,2.82,2.82,0,0,1-1-.34A1.94,1.94,0,0,1,3,18.79l-.11-.09-.11-.1,0-.05,0,0,0,0-.09-.12a1.25,1.25,0,0,1-.08-.12l0-.06,0-.06,0-.07,0-.06-.05-.14s0,0,0-.07l0-.06,0-.14v-.14a.71.71,0,0,1,0-.14c0-.1,0-.19,0-.28a.68.68,0,0,0,0-.14l0-.13,0-.14a.78.78,0,0,1,0-.14,1.05,1.05,0,0,1,.13-.26A.88.88,0,0,1,2.73,16,.61.61,0,0,1,3,15.91a1,1,0,0,1,.3,0,1.34,1.34,0,0,1,.53.23,1.39,1.39,0,0,1,.37.43.81.81,0,0,1,.11.27.76.76,0,0,1,0,.3.72.72,0,0,1-.12.27,1.34,1.34,0,0,1-.2.21,1.86,1.86,0,0,1-.49.24A3.37,3.37,0,0,1,3,18a4.75,4.75,0,0,1-.53.05H1.92A3.07,3.07,0,0,1,1.39,18a1.91,1.91,0,0,1-.52-.14,1.34,1.34,0,0,1-.24-.12.91.91,0,0,1-.21-.18,1.08,1.08,0,0,1-.27-.46,1.64,1.64,0,0,1,0-.54A2.36,2.36,0,0,1,.2,16a4.09,4.09,0,0,1,.18-.49,5.19,5.19,0,0,1,.5-.93,5.85,5.85,0,0,0-.48.93,4.83,4.83,0,0,0-.16.5,3,3,0,0,0-.08.52,1.49,1.49,0,0,0,.06.51.88.88,0,0,0,.26.43.83.83,0,0,0,.2.16,1.51,1.51,0,0,0,.22.11,2.15,2.15,0,0,0,.5.12,3,3,0,0,0,.52,0h.26l.26,0A4.35,4.35,0,0,0,3,17.83a2.83,2.83,0,0,0,.5-.13,1.19,1.19,0,0,0,.43-.23.6.6,0,0,0,.25-.38.63.63,0,0,0-.09-.44,1.1,1.1,0,0,0-.33-.35,1.05,1.05,0,0,0-.44-.18.61.61,0,0,0-.42.09.74.74,0,0,0-.25.37.76.76,0,0,0,0,.11l0,.12v.13a.5.5,0,0,0,0,.12,1.71,1.71,0,0,0,.18,1l0,0,0,.05a.61.61,0,0,1,.07.1l.08.09,0,0,0,0,0,0,.09.08.1.07.21.13a2.32,2.32,0,0,0,.94.27A3.75,3.75,0,0,0,7.09,18Z"/><path class="cls-1" d="M23.64,36.07s-.18,5.43,0,6.08c.24.92,4.94.9,4.85,0-.13-1.17-.13-6.06-.13-6.06"/><path class="cls-8" d="M23.64,36.07c0,1.45,0,2.91,0,4.36,0,.36,0,.72,0,1.08a4.71,4.71,0,0,0,.05.54s0,0,0,.06l0,0,.06.08a.94.94,0,0,0,.19.14,2,2,0,0,0,.49.17,3.18,3.18,0,0,0,.52.1,7.85,7.85,0,0,0,1.08.08,9.47,9.47,0,0,0,1.07,0,4.51,4.51,0,0,0,.53-.09,2.56,2.56,0,0,0,.49-.16.66.66,0,0,0,.18-.14.09.09,0,0,0,0-.08s0,0,0,0V42.1a4.93,4.93,0,0,1,0-.55c0-.36,0-.72,0-1.09,0-1.45,0-2.91,0-4.36.05,1.45.08,2.91.13,4.36,0,.18,0,.36,0,.54l0,.54c0,.18,0,.37,0,.54v.07a.27.27,0,0,1,0,.09.44.44,0,0,1-.07.17.72.72,0,0,1-.25.19,2.67,2.67,0,0,1-.54.19l-.54.09a10.32,10.32,0,0,1-1.11.06A8,8,0,0,1,25,42.85a4.86,4.86,0,0,1-.55-.1,2.62,2.62,0,0,1-.53-.2,1.05,1.05,0,0,1-.25-.18l-.09-.14a.31.31,0,0,1,0-.08s0,0,0-.07c0-.19,0-.37,0-.56,0-.36,0-.73,0-1.09,0-.73,0-1.46.05-2.18S23.59,36.8,23.64,36.07Z"/><path d="M28.65,42l-5.27-.34s.09,2.18.4,2.37c.81.52,2-.71,2.31-.56a3.52,3.52,0,0,0,1.73,1.06C28.59,44.63,28.65,42,28.65,42Z"/><path class="cls-1" d="M13,29.2c2.5,1.65-.84,12.15-1,12.86-.26,1-5.21,1-5.11,0C7,40.79,4,31.53,4,31.53"/><path class="cls-8" d="M13,29.2a1.3,1.3,0,0,1,.34.32,2.06,2.06,0,0,1,.25.4l0,.1a.36.36,0,0,0,0,.11,2,2,0,0,1,.07.23c0,.15.08.3.11.45a9,9,0,0,1,.1,1.87c0,.62-.08,1.25-.16,1.86s-.19,1.24-.3,1.85-.25,1.22-.39,1.83-.3,1.21-.46,1.81-.33,1.2-.51,1.8l-.06.22a.14.14,0,0,1,0,.06v0l0,0a.5.5,0,0,1-.08.12.74.74,0,0,1-.2.16,2.39,2.39,0,0,1-.22.12,4.39,4.39,0,0,1-.93.24c-.31,0-.62.07-.94.08s-.63,0-.94,0a6,6,0,0,1-.94-.12,2.42,2.42,0,0,1-.46-.13l-.23-.1a.78.78,0,0,1-.21-.16l0-.05,0,0,0,0,0-.07s0,0,0-.08v-.34s0-.08,0-.12v-.11l0-.11c0-.16-.05-.31-.08-.46s-.06-.3-.1-.45c-.13-.61-.28-1.21-.44-1.81s-.32-1.2-.49-1.8-.33-1.2-.5-1.8-.35-1.2-.52-1.79L4,31.53c.78,2.36,1.53,4.73,2.2,7.13.16.61.32,1.21.46,1.82,0,.15.07.3.1.45l.09.47,0,.11v.12s0,.08,0,.12v.36a.22.22,0,0,0,.06.14l.17.12.2.09a3,3,0,0,0,.43.12,7.06,7.06,0,0,0,.91.11c.31,0,.62,0,.92,0a7,7,0,0,0,.92-.09,3.78,3.78,0,0,0,.88-.22l.19-.1a.7.7,0,0,0,.16-.13l.05-.07v0l0,0,.06-.23c.18-.59.35-1.19.51-1.79.33-1.2.63-2.4.88-3.62q.19-.91.33-1.83c.09-.62.16-1.24.19-1.85a8.26,8.26,0,0,0-.06-1.86,3.58,3.58,0,0,0-.09-.45,2,2,0,0,0-.07-.23.42.42,0,0,0,0-.1l0-.11a1.6,1.6,0,0,0-.23-.4A1.29,1.29,0,0,0,13,29.2Z"/><path d="M6.67,41.9l5.59-.31s-.14,2.32-.46,2.53c-.85.56-2.14-.78-2.43-.62s-.78,1-1.83,1.17C6.73,44.78,6.67,41.9,6.67,41.9Z"/><path class="cls-15" d="M34.85,23.83a1.47,1.47,0,0,1-.19.4,1.58,1.58,0,0,1-.29.34c-.11.1-.22.2-.34.29l-.38.23a4,4,0,0,1-.83.34,2.52,2.52,0,0,1-.91.07,1.25,1.25,0,0,1-.46-.12l-.11-.05-.1-.06-.09-.06-.1-.06a3.17,3.17,0,0,1-.67-.65,2.43,2.43,0,0,1-.38-.87v-.06a.13.13,0,0,1,0-.06l0-.11v-.24a1.93,1.93,0,0,1,0-.24l0-.12a.5.5,0,0,1,0-.12l0-.11s0,0,0-.06l0-.06a1,1,0,0,1,.08-.23l.05-.11.06-.1.06-.11.07-.09a2.18,2.18,0,0,1,.73-.62,2.23,2.23,0,0,1,1.82-.09,3.2,3.2,0,0,1,.79.44,3.47,3.47,0,0,1,.63.64,2.57,2.57,0,0,1,.44.77A1.55,1.55,0,0,1,34.85,23.83Zm0,0a1.5,1.5,0,0,0-.07-.86,2.55,2.55,0,0,0-.44-.75,3.36,3.36,0,0,0-.65-.6,3.23,3.23,0,0,0-.78-.41,2.26,2.26,0,0,0-.86-.1,2,2,0,0,0-1.49.82l-.06.09-.06.1s0,.06-.05.09l0,.1a.9.9,0,0,0-.08.21v0s0,0,0,.05l0,.11s0,.07,0,.11v.11c0,.07,0,.14,0,.22v.22l0,.11v.05l0,.05a2.2,2.2,0,0,0,.33.81,3,3,0,0,0,.61.63l.09.06.09.06.09.06.1.06a1.45,1.45,0,0,0,.42.12,2.55,2.55,0,0,0,.87,0,4.12,4.12,0,0,0,.83-.3,3.85,3.85,0,0,0,.38-.23,2.88,2.88,0,0,0,.34-.27,1.81,1.81,0,0,0,.29-.33A1.47,1.47,0,0,0,34.83,23.82Z"/><path d="M31,24.24h0a.1.1,0,0,1-.07-.13c.32-1.07.81-1.7,1.46-1.87a2.35,2.35,0,0,1,2,.67.1.1,0,0,1,0,.14.09.09,0,0,1-.14,0,2.2,2.2,0,0,0-1.76-.62c-.57.15-1,.73-1.31,1.73A.12.12,0,0,1,31,24.24Z"/><path class="cls-1" d="M37.51,22.58s2.65.35,3.1-.28,1.11,3,.52,3.91c-.72,1.12-1.83,1.31-3.77.73S37.51,22.58,37.51,22.58Z"/><path class="cls-1" d="M37.51,22.58s2.65.35,3.1-.28,1.11,3,.52,3.91c-.72,1.12-1.83,1.31-3.77.73S37.51,22.58,37.51,22.58Z"/><path class="cls-8" d="M39.17,27.36A6.57,6.57,0,0,1,37.33,27a1.17,1.17,0,0,1-.77-.7c-.53-1.28.8-3.71.86-3.81l0-.06h.07c.72.09,2.67.23,3-.24a.22.22,0,0,1,.32-.07A3.47,3.47,0,0,1,41.42,24a4.48,4.48,0,0,1-.21,2.24,2.19,2.19,0,0,1-1.49,1.06A3.16,3.16,0,0,1,39.17,27.36Zm-1.61-4.67c-.2.39-1.25,2.49-.81,3.58a1,1,0,0,0,.64.57,6.4,6.4,0,0,0,1.78.32,2,2,0,0,0,1.87-1c.4-.64.19-2.75-.15-3.57-.1-.22-.16-.25-.16-.25s0,0,0,0C40.25,23,38.05,22.75,37.56,22.69Z"/><g class="cls-16"><path class="cls-1" d="M40.67,22s-1.65,5.89.38,5.51S41.62,22,40.67,22Z"/><path class="cls-8" d="M40.87,27.63a.71.71,0,0,1-.56-.24c-1-1,.21-5.24.26-5.42l0-.07h.08c.63,0,1.29,1.65,1.46,3.09s-.22,2.47-1.07,2.63Zm-.12-5.52c-.16.61-1.09,4.26-.29,5.14a.59.59,0,0,0,.57.16c1-.2,1-1.75.9-2.41C41.77,23.58,41.16,22.25,40.75,22.11Z"/></g><path class="cls-12" d="M41.05,24.92c0,.44-.11.79-.24.79s-.23-.35-.23-.79.11-.8.23-.8S41.05,24.48,41.05,24.92Z"/><path class="cls-1" d="M29.23,17.35s-5.56-3.36-8.4-1.76c-2.47,1.38-2.67,3.9-3.26,4.65-.37.45,3.05.23,3.66.65,2.09,1.47,2.66.51,4.6.64"/><path class="cls-8" d="M29.23,17.35a22,22,0,0,0-2.65-1.24c-.45-.17-.91-.33-1.37-.47a11.6,11.6,0,0,0-1.42-.31,6.86,6.86,0,0,0-1.43-.07,3.4,3.4,0,0,0-1.37.36,3.07,3.07,0,0,0-.31.17l-.15.1-.08,0-.07.05a4.79,4.79,0,0,0-.55.46,6,6,0,0,0-.9,1.11,8.66,8.66,0,0,0-.63,1.3l-.27.68c-.05.11-.09.22-.14.34a2.79,2.79,0,0,1-.19.33l-.05.08h0v0h0l.07,0,.34.07.72.07c.48,0,1,.06,1.46.11a6.52,6.52,0,0,1,.73.12l.18.07.09,0,.08.06.15.1.15.1a3.54,3.54,0,0,0,1.31.56,2.2,2.2,0,0,0,.36,0h.36q.36,0,.72-.09c.24,0,.49,0,.73-.06a5.93,5.93,0,0,1,.73,0,7,7,0,0,0-1.45.11l-.73.11h-.36a2.22,2.22,0,0,1-.37,0,3,3,0,0,1-.72-.21,4.48,4.48,0,0,1-.65-.34l-.16-.09L21.24,21l-.07,0-.08,0-.16,0a4.2,4.2,0,0,0-.71-.11c-.48,0-1-.06-1.46-.09-.24,0-.48,0-.73-.07a1.8,1.8,0,0,1-.38-.07l-.1-.05h0l0,0,0,0a.08.08,0,0,1,0-.05.13.13,0,0,1,0-.06s0,0,0,0,0,0,0,0l0,0,.05-.07a2.27,2.27,0,0,0,.17-.31,3.24,3.24,0,0,0,.13-.33l.27-.68a8.5,8.5,0,0,1,.65-1.32,5.78,5.78,0,0,1,.93-1.16,5.08,5.08,0,0,1,.57-.47l.08-.05.08,0,.15-.11.33-.18a3.82,3.82,0,0,1,1.44-.36,6.66,6.66,0,0,1,1.48.09,12.41,12.41,0,0,1,2.8.85c.45.19.89.39,1.33.61S28.81,17.09,29.23,17.35Z"/><path class="cls-13" d="M27.24,18.06s-4.77-2.28-6.15-1.42a5.52,5.52,0,0,0-2.65,3.17c-.06.34,2.9.29,3.26.69C23.36,22.36,28.93,19.21,27.24,18.06Z"/><path class="cls-15" d="M10.41,21.31c0,.78-1.3,1.16-2.07,1.16a1.4,1.4,0,1,1,0-2.79C9.11,19.68,10.41,20.54,10.41,21.31Z"/><path class="cls-15" d="M12.26,23.32c0,.49-.69.73-1.1.73a.89.89,0,0,1,0-1.76A1.32,1.32,0,0,1,12.26,23.32Z"/><path class="cls-17" d="M40.07,17.65a.68.68,0,0,0,0,.42h0c.08.61,1.6,1.4,1.6,1.4a5.15,5.15,0,0,0,.88-1s.31-.45.21-.77a.08.08,0,0,1,0,0h0s0,0,0,0a.74.74,0,0,0-.8-.56h0a1,1,0,0,0-.55.45.86.86,0,0,0-.72-.25h0a.66.66,0,0,0-.48.35"/><path class="cls-17" d="M42.15,12.65a1.05,1.05,0,0,0-.22.55h0c-.09.84,1.65,2.39,1.65,2.39a7.17,7.17,0,0,0,1.51-1.07s.56-.49.54-1v-.05h0a0,0,0,0,0,0,0,1,1,0,0,0-.86-1h-.05a1.36,1.36,0,0,0-.89.41,1.18,1.18,0,0,0-.87-.58h0a1,1,0,0,0-.75.31"/><path class="cls-17" d="M38,7.29a1.42,1.42,0,0,0,0,.79h0C38.14,9.2,41,10.48,41,10.48a9.3,9.3,0,0,0,1.5-2,2.08,2.08,0,0,0,.3-1.44.2.2,0,0,1,0-.07h0a.41.41,0,0,0,0-.08A1.36,1.36,0,0,0,41.23,6l-.06,0a1.87,1.87,0,0,0-1,.88,1.56,1.56,0,0,0-1.35-.39h0a1.23,1.23,0,0,0-.83.7"/></svg>