<svg  xmlns="http://www.w3.org/2000/svg" viewBox="0 0 300 60">
<defs><style>.cls-1{fill:#c01918;}.cls-2{fill:black}.dark_theme .cls-2{fill:white}</style></defs>
<title>impulso_logo</title>
<path class="cls-2" d="M7.64,5.12a1.83,1.83,0,0,1,1.73,2.1q.57,2.7.75,0c.13-.37.45-.55,1-.55q.18,2.67,3.82,1.9c0,.9-.9,1.35-2.69,1.35L13,11.24a9,9,0,0,0,.77,1.53l.18.57,1.15,2.1.2.57.95,1.92.19.58,1.33,2.1h.77v.95H11.66l-1.15.2c-.13,1.9-.64,2.85-1.54,2.85q-3.63-5.16-8-.76H0A10.6,10.6,0,0,0,0,21H.77A9.6,9.6,0,0,0,2.3,18.69l2.29-4a7.47,7.47,0,0,0,1-1.92l.38-.58q-2.67,2.3-2.1-1.9c0-1,.07-2.29.2-3.82l.18-1A5.37,5.37,0,0,0,7.64,5.12Zm5,21.21c.77-.12,1.15.2,1.15,1q-4.22,2.87-2.67,7.84.38-5.71,1.7,1v5.74c.13,1.9-.18,2.6-.95,2.1V50l.38,1.53.19,1.32v2.5l-2.47-.2a15.33,15.33,0,0,0-.4-4.6,9.59,9.59,0,0,1-2.27,2.3l.37,2.5H6.49q-.57-2.88-.19,0H5.15l-.56-2.1a2,2,0,0,0,1.13-2.7q.41-1.69-3.62-.95c0-.88,1.21-1.65,3.62-2.29a1.53,1.53,0,0,0-1.52-2.1,1.87,1.87,0,0,1,1.34-1.73L5,43.14l-.2-4.77L4.4,37V35.69l.19-.77h.56q1.54,4.8.77,0v-4a4.66,4.66,0,0,0,.38-2.29l.19-.58c1.15,0,1.73.89,1.73,2.67Q8.4,24,9.37,29l.57.2a12.19,12.19,0,0,1,2.28-2.47ZM6.49,13.54a5,5,0,0,1-1.14,2.3,10.06,10.06,0,0,1-.76,1.52l-.19.57L3.05,20a3.57,3.57,0,0,0,2.49-3.62A4.32,4.32,0,0,0,6.49,13.54ZM5,9.92c-.38,1-.29,1.3.29.85S5.74,10,5,9.92Zm.18-3.45c-.75,2.3-.05,2.3,2.12,0ZM9.37,46a7,7,0,0,1-2.3,2.3C9.37,48.69,10.13,47.92,9.37,46ZM8.22,49.46l-1.15.37q0,2.1,1.9-.37ZM7.64,18.69c-.13,1,.38,1.27,1.53.77A4.25,4.25,0,0,1,7.64,18.69Zm.58,3.07.95,1.14C9.3,22.14,9,21.76,8.22,21.76Zm2.47,17v6.9l.2.75V39.52Zm.4,12.82a4.75,4.75,0,0,1-.2,2.27l.2.4A4.83,4.83,0,0,0,11.09,51.56Zm0-41.09.18,9a8.59,8.59,0,0,0,4.39,0l-1.52-2.87-.2-.58-1.15-2.1-.18-.57a1.93,1.93,0,0,1-.39-.75Z"/><path d="M29.73,5h1a15.62,15.62,0,0,0,3.13,9.21c.84-.28,1.54.07,2.1,1a2,2,0,0,1,.2,2.3L39.34,23,40,24.25l2.29,6.05L42.89,32a14.73,14.73,0,0,0,1.46-6.69,1.35,1.35,0,0,1,1.26.84,25.68,25.68,0,0,0,1.88-2.94l1.88-3.14h1v1.07l-2.91,4.79A20,20,0,0,1,46,28.21l1,2.51a21.64,21.64,0,0,0,4.17-9.83,11.66,11.66,0,0,0,2.3-4.37,22.55,22.55,0,0,0,4.6-10.67h1a8.08,8.08,0,0,0,1.68,2.94,15.4,15.4,0,0,0,1,3.75l.22.84.2.42L63,15.88q0-9,1.66-2.92l1.48,5.22.2,1.48.84,2.69.2.84.22,1.06.42,2.3.2.82L69,28a30,30,0,0,0,.84,6.27v1l.42,1.26.2,1.24.42,12.12a15.15,15.15,0,0,1,.42,5l-1-.2a13.22,13.22,0,0,1-.42-4.82l-.22-.84a1.33,1.33,0,0,0-1.45-1.26l-.62-3.11-.22-1.06-.2-1.26-.22-.82a8.76,8.76,0,0,0-.62-2.94l.2,1.46.22,1.68v1.26l.2.42.22,2.3.2,1.65a25.71,25.71,0,0,0,.64,4v1a6.23,6.23,0,0,1-2.3.42V48.07l-.22-2.3v-4.4L65,39.49l-.2-.84L64,33.44,63.57,32l-.2-1.26L63,25.91l-.22-.84-1.26-4.79-.2-1,.62,12.32h-1l-.42-7.31L60.24,22,60,20.89V17.76l-.19-.82a3.72,3.72,0,0,0-1.46,1l-2.1,5.85a11.08,11.08,0,0,1-.73,2,23.51,23.51,0,0,0-1.15,3.45,1.08,1.08,0,0,0-.22.81l-.42.84-.2.84-.62,2.3-.22,1L52.5,37l-1.06.4c0-1,.08-2.23.22-3.76l-.22-1.26q-1.65,5.43-1.65-1.24l-.22-.22-.42,2.52L49,34.7,48.33,37v.62l-.42,1.26v3.33H46.85V38.88l-.2-1.68-.22-.42a12.77,12.77,0,0,0-.2,6.89c-1,.15-1.6-.34-1.88-1.46-.28,1-.84,1.32-1.68,1a1.4,1.4,0,0,1-1.26.64,12.16,12.16,0,0,0-.42-4.4l.23-1.67a7.3,7.3,0,0,0-.42-2.3,13.07,13.07,0,0,1-1.26-2.08l-1.46-2.3a12.16,12.16,0,0,1-4.4-3.77v-.82h1.68a25.4,25.4,0,0,1-2.72-4l-.42-.42-1-1.68-.42-.42-.62-1,.2,4.81.42,2.3L31,27.79V33l.2,1V41h-1a21.33,21.33,0,0,0-.84-3.33l-.64-2.3v5.21a1.43,1.43,0,0,0-.62,1.26l-.2,5.86H26.79a20.41,20.41,0,0,1-.42-4.4l-.2-.42v-4.6L26,37.4l-.22,2.32-.2,1.45-.22,1.46-.2.84v1.46a7.36,7.36,0,0,0-.42,2.72H23.65l-.2-5.44.2-1.46.22-1,.2-1.26L24.29,37l.2-1.68a12.27,12.27,0,0,0,.22-2.1l.42-1.46c.14-1.66.2-3,.2-4.06s.08-3.1.22-6.17l.2-.41V20.05a5,5,0,0,0,.84-2.91l-.22-3.34a10.62,10.62,0,0,1-2.5-4.39,3.59,3.59,0,0,1,2.5,1.88q-.61-4.8,1.68-5.22a3.25,3.25,0,0,0,1,2.3ZM28.67,28a8.49,8.49,0,0,0,.64,4.79A21,21,0,0,0,28.67,28ZM31.61,16.1a13.53,13.53,0,0,0,2.29,5l-2.1-4.4ZM36,19.66A10,10,0,0,0,37.66,24l1.26,3.34a17.72,17.72,0,0,0,1.26,2.51,14.19,14.19,0,0,0-1.06-3.13v-.62l-1-2.52-.42-.42a13.17,13.17,0,0,0-1.26-2.3Zm8.13,12.1a5.93,5.93,0,0,0-.42,3.76A4.31,4.31,0,0,0,44.13,31.76Zm1.26-1.46a7.3,7.3,0,0,0,.42,2.3A3.43,3.43,0,0,0,45.39,30.3ZM64,15.68v4.18l2.1,6.05a8.54,8.54,0,0,0,.82,2.3,10.88,10.88,0,0,0-.62-3.34v-.62ZM69.2,38.46c.15,1.53.22,2.78.22,3.75l.62,2.1a8.9,8.9,0,0,0-.42-3.78l-.2-1Z"/><path class="cls-1" d="M78.76,4.81h1Q80.36,8,85.88,6.4,87.07,9.16,92,8.17c.65,1.31,2.22,2.23,4.73,2.76a4.16,4.16,0,0,1,2.56-1.17c-.27,1.84.72,3.09,3,3.73a3.55,3.55,0,0,1,2.38-1.17l.2,2.57,4.33,3.95,1.19,1.37,1-.2,2.76,3.18q1.77,7.29-4.15,8.48A11.14,11.14,0,0,1,106.22,34l-.4.4-2.16-.2-2.36.39a9.58,9.58,0,0,0-2.19.2h5.94v1l-3.16.2a32.91,32.91,0,0,0-4.75.59,9.74,9.74,0,0,0-2.56.38h-.79L91,37.4l-1.39.29a4.25,4.25,0,0,0-.79.3,4.74,4.74,0,0,1,.79,2.17,3.5,3.5,0,0,1-2.36-2,2.36,2.36,0,0,1-1.19,1.39v3.56l.19,1.37v5.34c-.91.52-1.17,1.57-.79,3.16,2.12,0,3.18.46,3.18,1.37a14.54,14.54,0,0,1-4.55.6l-.4.2H82.12a2.5,2.5,0,0,0-.57-1.39l-3.76-.2v-1q5.13-1.4,4.33-5.35c-.91.13-1.24.8-1,2-.66.91-1.06.65-1.19-.8l-.2-5.52c0-1.59.06-3.64.2-6.14V33.44l.2-1a2.87,2.87,0,0,1-1.48-3A12.92,12.92,0,0,1,79.76,25V18.84l-2.37-.4H76.8a5.25,5.25,0,0,1,.79-5.52q-4.55.38-4-3.16a12.61,12.61,0,0,1,3.36-3,4.83,4.83,0,0,1,1.19-1.17ZM77,10.53l-2.17.4c2,1.46,3.16,1.33,3.56-.4Zm0-1.76a2.31,2.31,0,0,1-.8.79Q80,9.75,77,8.77Zm1.19,5.32a4.3,4.3,0,0,0-.4,3.16A6.12,6.12,0,0,0,78.19,14.09Zm3.16-5.52L80,9c.53.78,1.19.64,2-.4ZM82,52l-1.4.79C82.13,53,82.59,52.68,82,52ZM82,21.4a17.91,17.91,0,0,0,1.36,8.51A17.91,17.91,0,0,0,82,21.4ZM83.71,8.77l-1.39,1.37c.66,0,1.06.39,1.19,1.19C85.49,10.67,85.55,9.81,83.71,8.77Zm1.77,4.15-2.17,2.16.2,3.16,1,3.36.2,1.19.39,2a8.08,8.08,0,0,1,.38,2.56,12.63,12.63,0,0,1,.2,2.39l.2.37.2,1.59a28.82,28.82,0,0,0,4.94,0h5.13l1-.19h3.76l3.16-1.4a3.27,3.27,0,0,0,.39-2.76,10.87,10.87,0,0,0-.59-4.53,2.8,2.8,0,0,1-2.37,2.37,15,15,0,0,0,0-3.56l.2-1.39a12.71,12.71,0,0,0-3-2.76A4.91,4.91,0,0,1,96,19a6.56,6.56,0,0,1,.8-3,7.53,7.53,0,0,0-2-1.39l-2.39,3.16-.37.39H90.83c0-1.06.06-2.37.19-3.95V13.12ZM84.11,50.63a2,2,0,0,0,0,2.38A3.57,3.57,0,0,0,84.11,50.63Zm.4-13.43A7.69,7.69,0,0,0,85.1,41,7.61,7.61,0,0,0,84.51,37.2Zm.2-7.29a2,2,0,0,0,0,1.76Zm1.56-20,.2.59C86.74,10.27,86.67,10.07,86.27,9.94Zm1,23.9.6,1h6.71l.4-.39A34.8,34.8,0,0,1,87.27,33.84Zm1-22.91-.59.4C88.84,11.33,89,11.2,88.26,10.93Zm-.2,24.9.6,1,3.16-1Zm1.77-25.69c.66.53,1.06.53,1.19,0l-1.19-.38C89.7,9.88,89.7,10,89.83,10.14Zm2.36,3.16c-.51,2.76,0,3,1.4.59Zm0-2.77c.4,1.06,1.2,1.33,2.39.8A12.33,12.33,0,0,1,92.19,10.53Zm8.11,6a14.53,14.53,0,0,0,2,2.36C102.67,17.78,102,17,100.3,16.48Zm5,3.93A8.11,8.11,0,0,0,107.61,26l1-1.39-2-2.56-.4-.4-.59-1Zm.2,4.75a7.12,7.12,0,0,0,.37,3.16A2.44,2.44,0,0,0,105.45,25.16Zm2,4.75-.79,1A.92.92,0,0,0,107.41,29.91Zm.8-9.3-.6.2a7.18,7.18,0,0,0,2,2.56C110.24,22.19,109.79,21.27,108.21,20.61Zm.77,7.71a2.69,2.69,0,0,0-.17,1.76A2.66,2.66,0,0,0,109,28.32Zm4-4.36a6.58,6.58,0,0,1-.6,2.59v2.36l.2.4A7.37,7.37,0,0,0,112.94,24Z"/><path class="cls-1" d="M155.43,5h1.15q0,4.38,2.54,5.06a5.54,5.54,0,0,0,.22,2.76v6.9l.25,1.14V43.43a1.9,1.9,0,0,1-1.39.46c-1.23,2-.76,3.22,1.39,3.69v1.15H158a5.89,5.89,0,0,1-3.22,2.76c1.22-.16,1.91.29,2.08,1.37a13.27,13.27,0,0,0-8.07,1.83h-1.59a2.16,2.16,0,0,1,.91-1.83h-1.61v1.61h-6.9l-.68-.22L131.75,54l-4.81-2.3-.25-.46c.77,3.22,0,4.68-2.29,4.37q1.14-6.43-5.53-4.59c-.14-3.23-2.06-4.61-5.74-4.16V45.72a9.75,9.75,0,0,0,4.13-.44,4.83,4.83,0,0,1-.9-4.62,3.15,3.15,0,0,0,2-.22,5.2,5.2,0,0,1,0-3l-3.44.22a15.53,15.53,0,0,1,3-5.74V29.86l-1.61.69c0-1.22-.7-1.75-2.08-1.59A37.33,37.33,0,0,1,117,8.48a4.66,4.66,0,0,1,3-1.83l.25,3,1.37.24v2.52a8.27,8.27,0,0,1,.46,5.52h.69a27.87,27.87,0,0,1-.47,6.89v.69l-.44,1.85v5.28a2.89,2.89,0,0,1,.68,2.54h5.06q2.3,1.85-.93,4.36a3.26,3.26,0,0,1,2.08,3.69A2.32,2.32,0,0,1,129.92,45c2.61.46,2.83,1.38.68,2.76q-6.42.47-.22,1.15a17.66,17.66,0,0,1,7.58-.22l.46-.25c-.76,0-1.14-.45-1.14-1.36h13.34l1.15-.25,1.37-3c0-1.07.08-3.3.24-6.67l.22-.47V35.61l.22-.69V33.77a8,8,0,0,0,.47-3l.46-2.54a12.6,12.6,0,0,1,.46-3V21.82a14.54,14.54,0,0,0,.22-2.76v-.93a11.27,11.27,0,0,0-.22-3.91V11.46C155.21,10.4,155.29,8.26,155.43,5Zm-38.17,6.9-1.83,6-.22,6.21-.24.46V26l.68,1.86,1.86-5.06a19.56,19.56,0,0,1,0-10.36ZM118,34.7l-.71,1.15C117.88,35.85,118.12,35.47,118,34.7Zm-.24,7.11a2.34,2.34,0,0,0,.68,2.54A2.36,2.36,0,0,0,117.73,41.81Zm2.54,2.32a3.84,3.84,0,0,0,3,.69A5.74,5.74,0,0,0,120.27,44.13Zm.46-4.83c.15,1.67.91,1.9,2.3.68A7.82,7.82,0,0,0,120.73,39.3Zm1.37-3c-.91,1.37-.53,2.06,1.15,2.06a3,3,0,0,0,3.91-2.06Zm3.23,4.13q-3.45,1.62-1.4,2.54a1.08,1.08,0,0,1,1.15-.7l.69.93a4.09,4.09,0,0,1,1.17-2.08Zm18.84,8.29a5,5,0,0,0,4.15,0Zm6.21,0,.46.68C151.46,48.79,151.3,48.57,150.38,48.73Zm3,0-.93,1.61C153.53,50.34,153.84,49.8,153.38,48.73ZM155,37.22l-.22,3.44.22.47A8.33,8.33,0,0,0,155,37.22Z"/><path class="cls-1" d="M168,4.92c.84,0,1.26.64,1.26,1.9a2.3,2.3,0,0,1,2.54-1.9v7.6l.22.84q1.49-5.05,1.9-.84v5.92l.2.42-.2,12.24-.22,1.06V42.3a1.23,1.23,0,0,0-.64,1.06,10.48,10.48,0,0,0,2.34,5.5c1.27-.57,1.19-1.07-.22-1.48-.56-.71-.35-1.13.64-1.28l.62-.42c-1-1-.84-1.69.44-2.1V41h1q-.62,10.14,6.56.42l2.32-.22A13.76,13.76,0,0,0,190,47.16a22.22,22.22,0,0,0,5.7-1.9H190V44.2h4.86a10.47,10.47,0,0,1,3.8-.2h.64l2.54-.86,2.32-.2c.28,1,1,1.34,2.12,1.06l.2.62c-.28-2.53.14-3.8,1.26-3.8v3.8l-.2,1.48v3l-.22,1.7-.2,1.9q-1.29.42-1.06-4c-1.42,2.25-2.68,2.33-3.8.22l-1.06.42c-.71,1-1.06,2.67-1.06,5.06a6.88,6.88,0,0,1-3.38,0h-1.68a5,5,0,0,1-2.32-1.68h-3.8l-1.48-.22h-5.92c-1.41,0-1.91,1-1.48,3a5.64,5.64,0,0,1-4-3h-9.28a14.4,14.4,0,0,1-2.12-.2c-.28-.85.92-1.28,3.6-1.28l.42-4.22V46.1l.42-2.32.2-.84a15.85,15.85,0,0,0-1-5.08V32.8L168,32v-1.9a13.84,13.84,0,0,1-.22-2.76,1.21,1.21,0,0,0-.42-.84V24.78l-1.48-1.9v-4a15.94,15.94,0,0,1,.42-3.38l1.7-5.7Zm-.84,12a9.63,9.63,0,0,0,.2,5.28A22.92,22.92,0,0,0,167.18,17Zm3.38-7a10.32,10.32,0,0,0,.2,3.6V10.42Zm.84,38.44c-.15,1.13.27,1.49,1.26,1.06A1.84,1.84,0,0,1,171.4,48.42Zm1.26-33.58a20.42,20.42,0,0,0-.84,11,20.51,20.51,0,0,1,1.06-6.12V15.48Zm.42,33.38c-.13.84.15,1.12.86.84Zm3.82,1.48q-1.49,1.48,1.26.84A2,2,0,0,1,176.9,49.7Zm3.58.84-.42.42Q182.39,51,180.48,50.54Zm5.08-8-1.48,1.9L183,45.68a13.09,13.09,0,0,0,4-.2A9.48,9.48,0,0,1,185.56,42.52Zm13.3,7.6a10.09,10.09,0,0,1-5.28.84l-.42.22a4.68,4.68,0,0,0,2.1.42,1.43,1.43,0,0,1-.62,1.26l1.26.22Q200.12,54.34,198.86,50.12Zm1.26-5.06a8.57,8.57,0,0,0-1.68.84C203,45.47,203.5,45.19,200.12,45.06Zm5.5.84L203.72,47Q204.79,49.9,205.62,45.9Z"/><path class="cls-1" d="M257.17,5.06h1.15A17.07,17.07,0,0,1,257,11.24h6.41v1.37h-6.87A1.83,1.83,0,0,1,254.21,14a2.8,2.8,0,0,1-1.83,1.61q-2.3.45-2.3-3.2a16.23,16.23,0,0,1-4.57-.24l-1.15.68a1.42,1.42,0,0,1-.91-1.13,12.94,12.94,0,0,0-3,1.13,4.41,4.41,0,0,0-2.74.47l-1.61.46-1.37.22-.68.46,1.37,1.15.22,8.24a12,12,0,0,0,1.83.91L240,25.89a1.63,1.63,0,0,1,1.61-2.06,14.25,14.25,0,0,0,.91,2.74l1.61,6.63q0,.7.9.93a6.41,6.41,0,0,0,.69,3.66v1.84q3.45.43,1.15,4.33c.62,2.59-.61,3.81-3.67,3.66Q243,52,238.86,49.24l-1.81.68a15.64,15.64,0,0,1,1.59,5.26A21.36,21.36,0,0,1,222.4,49a5.39,5.39,0,0,1-4.35,2.3,13.22,13.22,0,0,0-.46-3.2c-.92,0-1.22.68-.91,2-1.07-.15-1.61-.91-1.61-2.3l-6.41-.44q.47-2.3,3.89-3l-.22-.91a1.86,1.86,0,0,1-2.08-1.14L208,45.79l-1.84-.22a14.59,14.59,0,0,1,2.3-10.07c1.06.14,1.75,1.06,2.06,2.73a4.33,4.33,0,0,0,2.05-2.51h1.15q-.69,4.35,2.52,3.2l.46.71q-.47-2.52,1.59-2.52l.22,2.74a17.38,17.38,0,0,0,5.72.46,11.3,11.3,0,0,0,5,1.13,9.47,9.47,0,0,0,1.15-3.89q2.06.24.93,3.89a1.28,1.28,0,0,1,1.12,1.39l-1.12.22q5.71.47,7.53-6.87l-3-4.11-.46-.46-.91-1.37-1.39-1.15-.44-.46-6-2.06a1.35,1.35,0,0,1-.9.91,3.5,3.5,0,0,0-3.43-1.37,3.71,3.71,0,0,0-3.2-1.59,4,4,0,0,1-.46-2.76,3.7,3.7,0,0,1-2.3.7,5.68,5.68,0,0,0-1.84-4.13q-2.5,5.73-2,0c-1.37.77-1.75-.23-1.15-3q-5.72-.22-1.59-4.57a14.41,14.41,0,0,1,7.31-1.37l.47.68.22-1.15,5.28-.22,1.12-.46a3.81,3.81,0,0,1,1.39.46l.45-.93,3.44-.9h.69l1.59-.46L233.38,6h3l.91-.24h3.2A3.68,3.68,0,0,1,240,7.35a18.93,18.93,0,0,1,4.57-.46H246l.22.68a11,11,0,0,1,5.5-2.27c-.76,2.28-.61,3,.45,2.05A14.41,14.41,0,0,0,257.17,5.06ZM208.44,37.79a11.09,11.09,0,0,0-.24,5A3.78,3.78,0,0,0,208.44,37.79ZM212.33,46a.62.62,0,0,0,.44.22Zm4.57-.93c-.15,1.54.08,1.69.69.47Zm2.3,2.74q-.24,3.45,2.05,0Zm3.2-4.57a5.56,5.56,0,0,1-2.52,1.37A11.24,11.24,0,0,1,222.62,46l.47-.46C224.6,44.2,224.38,43.43,222.4,43.27Zm-.46-28.61c0,.92.23,1,.68.25Zm2.74.93a11.05,11.05,0,0,0-1.59,2.28Q225.82,23.59,224.68,15.59Zm-.69,33,3.21,2.74q14.18,5.51,7.77-1.15a19.45,19.45,0,0,1-10.76-1.83Zm.47-35.48a7,7,0,0,0,4.35,0Zm3,1.37-1.37.47c-.3,3.81.92,5.26,3.66,4.33a6.28,6.28,0,0,0,4.58,4.35Q236.36,13.51,227.42,14.44Zm-1.37,33a11.77,11.77,0,0,0,8,1.37,12.06,12.06,0,0,0-5.5-.68,2.48,2.48,0,0,0-1.84-.69Zm.24-3.44c.15.16.38.16.68,0Zm.22-21.06a4.22,4.22,0,0,0,3.89,1.84A12.88,12.88,0,0,0,226.51,22.9Zm8-15.79a25,25,0,0,1-4.82,1.15,21.21,21.21,0,0,0-2.05.68,5.71,5.71,0,0,1,2.74.25l.46-.25Q241.84,7.35,234.53,7.11ZM228.81,44.2l-1.15,1.37Q231.77,45.11,228.81,44.2Zm1.59-32.05a6.33,6.33,0,0,0,5.72,0A33.79,33.79,0,0,1,230.4,12.15Zm2.3,12.37a12,12,0,0,0,1.59,1.83C234.45,25.28,233.92,24.66,232.7,24.52Zm2.74,21.05a.32.32,0,0,0,0-.47A.3.3,0,0,0,235.44,45.57Zm.46-19.9v.9a7.65,7.65,0,0,0,3.42,1.15l.69.46A10.79,10.79,0,0,0,235.9,25.67Zm.46,2.73a15.35,15.35,0,0,0,3,2.28A3.18,3.18,0,0,0,236.36,28.4Zm3,14.87-1.59.93-.46.44a8.63,8.63,0,0,0,4.11.46C241.69,43.74,241,43.12,239.32,43.27Zm.69-3c-.77.75-.85,1-.23.79S240.46,40.61,240,40.31Zm1.61,7.53-.68.71C241.54,48.7,241.77,48.46,241.62,47.84ZM244.14,8a7.84,7.84,0,0,0-2.52.46A3.67,3.67,0,0,0,244.14,8Zm-.24,32.27-1.59,1.13Q244.82,43.74,243.9,40.31Zm-1.13-5a2.69,2.69,0,0,0,.68,2.28A5.37,5.37,0,0,0,242.77,35.27Zm.22,8.24c0,.76.3.76.91,0ZM248,8l-1.37.9A5.07,5.07,0,0,0,248,8Zm6.18,0-1.83.68A1.72,1.72,0,0,0,254.21,8Z"/><path class="cls-1" d="M287.63,4.81h.9A8.25,8.25,0,0,1,289,8.94a10.61,10.61,0,0,1,4.57,3.43,9.89,9.89,0,0,1,3.67-1.61,5.72,5.72,0,0,1-1.83,4.13q.68,4.35,4.13,3.88a2.83,2.83,0,0,1,.46,1.62q-5,4.11-2.08,5.47V27l-1.59.93a17.74,17.74,0,0,1-4.13,7.78,13,13,0,0,1,.47,5A3.59,3.59,0,0,1,289,39.38a14.24,14.24,0,0,0-1.59,3.43l-.24.46q-3.44,1.83-3.67,6.41c-.61.16-.94-.07-1-.68a3.92,3.92,0,0,0-.79-1.84l-3,2.3c-.77.45-1.38.84-1.84,1.15A1.26,1.26,0,0,1,278,52l-1.61.47a10,10,0,0,0-6.63.44c-.46.46-.54,1.22-.24,2.3a8.45,8.45,0,0,1-5-2.3l-1.83-.44a11,11,0,0,0-1.84-3.2l-.44-.71-2.07-.44A2.67,2.67,0,0,1,259.46,46l-1.59-5.26a8.25,8.25,0,0,0-.46-1.37V33l.22-.47v-5l.24-1.15v-.69a21.12,21.12,0,0,1,.91-3.66,7.84,7.84,0,0,1,.46-2.52l.22-1.37a15.59,15.59,0,0,1,8.49-8l.9-1.37L273,8.48l.45-.24,8.7-.22,2.52.22L286,6.65l1.15-1.37ZM258.56,35.94a5.52,5.52,0,0,0,.22,2.76A5.56,5.56,0,0,0,258.56,35.94Zm.22,3,1.83,6A8.71,8.71,0,0,0,258.78,38.92Zm2.05-15.33v5.94l.25.47A10.34,10.34,0,0,0,260.83,23.59Zm.93,20.83a4.2,4.2,0,0,0,.69,3A7.5,7.5,0,0,0,261.76,44.42ZM262,38a8,8,0,0,0,.93,3.67A9.09,9.09,0,0,0,262,38Zm.69-3.44a19.85,19.85,0,0,0,1.61,5.5A16.6,16.6,0,0,0,262.67,34.57Zm2.07-15.11q-3.44,2.76-.92,6.65A9.81,9.81,0,0,0,264.74,19.46Zm3-7.78q-4.35,2.75-4.57,7.09a11.54,11.54,0,0,1,2.74-1.83,18.27,18.27,0,0,1,.93-3.2A2.86,2.86,0,0,0,267.7,11.68Zm-4.35,31.81c-.45,1.23-.14,1.92.93,2.08A5,5,0,0,0,263.35,43.49Zm0,5.75a10,10,0,0,0,2.08,2.27,3.08,3.08,0,0,0-.69-1.83Zm19.24-36.65a4.39,4.39,0,0,0-.9,3.91,3.13,3.13,0,0,0-1.62,3c-.91.16-1.36-.91-1.36-3.2a13.75,13.75,0,0,0-3.89,3.2l-.47.24a11.89,11.89,0,0,1-3,2.06,11.12,11.12,0,0,0-2.27,1.83v3H268l-.25-1.83a13.2,13.2,0,0,0-.9,7.09,5.15,5.15,0,0,1-2.74-1.61,17.54,17.54,0,0,0,1.13,7.11,9.89,9.89,0,0,1,3.91.9A4.62,4.62,0,0,1,273,37.09c1.23.16,1.84,1.31,1.84,3.44Q280.3,38,280.3,29.77h1.14l.25,5.73c2.13-1.08,3.35-3.14,3.64-6.19a8,8,0,0,0,3.91-2.3c-1.53.17-2.3-.29-2.3-1.37q5-1.59,2.52-6.87a2.78,2.78,0,0,1-1.61.47,10,10,0,0,1,.68-3.45l-.68-.9-3.64.22L284,13.74c0,.62-.38.92-1.15.92A3.2,3.2,0,0,0,282.59,12.59ZM265.65,41.22c-.15.91.24,1.37,1.15,1.37A3.59,3.59,0,0,1,265.65,41.22Zm.22-2.52A13.16,13.16,0,0,1,267.26,41l.69.71Q268.85,38.92,265.87,38.7Zm.24,5.26c-.31,1.37.22,1.82,1.59,1.37A11.13,11.13,0,0,1,266.11,44Zm1.15,6.65.91,1.36q2.29-1.14-.69-1.61Zm3.89-38.71a2.91,2.91,0,0,0-.93.93Q273.9,11.9,271.15,11.9Zm4.11,4.36a18.11,18.11,0,0,0-5,4.35l1.39-.91a14.36,14.36,0,0,0,3.89-3.2l.44-.24Zm-3.2,22a5.08,5.08,0,0,0-1.84.93,6.31,6.31,0,0,1,1.84,2.52l.68-.46C273.67,40,273.44,39,272.06,38.23Zm-.91,8.49q-2.29,1.8,1.83,3.2A5,5,0,0,0,271.15,46.72Zm.22-30.93c-.91.31-1.21,1-.9,2.08A2.92,2.92,0,0,0,271.37,15.79Zm1.83-5.26a4.83,4.83,0,0,0,3.21,1.15A16.39,16.39,0,0,0,273.2,10.53Zm2.3,3.21q-5.28,2.76,1.59.92ZM276.65,41a5.39,5.39,0,0,0-2.52,2.3C275.65,43.42,276.49,42.65,276.65,41ZM275.5,47.4l.91,1.13.24.46Q280.07,47.4,275.5,47.4Zm1.37-37.09A3.37,3.37,0,0,1,278,11.68C278.31,10.77,277.93,10.31,276.87,10.31Zm1.84,33.89-1.37.44C278.4,45,278.85,44.8,278.71,44.2Zm2.51-.71-.68.71c.45,1.21-.08,1.81-1.61,1.81l.68.93A2.67,2.67,0,0,0,281.22,43.49Zm-.68-3.42-1.37.9Q281.69,44.89,280.54,40.07Zm3,2.3-.91.68Q283.28,45.33,283.5,42.37Zm2.76-1.4a2.22,2.22,0,0,0-.93,1.84A2.17,2.17,0,0,0,286.26,41Zm-.69-28.38c0,1.07.46,1.38,1.37.93Zm.23-3a2.83,2.83,0,0,0,2.05,1.83A2.71,2.71,0,0,0,285.8,9.63Zm1.83-2.52-.91,1.13C287.78,8.71,288.09,8.33,287.63,7.11Zm1.61,3.42c-.31,1.23-.08,1.3.69.23Zm.44,24.28q-.9,3,.69.69Zm1.37,2.06-.9,1.36Q292.45,40.75,291.05,36.87Zm2.3-22.45-1.15.93q-.43,2.74,1.61-.69Zm.93,14-1.61.93Q292.21,37.54,294.28,28.38Zm-1.15-1.59-.24.47C294.73,27.09,294.81,26.94,293.13,26.79ZM295,19.92c-1.22.46-1.68,1.45-1.39,3l2.08-1.14A1.72,1.72,0,0,0,295,19.92Zm.22,3.67c-1.67.46-2.06,1.14-1.14,2.05C295.41,25.5,295.79,24.81,295.18,23.59Zm-.46-6.19a1,1,0,0,0,.24,1.37Zm2.3,2.52c-.15,1.37.31,1.37,1.37,0Z"/></svg>