<svg id="impulso_logo_svg" data-name="impulso_logo_svg" xmlns="http://www.w3.org/2000/svg" viewBox="0 0 300 200"><defs><style>.cls-1{fill:#c01918;}</style></defs><title>impulso_logo</title><path d="M7.64,63.38a1.83,1.83,0,0,1,1.73,2.1q.57,2.7.75,0c.13-.37.45-.55,1-.55q.18,2.67,3.82,1.9c0,.89-.9,1.34-2.69,1.34L13,69.5A8.62,8.62,0,0,0,13.76,71l.18.58,1.15,2.1.2.57.95,1.92.19.58,1.33,2.1h.77v.95H11.66L10.51,80c-.13,1.9-.64,2.85-1.54,2.85q-3.63-5.14-8-.75H0a10.6,10.6,0,0,0,0-2.87H.77a9.49,9.49,0,0,0,1.53-2.3l2.29-4a7.39,7.39,0,0,0,1-1.93l.38-.57q-2.67,2.3-2.1-1.9c0-1,.07-2.29.2-3.82l.18-1A5.37,5.37,0,0,0,7.64,63.38Zm5,21.21c.77-.12,1.15.2,1.15,1q-4.22,2.86-2.67,7.84.38-5.73,1.7,1v5.74c.13,1.9-.18,2.6-.95,2.1v6.12l.38,1.52.19,1.33v2.5l-2.47-.2a15.33,15.33,0,0,0-.4-4.6,9.59,9.59,0,0,1-2.27,2.3l.37,2.5H6.49q-.57-2.88-.19,0H5.15l-.56-2.1a2,2,0,0,0,1.13-2.7q.41-1.7-3.62-1c0-.88,1.21-1.65,3.62-2.3A1.52,1.52,0,0,0,4.2,103.5a1.87,1.87,0,0,1,1.34-1.73L5,101.4l-.2-4.77L4.4,95.28V94l.19-.77h.56q1.54,4.8.77,0v-4a4.68,4.68,0,0,0,.38-2.3l.19-.57c1.15,0,1.73.89,1.73,2.67q.18-6.69,1.15-1.72l.57.2A12.48,12.48,0,0,1,12.22,85ZM6.49,71.8a4.94,4.94,0,0,1-1.14,2.29,9.63,9.63,0,0,1-.76,1.53l-.19.57-1.35,2.1a3.57,3.57,0,0,0,2.49-3.62A4.32,4.32,0,0,0,6.49,71.8ZM5,68.17c-.38,1-.29,1.3.29.85S5.74,68.29,5,68.17Zm.18-3.44c-.75,2.3-.05,2.3,2.12,0Zm4.22,39.54a7,7,0,0,1-2.3,2.3C9.37,107,10.13,106.18,9.37,104.27Zm-1.15,3.44-1.15.38q0,2.1,1.9-.38ZM7.64,76.94q-.19,1.53,1.53.78A4.28,4.28,0,0,1,7.64,76.94ZM8.22,80l.95,1.15C9.3,80.4,9,80,8.22,80Zm2.47,17v6.89l.2.75V97.77Zm.4,12.81a4.78,4.78,0,0,1-.2,2.28l.2.4A4.86,4.86,0,0,0,11.09,109.81Zm0-41.08.18,9a8.59,8.59,0,0,0,4.39,0l-1.52-2.87-.2-.58-1.15-2.1-.18-.57a1.93,1.93,0,0,1-.39-.75Z"/><path d="M29.73,63.27h1a15.62,15.62,0,0,0,3.13,9.21c.84-.28,1.54.07,2.1,1a2,2,0,0,1,.2,2.3l3.14,5.43L40,82.51l2.29,6,.64,1.68a14.76,14.76,0,0,0,1.46-6.69,1.35,1.35,0,0,1,1.26.84,25.68,25.68,0,0,0,1.88-2.94l1.88-3.14h1v1.06l-2.91,4.8A19.17,19.17,0,0,1,46,86.46l1,2.52a21.64,21.64,0,0,0,4.17-9.83,11.66,11.66,0,0,0,2.3-4.37,22.55,22.55,0,0,0,4.6-10.67h1a8.08,8.08,0,0,0,1.68,2.94,15.52,15.52,0,0,0,1,3.75l.22.84.2.42L63,74.14q0-9,1.66-2.92l1.48,5.22.2,1.48.84,2.69.2.84.22,1.06.42,2.3.2.81.83.65a30,30,0,0,0,.84,6.27v1l.42,1.26.2,1.23.42,12.13a15.13,15.13,0,0,1,.42,5l-1-.2a13.22,13.22,0,0,1-.42-4.82l-.22-.84a1.33,1.33,0,0,0-1.45-1.26L67.55,103l-.22-1.06-.2-1.26-.22-.82a8.76,8.76,0,0,0-.62-2.94l.2,1.46.22,1.68v1.26l.2.42.22,2.3.2,1.65a25.92,25.92,0,0,0,.64,4v1a6.23,6.23,0,0,1-2.3.42v-4.8L65.45,104v-4.4L65,97.75l-.2-.84L64,91.7l-.42-1.46L63.37,89,63,84.17l-.22-.84-1.26-4.8-.2-1,.62,12.32h-1l-.42-7.31-.19-2.3L60,79.15V76l-.19-.82a3.72,3.72,0,0,0-1.46,1l-2.1,5.85a11.08,11.08,0,0,1-.73,2,22.9,22.9,0,0,0-1.15,3.44,1.12,1.12,0,0,0-.22.82l-.42.84-.2.84-.62,2.3-.22,1-.2,1.9-1.06.39c0-1,.08-2.22.22-3.75l-.22-1.26q-1.65,5.43-1.65-1.24l-.22-.22-.42,2.52L49,93l-.62,2.3v.61l-.42,1.26v3.34H46.85V97.13l-.2-1.67L46.43,95a12.77,12.77,0,0,0-.2,6.89c-1,.14-1.6-.34-1.88-1.46-.28,1-.84,1.32-1.68,1a1.4,1.4,0,0,1-1.26.64,12.16,12.16,0,0,0-.42-4.4l.23-1.68a7.29,7.29,0,0,0-.42-2.29,13.07,13.07,0,0,1-1.26-2.08l-1.46-2.3a12.1,12.1,0,0,1-4.4-3.78v-.81h1.68a25.4,25.4,0,0,1-2.72-4l-.42-.42-1-1.68-.42-.42-.62-1,.2,4.82.42,2.3L31,86v5.24l.2,1v6.89h-1a21.71,21.71,0,0,0-.84-3.34l-.64-2.29v5.21a1.43,1.43,0,0,0-.62,1.26l-.2,5.85H26.79a20.25,20.25,0,0,1-.42-4.39l-.2-.42v-4.6l-.2-.84L25.75,98l-.2,1.46-.22,1.46-.2.84v1.46a7.3,7.3,0,0,0-.42,2.71H23.65l-.2-5.43.2-1.46.22-1,.2-1.26.22-1.45.2-1.68a12.27,12.27,0,0,0,.22-2.1L25.13,90c.14-1.66.2-3,.2-4.06s.08-3.1.22-6.17l.2-.42V78.31a5,5,0,0,0,.84-2.91l-.22-3.34a10.62,10.62,0,0,1-2.5-4.39,3.6,3.6,0,0,1,2.5,1.87q-.61-4.79,1.68-5.21a3.25,3.25,0,0,0,1,2.3Zm-1.06,23a8.49,8.49,0,0,0,.64,4.79A21,21,0,0,0,28.67,86.27Zm2.94-11.91a13.41,13.41,0,0,0,2.29,5L31.8,75ZM36,77.92a10,10,0,0,0,1.66,4.37l1.26,3.33a17.35,17.35,0,0,0,1.26,2.52A14,14,0,0,0,39.12,85v-.62l-1-2.52-.42-.42a13.17,13.17,0,0,0-1.26-2.3ZM44.13,90a5.93,5.93,0,0,0-.42,3.76A4.31,4.31,0,0,0,44.13,90Zm1.26-1.46a7.3,7.3,0,0,0,.42,2.3A3.43,3.43,0,0,0,45.39,88.56ZM64,73.94v4.17l2.1,6.06a8.49,8.49,0,0,0,.82,2.29,10.87,10.87,0,0,0-.62-3.33v-.62ZM69.2,96.71c.15,1.54.22,2.79.22,3.76l.62,2.1a8.9,8.9,0,0,0-.42-3.78l-.2-1Z"/><path class="cls-1" d="M78.76,63.07h1q.6,3.17,6.12,1.59,1.19,2.76,6.14,1.77c.65,1.31,2.22,2.23,4.73,2.76A4.16,4.16,0,0,1,99.31,68q-.41,2.76,3,3.73a3.46,3.46,0,0,1,2.38-1.17l.2,2.56,4.33,4,1.19,1.37,1-.2,2.76,3.18q1.77,7.29-4.15,8.48a11.14,11.14,0,0,1-3.76,2.37l-.4.39-2.16-.2-2.36.4a9.58,9.58,0,0,0-2.19.2h5.94v1l-3.16.19a34.16,34.16,0,0,0-4.75.6,9.74,9.74,0,0,0-2.56.38h-.79L91,95.65l-1.39.3a4.25,4.25,0,0,0-.79.3,4.74,4.74,0,0,1,.79,2.17,3.52,3.52,0,0,1-2.36-2,2.36,2.36,0,0,1-1.19,1.39v3.56l.19,1.37v5.34c-.91.52-1.17,1.57-.79,3.16,2.12,0,3.18.46,3.18,1.37a14.54,14.54,0,0,1-4.55.6l-.4.2H82.12a2.53,2.53,0,0,0-.57-1.4l-3.76-.19v-1c3.42-.92,4.86-2.71,4.33-5.34-.91.13-1.24.79-1,2-.66.91-1.06.64-1.19-.8l-.2-5.52c0-1.59.06-3.64.2-6.14V91.7l.2-1a2.87,2.87,0,0,1-1.48-3,12.92,12.92,0,0,1,1.08-4.54V77.1l-2.37-.4H76.8a5.25,5.25,0,0,1,.79-5.52q-4.55.38-4-3.16A12.44,12.44,0,0,1,77,65a4.83,4.83,0,0,1,1.19-1.17ZM77,68.79l-2.17.4c2,1.46,3.16,1.33,3.56-.4ZM77,67a2.31,2.31,0,0,1-.8.79Q80,68,77,67Zm1.19,5.32a4.3,4.3,0,0,0-.4,3.16A6.13,6.13,0,0,0,78.19,72.35Zm3.16-5.52L80,67.22c.53.78,1.19.65,2-.39Zm.6,43.45-1.4.79C82.13,111.21,82.59,110.94,82,110.28Zm0-30.62a17.93,17.93,0,0,0,1.36,8.51A17.91,17.91,0,0,0,82,79.66ZM83.71,67l-1.39,1.36c.66,0,1.06.4,1.19,1.2C85.49,68.92,85.55,68.07,83.71,67Zm1.77,4.15-2.17,2.16.2,3.16,1,3.36.2,1.19.39,2a8.08,8.08,0,0,1,.38,2.56,12.56,12.56,0,0,1,.2,2.39l.2.37.2,1.59a28.82,28.82,0,0,0,4.94,0h5.13l1-.2h3.76l3.16-1.39a3.27,3.27,0,0,0,.39-2.76,10.87,10.87,0,0,0-.59-4.53,2.81,2.81,0,0,1-2.37,2.37,15,15,0,0,0,0-3.56l.2-1.39a12.31,12.31,0,0,0-3-2.76A4.91,4.91,0,0,1,96,77.3a6.56,6.56,0,0,1,.8-3,7.53,7.53,0,0,0-2-1.39L92.39,76.1l-.37.4H90.83c0-1.06.06-2.38.19-4V71.38Zm-1.37,37.71a2,2,0,0,0,0,2.38A3.71,3.71,0,0,0,84.11,108.89Zm.4-13.43a7.57,7.57,0,0,0,.59,3.75A7.61,7.61,0,0,0,84.51,95.46Zm.2-7.29a2,2,0,0,0,0,1.76Zm1.56-20,.2.59C86.74,68.53,86.67,68.33,86.27,68.2Zm1,23.9.6,1h6.71l.4-.4A34.1,34.1,0,0,1,87.27,92.1Zm1-22.91-.59.4C88.84,69.59,89,69.46,88.26,69.19Zm-.2,24.9.6,1,3.16-1Zm1.77-25.7c.66.53,1.06.53,1.19,0L89.83,68A.22.22,0,0,0,89.83,68.39Zm2.36,3.16c-.51,2.77,0,3,1.4.6Zm0-2.76c.4,1.06,1.2,1.33,2.39.8A12.33,12.33,0,0,1,92.19,68.79Zm8.11,5.94a14.12,14.12,0,0,0,2,2.37C102.67,76,102,75.25,100.3,74.73Zm5,3.94a8.11,8.11,0,0,0,2.36,5.54l1-1.39-2-2.56-.4-.4-.59-1Zm.2,4.75a7.08,7.08,0,0,0,.37,3.15A2.43,2.43,0,0,0,105.45,83.42Zm2,4.75-.79,1A.93.93,0,0,0,107.41,88.17Zm.8-9.3-.6.19a7.13,7.13,0,0,0,2,2.57C110.24,80.45,109.79,79.53,108.21,78.87Zm.77,7.7a2.71,2.71,0,0,0-.17,1.77A2.68,2.68,0,0,0,109,86.57Zm4-4.35a6.58,6.58,0,0,1-.6,2.59v2.36l.2.4A7.37,7.37,0,0,0,112.94,82.22Z"/><path class="cls-1" d="M155.43,63.29h1.15c0,2.92.85,4.6,2.54,5.06a5.56,5.56,0,0,0,.22,2.76V78l.25,1.15v22.53a1.9,1.9,0,0,1-1.39.47c-1.23,2-.76,3.22,1.39,3.69V107H158a5.89,5.89,0,0,1-3.22,2.76c1.22-.17,1.91.29,2.08,1.37a13.27,13.27,0,0,0-8.07,1.83h-1.59a2.15,2.15,0,0,1,.91-1.83h-1.61v1.61h-6.9l-.68-.22-7.14-.24-4.81-2.3-.25-.47c.77,3.23,0,4.69-2.29,4.38q1.14-6.43-5.53-4.6c-.14-3.22-2.06-4.61-5.74-4.15V104a9.92,9.92,0,0,0,4.13-.44,4.84,4.84,0,0,1-.9-4.62,3.15,3.15,0,0,0,2-.22,5.2,5.2,0,0,1,0-3l-3.44.22a15.53,15.53,0,0,1,3-5.74V88.12l-1.61.69c0-1.23-.7-1.76-2.08-1.59A37.33,37.33,0,0,1,117,66.74a4.67,4.67,0,0,1,3-1.84l.25,3,1.37.24v2.52a8.27,8.27,0,0,1,.46,5.52h.69a27.87,27.87,0,0,1-.47,6.89v.69l-.44,1.85v5.28a2.89,2.89,0,0,1,.68,2.54h5.06q2.3,1.85-.93,4.35a3.27,3.27,0,0,1,2.08,3.69,2.36,2.36,0,0,1,1.15,1.84c2.61.45,2.83,1.37.68,2.76q-6.42.47-.22,1.15A17.66,17.66,0,0,1,138,107l.46-.25c-.76,0-1.14-.45-1.14-1.37h13.34l1.15-.24,1.37-3q0-1.62.24-6.67l.22-.47V93.86l.22-.68V92a8,8,0,0,0,.47-3l.46-2.54a12.6,12.6,0,0,1,.46-3V80.08a14.68,14.68,0,0,0,.22-2.76v-.93a11.26,11.26,0,0,0-.22-3.91V69.72C155.21,68.66,155.29,66.52,155.43,63.29Zm-38.17,6.89-1.83,6-.22,6.21-.24.46v1.37l.68,1.86L117.51,81a19.56,19.56,0,0,1,0-10.36ZM118,93l-.71,1.15C117.88,94.11,118.12,93.72,118,93Zm-.24,7.11a2.34,2.34,0,0,0,.68,2.54A2.36,2.36,0,0,0,117.73,100.07Zm2.54,2.32a3.88,3.88,0,0,0,3,.69A5.74,5.74,0,0,0,120.27,102.39Zm.46-4.84c.15,1.68.91,1.91,2.3.69A8.13,8.13,0,0,0,120.73,97.55Zm1.37-3c-.91,1.37-.53,2.06,1.15,2.06a3,3,0,0,0,3.91-2.06Zm3.23,4.13c-2.3,1.08-2.77,1.92-1.4,2.54a1.08,1.08,0,0,1,1.15-.7l.69.92a4.1,4.1,0,0,1,1.17-2.07ZM144.17,107a5,5,0,0,0,4.15,0Zm6.21,0,.46.68C151.46,107.05,151.3,106.82,150.38,107Zm3,0-.93,1.61C153.53,108.6,153.84,108.06,153.38,107ZM155,95.48l-.22,3.44.22.47A8.33,8.33,0,0,0,155,95.48Z"/><path class="cls-1" d="M168,63.18c.84,0,1.26.63,1.26,1.9a2.3,2.3,0,0,1,2.54-1.9v7.6l.22.84q1.49-5.06,1.9-.84V76.7l.2.42-.2,12.24-.22,1.06v10.14a1.23,1.23,0,0,0-.64,1.06,10.52,10.52,0,0,0,2.34,5.5c1.27-.58,1.19-1.07-.22-1.48-.56-.71-.35-1.14.64-1.28l.62-.42c-1-1-.84-1.69.44-2.1V99.3h1q-.62,10.14,6.56.42l2.32-.22a13.82,13.82,0,0,0,3.16,5.92,22.62,22.62,0,0,0,5.7-1.9H190v-1.06h4.86a10.47,10.47,0,0,1,3.8-.2h.64l2.54-.86,2.32-.2c.28,1,1,1.34,2.12,1.06l.2.62c-.28-2.54.14-3.8,1.26-3.8v3.8l-.2,1.48v3l-.22,1.7-.2,1.9q-1.29.42-1.06-4c-1.42,2.25-2.68,2.32-3.8.22l-1.06.42q-1.06,1.47-1.06,5.06a6.88,6.88,0,0,1-3.38,0h-1.68a5,5,0,0,1-2.32-1.68h-3.8l-1.48-.22h-5.92c-1.41,0-1.91,1-1.48,3a5.64,5.64,0,0,1-4-3h-9.28a14.4,14.4,0,0,1-2.12-.2c-.28-.86.92-1.28,3.6-1.28l.42-4.22v-.64l.42-2.32.2-.84a15.8,15.8,0,0,0-1-5.08V91.06l-.22-.84v-1.9a13.84,13.84,0,0,1-.22-2.76,1.21,1.21,0,0,0-.42-.84V83l-1.48-1.9v-4a15.86,15.86,0,0,1,.42-3.38L168,68Zm-.84,12a9.64,9.64,0,0,0,.2,5.28A22.92,22.92,0,0,0,167.18,75.22Zm3.38-7a10.35,10.35,0,0,0,.2,3.6V68.68Zm.84,38.44c-.15,1.13.27,1.48,1.26,1.06A1.87,1.87,0,0,1,171.4,106.68Zm1.26-33.58a20.42,20.42,0,0,0-.84,11A20.51,20.51,0,0,1,172.88,78V73.74Zm.42,33.38c-.13.84.15,1.12.86.84ZM176.9,108q-1.49,1.47,1.26.84A2,2,0,0,1,176.9,108Zm3.58.84-.42.42Q182.39,109.22,180.48,108.8Zm5.08-8-1.48,1.9L183,103.94a13.41,13.41,0,0,0,4-.2A9.48,9.48,0,0,1,185.56,100.78Zm13.3,7.6a10.29,10.29,0,0,1-5.28.84l-.42.22a4.68,4.68,0,0,0,2.1.42,1.43,1.43,0,0,1-.62,1.26l1.26.22Q200.12,112.6,198.86,108.38Zm1.26-5.06a8.57,8.57,0,0,0-1.68.84C203,103.73,203.5,103.45,200.12,103.32Zm5.5.84-1.9,1.06C204.43,107.18,205.06,106.82,205.62,104.16Z"/><path class="cls-1" d="M257.17,63.31h1.15A17.07,17.07,0,0,1,257,69.5h6.41v1.37h-6.87a1.84,1.84,0,0,1-2.28,1.37,2.83,2.83,0,0,1-1.83,1.61q-2.3.45-2.3-3.2a16.28,16.28,0,0,1-4.57-.25l-1.15.69a1.42,1.42,0,0,1-.91-1.13,12.94,12.94,0,0,0-3,1.13,4.47,4.47,0,0,0-2.74.46l-1.61.47-1.37.22-.68.46,1.37,1.15.22,8.24a12,12,0,0,0,1.83.91L240,84.14a1.63,1.63,0,0,1,1.61-2,14.48,14.48,0,0,0,.91,2.74l1.61,6.63c0,.47.3.78.9.92a6.43,6.43,0,0,0,.69,3.67v1.83q3.45.45,1.15,4.33c.62,2.6-.61,3.82-3.67,3.67q-.22,4.35-4.35,1.61l-1.81.69a15.64,15.64,0,0,1,1.59,5.26,21.39,21.39,0,0,1-16.24-6.19,5.39,5.39,0,0,1-4.35,2.3,13.22,13.22,0,0,0-.46-3.2c-.92,0-1.22.68-.91,2.05-1.07-.15-1.61-.91-1.61-2.3l-6.41-.44q.47-2.3,3.89-3l-.22-.91a1.85,1.85,0,0,1-2.08-1.15L208,104.05l-1.84-.22a14.63,14.63,0,0,1,2.3-10.08c1.06.15,1.75,1.06,2.06,2.74A4.32,4.32,0,0,0,212.55,94h1.15c-.46,2.91.38,4,2.52,3.21l.46.7c-.31-1.67.22-2.51,1.59-2.51l.22,2.74a17.38,17.38,0,0,0,5.72.46,11.3,11.3,0,0,0,5,1.13,9.47,9.47,0,0,0,1.15-3.89q2.06.24.93,3.89a1.28,1.28,0,0,1,1.12,1.39l-1.12.22q5.71.47,7.53-6.87l-3-4.11-.46-.46-.91-1.37-1.39-1.15-.44-.47-6-2a1.35,1.35,0,0,1-.9.91,3.5,3.5,0,0,0-3.43-1.37,3.71,3.71,0,0,0-3.2-1.59,4,4,0,0,1-.46-2.77,3.65,3.65,0,0,1-2.3.71,5.68,5.68,0,0,0-1.84-4.13q-2.5,5.72-2,0c-1.37.77-1.75-.23-1.15-3q-5.72-.23-1.59-4.57a14.41,14.41,0,0,1,7.31-1.37l.47.68.22-1.15,5.28-.22,1.12-.46a3.61,3.61,0,0,1,1.39.46l.45-.93,3.44-.9h.69l1.59-.47,1.61-.44h3l.91-.24h3.2a3.68,3.68,0,0,1-.46,1.61,18.93,18.93,0,0,1,4.57-.46H246l.22.68a11,11,0,0,1,5.5-2.27q-1.14,3.42.45,2A14.27,14.27,0,0,0,257.17,63.31ZM208.44,96.05a11.09,11.09,0,0,0-.24,5A3.78,3.78,0,0,0,208.44,96.05Zm3.89,8.24a.62.62,0,0,0,.44.22Zm4.57-.93c-.15,1.53.08,1.69.69.47Zm2.3,2.74q-.24,3.45,2.05,0Zm3.2-4.57a5.65,5.65,0,0,1-2.52,1.37,11.24,11.24,0,0,1,2.74,1.39l.47-.46C224.6,102.46,224.38,101.69,222.4,101.53Zm-.46-28.61c0,.92.23,1,.68.25Zm2.74.93a11.05,11.05,0,0,0-1.59,2.28Q225.82,81.85,224.68,73.85Zm-.69,33,3.21,2.74q14.18,5.51,7.77-1.15a19.45,19.45,0,0,1-10.76-1.83Zm.47-35.48a7,7,0,0,0,4.35,0Zm3,1.37-1.37.47q-.45,5.72,3.66,4.33a6.3,6.3,0,0,0,4.58,4.35Q236.36,71.77,227.42,72.7Zm-1.37,33a11.77,11.77,0,0,0,8,1.37,12.06,12.06,0,0,0-5.5-.68,2.48,2.48,0,0,0-1.84-.69Zm.24-3.45c.15.17.38.17.68,0Zm.22-21A4.22,4.22,0,0,0,230.4,83,12.88,12.88,0,0,0,226.51,81.16Zm8-15.79a25,25,0,0,1-4.82,1.15,21.21,21.21,0,0,0-2.05.68,5.71,5.71,0,0,1,2.74.24l.46-.24Q241.84,65.61,234.53,65.37Zm-5.72,37.09-1.15,1.37Q231.77,103.37,228.81,102.46ZM230.4,70.4a6.27,6.27,0,0,0,5.72,0A31.81,31.81,0,0,1,230.4,70.4Zm2.3,12.38a12.5,12.5,0,0,0,1.59,1.83Q234.53,83,232.7,82.78Zm2.74,21a.32.32,0,0,0,0-.47A.3.3,0,0,0,235.44,103.83Zm.46-19.91v.91A7.78,7.78,0,0,0,239.32,86l.69.46A10.93,10.93,0,0,0,235.9,83.92Zm.46,2.74a15.35,15.35,0,0,0,3,2.28A3.18,3.18,0,0,0,236.36,86.66Zm3,14.87-1.59.93-.46.44a8.63,8.63,0,0,0,4.11.46C241.69,102,241,101.38,239.32,101.53Zm.69-3c-.77.75-.85,1-.23.78S240.46,98.86,240,98.57Zm1.61,7.53-.68.71C241.54,107,241.77,106.72,241.62,106.1Zm2.52-39.8a7.84,7.84,0,0,0-2.52.46A3.67,3.67,0,0,0,244.14,66.3Zm-.24,32.27-1.59,1.13Q244.82,102,243.9,98.57Zm-1.13-5a2.7,2.7,0,0,0,.68,2.28A5.33,5.33,0,0,0,242.77,93.53Zm.22,8.24c0,.75.3.75.91,0Zm5-35.47-1.37.9A5.07,5.07,0,0,0,248,66.3Zm6.18,0-1.83.68A1.72,1.72,0,0,0,254.21,66.3Z"/><path class="cls-1" d="M287.63,63.07h.9A8.25,8.25,0,0,1,289,67.2a10.61,10.61,0,0,1,4.57,3.43A10.07,10.07,0,0,1,297.24,69a5.69,5.69,0,0,1-1.83,4.13c.45,2.91,1.83,4.2,4.13,3.89a2.82,2.82,0,0,1,.46,1.61q-5,4.11-2.08,5.48v1.15l-1.59.93A17.66,17.66,0,0,1,292.2,94a13.07,13.07,0,0,1,.47,5A3.61,3.61,0,0,1,289,97.64a14.24,14.24,0,0,0-1.59,3.43l-.24.46q-3.44,1.83-3.67,6.41c-.61.16-.94-.07-1-.68a3.92,3.92,0,0,0-.79-1.84l-3,2.29c-.77.46-1.38.84-1.84,1.15a1.27,1.27,0,0,1,1.15,1.37l-1.61.47a10,10,0,0,0-6.63.44c-.46.46-.54,1.22-.24,2.3a8.45,8.45,0,0,1-5-2.3l-1.83-.44a11.14,11.14,0,0,0-1.84-3.21l-.44-.7-2.07-.44a2.67,2.67,0,0,1,1.14-2.08L257.87,99a8.25,8.25,0,0,0-.46-1.37v-6.4l.22-.47v-5l.24-1.15V83.9a21.43,21.43,0,0,1,.91-3.67,7.84,7.84,0,0,1,.46-2.51l.22-1.37a15.59,15.59,0,0,1,8.49-8l.9-1.37,4.13-.22.45-.24,8.7-.23,2.52.23L286,64.9l1.15-1.37ZM258.56,94.2a5.54,5.54,0,0,0,.22,2.76A5.54,5.54,0,0,0,258.56,94.2Zm.22,3,1.83,6A8.71,8.71,0,0,0,258.78,97.18Zm2.05-15.33v5.94l.25.46A10.31,10.31,0,0,0,260.83,81.85Zm.93,20.83a4.2,4.2,0,0,0,.69,3A7.5,7.5,0,0,0,261.76,102.68Zm.22-6.41a8.06,8.06,0,0,0,.93,3.67A9.05,9.05,0,0,0,262,96.27Zm.69-3.44a19.85,19.85,0,0,0,1.61,5.5A16.53,16.53,0,0,0,262.67,92.83Zm2.07-15.11q-3.44,2.76-.92,6.65A9.81,9.81,0,0,0,264.74,77.72Zm3-7.78q-4.35,2.75-4.57,7.09a11.54,11.54,0,0,1,2.74-1.83,18.27,18.27,0,0,1,.93-3.2A2.86,2.86,0,0,0,267.7,69.94Zm-4.35,31.81c-.45,1.22-.14,1.92.93,2.08A5,5,0,0,0,263.35,101.75Zm0,5.74a10,10,0,0,0,2.08,2.28,3.05,3.05,0,0,0-.69-1.83Zm19.24-36.64a4.39,4.39,0,0,0-.9,3.91,3.13,3.13,0,0,0-1.62,3c-.91.16-1.36-.91-1.36-3.21a14,14,0,0,0-3.89,3.21l-.47.24a11.62,11.62,0,0,1-3,2.05,11.54,11.54,0,0,0-2.27,1.84v3H268L267.7,83a13.19,13.19,0,0,0-.9,7.09,5.11,5.11,0,0,1-2.74-1.62,17.56,17.56,0,0,0,1.13,7.12,9.89,9.89,0,0,1,3.91.9A4.66,4.66,0,0,1,273,95.34c1.23.17,1.84,1.32,1.84,3.45Q280.3,96.27,280.3,88h1.14l.25,5.72c2.13-1.07,3.35-3.13,3.64-6.18a8,8,0,0,0,3.91-2.3c-1.53.16-2.3-.29-2.3-1.37q5-1.59,2.52-6.87a2.78,2.78,0,0,1-1.61.47,10,10,0,0,1,.68-3.45l-.68-.91-3.64.22L284,72c0,.61-.38.92-1.15.92A3.2,3.2,0,0,0,282.59,70.85ZM265.65,99.48c-.15.91.24,1.36,1.15,1.36A3.48,3.48,0,0,1,265.65,99.48Zm.22-2.52a13.16,13.16,0,0,1,1.39,2.27l.69.71C268.55,98.1,267.86,97.1,265.87,97Zm.24,5.25c-.31,1.37.22,1.83,1.59,1.37A10,10,0,0,1,266.11,102.21Zm1.15,6.65.91,1.37q2.29-1.14-.69-1.61Zm3.89-38.7a2.72,2.72,0,0,0-.93.93Q273.9,70.16,271.15,70.16Zm4.11,4.35a18.33,18.33,0,0,0-5,4.36l1.39-.91a14.55,14.55,0,0,0,3.89-3.2l.44-.25Zm-3.2,22a5.08,5.08,0,0,0-1.84.93,6.24,6.24,0,0,1,1.84,2.52l.68-.46C273.67,98.25,273.44,97.26,272.06,96.49Zm-.91,8.49q-2.29,1.8,1.83,3.2A5,5,0,0,0,271.15,105Zm.22-30.93c-.91.31-1.21,1-.9,2.08A2.92,2.92,0,0,0,271.37,74.05Zm1.83-5.26a4.83,4.83,0,0,0,3.21,1.15A15.77,15.77,0,0,0,273.2,68.79ZM275.5,72q-5.28,2.76,1.59.92Zm1.15,27.23a5.34,5.34,0,0,0-2.52,2.3C275.65,101.68,276.49,100.91,276.65,99.23Zm-1.15,6.43.91,1.13.24.46Q280.07,105.66,275.5,105.66Zm1.37-37.09A3.37,3.37,0,0,1,278,69.94C278.31,69,277.93,68.57,276.87,68.57Zm1.84,33.89-1.37.44C278.4,103.21,278.85,103.06,278.71,102.46Zm2.51-.71-.68.71c.45,1.21-.08,1.81-1.61,1.81l.68.93A2.67,2.67,0,0,0,281.22,101.75Zm-.68-3.42-1.37.9Q281.69,103.15,280.54,98.33Zm3,2.29-.91.69Q283.28,103.59,283.5,100.62Zm2.76-1.39a2.2,2.2,0,0,0-.93,1.84A2.17,2.17,0,0,0,286.26,99.23Zm-.69-28.38c0,1.07.46,1.38,1.37.92Zm.23-3a2.83,2.83,0,0,0,2.05,1.83A2.71,2.71,0,0,0,285.8,67.89Zm1.83-2.52-.91,1.13C287.78,67,288.09,66.59,287.63,65.37Zm1.61,3.42c-.31,1.22-.08,1.3.69.22Zm.44,24.28q-.9,3,.69.68Zm1.37,2.05-.9,1.37C291.68,98.17,292,97.72,291.05,95.12Zm2.3-22.44-1.15.93c-.29,1.82.25,1.6,1.61-.69Zm.93,14-1.61.93Q292.21,95.81,294.28,86.64Zm-1.15-1.59-.24.46C294.73,85.35,294.81,85.2,293.13,85.05ZM295,78.18c-1.22.46-1.68,1.45-1.39,3L295.65,80A1.71,1.71,0,0,0,295,78.18Zm.22,3.67c-1.67.45-2.06,1.14-1.14,2.05C295.41,83.75,295.79,83.07,295.18,81.85Zm-.46-6.19A1,1,0,0,0,295,77Zm2.3,2.52c-.15,1.37.31,1.37,1.37,0Z"/></svg>