<svg id="krazy_logo_svg" data-name="krazy_logo_svg" xmlns="http://www.w3.org/2000/svg" viewBox="0 0 300 200"><defs><style>.cls-1{fill:#e10b17;}.cls-2{fill:#fff;}.cls-3{fill:#1d1e1c;}.cls-4{fill:#29abe2;}</style></defs><title>krazy_logo</title><path class="cls-1" d="M116.14,157.06a18.68,18.68,0,0,1-18.66-17l-.11.07-.17.1-.36.2-.18.09L91.5,143l-.19.08-.38.16-.19.07-.77.27-.2.06-.39.11-.2,0-1.58.36-.2,0-.4.07-.21,0-.81.09-.2,0-.41,0H81.8l-.4,0-.21,0-.81-.09-.2,0-.41-.07-.2,0-1.25-.28-8.94,1.62-.67.35-.17.08-.35.16-.18.08-.72.28-.19.07-.37.12-.18.06-12.39,3.4-.16,0-.33.08-.17,0-.66.12-.17,0-.33,0-.17,0-1.34.11H49.31l-.34,0H48.8l-2.63-.27-.17,0-.33-.05-.17,0-.66-.13-.17,0-.32-.08-.17,0-1.29-.38-.16,0-.32-.11-.16,0-.63-.25-.16-.07-.3-.14-.16-.07-4.4-2.22-.15-.08-.3-.16-.14-.09-.58-.36-.14-.09-.27-.19-.14-.1-1.07-.82-.14-.1-.25-.22-.13-.11-.5-.46-.12-.11-.24-.24-.12-.13-1.77-1.95-.12-.13-.21-.26-.1-.14-.41-.54-.1-.13-.19-.28-.09-.14-.71-1.15-.08-.14-.17-.3-.08-.15-.3-.6-.07-.16-.13-.31-.07-.15-8.38-21.64L7.69,87.51l-.07-.18L7.48,87l-.06-.19L7.19,86l-.05-.19-.09-.38,0-.2L6.72,83.7l0-.2-.05-.39,0-.2-.06-.79v-.79l.1-3.07v-.2l0-.39,0-.2.11-.78,0-.2.08-.39,0-.19.39-1.52.05-.19.12-.38.06-.19.27-.74.08-.18.16-.37.08-.18,2.15-4.33L4.8,62.13l-.18-.2-.34-.41-.17-.22-.62-.87-.15-.22-.28-.46-.14-.23L2,57.63l-.12-.25-.21-.49-.09-.25-.35-1-.08-.25L1,54.85l0-.27-.75-4,0-.27-.06-.53,0-.27,0-1.07v-.27l0-.54,0-.27.23-2.11,0-.26.09-.53.06-.27.27-1,.08-.25L1,42.4l.1-.25L3.72,35.9l.12-.24.24-.48L4.21,35,4.77,34l.15-.22.31-.44.17-.21,1.35-1.64.18-.2.38-.39.19-.18L8.3,30l.21-.17.42-.33.22-.16,3.39-2.24.23-.14.47-.27.24-.12,1-.46.25-.1.5-.19.25-.09,2-.61.26-.07.52-.12.27-.05,1.06-.15.26,0,.54,0H34.45l.37,0,.28,0h.09l.73.08.27,0,.1,0,.36.05.28.05H37l1.43.3.28.06.09,0,.35.09.27.08.09,0,.7.22.27.09.08,0L41,26l.25.1,2.65,1.13.26.11.08,0,.33.16.09.05.24.12.65.36.24.14.08,0,.31.2.23.15.08.05,1.21.83.23.16.07.06.29.22.22.18.07.05.5.42.09,0,.36-.07.18,0,11.06-1.61.17,0,.36,0,.17,0,.71,0h.71l1.4.07h.18l.35,0,.18,0,.7.11.17,0,.35.06.17,0,2.68.66.17,0,.34.1.17.06.67.23.16.06.33.14.17.07,1.27.59.16.07.32.17.15.08.61.36.15.09.3.2.14.1,4.16,3,.14.11.28.22.13.11.53.47.13.12.26.24.12.13,1,1,.12.13.23.27,0,.06,7.3-1.32,27.75-6.22.2,0,.21-.66.15-.4.35-.79.2-.38.88-1.47.24-.36.52-.68.29-.32L121.72,23l.32-.29.66-.54.35-.25L124.5,21l.38-.21.77-.37.4-.17,5.62-1.92.41-.11.84-.18.43-.07,1.7-.16.43,0,.86,0,.43,0,1,.14,4.53-2.16.37-.15.74-.26h.06A18.6,18.6,0,0,1,157,9.81a17.77,17.77,0,0,1,2.82.22,18.8,18.8,0,0,1,12.6,7.73,37.09,37.09,0,0,1,4.76,9l0,0,.18.1.38.22.18.11,1.42.95.14.1.38-.13.34-.11.69-.17.34-.08,1.41-.21.35,0,.71,0h.36l2.78.12.35,0,.71.1.35.06,1.37.33.35.1.67.23.33.14.74.33.2.11.41.21.2.12.79.49.19.12.37.27.19.14,1.42,1.15.18.15.34.31.16.17.64.66.16.17.3.36.14.18,2.12,2.84.13.19.25.39.12.2.45.8.11.21.1.21c4-1.44,7.19-2.61,9.84-3.54,3.36-1.22,6.35-2.26,8.84-3.08l.12,0,.24-.07.12,0,.47-.12.12,0,.24-.05.12,0,1-.18.12,0,.24,0,.12,0,.49-.06h.12l.24,0h.13l1.93-.1h1.1l.25,0h.12l1,.08.13,0,.24,0,.12,0,.48.07.13,0,.24.05.12,0,3.65.8.12,0,.23.06.12,0,.47.13.12,0,.23.08.12,0,.92.34.11,0,.23.09.11.05.45.2.11.05.22.1.11.06,1.72.9.1,0,.22.12.1.07.42.25.11.07.2.13.1.07.8.56.1.08,1.45.41.17.05.34.12.17.06.67.26.16.07.33.15.16.08,1.27.64.15.09.31.18.16.09.6.39.15.1.29.2.14.11.6.47.14-.25.07-.11.13-.22.07-.11,1.12-1.71.08-.11.15-.21.07-.11.32-.41.08-.1.16-.2.09-.1.68-.78.09-.09.17-.19.09-.09.37-.37.1-.08.19-.18.1-.09,3-2.56.1-.08.21-.16.1-.08.42-.31.1-.07.22-.15.1-.07.88-.56.11-.06.22-.14.11-.06.46-.25.12-.06L258,29l.11-.06,1.87-.84.12-.06.24-.09.12-.05.48-.18.12,0,.25-.09.13,0,1-.29.12,0,.25-.06.13,0,.51-.12.13,0,.25-.05.13,0,11.22-1.63.23,0,.47,0h.23l.93,0h.23l.47,0,.23,0,1.83.2.23,0,.46.08.23,0,.9.22.23.06.44.14.22.07,3.34,1.27.22.09.42.19.21.1.82.44.2.11.4.25.2.13,1.5,1.06.19.14.36.29.18.16.68.62.17.17.32.33.16.18,4,4.76.15.18.27.38.14.19.5.78.12.2.23.4.11.21.8,1.66.1.22.17.43.08.22.3.88.06.22.12.45.06.23.69,3.5,0,.23.06.46,0,.23.07.93v.93l-.1,1.84,0,.23-.06.47,0,.23-.17.91-.05.23-.12.45-.06.22-4.77,14.87-11.05,40.32-5.19,23.64-.05.21-.11.4-.07.21-.27.79-.08.2-.16.39-.08.2-.72,1.51-.1.19-.2.37-.11.18-.45.72-.12.17-.24.35-.13.16-2.05,2.55-.13.17-.29.31-.14.15-.6.6-.16.14-.31.28-.17.13-1.32,1-.17.13-.35.24-.17.11-.72.45-.19.1-.37.2-.19.1-5.31,2.46-.19.09-.4.15-.2.07-.8.27-.2.06-.41.11-.2.05-1.65.34-.2,0-.42.06-.21,0-.84.07h-.21l-.43,0h-.21l-3.27-.08h-.21l-.42,0-.21,0-.84-.12-.21,0-.41-.08-.21-.05-1.62-.42-.2-.06-.41-.13-.2-.07-.78-.3-.2-.09-.38-.17-.19-.09-9.12-4.81-.13-.07-.25-.14-.13-.08-.49-.31-.13-.08-.24-.17-.12-.09-.93-.7-.11-.09-.23-.18-.11-.1-.44-.39-.11-.09-.21-.21-.11-.1-1.6-1.66-.1-.11-.19-.22-.1-.11-.37-.45-.09-.12L231,137l-.08-.12-.67-1-.08-.12-.16-.24-.08-.13-.29-.5-.07-.13-.14-.26-.07-.13-.85-1.77q-2.1,1-4.17,1.95L217,138.09l-3.16,1.52a22.26,22.26,0,0,1-1.88,5.25l-.1.19-.21.35-.11.18-.45.69-.12.17-.25.33-.13.16-1.05,1.26-.14.16-.28.3-.14.15-.6.57-.15.13-.32.27-.16.13-2.54,1.94-.17.12-.34.23-.18.11-.7.42-.19.11-.36.19-.19.09-1.49.67-.19.09L201,154l-.2.07-.78.26-.2.06-.4.1-.2.05-1,.2-.29.05-.58.07-.3,0-1.18,0h-.29l-.59,0-.3,0-2.31-.28-.29-.05-.58-.12-.29-.07-1.14-.32-.28-.1-.55-.21-.27-.11-4-1.89-.27-.14-.51-.29-.25-.16-1-.67-.24-.18-.46-.37-.22-.2-1.68-1.61-.21-.21-.39-.44-.19-.23-.71-.94-.17-.25-.31-.5-.15-.25-.32-.61L175.2,144l-.52,0h-.05l-.84.39,0,0-.21.17-.43.34-.22.16-3.41,2.3-.23.15-.47.27-.24.12-1,.47-.25.11-.51.2-.26.09-2.05.63-.27.07-.53.12-.27.05-1.07.16-.27,0-.54,0H159.8l-.36,0-.71-.07-.36-.05-1.4-.28-.35-.08-.69-.21-.34-.12L153,148l-.32-.15-.64-.34-.31-.18-1.19-.79-.29-.22-.56-.45-.26-.24-1.12-1.11-.27,0-.05,0-.28.21-.15.11-1.17.8-.15.09-.3.19-.16.09-.6.33L143,148.8l-.34.32-.72.59-.37.28L140,151l-.41.22-.84.4-.12.05L138,152l-.25.13-.51.24-.26.11-.95.36-.15.1-.64.34-2.6,1.08-.69.21-1.41.28-.72.07h-.11a19.58,19.58,0,0,1-8.31,1.83q-.77,0-1.53-.06A18.5,18.5,0,0,1,116.14,157.06Z"/><path class="cls-2" d="M116.14,153.38A15,15,0,0,1,101.46,135l-1.76-1-.38-.26h0l-.4.48-.27.3-.59.57-.3.27-1.28,1-.33.23-.7.43-.35.2-5.16,2.45-.38.15-.77.27-.4.11-1.58.36-.4.06-.81.09-.41,0H82l-.41,0-.81-.09-.41-.07-1.58-.35-.4-.12-.07,0-.33.08L68.18,142l-1.16.6-.36.16-.72.28-.37.13-12.38,3.4-.33.08-.67.11-.33.05-1.34.11-.34,0H49.5l-.33,0-2.63-.26-.34-.05-.66-.13-.33-.08L43.92,146l-.32-.11-.63-.25-.31-.14-4.41-2.22L38,143.1l-.58-.36-.27-.19L36,141.73l-.26-.21-.5-.46-.24-.24-1.78-2-.21-.26-.41-.54-.19-.28-.71-1.14-.16-.3-.3-.6-.14-.31-8.39-21.69L11.08,86.08,11,85.71,10.72,85l-.09-.38L10.34,83l-.05-.39-.06-.79v-.39l.09-3.07,0-.4.11-.78.07-.39.39-1.53.11-.37.28-.74.15-.37,2.49-5,.2-.34.42-.67.23-.32.14-.16L7.45,59.57l-.35-.41-.62-.88-.29-.45-1-1.89L5,55.44l-.35-1-.14-.52-.74-4-.06-.53,0-1.07,0-.54.23-2.11L4,45.13l.27-1,.18-.51,2.64-6.24.25-.48L7.92,36l.31-.44,1.35-1.64.38-.38.8-.72.42-.33,3.39-2.24.47-.27,1-.45.5-.2,2-.61.52-.11,1.06-.16.54,0H34.26l.37,0,.19,0,.73.07.19,0,.36.06.18,0,1.44.29.18.05.36.09.18,0,.7.22.18.06.34.12.18.07,2.64,1.13.17.07.34.17.16.08.65.36.16.09.31.19.15.1,1.21.83.16.11.29.23.14.11.57.48.13.12.27.26.13.13.75.77.77-.27.35-.11.71-.18.36-.07,11.06-1.61.35,0,.71,0h.35l1.41.06.35,0,.7.1.35.07,2.68.65.34.1.67.24.32.13,1.28.59.31.16.62.36.29.19,4.16,3,.27.22.53.46.26.25,1,1,.23.26.43.56.2.29.55.87,9.7-1.75,27.83-6.23.18,0,.36-.06.19,0,.73-.09h.19l.37,0h.4v-.19l.06-.4.16-.79.1-.39.36-1.16.35-.78.88-1.47L122,28l2.32-2.39.67-.54,1.45-.91.77-.37,5.62-1.92.84-.19,1.7-.16.86,0,2.24.31.41-.25,5-2.39.74-.26.8-.19A15.07,15.07,0,0,1,157,13.49a14.47,14.47,0,0,1,2.27.18,15.23,15.23,0,0,1,10.18,6.26,35.31,35.31,0,0,1,4.78,9.56l.16.06.4.17.76.39.38.22,1.42,1,.34.26.66.56.26.25.41.07,2.13-.77.69-.18,1.4-.21.71,0,2.78.11.71.1,1.38.33.67.23.74.34.4.22.79.49.37.26,1.43,1.15.34.32.64.66.3.35,2.11,2.85.25.39.46.8.2.42.69,1.69.15.44.21.77,2.4-.87c4.43-1.62,8-2.9,10.83-3.92,3.35-1.21,6.31-2.24,8.76-3.05l.24-.06.47-.13.24,0,1-.18.25,0,.48-.06.25,0,1.93-.1h1l1,.08.25,0,.48.07.24,0,3.65.79.24.06.47.14.23.08.92.33.23.09.45.2.22.1,1.71.9.22.12L237,38l.2.14.8.56.19.15.32.26,2.15.61.34.12.67.26.33.15,1.26.64.31.18.6.39.3.2,1.91,1.5,2.3-.14h.35l.6,0,.15-.39.1-.24.44-.94.12-.23.25-.45.14-.22L252,38.83l.15-.21.32-.42.16-.2.68-.77.18-.19.37-.36.19-.18,3-2.56.2-.16.42-.31.21-.15.87-.55.23-.13.45-.25.24-.12,1.86-.84.24-.1.49-.18.24-.08,1-.29.26-.07.5-.11.26,0,11.22-1.64.47,0,.92,0,.47,0,1.83.2.46.08.91.22.44.14,3.34,1.26L285,31l.82.44.4.24,1.51,1.07.36.29.68.63.33.33,4,4.77.28.37.51.78.22.41.81,1.66.17.43.29.88.12.45.7,3.51.06.46.07.92v.47l-.11,1.84,0,.46-.17.92-.12.45L291.08,67.7,280,108.19l-5.21,23.73-.12.41-.27.8-.16.39L273.5,135l-.2.37-.45.72-.24.34L270.56,139l-.28.32-.6.59-.32.28-1.32,1-.35.25-.72.44-.37.2-5.31,2.46-.39.16-.81.27-.4.11-1.65.34-.41.06-.85.08h-.42l-3.27-.08-.42,0-.83-.11-.42-.09-1.62-.42-.4-.13-.79-.31-.39-.17-9.12-4.8-.25-.15-.49-.31-.25-.17-.93-.7-.23-.19-.44-.38-.21-.21-1.6-1.66-.19-.21-.38-.46-.17-.23-.67-1-.16-.25-.29-.5-.14-.26-1.9-3.94-.12-.27-.21-.55-.09-.28v0c-2.55,1.15-5.1,2.33-7.59,3.51l-7.34,3.49c-1.95.93-3.56,1.72-4.89,2.38a18.5,18.5,0,0,1-1.85,6.06l-.21.35-.46.69-.24.33-1,1.26-.29.3-.59.57-.32.27L203,148.91l-.34.23-.71.42-.37.2-1.49.67-.39.15-.78.26-.4.1-1,.21-.59.07-1.18.05-.59,0-2.31-.28-.58-.11-1.13-.33-.56-.21-4-1.89-.51-.29-1-.67-.46-.38L183,145.47l-.39-.44-.71-.94-.32-.5-1.21-2.3h-.5l-.83-.12-3.21-.82-.22-.07-.21,0-.82,0-.66-.05-.12.07-2,1-.45.41-.43.34-3.41,2.3-.47.27-1,.47-.51.2-2.05.63-.53.12-1.08.16-.54,0H159.8l-.72-.06-1.4-.28-.69-.21-2.6-1.06-.63-.34-1.19-.79-.56-.45-2.33-2.32-.08,0-.25,0-.5.06-.25,0-1,0h-.93l-.08.08-.27.24-.54.46-.29.22-1.17.8-.31.18-.62.34-.32.16-.19.08-.16.22-2.45,2.62-.72.6-1.56,1-.85.4-.13,0-.85.49-.51.24-1.34.51-.5.33L131.2,151l-1.41.28c-.3,0-.61,0-.91,0a16,16,0,0,1-7.51,1.86,17.09,17.09,0,0,1-1.75-.09A15.3,15.3,0,0,1,116.14,153.38Z"/><path class="cls-3" d="M116.14,149.7a11.3,11.3,0,0,1-5-1.14,11.42,11.42,0,0,1-5.73-14.23l.45-1.31-.47-.13-.85-.35-3.06-1.74-.74-.55L99.48,129l-.58-.71-.1-.17-.32.65-.44.68-2,2.46-.59.57-1.27,1-.69.43-5.16,2.45-.78.27L86,137l-.81.09H82L81.2,137l-1.58-.35-.77-.27-.34-.16-.5.19-.67.19-9.93,1.79-.43,0-.29.19-1.37.71-.72.29L52.21,143l-.66.12-1.34.11h-.68L46.9,143l-.66-.13-1.3-.38-.62-.24L39.91,140l-.58-.36-1.07-.82-.49-.45-1.78-2-.41-.54-.7-1.15-.3-.6-8.42-21.74L14.47,84.65l-.22-.75L14,82.35l-.06-.79L14,78.49l.11-.78.39-1.53.27-.74,2.49-5,.42-.66,1-1.23.56-.56.84-.68L10.09,57l-.62-.87-1-1.89-.35-1-.74-4,0-1.07.23-2.11.27-1,2.64-6.24.56-.92,1.36-1.63.79-.72,3.39-2.24,1-.46,2-.61L20.67,32H34.08l.37,0,.73.07.37.06,1.44.29.35.09.71.22.35.13,2.65,1.13.33.16.64.35.32.2,1.21.83.29.22.57.48.27.25,2.59,2.69.77-.46.66-.32,1.38-.5.71-.17,11.06-1.61.71,0,1.4.07.7.1,2.68.66.67.23,1.28.59.61.36,4.15,3,.53.47,1,1,.43.55,1.47,2.34.32.63v0L90.07,44,118,37.7l.37-.06.73-.09.37,0,1.48,0,.37,0,.73.06.37,0,1,.17-.19-1.43,0-.81.13-1.59.16-.78.36-1.17.88-1.46L127,28.16l1.44-.91,5.62-1.92,1.7-.16,3.25.45.36.16,1.13-.88,5-2.39,1.52-.35h.44a11.51,11.51,0,0,1,9.49-5,12.43,12.43,0,0,1,1.72.12,11.68,11.68,0,0,1,7.76,4.8,34.66,34.66,0,0,1,4.81,10.23l1.83.67.76.39,1.43,1,.65.56.7.75.17,0,.26.18h.18l1.29.2.6.21,3.24-1.17,1.4-.21,2.78.11,1.38.33.74.34.78.49,1.42,1.15.64.66,2.12,2.85.45.8.69,1.69.24.89c0,.19.07.39.12.58l.12.68.1,1.38v.7l0,.36.24.27,6.66-2.46c4.43-1.61,8-2.89,10.8-3.9,3.33-1.2,6.26-2.22,8.68-3l.48-.12,1-.18.48-.06,1.94-.1H226l1,.08.49.07,3.65.8.47.14.92.33.44.2,1.72.89.42.26.8.56.38.31.48.43.23,0,2.69.76.66.26,1.27.65.6.39c1,.79,2,1.58,3,2.35l3.68-.21.7,0,1.37.18.68.16.53.17.85-2.77.19-.48.44-.94.25-.45,1.13-1.71.31-.41.69-.78.36-.36,3-2.56.42-.31.87-.56.46-.24,1.86-.85.49-.18,1-.29.51-.11,11.22-1.63.93,0,1.83.2.91.22,3.34,1.26.82.44,1.5,1.06.69.63,4,4.77.51.78.8,1.66.29.88.7,3.5.06.93-.1,1.84-.17.91-4.82,15L276.41,107.3l-5.23,23.83-.27.8-.73,1.51-.45.72-2,2.55-.6.59-1.32,1-.72.44-5.31,2.47-.8.26-1.65.34-.84.08-3.26-.08-.84-.12-1.62-.42-.79-.31-9.12-4.8-.5-.31-.93-.71-.44-.38-1.6-1.66-.37-.45-.67-1-.29-.51-1.9-3.94-.22-.55-.33-1.12-.12-.57-.3-2.28,0-.3L229,124.33c-2.63,1.18-5.26,2.39-7.84,3.61l-7.35,3.5c-2.2,1.05-4,1.92-5.45,2.66l-1.4.73a14.27,14.27,0,0,1-1.59,6.7l-.45.68-1.05,1.26-.6.57L200.77,146l-.71.42-1.49.68-.79.26-1,.2-1.18.05-2.31-.28-1.13-.33-4-1.89-1-.66-1.68-1.61-.71-.95-2.33-4.42-.88.19-1.68,0-3.2-.83-.76-.29-1.15.18-1.64-.12-.17,0-.79.53-2.58,1.2,0,0-.8.74-3.41,2.3-1,.47-2,.63-1.08.16h-1.47l-1.4-.27-2.6-1.07-1.19-.79-3.69-3.65h0l-2,.36-.5.05-1,0h-.51l-1.66-.16L144,138.38l-.55.45-1.17.8-.63.35-1.24.53-.35.64-2.45,2.62-1.56,1-.6.2-.11.08-1,.56-1.7.64-.24.24-2.6,1.07a12.43,12.43,0,0,1-1.72-.12,12.52,12.52,0,0,1-6.7,2,11.57,11.57,0,0,1-2-.16l-.61.16A12.16,12.16,0,0,1,116.14,149.7Zm34.58-20.62a1.32,1.32,0,0,0-.32.09l.52,1.37Z"/><path class="cls-2" d="M116.14,146a7.61,7.61,0,0,1-3.35-.76,7.78,7.78,0,0,1-3.85-9.72l1.72-5,.06-.16-.14-.5-2.41,0-1.75-.49-3.07-1.74L102,126.33l-1.51-2.46c-.88-1.35-1.85-2.84-2.91-4.43l-.14-.21-1.56,6.43-.72,1.45-2,2.45-1.28,1L86.76,133l-1.59.35H82L80.43,133l-1.92-.92-.53.34-1.29.5-9.93,1.79-1,0-.73.61-1.37.71-12.38,3.4-1.34.12-2.64-.27L46,138.91l-4.41-2.22-1.07-.82-1.77-2L38,132.77,29.57,111,17.86,83.22l-.28-1.54.09-3.07.39-1.53,2.48-5,1-1.22,2.39-1.93,1.41-.71.6-.15L12.74,54.45l-1-1.89-.74-4,.23-2.11,2.64-6.24,1.36-1.63,3.39-2.25,2-.61H34.08l.73.08,1.44.29.71.22,2.65,1.12.64.36,1.21.83.57.48L46.8,44l.69-.63L50,41.91l1.37-.49,11.06-1.61,1.41.07,2.68.65,1.28.59,4.15,3,1,1,1.47,2.34.51,1.32.29,1.58L90.8,47.55l28-6.26.73-.09,1.48,0,.73.07,2.84.52.71.21,1.37.55.65.34.22.15-.07-.28-.22-2,0-1,.08-.44-.11-.29-.42-3.09.14-1.59.36-1.17,2.33-2.38,5.61-1.92,3.25.46,1.23,1.06.33.46.06-.22,2-2.34,5-2.39,2.52,0A8,8,0,0,1,157,20.86a9.2,9.2,0,0,1,1.17.08,8.09,8.09,0,0,1,5.34,3.33,34.12,34.12,0,0,1,4.66,10.43l.14.45,3.53,1.31,1.42.95,1.49,1.6,1.31.28.19.28,1.09,0,1.83.64,4.48-1.61,2.78.11.73.34,1.43,1.15L190.67,43l.7,1.7a7.53,7.53,0,0,0,.21,1l.1,1.38-.23,2,2.23,2.44.13.33,1.06.42c3.16-1.18,6-2.24,8.59-3.17,4.42-1.61,7.94-2.88,10.77-3.89,3.32-1.2,6.22-2.21,8.6-3l1-.18,1.94-.1,1,.08,3.65.8.92.33,1.72.9.8.56c.35.33.82.75,1.4,1.25l.8.07,2.69.76,1.26.65,4,3.14.11.08,5.06-.3,1.37.18,2.59.86,1.21.68.19.16,2.07-6.7.44-.94,1.12-1.71.69-.78,3-2.56.87-.55,1.86-.85,1-.29,11.22-1.63,1.83.2,3.34,1.27,1.51,1.06,4,4.77.8,1.66.7,3.5-.11,1.84L284,65.6l-11.19,40.82-5.25,23.92-.73,1.52-2,2.54-1.32,1-5.31,2.47-1.65.34-3.26-.08-1.63-.43-9.12-4.8-.93-.7-1.6-1.66-.67-1-1.9-3.94-.33-1.12-.3-2.28,0-1.17.91-4.77c-3.58,1.61-7,3.16-10.23,4.64-2.63,1.18-5.27,2.4-7.88,3.64l-7.36,3.5c-2.24,1.06-4,1.95-5.53,2.7s-2,1.07-2,1.08l.06,0-.84.42-.69.25c0,.12-.07.22-.08.27s0,.23,0,.34a11.29,11.29,0,0,1-1.07,6.72l-1,1.26-2.54,1.93-1.49.68-1,.2-2.31-.27-4-1.89-1.68-1.61-3.72-7-.32.25-3.19.67-3.21-.82-1-.55-2.35.36-2.14-.65-1.46,1.31-3.35,1.56-.57.71-3.41,2.3-2.05.63h-1.47l-2.6-1.06-3.69-3.66-.75-1.78-.18-.08-.48.2-.86.22a1.83,1.83,0,0,0,.47-.11l-.4.19-.07,0-1,.32-2,.35-1,0-1.79-.17-1-.38-.55.17-.2,0-.45.69-2,2-1.17.8-2.59,1.11v.06c-.08.29-.16.59-.23.88l-2.45,2.62-1.23.4-.63.5-2.07.78h0l-.23,0-.9.9a8.27,8.27,0,0,1-2.51-.39l-.26.21a9.21,9.21,0,0,1-5.65,2,8.38,8.38,0,0,1-2.12-.27q-.63.21-1.26.36A8.47,8.47,0,0,1,116.14,146Z"/><path d="M284.66,45.88l-4-4.76-3.34-1.27-11.23,1.63-1.86.85-3,2.56-1.12,1.71L256.27,59l-.46-.85-3.87-3.26L249.35,54l-6.46.38-1-.84-.11-.09c-1.35-1-2.72-2.1-4.06-3.16L235,49.55l-1.1.12-.43-.37c-.92-.79-1.65-1.43-2.17-1.91l-1.71-.9-3.65-.79-1.94.1c-2.34.77-5.21,1.77-8.52,3-2.82,1-6.34,2.27-10.74,3.88-3.08,1.12-6.62,2.43-10.57,3.91L193,55a8.86,8.86,0,0,1-1.54.21,1.81,1.81,0,0,1-.45,0,7,7,0,0,1,0-1l-3.4-3.72a.6.6,0,0,1-.28-.06,6.06,6.06,0,0,1,.42-.9l.31-2.7a12.68,12.68,0,0,1-.3-1.49l-2.12-2.84-.73-.34L180,43.78l-.15.33h-1.39c-.2-.17-.39-.32-.59-.47l-.5-.4-2.2,0,.08-.38-2.47-.52v0l-2.27-2.44-4.16-1.54-.05,0a4.36,4.36,0,0,0-.81-.34l-.31,1-.41.26V37.91a3.24,3.24,0,0,1,1.42.31c-.18-.09-.67-.42-.91-.58a4.41,4.41,0,0,1-.47-1.19l-.21-.66c-.92-3-2-6.42-4.12-9.35a4.15,4.15,0,0,0-3.53-1.9,4.44,4.44,0,0,0-4.18,3.24,31.17,31.17,0,0,0-.87,3l-.58.42a7.06,7.06,0,0,0-2.66-2l-5,2.39L142.43,36a8.05,8.05,0,0,0-.35,2,6.89,6.89,0,0,0,.08,1.35,6.65,6.65,0,0,1-2.39-1.69,5.08,5.08,0,0,1-1.09-2.43l-2-2.71-.3-.18-5.61,1.92-.37,1.16.42,3.09c.09.14.17.27.26.39l-.25,1.45.22,2a24.7,24.7,0,0,1,1.24,3.53l-2.22,2.23a.23.23,0,0,1,0-.11.24.24,0,0,1,.06-.09l-.38.32c-.1.11-.15.11-.2.11l-.32.31-4.07-2.7-1.37-.55-2.84-.52-1.47,0-28,6.28L73.67,54.39l-1.35,1.19-1.1-6.14L69.75,47.1l-4.16-3-2.68-.66-11,1.61L49.4,46.55l-2.27,3.14-7.75-8-1.21-.83L35.52,39.7l-1.44-.3H20.67l-3.39,2.25-2.64,6.24.74,4L33,70.08l-6.76,1.71-2.39,1.93-2.49,5-.09,3.07L33,109.6l8.45,21.84,1.78,2,4.41,2.22,2.63.26,12.39-3.4,2-1.68,1.41.31,9.93-1.8,2.25-1.4L82,129.69h3.16l5.16-2.45,2-2.45,3.51-14.43c.34.47.85,1.19,1.62,2.29,1,1.49,2.12,3.09,3.22,4.75s2.06,3.13,2.95,4.51l1.54,2.49,3.07,1.75,4.14.07.83.86-.48.85a14.63,14.63,0,0,0,1.43.69c.29.13.71.32,1.08.51-.14.34-.3.7-.42,1-.25.57-.49,1.12-.68,1.65l-1.72,5a4,4,0,0,0,3.72,5.6,4.65,4.65,0,0,0,1-.12,9.29,9.29,0,0,0,2-.73.9.9,0,0,0,.24.12,4.47,4.47,0,0,0,1.94.43,5.65,5.65,0,0,0,3.42-1.27l.38-.3c.35-.3.69-.63,1-.94l.49-.47a5.18,5.18,0,0,0,3.12,1.14V139l.41-.13,0,.42.25,0,.25,0,1.16-.91,1.86-.6c.08-.31.17-.67.27-1l0,0,.05-.05a7,7,0,0,1,.83-1.93l.16.07,3.67-1.57,2-2a23.71,23.71,0,0,1,1.05-2.21l2.89.53.42-.42.83.59,1.79.17,2-.36.08,0a4.52,4.52,0,0,1,1-.4l1.64-.66a.71.71,0,0,1,.15-.1.46.46,0,0,1-.17,0,.63.63,0,0,1-.53-.31l4.12,1.64a5.79,5.79,0,0,1,.17,1.87l3.68,3.65h1.47l3.41-2.3a1.78,1.78,0,0,1,.37-.55v-.12l.19,0a1.37,1.37,0,0,1,.18-.1h0l3.73-1.74.09-.16A11.65,11.65,0,0,1,171,128.1l1.46.12,1.26,1.16,3.84-.59a11.39,11.39,0,0,1,1,.8l0,0,3.21.83,3.52-2.77a1.76,1.76,0,0,1,.77.74l5.27,10,4,1.89,1-.21,2.54-1.93a7.71,7.71,0,0,0,.69-4.65c0-.28-.06-.52-.06-.72a6.13,6.13,0,0,1,.76-2.63l.16-.32c.07-.12.14-.25.21-.4l.27,0,1.83-.64s.52-.35,2.37-1.28c1.51-.76,3.35-1.66,5.6-2.73l7.37-3.51c2.64-1.25,5.3-2.48,7.93-3.66,5.15-2.36,10.75-4.88,16.69-7.53l-2.22,11.7.3,2.28,1.9,4,1.6,1.65,9.12,4.81,3.27.08L262,132.1l2-2.55,5.27-24,11.24-41,4.86-15.16ZM77.31,75.26l-.8,3.81-1.18-6.65,2.12,2.15ZM234.11,87l-1.64.15,1.95-2.38.36,2.34Z"/><path class="cls-2" d="M123.22,49l-2.83-.53-28.13,6.3L74.33,58l-2,6.22L80.07,72l1.54.59L80.92,76,78.61,87l-3.33-3.3-2-2.1L67.59,50.09l-4.15-3-11,1.6L49.29,53l.93,5.2-13.49-14-2.65-1.13H20.67L18,49.33,37.16,69.09l6.21,6.46h0l-2.53-2.09-3.25-.74L27.13,75.36l-2.48,5L36.4,108.22l8.48,21.89,4.4,2.22,12.39-3.4,1.51-3.05,2.26,1.61,9.93-1.8,1.77-2.39,6.45,3.07,5.16-2.45,5.42-22.24.7,1c.84,1.18,1.55,2.15,2.15,3a16.3,16.3,0,0,1,1,1.45l.27.41c.39.52,1.13,1.55,2.18,3.08s2.15,3.12,3.27,4.81,2.08,3.17,3,4.57l1.56,2.52,6.2.11,7.37-11.07-.06-4.16-9.76-13.87-.19-.24-4.11-4.92,16.64-14.84L137,64l-.18-6Zm-71,43.91,4.16,1.63,2.71,17Zm49-21,.59-2.32,2.34-.44Z"/><path class="cls-2" d="M277.82,43.5l-11.23,1.63-3,2.55-7.52,24.38,0,.09-.95,3.4L253.44,61l-3.87-3.26-7.88.46-2.15-1.72-.06,0c-1.37-1.06-2.75-2.13-4.09-3.19l-2.77.31q-.75-.72-1.56-1.41c-1-.83-1.73-1.5-2.28-2l-3.65-.8c-2.31.76-5.15,1.75-8.43,2.94-2.82,1-6.32,2.26-10.72,3.87-4.24,1.55-9.38,3.46-15.27,5.68l-1.26,6.09L196.82,75l3.73.84c3.17-1.07,6.42-2.18,9.68-3.32l6.67-2.24c-1.49,2-3,4-4.63,6.13-2.23,3-4.46,5.95-6.61,8.81s-4.39,5.84-6.52,8.69c-4.87,6.55-15.22,20.67-15.32,20.81l1.32,5.47,11.72,5.87,3.75-.27a31.23,31.23,0,0,1,2.81-1.54c1.54-.77,3.4-1.68,5.68-2.77l7.37-3.5c2.66-1.27,5.34-2.5,8-3.69,6.36-2.91,13.4-6.07,20.9-9.41l.46-3.45,2.37.32-1.9,9.08-2.22,11.66,1.9,4,9.12,4.8,5.32-2.47,5.29-24.1L277,63.5l4.88-15.24ZM233.49,90.63c-1.72.62-3.75,1.44-6,2.45s-4.58,2-7.1,3.25l-.25.12.85-1c2-2.54,4-5,5.94-7.28l5.71-6.94q2.14-2.64,4.31-5.26l.39,3.28,0,.11,2.07,13.83-2.33-1.9Z"/><path class="cls-1" d="M122.56,137.83a1.6,1.6,0,0,1-1.59.43c-.71-.33-.72-1.36-1.27-1.91a5.68,5.68,0,0,1-3.37,2.27.47.47,0,0,1-.33,0c-.23-.11-.19-.45-.1-.69l1.72-5c.44-1.27,1.73-3.47,1.62-4.8-.14-1.69-3.38-2.67-4.72-3.41l-1.47.81a7.69,7.69,0,0,0,.81-1.93,5.6,5.6,0,0,0,1.93-1.73,8.75,8.75,0,0,0,.63-1l.27-.46.47,0a11,11,0,0,0,1.2-.08,5.32,5.32,0,0,0,3.69-2.21,4,4,0,0,0,.55-3.33l-4.18-1.86a2.08,2.08,0,0,1,.92-.22,1.79,1.79,0,0,1,1.47.67.16.16,0,0,0,0,0v-.07c-.11-1.31-.36-4.38-3.29-5.25a4.12,4.12,0,0,0-1.21-.18,5.86,5.86,0,0,0-2.58.7l-7.79,3.82a4.52,4.52,0,0,0,.33-.66c1.56-3.68-1.52-6.32-5-6.48a1.13,1.13,0,0,1-.58-.13c-.41-.27-.27-.91,0-1.29s.76-.65.93-1.11a.45.45,0,0,0,0-.36c-.08-.17-.29-.21-.47-.24l-4.59-.65c0-1.1,1.23-1.71,2.08-2.41a.89.89,0,0,0,.31-.38c.2-.62-.79-.89-1.2-1.41a4.46,4.46,0,0,1,1.1-1.11,4.16,4.16,0,0,1-2.54-1c2.89-1,5.78-1.82,8.73-2.57a4.56,4.56,0,0,0,2.38-1.32c1.34-1.38,1-1.81,3.1-1.65l3.08-3.74L112.57,82a4.28,4.28,0,0,0-1.91-2.72,3.8,3.8,0,0,0-1.88-.5l-1.17-3.19a1.84,1.84,0,0,1,.41,0,1.91,1.91,0,0,1,1.7,1c.08.14.21.42-.13.87a1.72,1.72,0,0,1-.92.63l.31,0c3.15-.2,3.92-2.14,4.1-3.28l.17-1.09,1.64-.83a9.5,9.5,0,0,0,1.13-3.9l-1.73-2.34a5.73,5.73,0,0,0-.83-3.34l-.12-.17.42-.7a2.91,2.91,0,0,0,1.31.29l.29-.15a4,4,0,0,0,3.36-2.37,3.24,3.24,0,0,0,2.61-1.74,6.19,6.19,0,0,0,1.88.34l.44,0A3.43,3.43,0,0,0,126,57.39l0-.07a2,2,0,0,0,.41-.26,3.3,3.3,0,0,0,2.8-1.78,4.08,4.08,0,0,0,.33-2.21,4.88,4.88,0,0,0,.18-1.07,3.87,3.87,0,0,0,2.68-1.18,3.14,3.14,0,0,0,.84-.9,3,3,0,0,0,.39-.91,3.06,3.06,0,0,0,1.79-1.28c1-1.48.66-2.82-1-6.79l.53-3A7.7,7.7,0,0,1,134,36.48l.36-1.16a6.31,6.31,0,0,0,.71.42,8.87,8.87,0,0,0,1.83,4.16c2.38,3,9.95,6.14,9-.41a9.25,9.25,0,0,1-.16-1.39A4.93,4.93,0,0,1,146,37l1.22-4.44a3.49,3.49,0,0,1,2,2.66c.11-.75.94-1.12,1.62-1.44s1.42-1,1.18-1.7c.88.67.66,2.48,1.76,2.65.86.12,1.3-1,1.46-1.85a28.65,28.65,0,0,1,1-3.87c.13-.37.38-.81.76-.76a.86.86,0,0,1,.5.4c1.92,2.62,2.82,5.82,3.78,8.92A5.89,5.89,0,0,0,163,40.48a8.89,8.89,0,0,0,1.85,1.11l-.18,0h-.15a1.43,1.43,0,0,1,.66.58.72.72,0,0,1,0-.36l4.16,1.54a10.91,10.91,0,0,0,.84,2.2l4.41.93c.2-.15.37-.29.53-.43l.6.48a3.16,3.16,0,0,1,1.16,1.22l5.37.05,1.17-2.42.73.33a16.87,16.87,0,0,0,.4,2v0c-.51,1-1.36,2.57-.49,4.26A3.89,3.89,0,0,0,187.28,54c0,1.52.12,3,1.43,4a4.53,4.53,0,0,0,2.75.83,12.15,12.15,0,0,0,2.23-.27,18.15,18.15,0,0,0-.87,1.77L197,64.12a3.86,3.86,0,0,1,1.8-.44,3.75,3.75,0,0,1,1.16.18l-1.45,3.84c1,1.68,2.8,2.73,5.4,3.14l0,0,0,0q.49.07,1,.12l2.28,2.31a20.3,20.3,0,0,0,2.33-.57,10.63,10.63,0,0,1,2.27-.49h.1a20.46,20.46,0,0,1,4.3,1,9,9,0,0,1,1.82,1.3l.26.21-.22.07c-2.41.83-3.81,2.73-4.94,4.26-.26.36-.51.7-.75,1a3.14,3.14,0,0,1-1.62,1.16.4.4,0,0,1,.2.07l-4.42,1.46-.19.5-6.08.7-2.55,2.29a17.07,17.07,0,0,0-.06,7.29l-2.85,2.76a4.16,4.16,0,0,0,.53,2l-1.43.82a4.44,4.44,0,0,0,1.89,2.79l-1.82.92a5.71,5.71,0,0,0,.55,1.17c.4.66-.85,3-1,3.66a5.05,5.05,0,0,0,.8,4.14,27.1,27.1,0,0,1,2.88,8.08,2,2,0,0,1,0,1.13c-.17.38-.56.62-.74,1a1.81,1.81,0,0,0,.39,1.82,5.63,5.63,0,0,1,1.09,1.62c.32,1.07-.36,2.14-.87,3.14a9.65,9.65,0,0,0-1.16,4.36c0,1.33.44,2.33-.23,3.64l-1,.2-5.28-10a4.94,4.94,0,0,0-4.1-2.72,3.53,3.53,0,0,0-3.15,2,4.39,4.39,0,0,0-.31.85,3.52,3.52,0,0,0-.75.08l0,0a7.93,7.93,0,0,0-3.91-2.2l-1.33,1.69a3.4,3.4,0,0,0-.79-.39,7.49,7.49,0,0,0-.68-1.28l-4.7-.37c-.22.24-.55.57-.89.91a15.78,15.78,0,0,0-2.66,3.14l-.06.1a3.41,3.41,0,0,0-.55,0,4,4,0,0,0-2.34.81,6.06,6.06,0,0,0-.89-.07l-.7,0-.4,0h0a2.21,2.21,0,0,1,1.33.64,5.45,5.45,0,0,0-1.1,1.7h-1.47c0-2-.17-3.37-1.24-4.44a3.41,3.41,0,0,0-2.42-1,3.7,3.7,0,0,0-1.09.17,3.07,3.07,0,0,0-2.69-1.57,3.59,3.59,0,0,0-2.13.76,7.23,7.23,0,0,0-2.11.74l-.1,0-1.79-.18a3.65,3.65,0,0,0-2.23-1.89l-.07,0a2.41,2.41,0,0,1,1.37,1.79l-5.49-1a37.88,37.88,0,0,0-2.52,4.91l-3.68,1.58a1.3,1.3,0,0,1,0-.89,7.36,7.36,0,0,1-.74.87l-.42.46a9.61,9.61,0,0,0-1.93,3.75l-.45,0H130a2,2,0,0,1,.48.06c-.12.39-.22.79-.31,1.16l-.39-.36c-1,0-1.84-1.78-3.31-1.57s-2.66,1.84-3.69,2.7A2.11,2.11,0,0,1,122.56,137.83Z"/><g id="layer1"><path id="path2186" class="cls-2" d="M193,123.9c-.43-.72-.85-1.49-.94-1.69a60.69,60.69,0,0,0-4.28-5.09,2.75,2.75,0,0,0-1.52-.39l-1.11,0,.74,3.1c.54,2.28.61,3.12.24,3.21s-1.28-.91-2.82-3.76c-.48-.89-.89-1.38-.93-1.09-.12,1.1-1.07.68-1.92-.85-.49-.88-1.12-1.55-1.39-1.49s-.68-.4-.91-1.09c-.41-1.17-.47-1.2-1.92-.73a56.51,56.51,0,0,0-8.32,4.52,2,2,0,0,1-1.6.34,10.24,10.24,0,0,0-3.21.4c-8.07,2-9.26,2.2-10.15,1.47a2.46,2.46,0,0,0-2.31-.39,8.65,8.65,0,0,1-3.26-.12,7.45,7.45,0,0,0-2.77-.22c-.54.13-1,.06-1.06-.15s-.36-.32-.68-.24a2.56,2.56,0,0,1-1.48-.35,19.31,19.31,0,0,0-3.31-1.13c-2.36-.62-2.43-.62-2.78.24a3.08,3.08,0,0,0-.19,1.65c.29,1.24-1,5.15-2.23,6.62a6.42,6.42,0,0,0-1.25,2.74c-.26,2.33-2.35,2.93-2.43.7-.06-1.54-1-1.3-2.41.64-1.18,1.62-1.59,1.85-1.79,1s-.49-.64-1.8.66c-.6.6-1.21,1-1.34.94-.38-.24-1.14-3.73-1-4.59a8.41,8.41,0,0,1,.79-2C123,124.26,127.1,113.66,127,113c0-.18.2-.66.55-1.06.64-.74.68-1.78.06-1.63-.19.05-.76-.51-1.27-1.23a6,6,0,0,0-1.65-1.67,1.7,1.7,0,0,1-.85-.88,9.22,9.22,0,0,0-1.1-1.91l-1-1.38-3.65.87a45.53,45.53,0,0,0-6,1.89c-1.74.76-2.45.93-2.63.64a2.45,2.45,0,0,0-1.64-.31c-2.29.11-2.58-1.55-.36-2.09a2.33,2.33,0,0,0,1.26-.92,2.65,2.65,0,0,1,1.42-.94c.7-.17.93-.44.81-.93-.16-.68-1.22-1.1-3-1.17a1.62,1.62,0,0,1-1.34-1.07c-.27-.57-.7-1-1-.91-1.88.54-2.63.48-2.79-.2-.24-1,.9-1.52,7.29-3.23,8.4-2.23,8.1-2,7.78-5.49a9,9,0,0,1,.2-3,3.44,3.44,0,0,0,.07-2,3.39,3.39,0,0,1,.08-2,6.42,6.42,0,0,0,.34-2.17,7.72,7.72,0,0,1,.2-2c.14-.51.49-1.83.77-2.93a29.22,29.22,0,0,1,2-4.79c.8-1.53,1.71-3.46,2-4.28a4.56,4.56,0,0,1,1.18-1.88c.34-.2.58-.53.53-.73s.35-.45.87-.58.91-.35.84-.5c-.41-1-.25-1.66.44-1.82a9.41,9.41,0,0,0,2.45-1.61c2.66-2.25,6.56-4.68,8.4-5.24A50.23,50.23,0,0,0,143.06,52,19.13,19.13,0,0,1,148,50.44c1.86-.18,2.21-.49,2.22-1.95,0-.67-.63-6-.87-7.25a3.24,3.24,0,0,1,.07-1.4c.18-.52.34-.57.91-.29s.82.17,1.37-.66c.92-1.38,1.44-1.39,1.88,0a5.24,5.24,0,0,0,.67,1.48c.42.42,1.19-.73,1-1.51-.15-.6.92-2.66,1.44-2.78a13.64,13.64,0,0,1,1,3.39c.47,2.2.89,3.42,1.15,3.36.58-.14,2.71,3.8,2.75,5.09,0,.68.2,1.06.47,1s.52.33.65.85c.17.75.42.91,1.12.74,3-.71,9.64,1.28,10.05,3,.14.58.41.73.94.53.92-.32,3-.05,3.12.42.05.18.55.4,1.12.48s1.1.37,1.17.65A4.11,4.11,0,0,0,181.55,57a4.2,4.2,0,0,1,1.33,1.34,6.93,6.93,0,0,0,2,1.69c1.87,1.21,2.37,1.84,5.1,6.42,1.52,2.54,3.72,8.21,3.7,9.5,0,.77.2.79,3.21.29,5.08-.84,7.11-1,7.86-.61.45.24,2.24,0,5.22-.58,3.49-.72,5.11-.6,5.59-.37a19.29,19.29,0,0,0-2.37,2.09,29.18,29.18,0,0,1-7.06,2.11c-2.55.49-6.18,1.38-8.07,2-3.3,1-3.45,1.13-3.56,2.19a19.23,19.23,0,0,1-.85,3.25,18.13,18.13,0,0,0-.85,3.63,15.84,15.84,0,0,1-1.8,6.8,9.86,9.86,0,0,0-1.18,2.8,2.81,2.81,0,0,1-.79,1.63,5,5,0,0,0-1.18,1.28c-.52.78-.52,1.14,0,2.11.34.65,1.14,2.5,1.77,4.13s1.57,3.85,2.08,4.94a33.88,33.88,0,0,1,2.59,9c.42,2.8-.16,3.37-1.34,1.32Zm-31.09-11.64c-.05-.21.43-.51,1.07-.66a5.78,5.78,0,0,0,2.1-1.09,3.28,3.28,0,0,1,1.8-.78c1,0,5.93-2.75,6.16-3.43a4.38,4.38,0,0,0-.58-1.93c-.5-1-.61-1.57-.36-1.72.66-.41,0-1.77-.81-1.79-.45,0-.84-.12-.87-.26s-.5-1.29-1-2.59c-1.65-4-3-7.54-3.21-8.28s-.37-.62-1.9,0S159,91.23,151,93.06c-3.19.73-6.59,2-6.5,2.34,0,.15-.31.57-.77.93a2.57,2.57,0,0,0-.86,1.78,5.78,5.78,0,0,1-.82,2.44c-.45.73-.68,1.51-.51,1.75a1.66,1.66,0,0,1-.2,1.36,24.8,24.8,0,0,0-2.05,5.39c.09.42,2.58,1.51,3.13,1.38a.41.41,0,0,1,.49.28c.14.61,4.14,1.4,7,1.39a17.28,17.28,0,0,1,4,.41,7.6,7.6,0,0,0,2.79.21,5.16,5.16,0,0,1,1.8,0,8.54,8.54,0,0,0,2.93,0C161.73,112.67,161.91,112.47,161.86,112.26Zm22.71-19.89a3.73,3.73,0,0,0,.62-2.38c-.13-.54-.08-1,.11-1.06s.33-1,.31-2.17a8.84,8.84,0,0,1,.24-2.68c.25-.49-.44-.42-3.76.37-4.79,1.14-5,1.38-2.91,4.06A9.69,9.69,0,0,1,180.67,91a22.64,22.64,0,0,0,1.09,2.85l.92,2.09.52-1.11a26.15,26.15,0,0,1,1.37-2.5Zm-54.07,8.11c.87-1.69.78-1.9-.62-1.57s-1.32.38-.79,1.16c.32.45.49,1,.39,1.11s0,.25.21.19A1.88,1.88,0,0,0,130.5,100.48Zm27.73-17c4.08-1,4.36-1.15,4.12-1.82-.15-.4-.72-2.25-1.28-4.11-1.32-4.42-1.75-5.55-2.42-6.27a3.47,3.47,0,0,1-.55-2.05c0-1.61-1.5-7.14-2.18-8.1-.56-.79-1.12-.1-2,2.38a18,18,0,0,1-1.23,2.82,18.18,18.18,0,0,0-1.62,6.08,21.34,21.34,0,0,1-1.74,4.65c-.88,1.82-1.43,3.47-1.25,3.74a1.36,1.36,0,0,1-.07,1.23,19.86,19.86,0,0,0-1.28,4.16c.08.3,3.37-.31,5.22-1,1-.36,3.83-1.15,6.24-1.75ZM186,76.8c.25-.35-.79-3.71-1.19-3.85-.7-.26-1.33-2.12-.9-2.68s-.28-1.26-4-3.55a8.84,8.84,0,0,1-2.72-2.43,4,4,0,0,0-1.42-1.56,2.51,2.51,0,0,1-1.1-1.33c-.17-.71-.36-.76-1.35-.36s-1.45.27-3.17-.83c-2.21-1.41-3.33-2-3.7-1.9a4.39,4.39,0,0,1-1.41-.48c-1.56-.72-2,0-.82,1.48a23.42,23.42,0,0,1,2.16,5.47,34.72,34.72,0,0,0,4.38,10,10.35,10.35,0,0,1,1.3,2.72c.49,1.93,1,2.22,3.35,2,2-.19,10.28-2.35,10.56-2.74ZM135.91,87.61a19.07,19.07,0,0,1,1.33-2.78,7,7,0,0,0,1-2.37.43.43,0,0,1,.28-.53.45.45,0,0,0,.26-.58,5.3,5.3,0,0,1,.8-2.1,14.85,14.85,0,0,0,1.33-3.62A39.09,39.09,0,0,1,142.33,71a8.76,8.76,0,0,0,.79-3.13c-.22-.44.84-3.27,1.82-4.88a9,9,0,0,0,.84-2.13l.32-1.29-1.77.67c-1,.37-2.75,1.18-3.93,1.79s-2.65,1.32-3.26,1.57c-2.72,1.13-2.56,1-5,4.51a8,8,0,0,1-1.51,1.73,1.06,1.06,0,0,0-.46,1,.71.71,0,0,1-.63.77c-.42.1-.7.43-.63.72a6.32,6.32,0,0,1-.91,2.45,7.2,7.2,0,0,0-1,2.73,7.35,7.35,0,0,1-.25,2,15.92,15.92,0,0,0-.23,7.78l.59,3.3,4.25-1C135.22,88.55,135.7,88.35,135.91,87.61Z"/></g><path class="cls-3" d="M20.67,46.77H34.08L56,69.47,52.92,52.35l11-1.61L69.8,83.38l2.87,2.93,10.14,10L75.23,99l-3.48-1.6,3,24.69-9.93,1.8-5.12-32-7-2.74-6.55-2L56,113.74l4.71,11.64-12.39,3.4-8.5-21.94L28,78.93l10.44-2.65,3,2.46,16.48,6.62L39.81,66.54Z"/><path class="cls-3" d="M122.06,70.63,102.64,87.94l6.4,7.65,9.76,13.87-7.37,11.07L109.85,118c-.9-1.41-1.91-3-3-4.64s-2.23-3.32-3.31-4.88-1.84-2.63-2.28-3.21a21.07,21.07,0,0,0-1.25-1.81c-.61-.83-1.32-1.81-2.11-2.92s-1.67-2.31-2.61-3.59-1.88-2.52-2.82-3.73l-7.26,29.85-9.44-4.5,8.79-41.8L86,69.19l-3.36.19L75,61.63l18-3.25,28.2-6.31,13.56,9ZM96.24,81.72c1.66-1.59,3.62-3.44,5.86-5.55l6.4-6q3.59-3.34,7.16-6.89L98.84,66.42l-3.9,15.4Z"/><path class="cls-3" d="M243.85,101.51q-11.49,5.11-20.93,9.42c-2.68,1.21-5.35,2.44-8,3.71l-7.37,3.51c-2.25,1.07-4.16,2-5.75,2.81a31.94,31.94,0,0,0-3.26,1.8l-11.72-5.87s10.38-14.18,15.3-20.79l6.51-8.68Q212,83,215.22,78.6t6.29-8.27L227,63.22q-4.12,1.2-9,2.8t-9,3q-4.87,1.71-9.65,3.31L192,65.22q8.79-3.3,15.24-5.66t10.69-3.86c3.32-1.21,6.11-2.17,8.35-2.91.58.54,1.37,1.24,2.39,2.1a36.37,36.37,0,0,1,2.82,2.71c.36-.33.67-.6.92-.8a4.21,4.21,0,0,0,.7-.7c1.45,1.14,2.82,2.2,4.13,3.21l3.14,2.5c1,.8,1.7,1.37,2.06,1.71q-6.39,7.62-12.69,15.33-2.72,3.32-5.69,6.92t-6,7.32q-3,3.7-5.91,7.27t-5.53,6.76q3.79-1.91,7.7-3.81t7.59-3.66q3.69-1.74,7-3.2c2.2-1,4.14-1.76,5.8-2.36Z"/><path class="cls-3" d="M278.35,47.14l-4.91,15.31-11.33,41.33L256.8,128l-9.12-4.8,2.2-11.6,2.71-13-8.82-1.18L241,78.77,239,62l10.83-.63,3,26.37,1.2,5.34,5.62-19.93,7.51-24.38Z"/><path class="cls-4" d="M82.88,185.36V168.45H74.82v-4H97.37A1.59,1.59,0,0,0,95.76,166v2.42H87.71v21.74Z"/><path class="cls-4" d="M117.78,185.36V177.3h-14.5v8.06H98.45V164.42h25.77a1.59,1.59,0,0,0-1.61,1.61v24.16Zm0-12.08v-4.83h-14.5v4.83Z"/><path class="cls-4" d="M133.35,185.36V168.45h-8v-4h22.55a1.59,1.59,0,0,0-1.61,1.61v2.42h-8.05v21.74Z"/><path class="cls-4" d="M157,185.36V168.45h-8v-4h22.55a1.57,1.57,0,0,0-1.16.48,1.59,1.59,0,0,0-.45,1.13v2.42h-8.06v21.74Z"/><path class="cls-4" d="M172.56,185.36V164.42h25.77a1.57,1.57,0,0,0-1.16.48,1.59,1.59,0,0,0-.45,1.13v19.33Zm19.33-4V168.45h-14.5v12.88Z"/><path class="cls-4" d="M199.41,185.36V164.42h25.77a1.57,1.57,0,0,0-1.16.48,1.59,1.59,0,0,0-.45,1.13v19.33Zm19.33-4V168.45h-14.5v12.88Z"/></svg>