<svg id="gorgona_logo_svg" data-name="gorgona_logo_svg" xmlns="http://www.w3.org/2000/svg" viewBox="0 0 300 200"><defs><style>.cls-1,.cls-2{fill:#d8ac7a;}.cls-2{fill-rule:evenodd;}</style></defs><title>gorgona_logo</title><path class="cls-1" d="M119.82,114.75H108v-4.12a20.75,20.75,0,0,0-.33-4.87,1.77,1.77,0,0,0-3.09-.14,14.21,14.21,0,0,0-.38,4.31v21.76a13.35,13.35,0,0,0,.38,4,1.54,1.54,0,0,0,1.57,1,1.73,1.73,0,0,0,1.75-1.1,12.66,12.66,0,0,0,.47-4.25V126H106v-6.89h13.8v24.33h-7.41l-1.09-3.24a8.07,8.07,0,0,1-3,3.14,8.45,8.45,0,0,1-4.33,1.05,11.27,11.27,0,0,1-5.56-1.44,10.53,10.53,0,0,1-3.93-3.57,11.19,11.19,0,0,1-1.69-4.46,52.54,52.54,0,0,1-.34-7V114.39a44.7,44.7,0,0,1,.71-9.44,9.63,9.63,0,0,1,4-5.39,14.13,14.13,0,0,1,8.58-2.45,16,16,0,0,1,8.6,2.13,9.94,9.94,0,0,1,4.45,5.05,26.76,26.76,0,0,1,1,8.5Z"/><path class="cls-1" d="M149.85,124.61c0,4.55-.1,7.77-.32,9.67a10.85,10.85,0,0,1-6.59,8.8,16.48,16.48,0,0,1-6.72,1.26,16.94,16.94,0,0,1-6.54-1.19,10.91,10.91,0,0,1-6.76-8.74,93.77,93.77,0,0,1-.34-9.8v-7.76c0-4.56.1-7.78.32-9.67a10.85,10.85,0,0,1,6.59-8.81,16.73,16.73,0,0,1,6.73-1.26,17.11,17.11,0,0,1,6.53,1.18,10.8,10.8,0,0,1,4.67,3.58,10.6,10.6,0,0,1,2.09,5.18,93.51,93.51,0,0,1,.34,9.8Zm-11.79-14.9a14.35,14.35,0,0,0-.34-4,1.4,1.4,0,0,0-1.45-.88,1.61,1.61,0,0,0-1.41.72c-.33.47-.49,1.87-.49,4.21v21.17a21.1,21.1,0,0,0,.32,4.87,1.41,1.41,0,0,0,1.5.93,1.46,1.46,0,0,0,1.54-1.07,22.85,22.85,0,0,0,.33-5.07Z"/><path class="cls-1" d="M152.78,98.06h8.34a64.84,64.84,0,0,1,11.3.64,7.77,7.77,0,0,1,4.82,3.3q1.86,2.64,1.86,8.43c0,3.53-.43,5.91-1.31,7.12s-2.61,1.94-5.18,2.18q3.49.87,4.7,2.33a7,7,0,0,1,1.5,2.67,43.3,43.3,0,0,1,.29,6.71v11.95H168.15V128.33c0-2.42-.19-3.93-.57-4.51s-1.38-.87-3-.87v20.44H152.78Zm11.79,7.76V115.9a5.13,5.13,0,0,0,2.79-.55c.53-.36.79-1.54.79-3.54v-2.49c0-1.44-.25-2.38-.77-2.83A4.35,4.35,0,0,0,164.57,105.82Z"/><path class="cls-1" d="M209.18,114.75H197.4v-4.12a20.53,20.53,0,0,0-.34-4.87,1.76,1.76,0,0,0-3.08-.14,13.75,13.75,0,0,0-.39,4.31v21.76a12.92,12.92,0,0,0,.39,4,1.53,1.53,0,0,0,1.57,1,1.73,1.73,0,0,0,1.75-1.1,12.74,12.74,0,0,0,.46-4.25V126h-2.38v-6.89h13.8v24.33h-7.4l-1.1-3.24a8.07,8.07,0,0,1-3,3.14,8.43,8.43,0,0,1-4.32,1.05,11.31,11.31,0,0,1-5.57-1.44,10.61,10.61,0,0,1-3.93-3.57,11.17,11.17,0,0,1-1.68-4.46,52.54,52.54,0,0,1-.34-7V114.39a44.87,44.87,0,0,1,.7-9.44,9.7,9.7,0,0,1,4-5.39,14.09,14.09,0,0,1,8.58-2.45,16,16,0,0,1,8.6,2.13,10,10,0,0,1,4.45,5.05,26.81,26.81,0,0,1,1,8.5Z"/><path class="cls-1" d="M239.22,124.61a96.43,96.43,0,0,1-.33,9.67,10.8,10.8,0,0,1-6.59,8.8,16.51,16.51,0,0,1-6.72,1.26,16.94,16.94,0,0,1-6.54-1.19,10.73,10.73,0,0,1-4.66-3.57,10.62,10.62,0,0,1-2.1-5.17,93.77,93.77,0,0,1-.34-9.8v-7.76q0-6.84.32-9.67a10.84,10.84,0,0,1,6.6-8.81,16.65,16.65,0,0,1,6.72-1.26,17.2,17.2,0,0,1,6.54,1.18,10.93,10.93,0,0,1,6.76,8.76,96.44,96.44,0,0,1,.34,9.8Zm-11.79-14.9a14.22,14.22,0,0,0-.35-4,1.4,1.4,0,0,0-1.45-.88,1.61,1.61,0,0,0-1.41.72c-.33.47-.49,1.87-.49,4.21v21.17a21.1,21.1,0,0,0,.32,4.87,1.42,1.42,0,0,0,1.5.93,1.45,1.45,0,0,0,1.54-1.07,22,22,0,0,0,.34-5.07Z"/><path class="cls-1" d="M268.47,98.06v45.33H258.13L252,122.78v20.61h-9.86V98.06H252l6.61,20.41V98.06Z"/><path class="cls-1" d="M293.14,98.06l6.74,45.33H287.83l-.63-8.14H283l-.71,8.14H270.09l6-45.33Zm-6.25,29.15q-.9-7.69-1.79-19-1.82,13-2.27,19Z"/><path class="cls-2" d="M49.56,88c-6.37,2-6.53-2.92-7.8-8.07-.56-2.26-2.17-6.21-2.23-7.8-.07-1.87,1.73-4.19.84-5.28-4.39-2.26-7.15,2.44-8.35,5-6,12.72,1.17,28.22,7,37.31a114.71,114.71,0,0,0,7.51,10c2.59,3.25,5.73,6.53,7.52,9.75,2,3.53,5.5,12.73.28,14.75-2.88,1.12-7.41-1.14-10-2.5a35.36,35.36,0,0,1-7.8-5.85c2.9,1.82,11.21,3.8,12.53-1.11s-3.9-8.52-6.41-11.42C35,114,26.37,102.14,24.78,87.45c-1.31-12,2.29-22.47,9.74-27.29C37.46,58.26,46,56,50.11,59.33c1.7,1.35,1.78,3.82,2.79,6.12.77,1.77,2.29,3.08,2.5,4.74C56.09,75.5,50.71,82.69,49.56,88Zm-4.29-7.45c1.26-2.17-.8-6.21-2.19-8C43.16,75.85,42.35,80.06,45.27,80.55Zm4.09.28c2.47-.29,3.87-5.52,2.24-7.45C51.41,76.42,48.82,77.06,49.36,80.83Z"/><path class="cls-2" d="M39.25,67.12c.49,1.42-.53,2.26-.55,4.18,0,2.16,1.35,4.34,1.39,5.84,0,2-1.13,5.72-.84,8.91,1,11,8.14,17.32,15,24s15,13.76,15,23.94c0,6.85-5.72,11.41-13.92,10.58,6.85-3.33.87-14.53-2.78-19.49-3.15-4.27-6.31-6.76-9.75-11.69a69,69,0,0,1-7.51-13.92c-3.15-7.72-6.18-17.5-2.79-26.17C33.59,70.65,35.15,66.18,39.25,67.12Z"/><path class="cls-2" d="M8.91,71.3c-1.38.57-3.89,0-4.73,1.11,0,.33-.06.5-.28.56,2,9.78,11.58,12,19.49,15.87.07,2.43.86,4.15,1.39,6.12-4.68-1.46-12.42-5.45-17-10C4,81.1-3,69,8.91,71.3Z"/><path class="cls-2" d="M92.43,86.89v3.34c-.63,1.23-1.12,4.08-2.23,3.9,3.06-4.46.9-9.41-5.57-8.35-5,.82-11,6.16-14.75,10.58-4.61,5.44-8,12-12.81,14.75-2.72-2.38-5.43-4.77-7.24-8.07,7.07-6.8,15-23,29-24C85.51,78.64,91.09,81.79,92.43,86.89Z"/><path class="cls-2" d="M67.37,101.92c1-2.13,2.69-3.62,4.18-5.29,7-.5,14.09-2.41,14.2-8.9.34-.93-2.28-.29-1.4-.84,7.81-1.37,6.12,6.29,2.51,9.74C82.8,100.51,74.32,103.47,67.37,101.92Z"/><path class="cls-2" d="M42.32,93.57A116.63,116.63,0,0,0,55.12,95c-2.32,3-4.4,7-9.74,4.74C44.52,97.49,43.06,95.89,42.32,93.57Z"/><path class="cls-2" d="M0,119.46v-4.17c1.29-6.64,5.51-11,13.92-10,8,.9,17.71,6.82,22.83,11.42,2.44,2.19,4.54,5.24,6.68,7.79,2.4,2.86,5.16,6.22,4.45,10-3.61,3.13-8,1.36-11.13-.27s-6-4.3-8.63-6.13C23.64,125,14.59,118,6.68,119.74c-2.66.58-3.34,2.93-5.29,4.73C1,122.73.49,121.1,0,119.46Z"/><path class="cls-2" d="M19.77,123.92c-1.63.77-5.21-1.55-6.13.83,1.83,4.92,8.43,8.13,14.76,8.08,2.32,0,4.89-1.19,5.56,1.66-7.32,4.27-18.66,4-25.33-1.66-2.37-2-5.65-6.59-5-9.19C5,118.13,16.73,122,19.77,123.92Z"/><path class="cls-1" d="M92.43,56.26h18.11v8.36h-7.25v7.92h6.78v7.95h-6.78v9.18h8V98H92.43Z"/><path class="cls-1" d="M114.38,56.26h8.13q7.86,0,10.64.72a8.15,8.15,0,0,1,4.22,2.38A7.56,7.56,0,0,1,139.18,63a55.79,55.79,0,0,1,.36,8V85.62a34.15,34.15,0,0,1-.53,7.52,5.67,5.67,0,0,1-1.85,3,7.52,7.52,0,0,1-3.25,1.5,28.82,28.82,0,0,1-5.83.43h-13.7Zm10.87,7.15V90.88c1.56,0,2.52-.31,2.88-.94s.55-2.34.55-5.12V68.59A23.2,23.2,0,0,0,128.5,65a1.76,1.76,0,0,0-.83-1.17A5.36,5.36,0,0,0,125.25,63.41Z"/><path class="cls-1" d="M154.45,56.26V98H143.59V56.26Z"/><path class="cls-1" d="M180.69,56.26v8.36h-6.45V98H163.37V64.62H157V56.26Z"/><path class="cls-1" d="M208,80.71c0,4.2-.1,7.18-.3,8.92a9.92,9.92,0,0,1-1.85,4.79,10.07,10.07,0,0,1-4.22,3.32,15.29,15.29,0,0,1-6.19,1.17,15.77,15.77,0,0,1-6-1.1,10.07,10.07,0,0,1-6.23-8.06,87.2,87.2,0,0,1-.31-9V73.57c0-4.19.1-7.17.3-8.91A9.94,9.94,0,0,1,185,59.87a10.07,10.07,0,0,1,4.21-3.33,15.45,15.45,0,0,1,6.2-1.16,15.75,15.75,0,0,1,6,1.1,10.07,10.07,0,0,1,6.23,8.06,90.12,90.12,0,0,1,.31,9ZM197.12,67a13.11,13.11,0,0,0-.32-3.72,1.29,1.29,0,0,0-1.33-.82,1.46,1.46,0,0,0-1.3.66c-.31.44-.46,1.73-.46,3.88v19.5A18.91,18.91,0,0,0,194,91a1.29,1.29,0,0,0,1.38.86,1.34,1.34,0,0,0,1.42-1,20.36,20.36,0,0,0,.31-4.66Z"/><path class="cls-1" d="M212,56.26h7.69a59.54,59.54,0,0,1,10.41.59,7.21,7.21,0,0,1,4.44,3q1.71,2.43,1.71,7.77c0,3.26-.4,5.43-1.22,6.56s-2.39,1.79-4.77,2c2.15.53,3.6,1.25,4.34,2.14A6.33,6.33,0,0,1,236,80.83a39.08,39.08,0,0,1,.27,6.18V98H226.19V84.15c0-2.24-.17-3.62-.53-4.15s-1.28-.8-2.77-.8V98H212Zm10.86,7.15v9.28a4.76,4.76,0,0,0,2.57-.5c.49-.34.73-1.42.73-3.26v-2.3a3.48,3.48,0,0,0-.71-2.6A4,4,0,0,0,222.89,63.41Z"/><path class="cls-1" d="M251.34,56.26V98H240.48V56.26Z"/><path class="cls-1" d="M274.48,56.26,280.69,98h-11.1L269,90.52h-3.89L264.47,98H253.24l5.54-41.77Zm-5.76,26.86q-.81-7.11-1.65-17.55-1.67,12-2.09,17.55Z"/><path class="cls-1" d="M293.4,56.26V89.67H300V98H282.53V56.26Z"/></svg>