<svg id="verona_logo_svg" data-name="verona_logo_svg" xmlns="http://www.w3.org/2000/svg" viewBox="0 0 300 200"><defs><style>.cls-1{fill:#b2a010;}.cls-2{fill:#1f130e;}.cls-3{fill:#de0a14;}.cls-4{fill:#fff;}</style></defs><title>verona_logo</title><path class="cls-1" d="M253.59,147.05a50.58,50.58,0,0,0,7.61-2.41l-.15-.27c-.08-.21-.18-.42-.25-.64a6,6,0,0,1-.24-1.34,6.2,6.2,0,0,1,2.55-5.35,4.86,4.86,0,0,1,1.57-.72,5.55,5.55,0,0,1,.79,1.53,6.08,6.08,0,0,1-.51,4.66,5.51,5.51,0,0,1-.37.61c1-.5,2-1,3-1.6l-.15-.2c-.11-.2-.23-.39-.33-.6a5.22,5.22,0,0,1-.43-1.3,6.21,6.21,0,0,1,1.78-5.65,4.85,4.85,0,0,1,1.45-.93,5.46,5.46,0,0,1,1,1.41,6.16,6.16,0,0,1,.15,4.68c-.08.19-.16.38-.25.57q1.36-.93,2.67-1.95l-.14-.14c-.14-.19-.29-.36-.42-.55a5.53,5.53,0,0,1-.6-1.22,6.19,6.19,0,0,1,1-5.85,5.23,5.23,0,0,1,1.31-1.13,6,6,0,0,1,1.19,1.26,6.15,6.15,0,0,1,.79,4.62c0,.17-.09.34-.14.52.8-.73,1.57-1.48,2.32-2.25l-.13-.1c-.17-.16-.34-.31-.49-.48a5.5,5.5,0,0,1-.77-1.13,6.21,6.21,0,0,1,.15-5.92,5.28,5.28,0,0,1,1.14-1.3A5.58,5.58,0,0,1,280,125a6.1,6.1,0,0,1,1.43,4.46c0,.15,0,.31-.06.46.67-.81,1.32-1.64,1.94-2.49l-.11-.06c-.18-.14-.37-.26-.55-.41a5.82,5.82,0,0,1-.91-1,6.21,6.21,0,0,1-.68-5.89,5.08,5.08,0,0,1,.95-1.44,5.52,5.52,0,0,1,1.49.88,6.1,6.1,0,0,1,2,4.22c0,.13,0,.26,0,.39.54-.88,1-1.77,1.54-2.68l-.08,0c-.2-.11-.41-.21-.61-.33a5.4,5.4,0,0,1-1-.87,6.18,6.18,0,0,1-1.49-5.74,4.78,4.78,0,0,1,.74-1.56,5.36,5.36,0,0,1,1.59.66,6.11,6.11,0,0,1,2.6,3.9,2.84,2.84,0,0,1,.06.31c.4-.92.78-1.86,1.12-2.8h-.05c-.21-.08-.43-.15-.64-.25a5.56,5.56,0,0,1-1.16-.71,6.19,6.19,0,0,1-2.27-5.48,5,5,0,0,1,.51-1.65,5.43,5.43,0,0,1,1.67.44,6.09,6.09,0,0,1,3.12,3.5l.09.25c.26-1,.5-1.92.71-2.88h0c-.22,0-.45-.08-.67-.15a5.53,5.53,0,0,1-1.25-.55,6.21,6.21,0,0,1-3-5.1,5.15,5.15,0,0,1,.28-1.71,5.62,5.62,0,0,1,1.72.2,6.13,6.13,0,0,1,3.57,3,1.51,1.51,0,0,1,.11.22c.13-1,.24-1.95.31-2.94h0c-.23,0-.46,0-.69-.06a5.57,5.57,0,0,1-1.31-.37,6.2,6.2,0,0,1-3.69-4.64,4.73,4.73,0,0,1,0-1.72,5.22,5.22,0,0,1,1.72,0,6.09,6.09,0,0,1,4,2.5c.05.06.09.13.14.2,0-1-.08-2-.15-3-.22,0-.44,0-.67,0a5.69,5.69,0,0,1-1.35-.18,6.21,6.21,0,0,1-4.3-4.08,5,5,0,0,1-.2-1.72,5.71,5.71,0,0,1,1.7-.28,6.17,6.17,0,0,1,4.28,1.93l.11.12c0-.2-.05-.4-.08-.6-.13-.75-.28-1.49-.43-2.23-.22,0-.43.1-.65.13a6.1,6.1,0,0,1-6.19-3.44,5.16,5.16,0,0,1-.44-1.67,5.55,5.55,0,0,1,1.65-.51,6.1,6.1,0,0,1,4.5,1.31l.08.06c-.27-.91-.55-1.8-.87-2.69a4.27,4.27,0,0,1-.6.21,5.07,5.07,0,0,1-1.35.2,6.2,6.2,0,0,1-5.26-2.73,5.09,5.09,0,0,1-.67-1.6,5.52,5.52,0,0,1,1.57-.74,6.13,6.13,0,0,1,4.63.67l.13.08c-.39-.87-.81-1.73-1.24-2.58-.2.1-.39.22-.6.31a5.33,5.33,0,0,1-1.31.38,6.23,6.23,0,0,1-5.59-2A5,5,0,0,1,279,71,5.46,5.46,0,0,1,280.4,70a6.15,6.15,0,0,1,4.69,0l.21.1c-.52-.83-1.06-1.65-1.63-2.45l0,0c-.19.13-.37.27-.56.39a5.2,5.2,0,0,1-1.25.56A6.18,6.18,0,0,1,276,67.51,5.18,5.18,0,0,1,275,66.16a5.47,5.47,0,0,1,1.3-1.14,6.14,6.14,0,0,1,4.64-.64l.31.1c-.64-.77-1.32-1.52-2-2.26l0,.06c-.17.15-.32.32-.5.47a5.7,5.7,0,0,1-1.15.72,6.22,6.22,0,0,1-5.92-.35,5.11,5.11,0,0,1-1.26-1.19,5.86,5.86,0,0,1,1.13-1.31A6.13,6.13,0,0,1,276,59.35l.38.06c-.76-.69-1.54-1.36-2.35-2l-.06.1c-.15.18-.28.37-.43.54a5.84,5.84,0,0,1-1,.88,6.2,6.2,0,0,1-5.91.47,4.88,4.88,0,0,1-1.41-1,5.59,5.59,0,0,1,.93-1.45,6.13,6.13,0,0,1,4.29-1.89,5.52,5.52,0,0,1,1.46.13,4.68,4.68,0,0,1-.69-1.18,5,5,0,0,1,.68-4.93,4.94,4.94,0,0,1,.73-.77,5.33,5.33,0,0,1,2,1.27,5,5,0,0,1,1.25,4.76,5.11,5.11,0,0,1-.88,1.78l-.14.16c.67.54,1.33,1.09,2,1.66a5,5,0,0,1,1.44-4.3,4.4,4.4,0,0,1,.84-.66,5.29,5.29,0,0,1,1.84,1.54,5,5,0,0,1,.57,4.88A5,5,0,0,1,280.35,61l-.2.16c.6.64,1.19,1.29,1.76,2a5,5,0,0,1,2-4.12,4.48,4.48,0,0,1,.92-.54,5.27,5.27,0,0,1,1.61,1.78A5,5,0,0,1,285,66.67l-.25.16c.52.73,1,1.48,1.5,2.24a5,5,0,0,1,2.58-3.88,4.74,4.74,0,0,1,1-.41,5.23,5.23,0,0,1,1.34,2,5,5,0,0,1-.79,4.85,5.13,5.13,0,0,1-1.53,1.28l-.32.14c.42.81.82,1.64,1.2,2.48a5,5,0,0,1,4.15-3.82,5.21,5.21,0,0,1,1.05,2.15,5,5,0,0,1-1.46,4.7,5.24,5.24,0,0,1-1.69,1l-.36.1c.31.88.6,1.76.86,2.64a5,5,0,0,1,3.59-3.11,4.62,4.62,0,0,1,1.07-.12,5.38,5.38,0,0,1,.74,2.28,5,5,0,0,1-2.1,4.45,5.14,5.14,0,0,1-1.82.8l-.38.06c.19.89.36,1.79.5,2.7a5,5,0,0,1,4-2.56,5.33,5.33,0,0,1,1.07,0,5.38,5.38,0,0,1,.41,2.36,5,5,0,0,1-2.7,4.12,5.19,5.19,0,0,1-1.91.54h-.33c.06.89.1,1.78.13,2.68a5,5,0,0,1,4.23-1.91,5.31,5.31,0,0,1,1.06.18,5.37,5.37,0,0,1,.08,2.39,5,5,0,0,1-5.21,4l-.32,0c-.07.9-.16,1.79-.27,2.68a5,5,0,0,1,4.47-1.31,5.1,5.1,0,0,1,1,.32,5.35,5.35,0,0,1-.25,2.39,5,5,0,0,1-3.73,3.21,5.13,5.13,0,0,1-2,0l-.28-.08c-.18.86-.38,1.72-.6,2.56a5,5,0,0,1,4.55-.62,4.27,4.27,0,0,1,1,.46,5.41,5.41,0,0,1-.58,2.32,5,5,0,0,1-4.14,2.66,5.15,5.15,0,0,1-2-.28l-.22-.1c-.3.81-.62,1.61-1,2.41a5,5,0,0,1,4.55,0,4.3,4.3,0,0,1,.89.59,5.28,5.28,0,0,1-.89,2.22,5,5,0,0,1-4.47,2.06,5.19,5.19,0,0,1-1.91-.56l-.19-.11c-.25.46-.5.92-.77,1.38-.16.29-.35.57-.52.85a5,5,0,0,1,4.49.68,5.11,5.11,0,0,1,.8.71,5.3,5.3,0,0,1-1.2,2.07,5,5,0,0,1-4.71,1.42,5.24,5.24,0,0,1-1.82-.82l-.16-.13c-.5.68-1,1.36-1.56,2a5,5,0,0,1,4.31,1.3,4.66,4.66,0,0,1,.7.81,5.39,5.39,0,0,1-1.48,1.89,5,5,0,0,1-4.86.75,5.2,5.2,0,0,1-1.68-1.06l-.13-.14c-.58.6-1.18,1.19-1.79,1.76a5,5,0,0,1,4,1.89,4.33,4.33,0,0,1,.57.9,5.37,5.37,0,0,1-1.72,1.67A5,5,0,0,1,276,140a5.16,5.16,0,0,1-1.52-1.28l-.08-.12c-.65.5-1.3,1-2,1.47a5,5,0,0,1,3.67,2.42,5.21,5.21,0,0,1,.44,1,5.33,5.33,0,0,1-1.94,1.4,5,5,0,0,1-4.88-.62,4.85,4.85,0,0,1-1.33-1.48l0-.09c-.69.41-1.4.79-2.11,1.16a5,5,0,0,1,3.23,2.89,5.85,5.85,0,0,1,.3,1,5.43,5.43,0,0,1-2.12,1.12,5.06,5.06,0,0,1-4.75-1.29,5.13,5.13,0,0,1-1.1-1.65v0a49.89,49.89,0,0,1-5.32,1.84,48.21,48.21,0,0,1-7.24,1.5v-1.41A43,43,0,0,0,253.59,147.05Z"/><path class="cls-1" d="M46.41,147.05a50.58,50.58,0,0,1-7.61-2.41l.15-.27c.08-.21.18-.42.25-.64a6,6,0,0,0,.24-1.34A6.2,6.2,0,0,0,36.89,137a4.86,4.86,0,0,0-1.57-.72,5.55,5.55,0,0,0-.79,1.53,6.08,6.08,0,0,0,.51,4.66,5.51,5.51,0,0,0,.37.61c-1-.5-2-1-3-1.6l.15-.2c.11-.2.23-.39.33-.6a5.22,5.22,0,0,0,.43-1.3,6.21,6.21,0,0,0-1.78-5.65,4.85,4.85,0,0,0-1.45-.93,5.46,5.46,0,0,0-1,1.41,6.16,6.16,0,0,0-.15,4.68c.08.19.16.38.25.57q-1.36-.93-2.67-1.95l.14-.14c.14-.19.29-.36.42-.55a5.53,5.53,0,0,0,.6-1.22,6.19,6.19,0,0,0-1-5.85,5.23,5.23,0,0,0-1.31-1.13,6,6,0,0,0-1.19,1.26,6.15,6.15,0,0,0-.79,4.62c0,.17.09.34.14.52-.8-.73-1.57-1.48-2.32-2.25l.13-.1c.17-.16.34-.31.49-.48a5.5,5.5,0,0,0,.77-1.13,6.21,6.21,0,0,0-.15-5.92,5.28,5.28,0,0,0-1.14-1.3A5.58,5.58,0,0,0,20,125a6.1,6.1,0,0,0-1.43,4.46c0,.15,0,.31.06.46-.67-.81-1.32-1.64-1.94-2.49l.11-.06c.18-.14.37-.26.55-.41a5.82,5.82,0,0,0,.91-1,6.21,6.21,0,0,0,.68-5.89,5.08,5.08,0,0,0-1-1.44,5.52,5.52,0,0,0-1.49.88,6.1,6.1,0,0,0-2,4.22c0,.13,0,.26,0,.39-.54-.88-1.05-1.77-1.54-2.68l.08,0c.2-.11.41-.21.61-.33a5.4,5.4,0,0,0,1-.87,6.18,6.18,0,0,0,1.49-5.74,4.78,4.78,0,0,0-.74-1.56,5.36,5.36,0,0,0-1.59.66,6.11,6.11,0,0,0-2.6,3.9,2.84,2.84,0,0,0-.06.31c-.4-.92-.78-1.86-1.12-2.8h.05c.21-.08.43-.15.64-.25a5.56,5.56,0,0,0,1.16-.71,6.19,6.19,0,0,0,2.27-5.48,5,5,0,0,0-.51-1.65,5.43,5.43,0,0,0-1.67.44,6.09,6.09,0,0,0-3.12,3.5l-.09.25c-.26-1-.5-1.92-.71-2.88h0c.22,0,.45-.08.67-.15a5.53,5.53,0,0,0,1.25-.55,6.21,6.21,0,0,0,3-5.1,5.15,5.15,0,0,0-.28-1.71,5.62,5.62,0,0,0-1.72.2,6.13,6.13,0,0,0-3.57,3,1.51,1.51,0,0,0-.11.22c-.13-1-.24-1.95-.31-2.94H7c.23,0,.46,0,.69-.06A5.57,5.57,0,0,0,9,100.71a6.2,6.2,0,0,0,3.69-4.64,4.73,4.73,0,0,0,0-1.72,5.22,5.22,0,0,0-1.72,0,6.09,6.09,0,0,0-4,2.5c0,.06-.09.13-.14.2,0-1,.08-2,.15-3,.22,0,.44,0,.67,0A5.69,5.69,0,0,0,9,93.92a6.21,6.21,0,0,0,4.3-4.08,5,5,0,0,0,.2-1.72,5.71,5.71,0,0,0-1.7-.28,6.17,6.17,0,0,0-4.28,1.93l-.11.12c0-.2,0-.4.08-.6.13-.75.28-1.49.43-2.23.22,0,.43.1.65.13a6.1,6.1,0,0,0,6.19-3.44,5.16,5.16,0,0,0,.44-1.67,5.55,5.55,0,0,0-1.65-.51,6.1,6.1,0,0,0-4.5,1.31L9,82.94c.27-.91.55-1.8.87-2.69a4.27,4.27,0,0,0,.6.21,5.07,5.07,0,0,0,1.35.2,6.2,6.2,0,0,0,5.26-2.73,5.09,5.09,0,0,0,.67-1.6,5.52,5.52,0,0,0-1.57-.74,6.13,6.13,0,0,0-4.63.67l-.13.08c.39-.87.81-1.73,1.24-2.58.2.1.39.22.6.31a5.33,5.33,0,0,0,1.31.38,6.23,6.23,0,0,0,5.59-2A5,5,0,0,0,21,71,5.46,5.46,0,0,0,19.6,70a6.15,6.15,0,0,0-4.69,0l-.21.1c.52-.83,1.06-1.65,1.63-2.45l0,0c.19.13.37.27.56.39a5.2,5.2,0,0,0,1.25.56A6.18,6.18,0,0,0,24,67.51a5.18,5.18,0,0,0,1.08-1.35A5.47,5.47,0,0,0,23.75,65a6.14,6.14,0,0,0-4.64-.64l-.31.1c.64-.77,1.32-1.52,2-2.26l0,.06c.17.15.32.32.5.47a5.7,5.7,0,0,0,1.15.72,6.22,6.22,0,0,0,5.92-.35,5.11,5.11,0,0,0,1.26-1.19,5.86,5.86,0,0,0-1.13-1.31,6.13,6.13,0,0,0-4.51-1.27l-.38.06c.76-.69,1.54-1.36,2.35-2l.06.1c.15.18.28.37.43.54a5.84,5.84,0,0,0,1,.88,6.2,6.2,0,0,0,5.91.47,4.88,4.88,0,0,0,1.41-1,5.59,5.59,0,0,0-.93-1.45,6.13,6.13,0,0,0-4.29-1.89,5.52,5.52,0,0,0-1.46.13A4.68,4.68,0,0,0,28.88,54a5,5,0,0,0-.68-4.93,4.94,4.94,0,0,0-.73-.77,5.33,5.33,0,0,0-2,1.27,5,5,0,0,0-1.25,4.76,5.11,5.11,0,0,0,.88,1.78l.14.16c-.67.54-1.33,1.09-2,1.66a5,5,0,0,0-1.44-4.3A4.4,4.4,0,0,0,21,53a5.29,5.29,0,0,0-1.84,1.54,5,5,0,0,0-.57,4.88A5,5,0,0,0,19.65,61l.2.16c-.6.64-1.19,1.29-1.76,2a5,5,0,0,0-2-4.12,4.48,4.48,0,0,0-.92-.54,5.27,5.27,0,0,0-1.61,1.78A5,5,0,0,0,15,66.67l.25.16c-.52.73-1,1.48-1.5,2.24a5,5,0,0,0-2.58-3.88,4.74,4.74,0,0,0-1-.41,5.23,5.23,0,0,0-1.34,2,5,5,0,0,0,.79,4.85,5.13,5.13,0,0,0,1.53,1.28l.32.14c-.42.81-.82,1.64-1.2,2.48A5,5,0,0,0,6.12,71.7a5.21,5.21,0,0,0-1,2.15,5,5,0,0,0,1.46,4.7,5.24,5.24,0,0,0,1.69,1l.36.1c-.31.88-.6,1.76-.86,2.64a5,5,0,0,0-3.59-3.11,4.62,4.62,0,0,0-1.07-.12,5.38,5.38,0,0,0-.74,2.28,5,5,0,0,0,2.1,4.45,5.14,5.14,0,0,0,1.82.8l.38.06c-.19.89-.36,1.79-.5,2.7a5,5,0,0,0-4-2.56,5.33,5.33,0,0,0-1.07,0,5.38,5.38,0,0,0-.41,2.36,5,5,0,0,0,2.7,4.12,5.19,5.19,0,0,0,1.91.54H5.6c-.06.89-.1,1.78-.13,2.68a5,5,0,0,0-4.23-1.91,5.31,5.31,0,0,0-1.06.18A5.37,5.37,0,0,0,.1,97.23a5,5,0,0,0,5.21,4l.32,0c.07.9.16,1.79.27,2.68a5,5,0,0,0-4.47-1.31,5.1,5.1,0,0,0-1,.32,5.35,5.35,0,0,0,.25,2.39,5,5,0,0,0,3.73,3.21,5.13,5.13,0,0,0,2,0l.28-.08c.18.86.38,1.72.6,2.56a5,5,0,0,0-4.55-.62,4.27,4.27,0,0,0-1,.46,5.41,5.41,0,0,0,.58,2.32,5,5,0,0,0,4.14,2.66,5.15,5.15,0,0,0,2-.28l.22-.1c.3.81.62,1.61,1,2.41a5,5,0,0,0-4.55,0,4.3,4.3,0,0,0-.89.59,5.28,5.28,0,0,0,.89,2.22,5,5,0,0,0,4.47,2.06,5.19,5.19,0,0,0,1.91-.56l.19-.11c.25.46.5.92.77,1.38.16.29.35.57.52.85a5,5,0,0,0-4.49.68,5.11,5.11,0,0,0-.8.71,5.3,5.3,0,0,0,1.2,2.07,5,5,0,0,0,4.71,1.42,5.24,5.24,0,0,0,1.82-.82l.16-.13c.5.68,1,1.36,1.56,2a5,5,0,0,0-4.31,1.3,4.66,4.66,0,0,0-.7.81,5.39,5.39,0,0,0,1.48,1.89,5,5,0,0,0,4.86.75,5.2,5.2,0,0,0,1.68-1.06l.13-.14c.58.6,1.18,1.19,1.79,1.76a5,5,0,0,0-4,1.89,4.33,4.33,0,0,0-.57.9A5.37,5.37,0,0,0,19.13,140a5,5,0,0,0,4.92.06,5.16,5.16,0,0,0,1.52-1.28l.08-.12c.65.5,1.3,1,2,1.47A5,5,0,0,0,24,142.51a5.21,5.21,0,0,0-.44,1,5.33,5.33,0,0,0,1.94,1.4,5,5,0,0,0,4.88-.62,4.85,4.85,0,0,0,1.33-1.48l0-.09c.69.41,1.4.79,2.11,1.16a5,5,0,0,0-3.23,2.89,5.85,5.85,0,0,0-.3,1,5.43,5.43,0,0,0,2.12,1.12,5.06,5.06,0,0,0,4.75-1.29,5.13,5.13,0,0,0,1.1-1.65v0a49.89,49.89,0,0,0,5.32,1.84,48.21,48.21,0,0,0,7.24,1.5v-1.41A43,43,0,0,1,46.41,147.05Z"/><path class="cls-2" d="M27,78.63a12.23,12.23,0,0,1,2-7.13,26.52,26.52,0,0,1,6-6.51,62.27,62.27,0,0,1,7.84-5.39A52.35,52.35,0,0,1,50.37,56a22.94,22.94,0,0,1,4.9-1.47l4.2-1.4c1.12-.37,2.05-.65,2.8-.84a13.35,13.35,0,0,1,1.82-.35,11.93,11.93,0,0,1,1.26-.07,7.77,7.77,0,0,1,3.5.91,16.26,16.26,0,0,1,3.22,2.1,14.18,14.18,0,0,1,2.31,2.45,3.83,3.83,0,0,1,.91,2,1.29,1.29,0,0,1-.42,1,5.82,5.82,0,0,1-1.68.77C72,63.59,70.86,66,69.83,68.35q-1.39,3.08-2.94,6.22t-2.52,5.25a62.89,62.89,0,0,0-2.94,7.28,56.94,56.94,0,0,0-2,7.35,41,41,0,0,0-.84,8.19,24.93,24.93,0,0,0,1.54,8.68,14.3,14.3,0,0,0,5.74,7q2.24-4.2,5.39-9.8t6.58-12q3.44-6.36,6.79-13.16t6-13.36A123.73,123.73,0,0,0,95,57.5a39.88,39.88,0,0,0,1.68-10.71,9.45,9.45,0,0,0-.84-4.13,7.22,7.22,0,0,1-.84-3c0-.28.18-.42.56-.42a16.84,16.84,0,0,1,3.15.42,11.8,11.8,0,0,1,4.06,1.75,10.91,10.91,0,0,1,3.5,4.06,15.56,15.56,0,0,1,1.47,7.35,35.91,35.91,0,0,1-1,7.28,30.1,30.1,0,0,1-4.34,9.66q-8,12.16-14.21,22.32T77.6,109.43q-4.41,7.21-7.14,11.27c-1.82,2.7-3.06,4.06-3.71,4.06a10.62,10.62,0,0,1-3.36-1.19,16.56,16.56,0,0,1-5.11-4.13,29.37,29.37,0,0,1-4.69-7.84,31.41,31.41,0,0,1-2.1-12.32,57.35,57.35,0,0,1,1.19-11.62A106.24,106.24,0,0,1,55.34,77.3q1.47-4.62,2.73-7.55c.84-2,1.31-3,1.4-3.22l3.92-8.4c.09-.28.19-.54.28-.77s.19-.44.28-.63q-16.8,6.85-24.28,12.6T32.18,80a2.57,2.57,0,0,0,.91,2q.9.84,4,.84a33.26,33.26,0,0,0,5.74-.56v.14a.53.53,0,0,0,.42.14.36.36,0,0,0,.28.14c.09,0,.14.1.14.28l-.14.28-3.36,6.58a4.8,4.8,0,0,1-.42.35,1.41,1.41,0,0,1-.84.21c-1.5-.65-2.8-1.26-3.92-1.82A19.23,19.23,0,0,1,32.25,87c-.8-.51-1.19-.86-1.19-1l.14-.14Q27.14,82.35,27,78.63Z"/><path class="cls-2" d="M94.93,116.11a15,15,0,0,1-4.11-5.69,18.67,18.67,0,0,1-1.34-6.84,21.72,21.72,0,0,1,2.43-9.51,22.19,22.19,0,0,1,3.93-5.63,21.83,21.83,0,0,1,5.57-4.23A19.69,19.69,0,0,1,108,82.09a15.31,15.31,0,0,1,6.84.6,5,5,0,0,1,1.21.37,5.72,5.72,0,0,1,2,1.39,7.82,7.82,0,0,1,1.69,2.78,9.43,9.43,0,0,1,.31,4.54,16.55,16.55,0,0,1-1.21,3.64,25,25,0,0,1-2,3.45,15,15,0,0,1-3.33,3.45,9.6,9.6,0,0,1-2.6,1.39,11.64,11.64,0,0,1-2.49.55,14.77,14.77,0,0,1-2.66,0,9.15,9.15,0,0,1-3.09-1.22,4.61,4.61,0,0,1-2.12-3.51,5.93,5.93,0,0,0,3,0,18.22,18.22,0,0,0,3.69-1.21A12.94,12.94,0,0,0,111.58,95,34.24,34.24,0,0,0,115,90.44a7.82,7.82,0,0,0,.79-2.54c.12-.89-.38-1.49-1.51-1.82a4.33,4.33,0,0,0-4,1,27.74,27.74,0,0,0-4.12,3.82,49.77,49.77,0,0,0-4.36,6,34.85,34.85,0,0,0-3.75,7.63,16.65,16.65,0,0,0-.91,5.21A6.45,6.45,0,0,0,97.9,113a3.68,3.68,0,0,0,1.15,1.34,9.29,9.29,0,0,0,6.84,1.39,17.82,17.82,0,0,0,6.84-2.91,28.74,28.74,0,0,0,5.93-5.45,32,32,0,0,0,4.12-6.11,12.84,12.84,0,0,1,.73-1.33,7.38,7.38,0,0,1,2.06,2.66,5.73,5.73,0,0,1,.36,3.51,30.8,30.8,0,0,1-6.24,7.63,25.26,25.26,0,0,1-7.87,4.84,18.2,18.2,0,0,1-8.53,1.09A16.79,16.79,0,0,1,94.93,116.11Z"/><path class="cls-2" d="M152.93,101a8.3,8.3,0,0,1,1.82,1.93,6.68,6.68,0,0,1,.84,2.06,3,3,0,0,1-.72,2.42,32.12,32.12,0,0,1-2.48,3.27,29,29,0,0,1-3.88,3.76,30.79,30.79,0,0,1-4.84,3.21,11.62,11.62,0,0,1-5.51,1.39,5.63,5.63,0,0,1-3.88-1.94,9.52,9.52,0,0,1-1.93-4.66q-.61-3.21.72-9c.41-1.21.77-2.42,1.09-3.63.33-1,.65-2,1-3.09s.61-2,.85-2.73.44-1.33.61-1.81a3.67,3.67,0,0,0,.18-1.46,3.21,3.21,0,0,0-.61-1.51,10.23,10.23,0,0,0-1.88-1.88q-1.44,3.76-2.78,7.15c-.81,1.94-1.68,3.91-2.6,5.93a41.42,41.42,0,0,1-2.73,5.09,5.68,5.68,0,0,1-1.87,1.93,5.2,5.2,0,0,1-2,.73,5.9,5.9,0,0,1-1.88-.06,5.81,5.81,0,0,1-1.39-.42q2.41-4.24,4.72-8.72,2.06-3.75,4.18-8.24t3.81-8.35a14.91,14.91,0,0,1-1.21-3.27,8.45,8.45,0,0,1,0-2.84,4.26,4.26,0,0,1,1.94-2.73,1.76,1.76,0,0,1,.85-.48,4.83,4.83,0,0,1,2.54.24,3.9,3.9,0,0,1,1.51,1.21,4.25,4.25,0,0,1,.85,1.94,5.35,5.35,0,0,1-.12,2.24,5.55,5.55,0,0,1-1.27,2.24,2,2,0,0,0-.12,1.21,5.4,5.4,0,0,0,.48,1.33,4,4,0,0,0,1.57,1.45l5.45,3.63a8.59,8.59,0,0,1,2.42,2.43,7.6,7.6,0,0,1,1,3A6.5,6.5,0,0,1,146.51,98c-.89,1.53-1.83,3.15-2.84,4.84s-1.92,3.29-2.73,4.79a25.28,25.28,0,0,0-1.75,3.87c-.37,1.09-.3,1.8.18,2.12a7.82,7.82,0,0,0,4-1.33,22.9,22.9,0,0,0,4.29-3.64A35.28,35.28,0,0,0,152.93,101Z"/><path class="cls-2" d="M194.7,92.56a40,40,0,0,1-6.29,3.92,28.08,28.08,0,0,1-4.2,1.68,68.29,68.29,0,0,1-2.8,6.44v.14a.85.85,0,0,0-.21.28,1.28,1.28,0,0,1-.21.28q-4.06,7-8.19,10a22.83,22.83,0,0,1-7.35,3.85,14.36,14.36,0,0,1-7.42,0,9.43,9.43,0,0,1-5.39-4.06,11.8,11.8,0,0,1-1.47-5.81,18.86,18.86,0,0,1,1.12-6.3q1.13-3.15,2.24-5.53a23.8,23.8,0,0,1,2.24-4.2,72.84,72.84,0,0,1,6-7.42,3.53,3.53,0,0,1,2.31-1.26,7,7,0,0,1,2.73.28,13.07,13.07,0,0,1,2.73,1.19q1.32.78,2.31,1.47a3.49,3.49,0,0,0,1,.7c.18.19.28.33.28.42,0-.09,0-.14.07-.14s.07,0,.07-.14v-.14c.28-.56.53-1,.77-1.47a5.24,5.24,0,0,1,.91-1.19l.14-.28.28-.28a6.12,6.12,0,0,1,3.5-1.82A2.35,2.35,0,0,1,181,83a3.66,3.66,0,0,0,.56.07,5.48,5.48,0,0,1,4.2,2.52q1.53,2.39.42,7.28a.39.39,0,0,0-.14.28,1.35,1.35,0,0,1-.07.35,1.49,1.49,0,0,0-.07.49,23.05,23.05,0,0,0,3.78-1.75c1.21-.7,2.33-1.37,3.36-2a4.74,4.74,0,0,1,.84-.28,1.11,1.11,0,0,1,1.39.42,1.48,1.48,0,0,1,.14.7A2.12,2.12,0,0,1,194.7,92.56Zm-21,9.66q1.26-2.52,2.52-5.46a4.55,4.55,0,0,1-2.38-3,8.6,8.6,0,0,1-.14-3.43c-.47.28-1,.61-1.54,1s-1.08.75-1.54,1.12a17.48,17.48,0,0,1-1.4,1.26,17.88,17.88,0,0,0-1.4,1.26,2.56,2.56,0,0,0-.56.42,25.4,25.4,0,0,0-3.08,3.85,51.26,51.26,0,0,0-3.5,6.51,27.75,27.75,0,0,0-1.61,5.32,8.4,8.4,0,0,0-.07,3.22,2.73,2.73,0,0,0,.84,2q2.39.7,4.9-1.4a25,25,0,0,0,4.48-4.9A54.83,54.83,0,0,0,173.71,102.22Zm6-13.58c.09-1.12,0-1.77-.42-2H179a2.13,2.13,0,0,0-1.12,1,6.73,6.73,0,0,0-.84,2.17,4,4,0,0,0-.07,2,1.56,1.56,0,0,0,.91,1.26c.18-.37.49-1,.91-1.89A12.36,12.36,0,0,0,179.73,88.64Z"/><path class="cls-2" d="M224.1,103.9a1.54,1.54,0,0,1,.77.91c.23.51-.16,1.42-1.19,2.73A57.18,57.18,0,0,1,218,113.7q-2.87,2.65-3.85,3.36a11.33,11.33,0,0,1-3.85,1.89,7.18,7.18,0,0,1-2.45.21,4.62,4.62,0,0,1-1.68-.56,4.31,4.31,0,0,1-2.58-3.85,18.1,18.1,0,0,1,.62-6q.28-1.68.63-3.15c.24-1,.54-2.05.91-3.22s.89-2.5,1.54-4,1.54-3.26,2.66-5.32q-3.36,3.36-6.85,7.42-2.94,3.49-6.44,8.26A98.84,98.84,0,0,0,190,119.3a7.64,7.64,0,0,1-4.34-1.12,6.25,6.25,0,0,1-2.38-2.94c-.56-1.31-.42-3.31.42-6A57.39,57.39,0,0,1,188,99.14a106.66,106.66,0,0,0,4.76-9.94,1.07,1.07,0,0,0,.14-.42,1,1,0,0,1,.14-.42,4.74,4.74,0,0,0,.28-.84,9.26,9.26,0,0,1,.42-1.26,3.35,3.35,0,0,0,.42-1.12c.28-.65.53-1.35.77-2.1a16.42,16.42,0,0,0,.49-2v-.14a.17.17,0,0,1,0-.28l.56-.28c.18-.09.65.05,1.4.42a4.79,4.79,0,0,1,.84.7c.65.47,1.35,1,2.1,1.61a10.86,10.86,0,0,1,2,2.1,6.71,6.71,0,0,1,1.11,2.45,4.44,4.44,0,0,1-.27,2.66c-.1.28-.38.89-.84,1.82a.82.82,0,0,1-.28.56c-.1.19-.24.42-.42.7a15.77,15.77,0,0,0-.84,1.54c0,.1-.1.24-.28.42q-2,2.94-3.92,5.6a25,25,0,0,0-2.66,4.2q3.91-4.34,7.56-8.26,3.21-3.36,6.78-6.79a44.6,44.6,0,0,1,6.65-5.39A17.34,17.34,0,0,1,219.2,87a9.72,9.72,0,0,1,2.45,2.52,2.53,2.53,0,0,1-.07,2.94c-.37.75-.91,1.71-1.61,2.87s-1.42,2.47-2.17,3.92-1.52,2.92-2.31,4.41-1.47,2.85-2,4.06a47.1,47.1,0,0,0-2.1,5c-.46,1.4-.6,2.19-.42,2.38a1.58,1.58,0,0,0,.7-.14,16.24,16.24,0,0,0,2.38-1.61,39.82,39.82,0,0,0,3.22-2.8c1.12-1.07,2.19-2.15,3.22-3.22a21.4,21.4,0,0,0,2.38-2.87.86.86,0,0,1,.42-.42A1,1,0,0,1,224.1,103.9Z"/><path class="cls-2" d="M261.2,104.6a3.83,3.83,0,0,1,.91,1c.32.47,0,1.35-.91,2.66a45,45,0,0,1-4.83,6.23c-1.64,1.73-2.73,2.82-3.29,3.29a7.92,7.92,0,0,1-3.57,2,8.19,8.19,0,0,1-2.45.14,5.17,5.17,0,0,1-4.13-2.66,10.79,10.79,0,0,1-1.19-5.18,25.28,25.28,0,0,1,.77-6.09q.77-3.15,1.61-5.53-1.55,2.1-3.64,4.9t-4.2,5.46q-2.1,2.65-3.71,4.76c-1.07,1.4-1.8,2.33-2.17,2.8a1.84,1.84,0,0,1-1.4.63,7,7,0,0,1-2.17-.21,10.11,10.11,0,0,1-2.38-.91,8.47,8.47,0,0,1-2-1.47q-1.81-1.68-1.82-6.58t3.22-11.48a61.22,61.22,0,0,1,4-6.86A37.88,37.88,0,0,1,232.22,86a13.1,13.1,0,0,1,4.41-3.08,4.27,4.27,0,0,1,3.85.14q2.37,1.41,3.92,2.38a27.34,27.34,0,0,1,2.38,1.68l7.14,5.74c1,.94,1.56,1.61,1.61,2A1.86,1.86,0,0,1,255,96.2a1,1,0,0,1-.91.49,1.29,1.29,0,0,1-.77-.35c-.47-.37-1.08-.86-1.82-1.47L249.16,93c-.84-.65-1.66-1.23-2.45-1.75s-1.38-.86-1.75-1a5.13,5.13,0,0,0-4,.21A7.67,7.67,0,0,0,238.1,93c-.47.66-1,1.52-1.68,2.59s-1.38,2.31-2.17,3.71-1.54,2.87-2.24,4.41-1.33,3.1-1.89,4.69a3.09,3.09,0,0,0-.28,2.1c.19.37.42.56.7.56a.57.57,0,0,0,.42-.14.42.42,0,0,0,.28-.14,27.27,27.27,0,0,0,2.73-2.94q1.75-2.1,3.64-4.62t3.57-5q1.68-2.45,2.8-4c.84-1.12,1.72-1.3,2.66-.56.65.47,1.4,1,2.24,1.54A18.35,18.35,0,0,1,251.19,97a11.65,11.65,0,0,1,1.68,1.89,2.16,2.16,0,0,1,.49,1.61c-.66,1.87-1.26,3.66-1.82,5.39s-1,3.31-1.4,4.76a35.13,35.13,0,0,0-.77,3.57c-.14.93-.07,1.45.21,1.54s.88-.07,1.82-.77a23.18,23.18,0,0,0,3-2.8c1.07-1.17,2.12-2.4,3.15-3.71a35.92,35.92,0,0,0,2.38-3.36,1.52,1.52,0,0,1,.42-.28A2.06,2.06,0,0,1,261.2,104.6Z"/><path class="cls-2" d="M159.25,60.68c-2.85,1.87-17.1,13.58-17.08,15.32,0,.48-1.72-.47-1.72-.93,0-4.62,18.37-24.74,18.34-27.42,0-1-.76-1.19-1.58-1.19-6.65.09-23.36,14.14-23.3,18.91,0,.34.36.36,1,.36.31,0,1.05-.17,1.27-.19a3.81,3.81,0,0,1-2.45,1A1.85,1.85,0,0,1,132,64.61C132,58.34,148.35,46.1,157.3,46c2,0,2.74,1,2.76,2.37.06,4.71-12.3,17.53-14.1,22C148.1,68.58,157,61.47,159.25,60.68Z"/><path class="cls-2" d="M163.17,52.25a14.94,14.94,0,0,1,2.34-2.57,2.13,2.13,0,0,1,1-.57c1.58-.08,2.71,1.56,2.18,1.25-1-.46-2.83,2.2-4.07,3.72s-2.37,3.22-3.78,5.28a62.1,62.1,0,0,0-5.25,9.11c1.22.14,5.9-4.46,7.57-6a.13.13,0,1,1,.19.17c-1.38,1.58-6.29,6.71-8,7.33a1,1,0,0,1-.9-.11,3,3,0,0,1-1-1.13s-.09-.11-.09-.42c0-.85,1.3-3.58,4.75-9C159.89,56.62,161.7,54.17,163.17,52.25Z"/><path class="cls-2" d="M179.62,49.68a2.4,2.4,0,0,1,1-.57c1.61-.08,2.74,1.56,2.2,1.25-1-.46-2.82,2.2-4,3.72a124.08,124.08,0,0,0-7.28,10.61l0,.06a32.13,32.13,0,0,0,7.54-3.93s.05-.08.11-.08a.14.14,0,0,1,.14.14v.06a35.85,35.85,0,0,1-5.92,3.81,10.81,10.81,0,0,1-1.92.84,9.58,9.58,0,0,1,.39,2.82A9.45,9.45,0,0,1,171.8,70c-1.55,8-8.6,13.63-9.82,13.69h-.08c-.57,0-1.24-.93-1.27-1.41-.09-1.58,3.19-9,7.79-16.76-.77-.62.33-2.12,1.18-2.12,2.68-4.29,5.53-8.38,7.7-11.17A18.52,18.52,0,0,1,179.62,49.68ZM162.77,81.9c3.33-2.48,7.65-6.91,8.61-12.84a4.86,4.86,0,0,0,.08-1,4.69,4.69,0,0,0-.53-2.43,135.76,135.76,0,0,0-8.38,16c-.12.22-.12.36-.06.36S162.6,82,162.77,81.9Z"/><path class="cls-2" d="M185.46,59.19c-5.11,0-11,9.51-9.43,10.18s5.62-3.86,7.51-6.74a2.71,2.71,0,0,1-.31-1.38,2.74,2.74,0,0,1,1.3-1.16.9.9,0,0,1,.65.28,2.42,2.42,0,0,0,2.34,1.44c1.89-.17,2.93-1.27,3.24-1.24a5,5,0,0,1-2.65,1.78,5.44,5.44,0,0,1-1.66.25,2.4,2.4,0,0,1-.85-.11c-.76,3.75-6.6,7.82-9.59,7.65a2.28,2.28,0,0,1-2.15-2.23c0-4.6,6.18-9.2,10.64-9.2a2.47,2.47,0,0,1,1.72.48c.14.08.06.08-.06.08C185.88,59.24,185.66,59.19,185.46,59.19Z"/><path class="cls-2" d="M191,58.91a.64.64,0,0,1,.39-.15,2.33,2.33,0,0,1,1.75,1.81c0,.11-.08,0-.31-.06-.42,0-1.41,1.08-2.26,2.2a37.41,37.41,0,0,0-2.34,3.39A35.72,35.72,0,0,1,195,60a6.23,6.23,0,0,1,2.54-1.32c.31,0,1.46,1.18,1.27,1.41-.63.65-3,2.71-3.9,4.91,1.36-.11,3.3-1.38,5.05-2.94,0,0,.2-.05.23,0-.51.68-3.9,3.84-5.84,3.84-.51,0-1.36-1-1.36-1.32a7.24,7.24,0,0,1,1.64-3.28,21.53,21.53,0,0,0-5.84,4.77c-1.44,1.55-3.13,4-2.51,4.32-.82.2-1.5-.68-1.7-1.47a2.78,2.78,0,0,1,.43-1.44,32.81,32.81,0,0,1,3.1-5.16A18.77,18.77,0,0,1,191,58.91Z"/><path class="cls-2" d="M205.63,68.53c1.78-.48,5.82-4.35,7.62-6a.14.14,0,0,1,.23.17C211,65.34,206.42,70,204.73,70a1.34,1.34,0,0,1-.87-.59,1.91,1.91,0,0,1-.51-1.1c0-1.61,3.27-6.32,4.74-7.65-2.32,1.05-6.46,4.46-8.55,6.72a12.59,12.59,0,0,0-1,1.19c-.76.9-1,1.66-.53,1.86-.85.2-1.53-.71-1.75-1.53a4.46,4.46,0,0,1,.79-2.25,36.11,36.11,0,0,1,2.68-4.29,19.38,19.38,0,0,1,3-3.5.56.56,0,0,1,.37-.14,2.33,2.33,0,0,1,1.77,1.8c0,.12-.11,0-.34,0s-1.41,1.15-2.25,2.25A51.71,51.71,0,0,0,199,67.34a12,12,0,0,1,1.44-1.58c3.16-3.1,8.13-6.91,9.09-6.91.67,0,1.58,1.52,1.21,1.83C210.06,61.25,205.69,67.2,205.63,68.53Z"/><path class="cls-2" d="M221.32,59.19c-5.11,0-11,9.51-9.42,10.18s5.61-3.86,7.5-6.74a2.71,2.71,0,0,1-.31-1.38,2.78,2.78,0,0,1,1.3-1.16.9.9,0,0,1,.65.28,2.43,2.43,0,0,0,2.34,1.44c1.89-.17,2.94-1.27,3.25-1.24A5,5,0,0,1,224,62.35a5.44,5.44,0,0,1-1.66.25,2.44,2.44,0,0,1-.85-.11c-.76,3.75-6.6,7.82-9.59,7.65a2.27,2.27,0,0,1-2.14-2.23c0-4.6,6.17-9.2,10.63-9.2a2.43,2.43,0,0,1,1.72.48c.15.08.06.08-.05.08C221.75,59.24,221.52,59.19,221.32,59.19Z"/><path class="cls-2" d="M239.92,59.19c1.75-2.71,3.5-5,4.88-6.94a17.86,17.86,0,0,1,2.34-2.57,2.13,2.13,0,0,1,1-.57c1.58-.08,2.71,1.56,2.21,1.25-1-.46-2.85,2.2-4,3.72s-2.4,3.22-3.78,5.28a69.71,69.71,0,0,0-5.45,9.22c1.5-.11,6.46-4.93,7.71-6.09.17-.14.31.08.22.17-1.35,1.52-6.4,6.83-8,7.33a1.15,1.15,0,0,1-.93-.11A2,2,0,0,1,235,68.41c0-.56.62-2,2-4.57-1,.79-6.8,6.21-8.27,6.21-.51,0-1.41-1.27-1.41-1.92,0-1.52,2.54-5.13,5.53-7.08,2.17-1.44,4.09-2.34,5.79-2.34A1.7,1.7,0,0,1,239.92,59.19Zm-.26.39a2.15,2.15,0,0,0-1.18,0c-1.19.31-3,1.75-4.6,3.28-2.54,2.39-4.43,5.36-4.21,5.5s4.86-2.94,8.16-5.81Z"/><path class="cls-2" d="M242.23,70a1.92,1.92,0,0,1-1.16-1.35c0-1.64,4.1-7.79,5.9-9.23a.59.59,0,0,1,.42-.17,2.45,2.45,0,0,1,1.78,1.84c0,.11-.14,0-.36-.06-1.16-.11-5,6.32-5.37,7.48,1.73-.45,5.84-4.38,7.57-6,.19-.14.33.08.25.17-2.45,2.65-6.94,7.25-8.69,7.39A1.42,1.42,0,0,1,242.23,70Zm9.42-14.16c.26.28.43.7.32.7a.88.88,0,0,0-.6,0,8.67,8.67,0,0,0-2.11,1.84c-.4.5-1-.09-1-.6A4.1,4.1,0,0,1,250,55,2.05,2.05,0,0,1,251.65,55.86Z"/><path class="cls-3" d="M248.6,157.09a114.37,114.37,0,0,1-32.62,3c-19.55-.73-42.21-6.33-60,.65-.15.06,9-16.48,13.54-21.9-4-2.77-13.6-9.41-13.54-9.43,9.75-3.82,24.61-4.27,43.37-1.64,19.74,2.76,30.27,2.12,49.83-2.86.51-.13-10.34,19-10.34,19C242.28,146.46,248.79,157.05,248.6,157.09Z"/><path class="cls-4" d="M176.26,136.61a5.54,5.54,0,0,1,1.48-3.61,11.43,11.43,0,0,1,3.43-2.52,17.77,17.77,0,0,1,4.3-1.48,19.68,19.68,0,0,1,4.11-.49,27.45,27.45,0,0,1,2.91.2,12.63,12.63,0,0,1,3.38.86,7,7,0,0,1,2.73,2,4.92,4.92,0,0,1,1,3.52c0,.09,0,.4-.11.95a7.17,7.17,0,0,1-.62,2,11.28,11.28,0,0,1-1.53,2.39,9.6,9.6,0,0,1-2.89,2.28h0a19,19,0,0,1-4.05,1.61,15.86,15.86,0,0,1-4.22.6c-.44,0-.86,0-1.24-.05a8.25,8.25,0,0,1-1.07-.13,38.3,38.3,0,0,0-1.75,4.45,12.67,12.67,0,0,0-.65,3.08,1.91,1.91,0,0,0,.14.66,6.07,6.07,0,0,0,.31.69c.12.22.22.42.31.62a1.1,1.1,0,0,1,.13.42.23.23,0,0,1-.26.26.2.2,0,0,1-.14,0,3.18,3.18,0,0,1-1.51-.67,3.5,3.5,0,0,1-1-1.35,5.33,5.33,0,0,1-.33-2.5,19.81,19.81,0,0,1,1.69-6.59,2.33,2.33,0,0,1-1-2.08c.21.09.49.18.84.29l.89.24c.42-.89.76-1.59,1-2.12s.56-1.07.87-1.62.69-1.22,1.13-2,1.05-2,1.82-3.43l.2-.24a.32.32,0,0,1,.2-.07.08.08,0,0,1,.07,0l.07,0a3.75,3.75,0,0,0,.42.31l.69.49a3.39,3.39,0,0,1,.62.57,1,1,0,0,1,.27.62,2.14,2.14,0,0,1-.25.75,8.19,8.19,0,0,1-.46.8l-.11.15a.55.55,0,0,0-.09.14c0,.07-.12.2-.23.37s-.26.48-.48.91l-.92,1.75c-.38.74-.87,1.7-1.46,2.88a20.29,20.29,0,0,0,3-.25,12.89,12.89,0,0,0,3.06-.86l1.18-.51a13.63,13.63,0,0,0,2.06-1.17,12.55,12.55,0,0,0,2.14-1.86,5.67,5.67,0,0,0,1.37-2.61,2.71,2.71,0,0,0-.77-2.15,5.18,5.18,0,0,0-2.09-1.17,11.47,11.47,0,0,0-2.68-.51c-.94-.07-1.79-.11-2.52-.11-.39,0-.94,0-1.67.09s-1.53.17-2.41.33a23.7,23.7,0,0,0-2.71.66,12.87,12.87,0,0,0-2.5,1.06,7,7,0,0,0-1.88,1.53,3.22,3.22,0,0,0-.8,2,1,1,0,0,0,0,.28.52.52,0,0,0,.25.29,1.54,1.54,0,0,0,.57.22,4.55,4.55,0,0,0,1,.09c.27,0,.57,0,.91,0l1.14-.13v0a.17.17,0,0,0,.13,0c.09.06.13.11.13.14a.17.17,0,0,1,0,.13l-1.29,2.39-.15.13a.4.4,0,0,1-.25.09,2.48,2.48,0,0,1-1-.31,6.75,6.75,0,0,1-1.29-.84,5.3,5.3,0,0,1-1.14-1.26A2.55,2.55,0,0,1,176.26,136.61Z"/><path class="cls-4" d="M199.47,151.73a12.87,12.87,0,0,1-2,1.17,3.82,3.82,0,0,1-1.06.42,5.13,5.13,0,0,1-.65.06.76.76,0,0,1-.31,0v0s0,0,0,0a1,1,0,0,1-1-.58,2.44,2.44,0,0,1-.32-1.19,10.08,10.08,0,0,1,.6-3.19,26.25,26.25,0,0,1,2-4.29l1.51-2.66a7.24,7.24,0,0,1,1.15.58,3.81,3.81,0,0,1,.8.64,1.18,1.18,0,0,1,.36.82,6.86,6.86,0,0,1-.65,1.24c-.43.74-.9,1.58-1.42,2.52s-1,1.88-1.42,2.79a5.6,5.6,0,0,0-.65,2c0,.06,0,.09.05.09.27.09.64,0,1.13-.4a18.41,18.41,0,0,0,1.93-1.32C200,149.9,200,151.24,199.47,151.73Zm1.17-10.12a2.69,2.69,0,0,1-.93-.77,2,2,0,0,1-.44-1.22,1.77,1.77,0,0,1,.13-.62.78.78,0,0,1,.09-.22c.06-.12.12-.24.2-.38A1.84,1.84,0,0,1,200,138a.46.46,0,0,1,.37-.18,8.24,8.24,0,0,1,.89.51,5.63,5.63,0,0,1,.65.51.72.72,0,0,1,.28.53c0-.15,0-.12-.08.09s-.15.47-.27.79a7.88,7.88,0,0,1-.4.93c-.15.3-.31.45-.49.45A.62.62,0,0,1,200.64,141.61Z"/><path class="cls-4" d="M210,141.48a1.73,1.73,0,0,1,1.31.55,1.63,1.63,0,0,1,.33.95,2.65,2.65,0,0,1-.06.58,4.7,4.7,0,0,1-.16.49c-.09.17-.16.34-.22.48a7.93,7.93,0,0,0-1.73.49,17.86,17.86,0,0,0-1.78.84c-.59.33-1.17.67-1.73,1s-1.1.75-1.6,1.13a33.44,33.44,0,0,0-3.42,2.92,4.07,4.07,0,0,0,.71,0,17.69,17.69,0,0,0,2-.11c.7-.07,1.39-.17,2.09-.28s1.35-.26,2-.42,1.18-.32,1.68-.47c.09,0,.14,0,.14.13a1.74,1.74,0,0,1-.05.34,2.83,2.83,0,0,1-.13.42,6,6,0,0,1-1,2,2.45,2.45,0,0,1-2,.71l-1.51,0-2.44,0-1.71,0-.73,0a.54.54,0,0,1-.54-.4,2.77,2.77,0,0,1-.13-.89c0-.2,0-.4,0-.6a5,5,0,0,1,.07-.5l.09-.54c.59-.41,1.34-1,2.24-1.72s1.78-1.45,2.64-2.13c1-.79,2.06-1.63,3.16-2.52-.18,0-.5.11-1,.22l-1.46.36-1.4.31a5.34,5.34,0,0,1-.76.13.73.73,0,0,1-.57-.24,1.68,1.68,0,0,1-.34-.6,3.19,3.19,0,0,1-.13-.8c0-.29,0-.57,0-.84a3.87,3.87,0,0,1,0-.62c0-.18.1-.26.22-.26a6.22,6.22,0,0,1,.87.08,6.55,6.55,0,0,0,1.13.09,16.35,16.35,0,0,0,2.51-.2,18,18,0,0,1,2.56-.2,2.5,2.5,0,0,1,.4,0Z"/><path class="cls-4" d="M220,141.48a1.73,1.73,0,0,1,1.31.55,1.63,1.63,0,0,1,.33.95,2.65,2.65,0,0,1-.06.58,4.7,4.7,0,0,1-.16.49c-.09.17-.16.34-.22.48a7.93,7.93,0,0,0-1.73.49,16.87,16.87,0,0,0-1.78.84c-.59.33-1.17.67-1.73,1s-1.1.75-1.6,1.13A33.44,33.44,0,0,0,211,151a4.07,4.07,0,0,0,.71,0,17.69,17.69,0,0,0,2-.11c.7-.07,1.39-.17,2.09-.28s1.35-.26,2-.42,1.19-.32,1.69-.47c.09,0,.14,0,.14.13a1.74,1.74,0,0,1-.05.34,2.83,2.83,0,0,1-.13.42,6,6,0,0,1-1,2,2.45,2.45,0,0,1-2,.71l-1.51,0-2.44,0-1.71,0-.73,0a.54.54,0,0,1-.54-.4,2.77,2.77,0,0,1-.13-.89c0-.2,0-.4,0-.6a5,5,0,0,1,.07-.5l.09-.54c.59-.41,1.34-1,2.24-1.72s1.78-1.45,2.64-2.13,2.06-1.63,3.16-2.52c-.18,0-.5.11-1,.22l-1.46.36-1.4.31a5.34,5.34,0,0,1-.76.13.75.75,0,0,1-.58-.24,1.66,1.66,0,0,1-.33-.6,3.19,3.19,0,0,1-.13-.8c0-.29,0-.57,0-.84a3.87,3.87,0,0,1,0-.62c0-.18.1-.26.22-.26a6.22,6.22,0,0,1,.87.08,6.55,6.55,0,0,0,1.13.09,16.35,16.35,0,0,0,2.51-.2,18,18,0,0,1,2.56-.2,2.5,2.5,0,0,1,.4,0Z"/><path class="cls-4" d="M233.67,148.69a1.48,1.48,0,0,1,.29.31c.1.15,0,.43-.29.84a14.68,14.68,0,0,1-1.53,2,13,13,0,0,1-1,1,2.42,2.42,0,0,1-1.13.62,2.51,2.51,0,0,1-.78.05,1.65,1.65,0,0,1-1.31-.84,3.48,3.48,0,0,1-.38-1.64,7.81,7.81,0,0,1,.25-1.93,17,17,0,0,1,.51-1.74l-1.16,1.54c-.44.59-.88,1.17-1.33,1.73l-1.18,1.5-.68.89a.6.6,0,0,1-.45.2,2.45,2.45,0,0,1-.69-.07,2.9,2.9,0,0,1-.75-.29,2.61,2.61,0,0,1-.65-.46,2.84,2.84,0,0,1-.57-2.08,8.52,8.52,0,0,1,1-3.63,18.37,18.37,0,0,1,1.26-2.17,11.68,11.68,0,0,1,1.4-1.72,4.32,4.32,0,0,1,1.4-1,1.36,1.36,0,0,1,1.22,0c.51.29.92.54,1.25.75a8.72,8.72,0,0,1,.75.53l2.27,1.82c.32.29.49.5.51.64a.6.6,0,0,1-.16.42.29.29,0,0,1-.29.15.38.38,0,0,1-.24-.11l-.58-.46-.75-.6c-.27-.21-.53-.39-.78-.55s-.44-.28-.55-.34a1.67,1.67,0,0,0-1.27.07,2.47,2.47,0,0,0-.91.82c-.15.21-.33.48-.53.82s-.44.73-.69,1.17a14.1,14.1,0,0,0-.71,1.4,13.48,13.48,0,0,0-.6,1.48,1,1,0,0,0-.09.66c.06.12.13.18.22.18a.17.17,0,0,0,.13,0,.12.12,0,0,0,.09,0,8.63,8.63,0,0,0,.87-.93c.37-.44.75-.93,1.15-1.46s.78-1.05,1.14-1.57.65-.94.88-1.26.55-.41.85-.18l.71.49a5.26,5.26,0,0,1,.73.57,4.7,4.7,0,0,1,.54.6.68.68,0,0,1,.15.51c-.21.59-.4,1.16-.58,1.7s-.32,1-.44,1.51-.2.83-.25,1.13,0,.45.07.48.28,0,.58-.24a7.47,7.47,0,0,0,.95-.89,14.58,14.58,0,0,0,1-1.17,9.72,9.72,0,0,0,.76-1.06.48.48,0,0,1,.13-.09A.69.69,0,0,1,233.67,148.69Z"/></svg>