<?xml version="1.0" encoding="UTF-8"?>
<svg id="Capa_1" data-name="Capa 1" xmlns="http://www.w3.org/2000/svg" viewBox="0 0 25 25">
  <defs>
    <style>
      .cls-1 {
        fill: #61dafb;
        stroke-width: 0px;
      }
    </style>
  </defs>
  <path class="cls-1" d="m20.56,8.59h0c-.27-.09-.53-.18-.8-.25.04-.18.09-.37.12-.55.61-2.96.21-5.34-1.15-6.12-1.3-.75-3.44.03-5.59,1.91-.21.19-.42.38-.62.57-.14-.13-.27-.26-.41-.38C9.84,1.75,7.58.91,6.22,1.69c-1.3.75-1.69,2.99-1.14,5.8.05.28.12.55.18.83-.32.09-.63.19-.93.29-2.65.92-4.34,2.37-4.34,3.87s1.81,3.1,4.57,4.05c.22.08.45.15.68.21-.07.3-.14.59-.2.89-.52,2.75-.11,4.94,1.18,5.69,1.34.77,3.59-.02,5.79-1.94.17-.15.35-.31.52-.48.22.21.44.42.68.62,2.12,1.83,4.22,2.57,5.52,1.82,1.34-.78,1.78-3.13,1.21-5.98-.04-.22-.09-.44-.15-.67.16-.05.31-.1.46-.15,2.87-.95,4.73-2.48,4.73-4.05s-1.74-2.96-4.44-3.89Zm-6.72-4.21c1.85-1.61,3.57-2.24,4.36-1.79h0c.84.48,1.16,2.43.64,4.98-.03.17-.07.33-.11.5-1.1-.25-2.22-.43-3.34-.53-.64-.93-1.35-1.81-2.11-2.64.19-.18.38-.36.57-.53Zm-6.45,9.39c.23.44.46.87.71,1.29.25.43.51.86.78,1.28-.77-.08-1.54-.21-2.3-.37.22-.71.49-1.45.81-2.21Zm0-2.51c-.31-.74-.58-1.46-.79-2.16.71-.16,1.47-.29,2.27-.39-.27.41-.52.83-.77,1.26-.25.43-.48.86-.71,1.29Zm.57,1.26c.33-.68.68-1.36,1.06-2.02h0c.38-.66.78-1.3,1.21-1.93.74-.06,1.51-.09,2.28-.09s1.54.03,2.28.09c.42.63.83,1.27,1.2,1.92.38.66.74,1.33,1.08,2.01-.33.69-.69,1.36-1.07,2.02h0c-.38.66-.78,1.3-1.2,1.94-.74.05-1.51.08-2.29.08s-1.53-.02-2.26-.07c-.43-.63-.84-1.28-1.22-1.94-.38-.66-.74-1.33-1.07-2.01Zm8.97,2.54c.25-.44.49-.88.72-1.32h0c.32.72.6,1.45.84,2.2-.77.17-1.55.31-2.33.4.26-.42.52-.84.77-1.27h0Zm.71-3.8c-.23-.44-.47-.87-.72-1.3h0c-.24-.42-.5-.84-.76-1.25.8.1,1.56.23,2.28.4-.23.73-.5,1.45-.8,2.15Zm-5.12-5.58c.52.57,1.01,1.16,1.47,1.78-.98-.05-1.97-.05-2.95,0,.49-.64.98-1.24,1.48-1.78Zm-5.76-3.05c.84-.48,2.69.21,4.64,1.94.12.11.25.23.38.35-.77.83-1.48,1.71-2.13,2.64-1.12.1-2.24.27-3.34.52-.06-.26-.12-.51-.17-.77h0c-.47-2.4-.16-4.21.63-4.67Zm-1.22,13.09c-.21-.06-.41-.12-.62-.19-1.06-.33-2.05-.86-2.92-1.55-.5-.35-.84-.88-.93-1.49,0-.91,1.36-2.07,3.62-2.86.28-.1.57-.19.86-.27.34,1.08.74,2.13,1.22,3.16-.48,1.04-.89,2.11-1.23,3.2Zm5.79,4.87c-.82.75-1.77,1.34-2.8,1.75h0c-.55.26-1.18.29-1.75.07-.79-.45-1.12-2.21-.67-4.57.05-.28.11-.55.18-.83,1.11.24,2.24.4,3.37.49.66.93,1.37,1.82,2.15,2.65-.16.15-.31.3-.48.44Zm1.22-1.21c-.51-.55-1.01-1.15-1.5-1.8.48.02.97.03,1.46.03.51,0,1.01-.01,1.51-.03-.46.63-.95,1.23-1.47,1.81h0Zm6.49,1.49c-.05.61-.34,1.17-.82,1.55-.79.46-2.47-.14-4.29-1.7-.21-.18-.42-.37-.63-.57.76-.84,1.46-1.73,2.1-2.66,1.14-.1,2.27-.27,3.39-.52.05.21.1.41.14.6h0c.24,1.08.28,2.2.12,3.3h0Zm.91-5.33h0c-.14.05-.28.09-.42.13-.35-1.08-.77-2.14-1.27-3.17.47-1.01.88-2.05,1.22-3.12.26.07.5.15.74.23,2.31.8,3.72,1.97,3.72,2.88,0,.97-1.52,2.22-4,3.04h0Z"/>
  <path class="cls-1" d="m12.5,10.25c1.23,0,2.23,1,2.23,2.23,0,1.23-1,2.23-2.23,2.23-1.23,0-2.23-1-2.23-2.23h0c0-1.23,1-2.23,2.23-2.23h0"/>
</svg>