


<svg
   width="60"
   height="40"
   viewBox="0 0 60 40"
   version="1.1"
   id="svg1"
   xmlns="http://www.w3.org/2000/svg"
   xmlns:svg="http://www.w3.org/2000/svg">
   <defs>
   <style>
      .braket{
         fill:#cdcccc
      }
      .letter{
         fill:#18e3c1
      }
      .dot{
         fill:#1ea5ad
      }
   </style>
   </defs>
  <g
     class="johnK_icon">
    <path
       d="m 50.762792,-1.42e-4 c -0.227764,0 -0.412378,0.184614 -0.412378,0.41237799 V 2.9278451 c 0,0.2277628 0.184614,0.412378 0.412378,0.412378 h 5.649784 V 36.65964 h -5.649784 c -0.227764,0 -0.412378,0.184608 -0.412378,0.412369 v 2.515611 c 0,0.227769 0.184614,0.41238 0.412378,0.41238 h 8.824784 c 0.227764,0 0.412378,-0.184611 0.412378,-0.41238 V 0.41223599 C 59.999954,0.184472 59.81534,-1.42e-4 59.587576,-1.42e-4 Z"
       class="braket" />
    <path
       d="M 32.500342,7.4712369 V 32.460929 h 3.47369 V 24.90842 l 3.808036,-4.32326 8.427392,11.875769 h 3.854029 L 42.036711,18.4561 51.562227,7.4712369 H 47.795015 L 35.974032,21.10658 V 7.4712369 Z"   
       class="letter" />
    <path
       d="m 25.542627,9.8648889 v 4.1687381 h 4.40955 V 9.8648889 Z"  
       class="dot" />
    <path
       d="m 25.542627,25.51096 v 4.168219 h 4.40955 V 25.51096 Z"   
       class="dot" />
    <path
       d="m 10.217464,7.4712369 v 2.8515051 h 9.55704 V 24.94304 c 0,1.61297 -0.368519,2.84591 -1.105876,3.69848 -0.737357,0.84105 -1.930028,1.26142 -3.577559,1.26142 -0.841048,0 -1.687845,-0.0806 -2.540414,-0.24184 C 11.698086,29.48828 10.943419,29.29797 10.286711,29.090589 9.6300019,28.87169 9.1633049,28.69901 8.8867959,28.57227 l -0.95033,2.67891 c 0.3802,0.19586 0.95614,0.41435 1.72806,0.65629 0.7719211,0.23043 1.6418791,0.426269 2.6096601,0.587559 0.979302,0.17282 1.952971,0.25942 2.920752,0.25942 2.811173,0 4.856173,-0.696769 6.135026,-2.090829 1.278853,-1.40559 1.918229,-3.28949 1.918229,-5.65134 V 7.4712369 Z"  
       class="letter" />
    <path
       d="M 0.41237799,-1.42e-4 C 0.184615,-1.42e-4 0,0.184473 0,0.41223599 V 39.58762 C 0,39.815389 0.184615,40 0.41237799,40 H 9.2371618 c 0.2277642,0 0.412378,-0.184611 0.412378,-0.41238 v -2.515611 c 0,-0.227761 -0.1846138,-0.412369 -0.412378,-0.412369 H 3.587378 V 3.3402231 h 5.6497838 c 0.2277642,0 0.412378,-0.1846152 0.412378,-0.412378 V 0.41223599 C 9.6495398,0.184473 9.464926,-1.42e-4 9.2371618,-1.42e-4 Z"
       class="braket" />
  </g>
</svg>
