
<svg
   width="3.5mm"
   height="1.05mm"
   viewBox="0 0 3.5 1.05"
   version="1.1"
   id="svg1"
   xmlns="http://www.w3.org/2000/svg"
   xmlns:svg="http://www.w3.org/2000/svg">
  <defs>
  <style>
  .letter{
   fill:#18e3c1
  }
  .dot{
   fill:#1ea5ad
  }
  .braket{
   fill:#cdcccc
  }
  </style>
  </defs>
  <path class="braket"
     d="M 0.0109108,0 C 0.00488459,0 0,0.00488459 0,0.0109108 v 1.0365117 c 0,0.00603 0.00488459,0.010911 0.0109108,0.010911 h 0.23348825 c 0.006026,0 0.0109108,-0.00488 0.0109108,-0.010911 V 0.9808639 c 0,-0.006026 -0.004885,-0.0109106 -0.0109108,-0.0109106 H 0.09492939 V 0.08838018 h 0.14946966 c 0.006026,0 0.0109108,-0.0048846 0.0109108,-0.0109108 V 0.0109108 C 0.25530985,0.00488459 0.25042528,0 0.24439905,0 Z" />
   <path class="letter"
     d="m 2.7119887,0.19767954 v 0.66118329 h 0.091908 V 0.65903671 l 0.10074,-0.11438585 0.2229876,0.31421197 H 3.2295952 L 2.9643042,0.48831968 3.2163327,0.19767954 H 3.1166452 L 2.8038964,0.55844672 V 0.19767954 Z"/>
  <path class="dot"
     d="M 2.5278862,0.26101136 V 0.37130883 H 2.6445688 V 0.26101136 Z" />
  <path class="dot"
     d="M 2.5278862,0.67497886 V 0.78526262 H 2.6445688 V 0.67497886 Z" />
  <path class="letter"
     d="m 1.9277516,0.19767954 v 0.65902298 h 0.080669 V 0.35346597 L 2.373932,0.85670252 H 2.455517 V 0.19767954 H 2.374848 V 0.72484312 L 1.9974821,0.19767954 Z"/>
  <path class="letter"
     d="m 1.3266188,0.19767954 v 0.65902298 h 0.091607 V 0.55635493 h 0.3199405 v 0.30034759 h 0.091607 V 0.19767954 H 1.7381662 V 0.48890758 H 1.4182257 V 0.19767954 Z"/>
  <path class="letter"
     d="m 0.96523631,0.19152683 c -0.0552983,0 -0.10072679,0.005925 -0.13627565,0.0177745 -0.035245,0.0118496 -0.062738,0.0285517 -0.0824873,0.050124 -0.0197495,0.0215724 -0.0335832,0.0469475 -0.0414828,0.0761158 -0.007596,0.0291683 -0.0113895,0.0612188 -0.0113895,0.0961598 v 0.2073736 c 0,0.0343335 0.003954,0.0656333 0.0118544,0.0938902 0.0079,0.0282566 0.0217198,0.0527067 0.0414691,0.0733677 0.0197495,0.020357 0.0472423,0.0361613 0.0824873,0.0474031 0.0355489,0.0112419 0.0808303,0.0168584 0.13582454,0.0168584 0.0528673,0 0.0964593,-0.005925 0.1307926,-0.0177744 0.034334,-0.0121536 0.061076,-0.0288557 0.080218,-0.0501241 0.019446,-0.0215725 0.032971,-0.0468001 0.040567,-0.0756647 0.0079,-0.0291681 0.011841,-0.0606156 0.011841,-0.0943413 V 0.43763495 c 0,-0.0349411 -0.00394,-0.0673001 -0.011841,-0.097076 C 1.209214,0.31078305 1.19584,0.28480475 1.176698,0.26262465 1.157556,0.24014085 1.130828,0.22266085 1.096494,0.21020365 1.062161,0.19774635 1.018408,0.19152675 0.96523631,0.19152683 Z m 0,0.0738324 c 0.038891,0 0.0709414,0.004397 0.0961598,0.0132078 0.025522,0.008507 0.044517,0.0235475 0.056974,0.0451199 0.012457,0.0215723 0.018677,0.0519609 0.018677,0.0911557 v 0.23835583 c 0,0.038891 -0.00622,0.0686763 -0.018677,0.089337 -0.012154,0.020661 -0.031001,0.0349368 -0.056523,0.0428367 -0.025218,0.007596 -0.057416,0.0113892 -0.0966109,0.0113892 -0.038891,0 -0.0717058,-0.003793 -0.0984434,-0.0113892 -0.0267375,-0.0079 -0.0469521,-0.0221757 -0.0606247,-0.0428367 -0.0136725,-0.0206607 -0.020509,-0.0504461 -0.020509,-0.089337 V 0.41484261 c 0,-0.0391948 0.006837,-0.0695834 0.0205091,-0.0911557 0.0139766,-0.0215724 0.0343383,-0.0366124 0.061076,-0.0451199 0.0267374,-0.008811 0.0594048,-0.0132078 0.0979921,-0.0132078 z"/>
  <path class="letter"
     d="m 0.27147094,0.19767954 v 0.0751997 h 0.25202852 v 0.38556931 c 0,0.0425372 -0.009718,0.0750435 -0.0291639,0.0975272 -0.0194455,0.0221802 -0.050893,0.0332657 -0.0943415,0.0332657 -0.02218,0 -0.0445122,-0.002117 -0.0669961,-0.006371 -0.0224839,-0.004557 -0.0423899,-0.009571 -0.0597086,-0.0150399 -0.0173186,-0.005773 -0.0296242,-0.0103306 -0.0369162,-0.0136728 l -0.025062,0.0706332 c 0.0100266,0.005165 0.025214,0.0109426 0.045571,0.0173233 0.020357,0.006077 0.043306,0.0112373 0.0688283,0.015491 0.025826,0.004558 0.051496,0.006837 0.0770181,0.006837 0.0741361,0 0.12806301,-0.0183779 0.1617888,-0.0551419 0.0337258,-0.037068 0.050589,-0.086746 0.050589,-0.14903239 V 0.19767954 Z"/>
   <path class="braket"
     d="M 3.195181,0 C 3.189151,0 3.18427,0.00488456 3.18427,0.0109108 v 0.06655858 c 0,0.0060262 0.00488,0.0109108 0.010911,0.0109108 H 3.3446507 V 0.96995331 H 3.195181 c -0.00603,0 -0.010911,0.004884 -0.010911,0.0109106 v 0.0665586 c 0,0.00603 0.00488,0.010911 0.010911,0.010911 h 0.2334884 c 0.00603,0 0.010911,-0.00488 0.010911,-0.010911 V 0.0109108 C 3.4395802,0.00488456 3.4346955,0 3.4286694,0 Z" />
 
</svg>
