<svg id="johnK_logo_svg" data-name="johnK_logo_svg" xmlns="http://www.w3.org/2000/svg" viewBox="0 0 72.14 25"><defs><style>.cls-1{fill:#003;}.cls-2{fill:red;}</style></defs><title>johnK_logotipo</title><path class="cls-1" d="M0,20.39l.41-1.62c.39.11.8.21,1.22.31a11.14,11.14,0,0,0,1.23.19c.4,0,.75,0,1.07,0A5,5,0,0,0,5.86,19,2.22,2.22,0,0,0,7,17.85a5,5,0,0,0,.38-2.11V6H1V4.16H9.46v12A6.57,6.57,0,0,1,9,18.86a3.41,3.41,0,0,1-1.64,1.67,6.55,6.55,0,0,1-2.85.55A12.42,12.42,0,0,1,3,21c-.51,0-1-.13-1.53-.23S.46,20.53,0,20.39Z"/><path class="cls-1" d="M17.92,21.08a9.85,9.85,0,0,1-2.29-.26,6.61,6.61,0,0,1-2-.86,5.59,5.59,0,0,1-1.56-1.58,7.54,7.54,0,0,1-1-2.43,14.45,14.45,0,0,1-.36-3.45A14.74,14.74,0,0,1,11.08,9a8,8,0,0,1,1-2.45A5.25,5.25,0,0,1,13.62,5a6.08,6.08,0,0,1,2-.84,10.81,10.81,0,0,1,2.33-.25,10.16,10.16,0,0,1,2.31.26,6.72,6.72,0,0,1,2,.84,5.13,5.13,0,0,1,1.55,1.56,8,8,0,0,1,1,2.43,14.36,14.36,0,0,1,.36,3.44,15.49,15.49,0,0,1-.35,3.5,7.52,7.52,0,0,1-1,2.48A5.34,5.34,0,0,1,22.23,20a6.44,6.44,0,0,1-2,.82A10.76,10.76,0,0,1,17.92,21.08Zm0-1.67a6.31,6.31,0,0,0,1.57-.19,4.29,4.29,0,0,0,1.41-.64A4.06,4.06,0,0,0,22,17.34a7.27,7.27,0,0,0,.74-2A13.13,13.13,0,0,0,23,12.5a13.26,13.26,0,0,0-.27-2.87,6.77,6.77,0,0,0-.76-2,4.21,4.21,0,0,0-1.12-1.24,3.85,3.85,0,0,0-1.39-.65,6.17,6.17,0,0,0-1.56-.19,6.43,6.43,0,0,0-1.6.19A4,4,0,0,0,15,6.4a4.29,4.29,0,0,0-1.12,1.25,6.26,6.26,0,0,0-.75,2,14,14,0,0,0-.26,2.88,12.72,12.72,0,0,0,.27,2.82,6.79,6.79,0,0,0,.76,2A4.6,4.6,0,0,0,15,18.56a4,4,0,0,0,1.38.66A6.43,6.43,0,0,0,17.94,19.41Z"/><path class="cls-1" d="M26.66,20.84V4.16h2.07v8.41h8.72V4.16h2V20.84h-2V14.43H28.73v6.41Z"/><path class="cls-1" d="M41.67,20.84V4.09h1.95l8.8,13.51V4.16H54.3v16.7h-2L43.55,7.47V20.84Z"/><path class="cls-2" d="M55.85,18.64a1.26,1.26,0,0,1,.25-.89,1.21,1.21,0,0,1,.89-.26,1.3,1.3,0,0,1,.92.26,1.31,1.31,0,0,1,.25.89,1.21,1.21,0,0,1-.25.86,1.3,1.3,0,0,1-.92.25,1.21,1.21,0,0,1-.89-.25A1.16,1.16,0,0,1,55.85,18.64Z"/><path class="cls-1" d="M72,21.08a3.76,3.76,0,0,1-1.32-.24,5.2,5.2,0,0,1-1.38-.79,17.78,17.78,0,0,1-1.66-1.43l-5.89-5.69v7.91h-2V4.16h2v6.17l6.53,6.22c.51.49,1,.89,1.34,1.2a8.23,8.23,0,0,0,1,.72,4.14,4.14,0,0,0,.78.37,2.27,2.27,0,0,0,.72.12h.17l.19,0V21l-.27,0Zm-7.58-7.39-1.33-1.24c.46-.32,1-.69,1.46-1.12s1-.89,1.59-1.4a21.43,21.43,0,0,0,1.59-1.68,17.1,17.1,0,0,0,1.47-2A15.92,15.92,0,0,0,70.4,4l1.6.81a14.37,14.37,0,0,1-1.48,2.8,23,23,0,0,1-1.89,2.42,19.68,19.68,0,0,1-2.1,2C65.81,12.68,65.11,13.21,64.42,13.69Z"/></svg>