<svg id="Capa_1" data-name="Capa 1" xmlns="http://www.w3.org/2000/svg" viewBox="0 0 24 24"><defs><style>.cls-1{fill:#fff;}.cls-2{fill:#177a99;}.cls-3{fill:#2e0a76;}.cls-4{fill:#a5a5a5;}</style></defs><title>johnK_tab_icon</title><path class="cls-1" d="M22,21.19s-7.5.5-10,.5-10-.5-10-.5a2,2,0,0,1-2-2V4.8a2,2,0,0,1,2-2s7.5-.5,10-.5,10,.5,10,.5a2,2,0,0,1,2,2V19.2A2,2,0,0,1,22,21.19Z"/><g id="johnK_icon"><g id="dots"><path class="cls-2" d="M10.27,15.75a.8.8,0,0,1,.15-.55A.74.74,0,0,1,11,15a.78.78,0,0,1,.57.16.8.8,0,0,1,.15.55.75.75,0,0,1-.15.53.83.83,0,0,1-.57.16.78.78,0,0,1-.55-.16A.75.75,0,0,1,10.27,15.75Z"/><path class="cls-2" d="M10.27,8.21a.77.77,0,0,1,.15-.54A.74.74,0,0,1,11,7.51a.78.78,0,0,1,.57.16.77.77,0,0,1,.15.54.79.79,0,0,1-.15.54A.83.83,0,0,1,11,8.9a.79.79,0,0,1-.55-.15A.79.79,0,0,1,10.27,8.21Z"/></g><g id="letters"><path class="cls-3" d="M3.48,16.83l.25-1,.76.19a4.12,4.12,0,0,0,.75.11l.66,0A3,3,0,0,0,7.09,16a1.33,1.33,0,0,0,.72-.7A3,3,0,0,0,8.05,14v-6h-4V6.82H9.31V14.2A4.08,4.08,0,0,1,9,15.89a2,2,0,0,1-1,1,3.94,3.94,0,0,1-1.76.34c-.29,0-.59,0-.9-.05a8.13,8.13,0,0,1-1-.15C4.07,17,3.76,16.91,3.48,16.83Z"/><path class="cls-3" d="M20.4,15.94h-.1a1.35,1.35,0,0,1-.44-.07,2.34,2.34,0,0,1-.49-.23,4.93,4.93,0,0,1-.61-.44c-.24-.19-.51-.44-.83-.74l-2.08-2c.33-.24.66-.49,1-.77a12.55,12.55,0,0,0,1.3-1.24A16.18,16.18,0,0,0,19.32,9a9.08,9.08,0,0,0,.91-1.72l-1-.5a9.09,9.09,0,0,1-.74,1.38,12.25,12.25,0,0,1-.9,1.21,14.14,14.14,0,0,1-1,1c-.33.31-.66.6-1,.86l-.6.47-1.13-1.08V6.82H12.65V17.1h1.26V12.23l3.63,3.51a13,13,0,0,0,1,.88,3,3,0,0,0,.85.48,2.33,2.33,0,0,0,.82.15h.13l.16,0V15.93Z"/></g><g id="brackets"><path class="cls-4" d="M1.15,19.34A.15.15,0,0,1,1,19.19V4.81a.15.15,0,0,1,.15-.15H4.39a.15.15,0,0,1,.15.15v.93a.15.15,0,0,1-.15.15H2.32V18.11H4.39a.15.15,0,0,1,.15.15v.93a.15.15,0,0,1-.15.15Z"/><path class="cls-4" d="M19.61,19.34a.15.15,0,0,1-.15-.15v-.93a.15.15,0,0,1,.15-.15h2.07V5.89H19.61a.15.15,0,0,1-.15-.15V4.81a.15.15,0,0,1,.15-.15h3.24a.15.15,0,0,1,.15.15V19.19a.15.15,0,0,1-.15.15Z"/></g></g></svg>