<svg id="Capa_1" data-name="Capa 1" xmlns="http://www.w3.org/2000/svg" viewBox="0 0 300 200"><defs><style>.cls-1{fill:#2c235a;}.cls-2{fill:#e42320;}.cls-3{fill:#68c2e7;}</style></defs><title>john_k_logo</title><path class="cls-1" d="M33.9,165.76l3.4-13.61q5,1.4,10.31,2.6a73.43,73.43,0,0,0,10.31,1.6c3.33.27,6.34.4,9,.4q9.6,0,16.21-2.8A18.7,18.7,0,0,0,93,144.44q3.19-6.7,3.2-17.72V44.65H42.31V29.44h71.06V129.93q0,13.6-4.3,23a28.37,28.37,0,0,1-13.72,14q-9.41,4.6-24,4.6a111.71,111.71,0,0,1-12.21-.7q-6.4-.71-12.91-2A120.87,120.87,0,0,1,33.9,165.76Z"/><path class="cls-2" d="M126.38,151.05q0-5.2,2.1-7.41c1.4-1.47,3.91-2.2,7.51-2.2s6.3.73,7.71,2.2,2.1,3.94,2.1,7.41-.7,5.9-2.1,7.3-4,2.1-7.71,2.1-6.11-.7-7.51-2.1S126.38,154.52,126.38,151.05Z"/><path class="cls-2" d="M126.38,48.35c0-3.47.7-5.93,2.1-7.4s3.91-2.2,7.51-2.2,6.3.73,7.71,2.2,2.1,3.93,2.1,7.4-.7,5.91-2.1,7.31-4,2.1-7.71,2.1-6.11-.7-7.51-2.1S126.38,51.83,126.38,48.35Z"/><path class="cls-1" d="M262.1,171.56a32.39,32.39,0,0,1-11.11-2,45.25,45.25,0,0,1-11.61-6.6,167.11,167.11,0,0,1-13.91-12L176,103.1v66.46H158.81V29.44H176V81.28l54.85,52.25q6.4,6.21,11.21,10.11a68.88,68.88,0,0,0,8.41,6,35.25,35.25,0,0,0,6.61,3.11,18.78,18.78,0,0,0,6,1h1.4a6.74,6.74,0,0,0,1.6-.2v17.61c-.8.14-1.53.24-2.2.3A17.39,17.39,0,0,1,262.1,171.56Zm-63.66-62L187.23,99.1q5.81-4,12.31-9.41t13.31-11.81a182.24,182.24,0,0,0,13.42-14.11,154.74,154.74,0,0,0,12.31-16.52,134,134,0,0,0,10.11-18.81l13.41,6.8a122,122,0,0,1-12.41,23.52,185.68,185.68,0,0,1-15.92,20.32A166.82,166.82,0,0,1,216.16,96Q207,103.5,198.44,109.51Z"/><path class="cls-3" d="M2.16,200A2.06,2.06,0,0,1,.1,197.94V2.06A2.06,2.06,0,0,1,2.16,0H46.28a2.06,2.06,0,0,1,2.06,2.06V14.64a2.06,2.06,0,0,1-2.06,2.06H18V183.3H46.28a2.06,2.06,0,0,1,2.06,2.06v12.58A2.06,2.06,0,0,1,46.28,200Z"/><path class="cls-3" d="M253.72,200a2.06,2.06,0,0,1-2.06-2.06V185.36a2.06,2.06,0,0,1,2.06-2.06H282V16.7H253.72a2.06,2.06,0,0,1-2.06-2.06V2.06A2.06,2.06,0,0,1,253.72,0h44.12a2.06,2.06,0,0,1,2.06,2.06V197.94a2.06,2.06,0,0,1-2.06,2.06Z"/></svg>