<svg id="johnK_icon_svg" data-name="johnK_icon_svg" xmlns="http://www.w3.org/2000/svg" viewBox="0 0 36.85 24.58"><defs><style>.cls-1{fill:hsl(195, 85%, 60%);}.cls-2{fill:hsl(260, 85%, 35%);}.cls-3{fill:hsl(0, 0%, 65%);}</style></defs><title>johnK_icono</title><g id="johnK_icon"><g id="dots"><path class="cls-1" d="M15.52,18.56a1.34,1.34,0,0,1,.26-.91,1.25,1.25,0,0,1,.92-.27,1.3,1.3,0,0,1,.95.27,1.34,1.34,0,0,1,.26.91,1.26,1.26,0,0,1-.26.9,1.3,1.3,0,0,1-.95.26,1.25,1.25,0,0,1-.92-.26A1.26,1.26,0,0,1,15.52,18.56Z"/><path class="cls-1" d="M15.52,5.94A1.32,1.32,0,0,1,15.78,5a1.25,1.25,0,0,1,.92-.27,1.3,1.3,0,0,1,.95.27,1.32,1.32,0,0,1,.26.91,1.26,1.26,0,0,1-.26.9,1.35,1.35,0,0,1-.95.26,1.3,1.3,0,0,1-.92-.26A1.26,1.26,0,0,1,15.52,5.94Z"/></g><g id="letters"><path class="cls-2" d="M4.15,20.37l.42-1.67c.41.12.84.22,1.27.32a9.82,9.82,0,0,0,1.27.2c.41,0,.78.05,1.1.05a5.12,5.12,0,0,0,2-.35,2.28,2.28,0,0,0,1.2-1.17,5.09,5.09,0,0,0,.4-2.17V5.49H5.19V3.62h8.73V16a6.68,6.68,0,0,1-.53,2.83,3.47,3.47,0,0,1-1.68,1.72,6.68,6.68,0,0,1-3,.57A13.4,13.4,0,0,1,7.25,21c-.52-.06-1-.14-1.58-.25A13,13,0,0,1,4.15,20.37Z"/><path class="cls-2" d="M32.5,18.9h-.17a2.1,2.1,0,0,1-.74-.13,3.63,3.63,0,0,1-.81-.38,8.38,8.38,0,0,1-1-.74c-.39-.32-.85-.73-1.38-1.24l-3.48-3.32c.55-.4,1.1-.82,1.68-1.29a22.09,22.09,0,0,0,2.16-2.08,22.3,22.3,0,0,0,2-2.5A15.28,15.28,0,0,0,32.2,4.33l-1.65-.84a15.52,15.52,0,0,1-1.24,2.32,19.44,19.44,0,0,1-1.51,2,21.08,21.08,0,0,1-1.65,1.73c-.56.53-1.1,1-1.64,1.45-.34.29-.67.54-1,.78L21.62,10V3.62H19.51V20.84h2.11V12.67l6.08,5.88A20.58,20.58,0,0,0,29.41,20a5.4,5.4,0,0,0,1.43.81,4,4,0,0,0,1.36.25l.22,0a2.48,2.48,0,0,0,.27,0V18.87A.63.63,0,0,1,32.5,18.9Z"/></g><g id="brackets"><path class="cls-3" d="M.25,24.58A.25.25,0,0,1,0,24.33V.25A.25.25,0,0,1,.25,0H5.68a.25.25,0,0,1,.25.25V1.8a.25.25,0,0,1-.25.25H2.2V22.53H5.68a.25.25,0,0,1,.25.25v1.55a.25.25,0,0,1-.25.25Z"/><path class="cls-3" d="M31.17,24.58a.25.25,0,0,1-.25-.25V22.78a.25.25,0,0,1,.25-.25h3.47V2.05H31.17a.25.25,0,0,1-.25-.25V.25A.25.25,0,0,1,31.17,0H36.6a.25.25,0,0,1,.25.25V24.33a.25.25,0,0,1-.25.25Z"/></g></g></svg>