<svg id="Capa_1" data-name="Capa 1" xmlns="http://www.w3.org/2000/svg" viewBox="0 0 300 200"><defs><style>.cls-1{fill:#2c235a;}.cls-2{fill:#e42320;}</style></defs><title>john_k_logo_completo</title><path class="cls-1" d="M0,129.36l1.88-7.7c1.55.42,3.1.79,4.65,1.12a40,40,0,0,0,4.57.71c1.49.15,2.83.23,4,.23a16.47,16.47,0,0,0,6.71-1.21,8.22,8.22,0,0,0,4.07-4.07,17.44,17.44,0,0,0,1.39-7.52V77.45H3.94V68.67H37.32V113a24.63,24.63,0,0,1-2.06,10.65,13.52,13.52,0,0,1-6.4,6.44,24.88,24.88,0,0,1-11,2.15,56.58,56.58,0,0,1-5.82-.31,55.4,55.4,0,0,1-6.13-1Q2.77,130.25,0,129.36Z"/><path class="cls-1" d="M73.39,132.22a39.2,39.2,0,0,1-9-1A24.1,24.1,0,0,1,56.74,128a20.26,20.26,0,0,1-5.91-6,28.87,28.87,0,0,1-3.71-9.17,55.57,55.57,0,0,1-1.3-12.8,57.93,57.93,0,0,1,1.26-12.89,28,28,0,0,1,3.67-9.17,20,20,0,0,1,5.81-6,23.61,23.61,0,0,1,7.57-3.23,42.78,42.78,0,0,1,18.21,0A24.14,24.14,0,0,1,90,72a20.1,20.1,0,0,1,5.86,5.9A29.19,29.19,0,0,1,99.61,87,53.19,53.19,0,0,1,101,99.73a55.68,55.68,0,0,1-1.34,13.11,30.33,30.33,0,0,1-3.76,9.27,19.25,19.25,0,0,1-5.86,6,24.73,24.73,0,0,1-7.61,3.18A39.32,39.32,0,0,1,73.39,132.22Zm-.09-8a20.16,20.16,0,0,0,5.5-.71,14.7,14.7,0,0,0,4.75-2.33,14.21,14.21,0,0,0,3.8-4.34,22.55,22.55,0,0,0,2.46-6.94,50.41,50.41,0,0,0,.85-9.93,49.21,49.21,0,0,0-.89-10A24.23,24.23,0,0,0,87.31,83a13.85,13.85,0,0,0-3.76-4.34,14.7,14.7,0,0,0-4.75-2.33,21.5,21.5,0,0,0-11,0,14.65,14.65,0,0,0-4.74,2.28A13.69,13.69,0,0,0,59.34,83a24.39,24.39,0,0,0-2.51,7,48.49,48.49,0,0,0-.89,10.07,46.68,46.68,0,0,0,.89,9.84,23.71,23.71,0,0,0,2.51,6.9,14.2,14.2,0,0,0,3.76,4.38,14,14,0,0,0,4.74,2.33A20.33,20.33,0,0,0,73.3,124.25Z"/><path class="cls-1" d="M110.35,131.33V68.67h10V99h29.71V68.67h10v62.66h-10V108H120.38v23.36Z"/><path class="cls-1" d="M171.84,131.33V68.5h9.48l30.08,47.16v-47h9V131.5H211L180.88,84.78v46.55Z"/><path class="cls-2" d="M230,126.31a5.6,5.6,0,0,1,1.21-4c.81-.84,2.19-1.26,4.16-1.26s3.54.42,4.34,1.26a5.6,5.6,0,0,1,1.21,4,5.78,5.78,0,0,1-1.21,4.12c-.8.84-2.25,1.25-4.34,1.25s-3.35-.41-4.16-1.25A5.78,5.78,0,0,1,230,126.31Z"/><path class="cls-1" d="M299.28,121.84h-.62a9.63,9.63,0,0,1-2.69-.4,17.23,17.23,0,0,1-3-1.3,25.94,25.94,0,0,1-3.71-2.55c-1.37-1.11-3-2.52-4.92-4.25l-11.09-10.22c1.91-1.37,3.81-2.85,5.72-4.46a81.55,81.55,0,0,0,7.74-7.52,71.68,71.68,0,0,0,6.8-8.86,53,53,0,0,0,5.15-10.2l-7.61-3.94a55.77,55.77,0,0,1-4.39,8.14,68.2,68.2,0,0,1-5.32,7.16q-2.82,3.32-5.73,6.13t-5.77,5.19q-1.57,1.3-3.06,2.4l-6.34-5.84V68.67H250.33v62.66h10.11V103.85l21.21,19.78a44.85,44.85,0,0,0,6,5,22.25,22.25,0,0,0,5.32,2.73,15.85,15.85,0,0,0,5.06.85c.3,0,.61,0,.94,0s.67-.08,1-.14V121.75A3,3,0,0,1,299.28,121.84Z"/></svg>