<svg id="Capa_1" data-name="Capa 1" xmlns="http://www.w3.org/2000/svg" viewBox="0 0 300 200"><defs><style>.cls-1{fill:#18a138;}.cls-2{fill:#fff;}</style></defs><title>leiru_logo_dark</title><polygon class="cls-1" points="283.69 145.41 0 145.41 4.76 122.68 300 122.68 283.69 145.41"/><path class="cls-2" d="M233.2,56.87a3.94,3.94,0,0,0-.93-.39,4,4,0,0,0-1.1-.15,2.92,2.92,0,0,0-1.58.4,1.49,1.49,0,0,0-.63,1.34,1.78,1.78,0,0,0,.94,1.41l1.87,1.27a2.82,2.82,0,0,1,1,2.15,3.6,3.6,0,0,1-1,2.5,3.66,3.66,0,0,1-2.87,1.09,7.76,7.76,0,0,1-1.41-.11,8.78,8.78,0,0,1-1.72-.53l.52-1.49a4.62,4.62,0,0,0,1.12.53,4,4,0,0,0,1.23.19,2.43,2.43,0,0,0,1.8-.6,1.8,1.8,0,0,0-.33-3l-1.87-1.26a2.72,2.72,0,0,1-1-2.16,2.82,2.82,0,0,1,1.1-2.33,4.07,4.07,0,0,1,2.6-.86,7,7,0,0,1,2.69.52Z"/><path class="cls-2" d="M240.45,66.16a12,12,0,0,1-1.22.25,9.42,9.42,0,0,1-1.2.08,4.15,4.15,0,0,1-2.72-.83,3.49,3.49,0,0,1-1-2.86,5.25,5.25,0,0,1,1.22-3.37,4,4,0,0,1,3.25-1.5,3,3,0,0,1,2.27.83,3.16,3.16,0,0,1,.8,2.3,6.37,6.37,0,0,1,0,.7c0,.14-.06.41-.12.79h-5.75l0,.52a2,2,0,0,0,.66,1.71,3,3,0,0,0,1.86.5,5.52,5.52,0,0,0,1.13-.13,7.53,7.53,0,0,0,1.17-.37Zm-.19-4.73.05-.63a1.66,1.66,0,0,0-.45-1.21,1.74,1.74,0,0,0-1.28-.45,2.18,2.18,0,0,0-1.56.67,3.49,3.49,0,0,0-.94,1.62Z"/><path class="cls-2" d="M244.41,59.37c0-.18.07-.38.11-.59s.08-.44.11-.66H246l-.26,1.28a3.51,3.51,0,0,1,1.14-1.06,3.17,3.17,0,0,1,1.68-.41,1.37,1.37,0,0,1,.31,0l.38.12L249,59.4a1.89,1.89,0,0,0-.64-.16,2.38,2.38,0,0,0-2,1,4.76,4.76,0,0,0-1,2l-.85,4H243Z"/><path class="cls-2" d="M249.76,58.12h1.6l.83,6.59,3.67-6.59h1.6l-4.66,8.17H251Z"/><path class="cls-2" d="M259.05,58.12h1.5l-1.73,8.17h-1.5Zm2-1.83h-1.7l.35-1.69h1.7Z"/><path class="cls-2" d="M268.06,59.54a2.94,2.94,0,0,0-.75-.3,3.19,3.19,0,0,0-.71-.1,2.76,2.76,0,0,0-2.26,1.09,4,4,0,0,0-.87,2.62,2.58,2.58,0,0,0,.56,1.79,2.08,2.08,0,0,0,1.65.64,3,3,0,0,0,.79-.12,5,5,0,0,0,.85-.28l-.27,1.42a4.51,4.51,0,0,1-.76.14,5.86,5.86,0,0,1-.81,0,3.83,3.83,0,0,1-2.65-.87,3.26,3.26,0,0,1-1-2.54,5.64,5.64,0,0,1,1.19-3.67,3.94,3.94,0,0,1,3.26-1.48,6.45,6.45,0,0,1,1.13.08,5.61,5.61,0,0,1,1,.24Z"/><path class="cls-2" d="M270.61,58.12h1.51l-1.74,8.17h-1.5Zm2-1.83h-1.71l.36-1.69H273Z"/><path class="cls-2" d="M278.09,57.93a3.6,3.6,0,0,1,2.63,1,3.47,3.47,0,0,1,1,2.62,5.28,5.28,0,0,1-1.22,3.57,4.17,4.17,0,0,1-3.35,1.42,3.81,3.81,0,0,1-2.71-.93,3.53,3.53,0,0,1-1-2.71,5.11,5.11,0,0,1,1.24-3.53A4.35,4.35,0,0,1,278.09,57.93Zm-1,7.35a2.57,2.57,0,0,0,2.1-1.16,4.18,4.18,0,0,0,.88-2.62,2.59,2.59,0,0,0-.56-1.67,1.86,1.86,0,0,0-1.53-.69,2.49,2.49,0,0,0-2.19,1.2A4.65,4.65,0,0,0,275,63a2.53,2.53,0,0,0,.54,1.66A1.9,1.9,0,0,0,277.13,65.28Z"/><path class="cls-2" d="M288.24,59.56a4.51,4.51,0,0,0-.78-.3,3.23,3.23,0,0,0-.85-.12,2.48,2.48,0,0,0-1.08.21.78.78,0,0,0-.44.79c0,.39.46.91,1.39,1.54a2.66,2.66,0,0,1,1.39,2.2,2.2,2.2,0,0,1-1,2,3.73,3.73,0,0,1-2.13.64,8.76,8.76,0,0,1-1.33-.08,7.21,7.21,0,0,1-1.05-.3l.28-1.31a8.77,8.77,0,0,0,1,.34,3.25,3.25,0,0,0,.91.14,2.18,2.18,0,0,0,1.21-.31,1,1,0,0,0,.5-1c0-.25-.47-.76-1.39-1.54a3.1,3.1,0,0,1-1.39-2.14,2,2,0,0,1,.95-1.79,3.81,3.81,0,0,1,2.12-.61,5.84,5.84,0,0,1,2.13.44Z"/><path class="cls-2" d="M227.59,71.52h1.58l2.47,11.18H230l-.59-2.82H223.9l-1.79,2.82h-1.78Zm.51,1.75-3.37,5.3h4.41Z"/><path class="cls-2" d="M240.59,80c-.2,1-.36,1.89-.47,2.71h-1.4l.12-.66c0-.18.09-.37.15-.59a2.54,2.54,0,0,1-1.13,1.12,3.86,3.86,0,0,1-1.69.34,2.74,2.74,0,0,1-2.23-1,3.76,3.76,0,0,1-.8-2.45,5.9,5.9,0,0,1,1.13-3.61,3.63,3.63,0,0,1,3.11-1.53,3.22,3.22,0,0,1,1.58.39,2.36,2.36,0,0,1,1,1.15l1.09-5.19h1.51Zm-3.86,1.7a2.23,2.23,0,0,0,2-1.26,5.16,5.16,0,0,0,.73-2.64,2.4,2.4,0,0,0-.53-1.6,1.87,1.87,0,0,0-1.5-.63,2.23,2.23,0,0,0-2,1.23,4.86,4.86,0,0,0-.74,2.57,2.75,2.75,0,0,0,.48,1.69A1.77,1.77,0,0,0,236.73,81.69Z"/><path class="cls-2" d="M250.1,81.45q-.07.45-.15.84c0,.26-.07.4-.07.41h-1.41l.26-1.3a3.46,3.46,0,0,1-1.13,1.09,3.23,3.23,0,0,1-1.69.42,2.91,2.91,0,0,1-2-.65,2.44,2.44,0,0,1-.73-1.92,5.36,5.36,0,0,1,0-.64c0-.15.07-.44.15-.86l.9-4.31h1.51l-1,4.89-.08.77a1.49,1.49,0,0,0,.4,1.08,1.44,1.44,0,0,0,1.09.42,2.39,2.39,0,0,0,2-1,4.94,4.94,0,0,0,1-2l.86-4.12h1.51Z"/><path class="cls-2" d="M254.25,74.76a9.44,9.44,0,0,1,1.19-.31,6.69,6.69,0,0,1,1.1-.11,4.1,4.1,0,0,1,2.33.61,2.2,2.2,0,0,1,.92,2,9,9,0,0,1-.22,1.69c-.15.74-.3,1.48-.45,2.24s-.26,1.36-.32,1.83h-1.39l.27-1.36a2.93,2.93,0,0,1-1.14,1.15,3.09,3.09,0,0,1-1.55.42,2.94,2.94,0,0,1-1.87-.58,2,2,0,0,1-.74-1.68,2.39,2.39,0,0,1,1.29-2.31,7.77,7.77,0,0,1,3.54-.68l1.09,0c0-.13,0-.25.06-.34s0-.15,0-.18a1.48,1.48,0,0,0-.49-1.24,2.26,2.26,0,0,0-1.4-.38,5,5,0,0,0-1.32.18,4.75,4.75,0,0,0-1.19.51Zm3.73,4h-1.15a4.64,4.64,0,0,0-2,.4,1.43,1.43,0,0,0-.87,1.4.94.94,0,0,0,.39.81,1.52,1.52,0,0,0,.95.3,2.23,2.23,0,0,0,1.79-.88A3.9,3.9,0,0,0,258,78.78Z"/><path class="cls-2" d="M262.85,75.78c0-.18.07-.38.11-.59a6.49,6.49,0,0,0,.11-.66h1.41l-.25,1.3a3.41,3.41,0,0,1,1.13-1.07,3.19,3.19,0,0,1,1.69-.42,2.9,2.9,0,0,1,2,.65,2.41,2.41,0,0,1,.74,1.91,5.36,5.36,0,0,1,0,.64c0,.15-.08.44-.17.85l-.91,4.31h-1.48l1-4.88.08-.77a1.45,1.45,0,0,0-.4-1.07,1.4,1.4,0,0,0-1.08-.42,2.4,2.4,0,0,0-2,1,4.94,4.94,0,0,0-1,2L263,82.7h-1.52Z"/><path class="cls-2" d="M272.94,74.76a9.44,9.44,0,0,1,1.19-.31,6.69,6.69,0,0,1,1.1-.11,4.1,4.1,0,0,1,2.33.61,2.2,2.2,0,0,1,.92,2,10,10,0,0,1-.22,1.69c-.15.74-.3,1.48-.45,2.24s-.26,1.36-.32,1.83H276.1l.27-1.36a2.93,2.93,0,0,1-1.14,1.15,3.09,3.09,0,0,1-1.55.42,2.94,2.94,0,0,1-1.87-.58,2,2,0,0,1-.75-1.68,2.4,2.4,0,0,1,1.3-2.31,7.77,7.77,0,0,1,3.54-.68l1.09,0c0-.13,0-.25.06-.34s0-.15,0-.18a1.48,1.48,0,0,0-.49-1.24,2.26,2.26,0,0,0-1.4-.38,5,5,0,0,0-1.32.18,4.75,4.75,0,0,0-1.19.51Zm3.73,4h-1.15a4.64,4.64,0,0,0-2,.4,1.43,1.43,0,0,0-.87,1.4.94.94,0,0,0,.39.81,1.52,1.52,0,0,0,.95.3,2.23,2.23,0,0,0,1.79-.88A4,4,0,0,0,276.67,78.78Z"/><path class="cls-2" d="M282.76,70.69h1.5l-2.54,12h-1.51Z"/><path class="cls-2" d="M290.94,82.57c-.43.11-.84.19-1.23.25a7.75,7.75,0,0,1-1.19.09,4.25,4.25,0,0,1-2.73-.83,3.48,3.48,0,0,1-1-2.86A5.24,5.24,0,0,1,286,75.85a4,4,0,0,1,3.26-1.51,3,3,0,0,1,2.27.84,3.19,3.19,0,0,1,.8,2.3c0,.32,0,.55,0,.7l-.12.79h-5.75l-.05.51A2,2,0,0,0,287,81.2a3,3,0,0,0,1.85.49,5.52,5.52,0,0,0,1.14-.12,7.89,7.89,0,0,0,1.17-.37Zm-.19-4.72.05-.63a1.63,1.63,0,0,0-.45-1.21,1.74,1.74,0,0,0-1.28-.45,2.18,2.18,0,0,0-1.57.67,3.51,3.51,0,0,0-.93,1.62Z"/><path class="cls-2" d="M298.69,76a4.51,4.51,0,0,0-.78-.3,3.23,3.23,0,0,0-.85-.12,2.48,2.48,0,0,0-1.08.21.77.77,0,0,0-.44.78c0,.4.46.91,1.39,1.54a2.69,2.69,0,0,1,1.39,2.2,2.22,2.22,0,0,1-1,2,3.73,3.73,0,0,1-2.13.64,7.43,7.43,0,0,1-1.33-.09,8.54,8.54,0,0,1-1-.29l.28-1.32a9,9,0,0,0,1,.35,3.23,3.23,0,0,0,.91.13,2.29,2.29,0,0,0,1.21-.3,1.06,1.06,0,0,0,.5-1c0-.25-.47-.76-1.39-1.55a3.13,3.13,0,0,1-1.4-2.13,2,2,0,0,1,1-1.8,3.89,3.89,0,0,1,2.12-.61,5.66,5.66,0,0,1,2.13.45Z"/><path class="cls-2" d="M221.58,87.94h1.62l-2.4,11.18h-1.62Z"/><path class="cls-2" d="M225,92.2c0-.18.07-.38.11-.59s.08-.44.11-.66h1.41l-.25,1.3a3.44,3.44,0,0,1,1.13-1.08,3.28,3.28,0,0,1,1.69-.41,2.89,2.89,0,0,1,2,.64,2.44,2.44,0,0,1,.74,1.92,5.06,5.06,0,0,1,0,.63c0,.16-.08.44-.17.86l-.91,4.3h-1.48l1-4.89.08-.77a1.48,1.48,0,0,0-.4-1.07,1.4,1.4,0,0,0-1.08-.42,2.41,2.41,0,0,0-2,1,5,5,0,0,0-1,2l-.86,4.12h-1.52Z"/><path class="cls-2" d="M234,91h1.82l.4-1.89,1.64-.57L237.33,91h2.24l-.24,1.22h-2.25l-.76,3.5c0,.13-.08.4-.15.79a7,7,0,0,0-.09.76c0,.59.36.89,1.09.89a2.43,2.43,0,0,0,1.06-.23L238,99.15a3.11,3.11,0,0,1-.66.13c-.32,0-.59,0-.81,0a1.76,1.76,0,0,1-2-1.82,4.93,4.93,0,0,1,.06-.78c0-.24.1-.63.22-1.16l.71-3.41h-1.79Z"/><path class="cls-2" d="M246,99a12,12,0,0,1-1.22.25,7.85,7.85,0,0,1-1.19.09,4.16,4.16,0,0,1-2.73-.84,3.49,3.49,0,0,1-1-2.86A5.21,5.21,0,0,1,241,92.27a3.94,3.94,0,0,1,3.25-1.51,3,3,0,0,1,2.27.83,3.17,3.17,0,0,1,.8,2.3,6.27,6.27,0,0,1,0,.7c0,.14-.06.41-.12.8h-5.75l-.05.51a2,2,0,0,0,.66,1.71,3,3,0,0,0,1.86.5A5.52,5.52,0,0,0,245,98a7.53,7.53,0,0,0,1.17-.37Zm-.19-4.73.05-.63a1.62,1.62,0,0,0-.45-1.2A1.69,1.69,0,0,0,244.1,92a2.18,2.18,0,0,0-1.56.67,3.58,3.58,0,0,0-.94,1.62Z"/><path class="cls-2" d="M257.31,91l-1.87,8.76a3.47,3.47,0,0,1-1.43,2.12,4.89,4.89,0,0,1-3,.84,6.28,6.28,0,0,1-1.5-.17,5.61,5.61,0,0,1-1.24-.42l.34-1.35a6.33,6.33,0,0,0,1.29.52,4.51,4.51,0,0,0,1.32.2,2.66,2.66,0,0,0,1.9-.66,3.46,3.46,0,0,0,1-1.72l.21-.88a2.7,2.7,0,0,1-1,.7,4,4,0,0,1-1.5.23,3,3,0,0,1-2.11-.88,3.15,3.15,0,0,1-.93-2.39A5.59,5.59,0,0,1,250,92.18a3.65,3.65,0,0,1,3-1.42,3.19,3.19,0,0,1,1.61.41,2.31,2.31,0,0,1,1.06,1.22l.32-1.44Zm-5.07,7a2.61,2.61,0,0,0,2-.92A4.05,4.05,0,0,0,255,94.2a2.36,2.36,0,0,0-.54-1.59A1.83,1.83,0,0,0,253,92a2.12,2.12,0,0,0-1.9,1.21,5.15,5.15,0,0,0-.69,2.59,2.42,2.42,0,0,0,.46,1.51A1.62,1.62,0,0,0,252.24,97.9Z"/><path class="cls-2" d="M259.71,92.2c0-.18.07-.38.12-.59s.08-.44.11-.66h1.41l-.26,1.28a3.48,3.48,0,0,1,1.13-1.06,3.21,3.21,0,0,1,1.69-.41l.31,0,.38.12-.34,1.33a1.89,1.89,0,0,0-.64-.16,2.4,2.4,0,0,0-2,1,5.07,5.07,0,0,0-1,2l-.84,4h-1.52Z"/><path class="cls-2" d="M266.25,91.17a9.42,9.42,0,0,1,1.19-.3,5.75,5.75,0,0,1,1.1-.11,4.1,4.1,0,0,1,2.33.61,2.19,2.19,0,0,1,.92,2,10.06,10.06,0,0,1-.22,1.7l-.45,2.23c-.15.76-.26,1.37-.32,1.84h-1.4l.28-1.36a3,3,0,0,1-1.14,1.14,3.1,3.1,0,0,1-1.55.43,3,3,0,0,1-1.87-.58,2,2,0,0,1-.75-1.69,2.42,2.42,0,0,1,1.3-2.31,7.77,7.77,0,0,1,3.54-.68l1.09.05c0-.14,0-.25.06-.34s0-.16,0-.19a1.46,1.46,0,0,0-.49-1.23,2.22,2.22,0,0,0-1.4-.39,5.24,5.24,0,0,0-2.52.69Zm3.73,4h-1.15a4.64,4.64,0,0,0-2,.41A1.42,1.42,0,0,0,266,97a1,1,0,0,0,.4.81,1.52,1.52,0,0,0,.95.3,2.24,2.24,0,0,0,1.79-.89A4,4,0,0,0,270,95.19Z"/><path class="cls-2" d="M281.06,96.41c-.2,1-.36,1.88-.46,2.71h-1.41c.05-.27.09-.49.12-.67s.09-.37.15-.58A2.52,2.52,0,0,1,278.33,99a3.86,3.86,0,0,1-1.69.35,2.74,2.74,0,0,1-2.23-1,3.8,3.8,0,0,1-.79-2.46,5.92,5.92,0,0,1,1.12-3.61,3.65,3.65,0,0,1,3.11-1.52,3.27,3.27,0,0,1,1.58.38,2.34,2.34,0,0,1,1.05,1.16l1.09-5.19h1.51Zm-3.86,1.7a2.25,2.25,0,0,0,2-1.26,5.26,5.26,0,0,0,.73-2.64,2.37,2.37,0,0,0-.54-1.6,1.88,1.88,0,0,0-1.5-.64,2.23,2.23,0,0,0-2,1.23,4.87,4.87,0,0,0-.74,2.58,2.75,2.75,0,0,0,.48,1.69A1.8,1.8,0,0,0,277.2,98.11Z"/><path class="cls-2" d="M288.06,90.76a3.63,3.63,0,0,1,2.63.95,3.47,3.47,0,0,1,1,2.62,5.28,5.28,0,0,1-1.22,3.57,4.16,4.16,0,0,1-3.35,1.43,3.83,3.83,0,0,1-2.71-.94,3.53,3.53,0,0,1-1-2.71,5.11,5.11,0,0,1,1.24-3.53A4.35,4.35,0,0,1,288.06,90.76Zm-1,7.35A2.57,2.57,0,0,0,289.2,97a4.18,4.18,0,0,0,.88-2.62,2.66,2.66,0,0,0-.55-1.67A1.86,1.86,0,0,0,288,92a2.52,2.52,0,0,0-2.19,1.2,4.65,4.65,0,0,0-.8,2.63,2.53,2.53,0,0,0,.54,1.66A1.9,1.9,0,0,0,287.1,98.11Z"/><path class="cls-2" d="M298.21,92.39a4,4,0,0,0-.78-.3,3.17,3.17,0,0,0-.85-.12,2.48,2.48,0,0,0-1.08.21.78.78,0,0,0-.44.79c0,.4.46.91,1.39,1.54a2.66,2.66,0,0,1,1.39,2.2,2.19,2.19,0,0,1-1,2,3.73,3.73,0,0,1-2.12.65,7.36,7.36,0,0,1-1.33-.09,7,7,0,0,1-1.06-.3l.28-1.31a8.77,8.77,0,0,0,1,.34,3.25,3.25,0,0,0,.91.14,2.23,2.23,0,0,0,1.22-.31,1,1,0,0,0,.49-1c0-.25-.46-.76-1.39-1.54a3.1,3.1,0,0,1-1.39-2.14,2,2,0,0,1,1-1.79,3.83,3.83,0,0,1,2.12-.61,5.59,5.59,0,0,1,2.13.45Z"/><path class="cls-2" d="M223.52,106.11a3.69,3.69,0,0,0-.92-.39,4.13,4.13,0,0,0-1.11-.15,2.89,2.89,0,0,0-1.57.41,1.46,1.46,0,0,0-.64,1.34,1.77,1.77,0,0,0,.94,1.4c.63.44,1.26.86,1.88,1.28a2.8,2.8,0,0,1,1,2.15,3.55,3.55,0,0,1-3.86,3.59,9,9,0,0,1-1.41-.11,9.23,9.23,0,0,1-1.71-.53l.51-1.49a4.67,4.67,0,0,0,1.13.52,4,4,0,0,0,1.22.2,2.5,2.5,0,0,0,1.81-.6,1.89,1.89,0,0,0,.61-1.39,1.87,1.87,0,0,0-.95-1.56c-.64-.44-1.26-.86-1.87-1.26a2.74,2.74,0,0,1-1-2.17,2.78,2.78,0,0,1,1.11-2.32,4.05,4.05,0,0,1,2.59-.87,7,7,0,0,1,2.69.53Z"/><path class="cls-2" d="M224.75,113.74h1.8l-.37,1.79h-1.8Z"/><path class="cls-2" d="M235.06,104.35h1.58l2.47,11.18h-1.66l-.59-2.82h-5.5l-1.78,2.82H227.8Zm.5,1.75-3.36,5.3h4.4Z"/><path class="cls-2" d="M240.77,113.74h1.79l-.36,1.79h-1.8Z"/><path class="cls-2" d="M257,112.82c-.2,1-.36,1.89-.46,2.71h-1.41l.12-.66c0-.18.09-.37.15-.59a2.6,2.6,0,0,1-1.13,1.12,3.86,3.86,0,0,1-1.69.34,2.74,2.74,0,0,1-2.23-1,3.75,3.75,0,0,1-.79-2.45,6,6,0,0,1,1.12-3.62,3.65,3.65,0,0,1,3.11-1.52,3.16,3.16,0,0,1,1.58.39,2.31,2.31,0,0,1,1,1.15l1.09-5.19H259Zm-3.86,1.7a2.25,2.25,0,0,0,2-1.26,5.26,5.26,0,0,0,.73-2.64,2.38,2.38,0,0,0-.54-1.6,1.87,1.87,0,0,0-1.5-.63,2.23,2.23,0,0,0-2,1.23,4.86,4.86,0,0,0-.74,2.57,2.75,2.75,0,0,0,.48,1.69A1.77,1.77,0,0,0,253.1,114.52Z"/><path class="cls-2" d="M265.48,115.4c-.43.11-.84.19-1.22.25a7.88,7.88,0,0,1-1.2.09,4.25,4.25,0,0,1-2.73-.83,3.52,3.52,0,0,1-1-2.86,5.23,5.23,0,0,1,1.22-3.37,4,4,0,0,1,3.25-1.51A3,3,0,0,1,266,108a3.19,3.19,0,0,1,.8,2.3c0,.32,0,.55,0,.69s-.06.42-.12.8H261l-.05.51a2,2,0,0,0,.66,1.72,3,3,0,0,0,1.85.49,4.92,4.92,0,0,0,1.14-.13,6.55,6.55,0,0,0,1.17-.36Zm-.19-4.72,0-.63a1.63,1.63,0,0,0-.45-1.21,1.74,1.74,0,0,0-1.28-.45,2.14,2.14,0,0,0-1.56.67,3.39,3.39,0,0,0-.94,1.62Z"/><path class="cls-2" d="M280.39,115.43a6.52,6.52,0,0,1-2.05.31,5.58,5.58,0,0,1-3.81-1.27,4.89,4.89,0,0,1-1.44-3.85,6.76,6.76,0,0,1,1.69-4.44,6.19,6.19,0,0,1,5-2,7.07,7.07,0,0,1,2.66.51l-.47,1.38a6.42,6.42,0,0,0-1.07-.36,4.79,4.79,0,0,0-1.09-.12,4.69,4.69,0,0,0-3.73,1.5,5.3,5.3,0,0,0-1.32,3.63,3.42,3.42,0,0,0,1.06,2.7,4,4,0,0,0,2.76.93,5,5,0,0,0,2-.4Z"/><path class="cls-2" d="M282.6,113.74h1.79l-.36,1.79h-1.8Z"/><path class="cls-2" d="M291.6,115.53h-1.92l-1.81-11.18h1.61l1.4,9.58,5.67-9.57h1.76Z"/><path class="cls-2" d="M297.73,113.74h1.8l-.37,1.79h-1.8Z"/><path class="cls-2" d="M16.18,130.7H13.27l-1.76,8.19H10.15l1.76-8.19H9l.25-1.18h7.19Z"/><path class="cls-2" d="M17.8,128.82h1.27l-.86,4.08a2.39,2.39,0,0,1,.94-.75,3,3,0,0,1,1.25-.26,2.4,2.4,0,0,1,1.67.54,2,2,0,0,1,.62,1.6,3.7,3.7,0,0,1,0,.53,6.35,6.35,0,0,1-.14.72l-.76,3.61H20.52l.84-4.09.07-.65a1.23,1.23,0,0,0-.34-.9,1.2,1.2,0,0,0-.91-.35,2,2,0,0,0-1.67.84,4.13,4.13,0,0,0-.83,1.7L17,138.89H15.7Z"/><path class="cls-2" d="M29.24,138.78a8.42,8.42,0,0,1-1,.21,6.63,6.63,0,0,1-1,.08,3.56,3.56,0,0,1-2.29-.7,2.93,2.93,0,0,1-.87-2.4,4.37,4.37,0,0,1,1-2.82,3.33,3.33,0,0,1,2.73-1.26,2.48,2.48,0,0,1,1.9.7,2.64,2.64,0,0,1,.67,1.92,4.47,4.47,0,0,1,0,.59c0,.12,0,.34-.1.67H25.45l-.05.42a1.71,1.71,0,0,0,.55,1.44,2.54,2.54,0,0,0,1.56.42,4.47,4.47,0,0,0,.95-.11,5.29,5.29,0,0,0,1-.31Zm-.16-3.95,0-.53a1.34,1.34,0,0,0-.38-1,1.44,1.44,0,0,0-1.07-.38,1.81,1.81,0,0,0-1.31.57,2.9,2.9,0,0,0-.78,1.36Z"/><path class="cls-2" d="M37.18,129.52h4.91l-.23,1.18H38.28l-.6,2.74H41l-.26,1.18H37.42l-.91,4.27H35.14Z"/><path class="cls-2" d="M43,133.09c0-.15.06-.31.1-.49l.09-.55h1.18l-.22,1.07a3,3,0,0,1,1-.89,2.74,2.74,0,0,1,1.42-.34.86.86,0,0,1,.25,0,1.74,1.74,0,0,1,.33.1l-.29,1.11a1.58,1.58,0,0,0-.53-.13,2,2,0,0,0-1.67.84,4,4,0,0,0-.82,1.7l-.71,3.36H41.81Z"/><path class="cls-2" d="M53.2,137.85c0,.25-.08.48-.12.7l-.06.34H51.83l.22-1.09a3,3,0,0,1-.95.92,2.73,2.73,0,0,1-1.41.35,2.45,2.45,0,0,1-1.67-.55,2,2,0,0,1-.61-1.61,3.87,3.87,0,0,1,0-.53c0-.13.06-.37.13-.72l.76-3.61h1.26l-.85,4.09-.06.65a1.25,1.25,0,0,0,.33.9,1.21,1.21,0,0,0,.92.36,2,2,0,0,0,1.67-.85,4.08,4.08,0,0,0,.82-1.71l.73-3.44H54.4Z"/><path class="cls-2" d="M56.76,132.05H58l-1.44,6.84H55.31Zm1.68-1.53H57l.29-1.43h1.43Z"/><path class="cls-2" d="M59.49,132.05H61l.34-1.58,1.37-.47-.43,2.06h1.87l-.2,1H62.07L61.44,136c0,.11-.07.32-.13.66s-.08.55-.08.63c0,.5.31.75.92.75a2.11,2.11,0,0,0,.89-.19l-.19,1.06a2.57,2.57,0,0,1-.56.11c-.26,0-.49,0-.68,0a1.56,1.56,0,0,1-1.23-.46,1.52,1.52,0,0,1-.41-1.07,4.62,4.62,0,0,1,.05-.65c0-.2.09-.52.18-1l.59-2.85H59.3Z"/><path class="cls-2" d="M66.16,133.07H64.52l.19-1h1.67l.15-.67a5.28,5.28,0,0,1,.84-2,2.24,2.24,0,0,1,1.89-.76,4.47,4.47,0,0,1,.47,0,3.67,3.67,0,0,1,.5.11l-.26,1a.88.88,0,0,0-.28-.1,2.14,2.14,0,0,0-.32,0,1.23,1.23,0,0,0-1.08.47,3.49,3.49,0,0,0-.5,1.26l-.14.64h1.81l-.2,1H67.42l-1.26,5.82H64.9Z"/><path class="cls-2" d="M75.58,137.85c0,.25-.08.48-.12.7l-.06.34H74.21l.22-1.09a3,3,0,0,1-1,.92,2.73,2.73,0,0,1-1.41.35,2.45,2.45,0,0,1-1.67-.55,2,2,0,0,1-.62-1.61,3.6,3.6,0,0,1,0-.53c0-.13.06-.37.13-.72l.76-3.61H72l-.85,4.09-.06.65a1.25,1.25,0,0,0,.33.9,1.2,1.2,0,0,0,.91.36A2,2,0,0,0,74,137.2a4.08,4.08,0,0,0,.82-1.71l.73-3.44h1.26Z"/><path class="cls-2" d="M79.83,128.82h1.26L79,138.89H77.69Z"/><path class="cls-2" d="M90.27,129.52H91.6l2.07,9.37H92.28l-.49-2.36H87.18l-1.5,2.36H84.19ZM90.7,131l-2.82,4.44h3.69Z"/><path class="cls-2" d="M96,133.09c0-.15.06-.31.1-.49l.09-.55h1.18l-.21,1.08a3,3,0,0,1,.94-.9,2.77,2.77,0,0,1,1.42-.34,2.37,2.37,0,0,1,1.66.54,2,2,0,0,1,.62,1.6,3.7,3.7,0,0,1,0,.53c0,.13-.06.37-.13.72l-.76,3.61H99.59l.85-4.09.06-.65a1.26,1.26,0,0,0-.33-.9,1.23,1.23,0,0,0-.91-.35,2,2,0,0,0-1.67.85,4,4,0,0,0-.82,1.7l-.72,3.44H94.77Z"/><path class="cls-2" d="M107.35,133.25a3.21,3.21,0,0,0-.66-.24,2.56,2.56,0,0,0-.71-.11,2.08,2.08,0,0,0-.91.18.66.66,0,0,0-.37.66q0,.49,1.17,1.29a2.25,2.25,0,0,1,1.17,1.84,1.87,1.87,0,0,1-.8,1.66,3.17,3.17,0,0,1-1.79.54,6.21,6.21,0,0,1-1.12-.08,4.81,4.81,0,0,1-.88-.25l.24-1.09a7.15,7.15,0,0,0,.81.28,2.56,2.56,0,0,0,.76.12,1.93,1.93,0,0,0,1-.26.87.87,0,0,0,.42-.8c0-.21-.39-.64-1.17-1.3a2.61,2.61,0,0,1-1.17-1.78,1.68,1.68,0,0,1,.8-1.51,3.14,3.14,0,0,1,1.78-.51,4.69,4.69,0,0,1,1.78.37Z"/><path class="cls-2" d="M108.65,132.05h1.27l.47,5.5,2.94-5.5h1.53l.47,5.51,2.88-5.51h1.39l-3.74,6.84h-1.45l-.54-5.5-3,5.5H109.4Z"/><path class="cls-2" d="M124.72,138.78a8.57,8.57,0,0,1-1,.21,6.63,6.63,0,0,1-1,.08,3.57,3.57,0,0,1-2.29-.7,3,3,0,0,1-.86-2.4,4.37,4.37,0,0,1,1-2.82,3.33,3.33,0,0,1,2.72-1.26,2.51,2.51,0,0,1,1.91.7,2.64,2.64,0,0,1,.67,1.92c0,.27,0,.47,0,.59s0,.34-.1.67h-4.82l0,.42a1.68,1.68,0,0,0,.55,1.44,2.54,2.54,0,0,0,1.56.42,4.47,4.47,0,0,0,1-.11,5.54,5.54,0,0,0,1-.31Zm-.16-3.95,0-.53a1.38,1.38,0,0,0-.38-1,1.46,1.46,0,0,0-1.07-.38,1.81,1.81,0,0,0-1.31.57,3,3,0,0,0-.79,1.36Z"/><path class="cls-2" d="M128,133.09c0-.15.05-.31.09-.49l.09-.55h1.18l-.21,1.07a3,3,0,0,1,.94-.89,2.79,2.79,0,0,1,1.42-.34.94.94,0,0,1,.26,0,1.71,1.71,0,0,1,.32.1l-.28,1.11a1.63,1.63,0,0,0-.54-.13,2,2,0,0,0-1.67.84,4.11,4.11,0,0,0-.82,1.7l-.71,3.36h-1.27Z"/><path class="cls-2" d="M137.88,129.52h4.91l-.23,1.18H139l-.6,2.74h3.31l-.26,1.18h-3.3l-.92,4.27h-1.38Z"/><path class="cls-2" d="M146.58,131.89a3,3,0,0,1,2.2.79,2.94,2.94,0,0,1,.83,2.2,4.45,4.45,0,0,1-1,3,3.52,3.52,0,0,1-2.81,1.19,3.15,3.15,0,0,1-2.27-.79,3,3,0,0,1-.84-2.27,4.27,4.27,0,0,1,1-2.95A3.6,3.6,0,0,1,146.58,131.89Zm-.81,6.16a2.18,2.18,0,0,0,1.77-1,3.61,3.61,0,0,0,.73-2.2,2.19,2.19,0,0,0-.47-1.4,1.56,1.56,0,0,0-1.28-.58,2.11,2.11,0,0,0-1.84,1,3.93,3.93,0,0,0-.67,2.2,2.11,2.11,0,0,0,.45,1.39A1.58,1.58,0,0,0,145.77,138.05Z"/><path class="cls-2" d="M151.9,133.09c0-.15.06-.31.1-.49s.07-.37.09-.55h1.19l-.22,1.07a2.86,2.86,0,0,1,.94-.89,2.79,2.79,0,0,1,1.42-.34.94.94,0,0,1,.26,0,1.71,1.71,0,0,1,.32.1l-.28,1.11a1.58,1.58,0,0,0-.54-.13,2,2,0,0,0-1.67.84,4.11,4.11,0,0,0-.82,1.7l-.71,3.36h-1.27Z"/><path class="cls-2" d="M161.72,129.52h1.35l-2,9.37H159.7Z"/><path class="cls-2" d="M164.59,133.09c0-.15.06-.31.1-.49l.09-.55H166l-.21,1.08a3,3,0,0,1,.94-.9,2.74,2.74,0,0,1,1.42-.34,2.39,2.39,0,0,1,1.66.54,2,2,0,0,1,.62,1.6,3.7,3.7,0,0,1,0,.53c0,.13-.06.37-.14.72l-.76,3.61h-1.24l.84-4.09.07-.65a1.23,1.23,0,0,0-.34-.9,1.2,1.2,0,0,0-.91-.35,2,2,0,0,0-1.66.85,4,4,0,0,0-.82,1.7l-.73,3.44H163.4Z"/><path class="cls-2" d="M172.12,132.05h1.53l.33-1.58,1.37-.47-.43,2.06h1.88l-.21,1h-1.88l-.64,2.94a6.53,6.53,0,0,0-.12.66,4.37,4.37,0,0,0-.08.63c0,.5.3.75.91.75a2.08,2.08,0,0,0,.89-.19l-.19,1.06a2.45,2.45,0,0,1-.55.11c-.27,0-.5,0-.68,0a1.58,1.58,0,0,1-1.24-.46,1.51,1.51,0,0,1-.4-1.07,4.63,4.63,0,0,1,0-.65c0-.2.09-.52.19-1l.59-2.85h-1.5Z"/><path class="cls-2" d="M182.17,138.78a9,9,0,0,1-1,.21,6.63,6.63,0,0,1-1,.08,3.57,3.57,0,0,1-2.29-.7A2.93,2.93,0,0,1,177,136a4.37,4.37,0,0,1,1-2.82,3.33,3.33,0,0,1,2.73-1.26,2.52,2.52,0,0,1,1.91.7,2.69,2.69,0,0,1,.67,1.92c0,.27,0,.47,0,.59s0,.34-.11.67h-4.81l-.05.42a1.68,1.68,0,0,0,.56,1.44,2.49,2.49,0,0,0,1.55.42,4.4,4.4,0,0,0,.95-.11,5.38,5.38,0,0,0,1-.31Zm-.17-3.95,0-.53a1.38,1.38,0,0,0-.37-1,1.46,1.46,0,0,0-1.08-.38,1.82,1.82,0,0,0-1.31.57,2.9,2.9,0,0,0-.78,1.36Z"/><path class="cls-2" d="M185.48,133.09c0-.15.06-.31.09-.49s.07-.37.1-.55h1.18l-.22,1.07a3,3,0,0,1,1-.89,2.74,2.74,0,0,1,1.42-.34.9.9,0,0,1,.25,0,1.71,1.71,0,0,1,.32.1l-.28,1.11a1.58,1.58,0,0,0-.53-.13,2,2,0,0,0-1.67.84,3.88,3.88,0,0,0-.82,1.7l-.71,3.36h-1.28Z"/><path class="cls-2" d="M190.7,133.09c0-.15.06-.31.09-.49s.07-.37.1-.55h1.18l-.21,1.08a3,3,0,0,1,.94-.9,2.74,2.74,0,0,1,1.42-.34,2.37,2.37,0,0,1,1.66.54,2,2,0,0,1,.62,1.6,3.7,3.7,0,0,1,0,.53c0,.13-.06.37-.13.72l-.77,3.61h-1.24l.84-4.09.07-.65a1.26,1.26,0,0,0-.33-.9,1.24,1.24,0,0,0-.92-.35,2,2,0,0,0-1.66.85,4,4,0,0,0-.82,1.7l-.73,3.44h-1.27Z"/><path class="cls-2" d="M199.16,132.23a8.12,8.12,0,0,1,1-.25,5.37,5.37,0,0,1,.92-.09,3.37,3.37,0,0,1,1.95.51,1.82,1.82,0,0,1,.78,1.66,8.3,8.3,0,0,1-.19,1.42c-.13.62-.25,1.25-.38,1.88s-.22,1.14-.27,1.53H201.8l.23-1.14a2.46,2.46,0,0,1-.95,1,2.64,2.64,0,0,1-1.3.35,2.51,2.51,0,0,1-1.57-.49,1.68,1.68,0,0,1-.62-1.41,2,2,0,0,1,1.09-1.93,6.27,6.27,0,0,1,3-.58l.91,0a2.11,2.11,0,0,0,0-.28.6.6,0,0,0,0-.16,1.2,1.2,0,0,0-.41-1,1.83,1.83,0,0,0-1.17-.33,4.35,4.35,0,0,0-2.11.58Zm3.13,3.37h-1a4,4,0,0,0-1.66.34,1.21,1.21,0,0,0-.73,1.18.82.82,0,0,0,.33.68,1.25,1.25,0,0,0,.8.25,1.87,1.87,0,0,0,1.5-.75A3.22,3.22,0,0,0,202.29,135.6Z"/><path class="cls-2" d="M205.7,132.05h1.52l.34-1.58,1.36-.47-.42,2.06h1.87l-.2,1h-1.89l-.64,2.94c0,.11-.07.32-.12.66s-.08.55-.08.63c0,.5.31.75.92.75a2.15,2.15,0,0,0,.89-.19l-.19,1.06a2.71,2.71,0,0,1-.56.11c-.26,0-.49,0-.68,0a1.58,1.58,0,0,1-1.24-.46,1.51,1.51,0,0,1-.4-1.07c0-.22,0-.44,0-.65l.19-1,.59-2.85h-1.49Z"/><path class="cls-2" d="M211.92,132.05h1.27l-1.45,6.84h-1.26Zm1.69-1.53h-1.43l.29-1.43h1.43Z"/><path class="cls-2" d="M218.19,131.89a3,3,0,0,1,2.21.79,2.94,2.94,0,0,1,.83,2.2,4.45,4.45,0,0,1-1,3,3.51,3.51,0,0,1-2.81,1.19,3.15,3.15,0,0,1-2.27-.79,3,3,0,0,1-.84-2.27,4.27,4.27,0,0,1,1-2.95A3.6,3.6,0,0,1,218.19,131.89Zm-.8,6.16a2.15,2.15,0,0,0,1.76-1,3.56,3.56,0,0,0,.74-2.2,2.19,2.19,0,0,0-.47-1.4,1.55,1.55,0,0,0-1.28-.58,2.11,2.11,0,0,0-1.84,1,3.93,3.93,0,0,0-.67,2.2,2.11,2.11,0,0,0,.45,1.39A1.59,1.59,0,0,0,217.39,138.05Z"/><path class="cls-2" d="M223.53,133.09c0-.15.05-.31.09-.49a5.25,5.25,0,0,0,.09-.55h1.19l-.22,1.08a3,3,0,0,1,.95-.9,2.73,2.73,0,0,1,1.41-.34,2.4,2.4,0,0,1,1.67.54,2,2,0,0,1,.61,1.6,4,4,0,0,1,0,.53c0,.13-.07.37-.14.72l-.76,3.61h-1.25l.85-4.09.06-.65a1.26,1.26,0,0,0-.33-.9,1.23,1.23,0,0,0-.91-.35,2,2,0,0,0-1.67.85,4,4,0,0,0-.82,1.7l-.73,3.44h-1.27Z"/><path class="cls-2" d="M232,132.23a8,8,0,0,1,1-.25,5.47,5.47,0,0,1,.92-.09,3.42,3.42,0,0,1,2,.51,1.84,1.84,0,0,1,.77,1.66,8.3,8.3,0,0,1-.19,1.42c-.13.62-.25,1.25-.38,1.88s-.21,1.14-.26,1.53h-1.17l.23-1.14a2.49,2.49,0,0,1-1,1,2.61,2.61,0,0,1-1.3.35,2.46,2.46,0,0,1-1.56-.49,1.66,1.66,0,0,1-.63-1.41,2,2,0,0,1,1.09-1.93,6.32,6.32,0,0,1,3-.58l.91,0c0-.11,0-.21.05-.28s0-.13,0-.16a1.2,1.2,0,0,0-.42-1,1.81,1.81,0,0,0-1.17-.33,4.27,4.27,0,0,0-2.1.58Zm3.12,3.37h-1a4,4,0,0,0-1.66.34,1.2,1.2,0,0,0-.73,1.18.81.81,0,0,0,.32.68,1.27,1.27,0,0,0,.8.25,1.87,1.87,0,0,0,1.5-.75A3.22,3.22,0,0,0,235.11,135.6Z"/><path class="cls-2" d="M240.21,128.82h1.27l-2.14,10.07h-1.26Z"/><path class="cls-2" d="M253.41,130.7H250.5l-1.76,8.19h-1.36l1.76-8.19h-2.91l.25-1.18h7.18Z"/><path class="cls-2" d="M254.12,133.09c0-.15.06-.31.09-.49s.07-.37.1-.55h1.18l-.22,1.07a3,3,0,0,1,1-.89,2.74,2.74,0,0,1,1.42-.34.86.86,0,0,1,.25,0,1.71,1.71,0,0,1,.32.1l-.28,1.11a1.58,1.58,0,0,0-.53-.13,2,2,0,0,0-1.67.84,4,4,0,0,0-.82,1.7l-.71,3.36h-1.27Z"/><path class="cls-2" d="M259.6,132.23a8.12,8.12,0,0,1,1-.25,5.27,5.27,0,0,1,.91-.09,3.38,3.38,0,0,1,2,.51,1.81,1.81,0,0,1,.77,1.66,7.39,7.39,0,0,1-.19,1.42c-.12.62-.25,1.25-.37,1.88s-.22,1.14-.27,1.53h-1.17l.23-1.14a2.46,2.46,0,0,1-1,1,2.64,2.64,0,0,1-1.3.35,2.51,2.51,0,0,1-1.57-.49,1.68,1.68,0,0,1-.62-1.41,2,2,0,0,1,1.09-1.93,6.27,6.27,0,0,1,3-.58l.91,0c0-.11,0-.21.05-.28s0-.13,0-.16a1.22,1.22,0,0,0-.41-1,1.85,1.85,0,0,0-1.17-.33,4.35,4.35,0,0,0-2.11.58Zm3.12,3.37h-1a4,4,0,0,0-1.66.34,1.2,1.2,0,0,0-.73,1.18.82.82,0,0,0,.33.68,1.25,1.25,0,0,0,.8.25,1.84,1.84,0,0,0,1.49-.75A3.14,3.14,0,0,0,262.72,135.6Z"/><path class="cls-2" d="M272,136.62c-.17.83-.29,1.58-.38,2.27h-1.19c.05-.22.08-.41.11-.55s.07-.32.12-.49a2,2,0,0,1-.95.93,3.22,3.22,0,0,1-1.41.29,2.3,2.3,0,0,1-1.87-.82,3.21,3.21,0,0,1-.67-2.06,5,5,0,0,1,.94-3,3.06,3.06,0,0,1,2.61-1.27,2.67,2.67,0,0,1,1.33.32,1.92,1.92,0,0,1,.88,1l.91-4.35h1.27Zm-3.23,1.43a1.89,1.89,0,0,0,1.7-1.06,4.41,4.41,0,0,0,.61-2.21,2,2,0,0,0-.45-1.34,1.55,1.55,0,0,0-1.26-.54,1.87,1.87,0,0,0-1.64,1,4,4,0,0,0-.63,2.15,2.24,2.24,0,0,0,.42,1.42A1.47,1.47,0,0,0,268.78,138.05Z"/><path class="cls-2" d="M279.16,138.78a8.57,8.57,0,0,1-1,.21,6.63,6.63,0,0,1-1,.08,3.57,3.57,0,0,1-2.29-.7A2.93,2.93,0,0,1,274,136a4.38,4.38,0,0,1,1-2.82,3.33,3.33,0,0,1,2.72-1.26,2.51,2.51,0,0,1,1.91.7,2.64,2.64,0,0,1,.67,1.92c0,.27,0,.47,0,.59s0,.34-.1.67h-4.82l0,.42a1.68,1.68,0,0,0,.55,1.44,2.51,2.51,0,0,0,1.55.42,4.49,4.49,0,0,0,1-.11,5.54,5.54,0,0,0,1-.31Zm-.16-3.95,0-.53a1.38,1.38,0,0,0-.38-1,1.46,1.46,0,0,0-1.07-.38,1.79,1.79,0,0,0-1.31.57,3,3,0,0,0-.79,1.36Z"/><path class="cls-2" d="M19.09,54.61H31.32L20.4,106H44.34l-2.1,9.62H6.16Z"/><path class="cls-2" d="M59,54.61H94.93l-1.84,9.61H69.24l-3.15,15H87.41l-1.92,9.61H64.09L60.5,106H84.62l-2.1,9.62H46.17Z"/><path class="cls-2" d="M102,54.61h12.75l-12.84,61H89.16Z"/><path class="cls-2" d="M122.19,54.61H136.6q12,0,18.14,2.36T160.9,69q0,7.6-5,11.93t-12.8,4.32a5.86,5.86,0,0,1,4,1.62,8.32,8.32,0,0,1,2.19,4.15l5.85,24.55H142.29l-3-14.33A66.16,66.16,0,0,0,136.87,92q-.78-1.76-5.24-1.75H127l-5.33,25.34H109.43Zm7,26h4.46a21.59,21.59,0,0,0,10.22-2.27q4.27-2.28,4.28-7.78c0-2.85-.88-4.63-2.62-5.33a22.32,22.32,0,0,0-7.86-1h-5.07Z"/><path class="cls-2" d="M180.75,54.61l-6.2,29c-.58,2.68-1,4.91-1.36,6.7a30.8,30.8,0,0,0-.48,5.46,13.92,13.92,0,0,0,2.22,8.27c1.49,2.08,4.13,3.11,7.91,3.11q8.31,0,11.58-5.6T200,85.59l6.64-31h12.06l-8.13,36.92q-2.79,12.52-9.21,18.86t-18.57,6.34q-11.62,0-16.95-5t-5.33-14.48a47.78,47.78,0,0,1,1.05-9.45l7-33.16Z"/></svg>