<?xml version="1.0" encoding="UTF-8"?>
<svg id="Capa_1" data-name="Capa 1" xmlns="http://www.w3.org/2000/svg" viewBox="0 0 25 20">
  <defs>
    <style>
      .cls-1 {
        fill: #cdcdcc;
      }

      .cls-1, .cls-2, .cls-3, .cls-4 {
        stroke-width: 0px;
      }

      .cls-2 {
        fill: #fff;
      }

      .cls-3 {
        fill: #51a2d9;
      }

      .cls-4 {
        fill: #2073b5;
      }
    </style>
  </defs>
  <polygon class="cls-4" points="5.29 18 3.68 0 21.32 0 19.71 18 12.49 20 5.29 18"/>
  <polygon class="cls-3" points="12.5 18.47 18.34 16.85 19.71 1.47 12.5 1.47 12.5 18.47"/>
  <polygon class="cls-2" points="6.77 5.63 6.55 3.54 18.45 3.54 18.31 5.96 13.28 8.18 18.1 8.18 17.58 15.02 12.72 16.33 7.68 15.1 7.37 11.63 9.6 11.63 9.72 13.47 12.64 14.01 15.33 13.18 15.46 10.25 7.18 10.25 7.02 8.07 12.5 5.67 6.77 5.63"/>
  <g>
    <polygon class="cls-1" points="7.02 8.07 7.18 10.25 12.5 10.25 12.5 5.67 7.02 8.07"/>
    <polygon class="cls-1" points="9.72 13.47 9.6 11.63 7.37 11.63 7.68 15.1 12.5 16.27 12.5 13.98 9.72 13.47"/>
    <polygon class="cls-1" points="6.55 3.54 6.77 5.63 12.5 5.67 12.5 3.54 6.55 3.54"/>
  </g>
</svg>