<?xml version="1.0" encoding="UTF-8"?>
<svg id="Capa_1" data-name="Capa 1" xmlns="http://www.w3.org/2000/svg" viewBox="0 0 25 20">
  <defs>
    <style>
      .cls-1 {
        fill: #eb652b;
      }

      .cls-1, .cls-2, .cls-3, .cls-4 {
        stroke-width: 0px;
      }

      .cls-2 {
        fill: #cdcdcc;
      }

      .cls-3 {
        fill: #fff;
      }

      .cls-4 {
        fill: #e34d27;
      }
    </style>
  </defs>
  <polygon class="cls-4" points="5.29 18 3.68 0 21.32 0 19.71 18 12.49 20 5.29 18"/>
  <polygon class="cls-1" points="12.5 18.47 18.34 16.85 19.71 1.47 12.5 1.47 12.5 18.47"/>
  <polygon class="cls-3" points="12.5 3.68 12.49 3.68 6.96 3.68 7.02 4.27 7.56 10.36 12.49 10.36 12.5 10.36 15.21 10.36 14.95 13.22 12.49 13.88 12.49 13.88 12.49 13.88 10.03 13.22 9.87 11.46 8.68 11.46 7.66 11.46 7.97 14.93 12.49 16.18 12.5 16.18 12.5 16.18 17.02 14.93 17.05 14.55 17.57 8.74 17.62 8.15 17.03 8.15 12.5 8.15 12.49 8.15 9.58 8.15 9.38 5.89 12.49 5.89 12.5 5.89 17.82 5.89 17.83 5.89 17.87 5.39 17.97 4.27 18.02 3.68 12.5 3.68"/>
  <g>
    <polygon class="cls-2" points="12.5 8.15 9.58 8.15 9.38 5.89 12.5 5.89 12.5 3.68 12.49 3.68 6.96 3.68 7.02 4.27 7.56 10.36 12.5 10.36 12.5 8.15"/>
    <polygon class="cls-2" points="12.5 13.88 12.49 13.88 10.03 13.22 9.87 11.46 8.68 11.46 7.66 11.46 7.97 14.93 12.49 16.18 12.5 16.18 12.5 13.88"/>
  </g>
</svg>