<?xml version="1.0" encoding="UTF-8"?>
<svg id="Capa_1" data-name="Capa 1" xmlns="http://www.w3.org/2000/svg" viewBox="0 0 25 20">
  <defs>
    <style>
      .cls-1 {
        fill: #e7a408;
      }

      .cls-1, .cls-2, .cls-3, .cls-4 {
        stroke-width: 0px;
      }

      .cls-2 {
        fill: #f3c000;
      }

      .cls-3 {
        fill: #cdcdcc;
      }

      .cls-4 {
        fill: #fff;
      }
    </style>
  </defs>
  <polygon class="cls-1" points="21.34 0 12.5 0 12.5 0 3.66 0 5.32 17.96 12.5 20 12.5 20 12.5 20 12.5 20 12.5 20 19.68 17.96 21.34 0"/>
  <polygon class="cls-2" points="12.5 1.46 12.5 18.48 12.5 18.48 18.31 16.83 19.73 1.46 12.5 1.46"/>
  <polygon class="cls-4" points="17.13 3.67 8.18 3.67 7.56 10.39 7.57 10.35 15.17 10.35 14.92 13.2 12.5 13.9 10.04 13.19 9.89 11.46 7.66 11.46 7.98 14.91 12.5 16.19 17.02 14.91 17.64 8.15 9.89 8.15 9.99 5.9 15.28 5.9 15.36 7.19 17.62 7.19 17.13 3.67"/>
  <path class="cls-3" d="m12.5,3.67h-4.32l-.62,6.73v-.04h4.94v-2.2h-2.61l.1-2.25h2.5v-2.23Zm-2.61,7.8h-2.23l.32,3.44,4.52,1.28v-2.29l-2.46-.71-.15-1.72Z"/>
</svg>