<?xml version="1.0" encoding="UTF-8"?>
<svg id="Capa_1" data-name="Capa 1" xmlns="http://www.w3.org/2000/svg" viewBox="0 0 321.13 164.61">
  <defs>
    <style>
      .cls-1 {
        fill: #c60;
      }

      .cls-1, .cls-2, .cls-3, .cls-4, .cls-5, .cls-6, .cls-7, .cls-8 {
        stroke-width: 0px;
      }

      .cls-3 {
        fill: #930;
      }

      .cls-4 {
        fill: #600e0e;
      }

      .cls-5 {
        fill: #c6b198;
      }

      .cls-6 {
        opacity: .6;
      }

      .cls-7 {
        fill: #963;
      }

      .cls-8 {
        fill: #c96;
      }
    </style>
  </defs>
  <ellipse class="cls-6" cx="70.86" cy="113.23" rx="49.26" ry="15.19"/>
  <path class="cls-6" d="m315.07,135.41c0,15.07-49.31,27.29-110.13,27.29s-105.37-25.58-105.37-40.65,44.55-13.92,105.37-13.92,110.13,12.22,110.13,27.29Z"/>
  <path class="cls-1" d="m94.99,119.79L13.81,93.5c-4.52.6-8.67-10.91-9.4-15.41C2.1,64,50.22,8.24,50.22,8.24c9.96-7.32,21.11-5.52,25.63-6.12l48.22,35.7c4.52-.6,8.81,9.94,9.41,14.46,0,0-18.93,64.93-38.48,67.53Z"/>
  <path class="cls-3" d="m94.99,119.79s-43.74,1.12-58.71-3.33C2.1,106.31,5.01,82.61,4.41,78.09c0,0,101.03,29.71,101.63,34.23,0,0,4.76,5.38-11.05,7.47Z"/>
  <ellipse class="cls-2" cx="159.06" cy="40.69" rx="8.25" ry="6.16" transform="translate(29.35 141.34) rotate(-52.16)"/>
  <ellipse class="cls-5" cx="144.07" cy="66.53" rx="37.48" ry="27.97" transform="translate(-13.29 87.07) rotate(-32.22)"/>
  <ellipse class="cls-5" cx="126.84" cy="41.52" rx="20.12" ry="8.9" transform="translate(-1.1 3.54) rotate(-1.59)"/>
  <path class="cls-1" d="m77.8,85.26c.99,12.45-8.12-7.99-8.9-8.42-5.87-3.23,7.37-26.9,5.48-26.26-9.49,3.2-16.2,20.99-15.05,23.65,1.9,4.4,9.58,19.25,9.58,19.25.07.03,3.13,5.5,3.19,5.53,5.99,14.48,22.42,20.08,44.47,20.87,27.45.97-32.65-7.15-31.96-26.81s-4.81-10.85-6.81-7.8Z"/>
  <g>
    <path class="cls-7" d="m81.7,45.54s-12.02-5.65-10.54-8.61c2.13-4.26,6.16-9.12,6.11-9.09-7.9,4.78-9.03-2.15-14.07,20.49l18.5-2.78Z"/>
    <ellipse class="cls-8" cx="117.23" cy="72.6" rx="49.74" ry="35.63" transform="translate(-8.52 16.03) rotate(-7.55)"/>
    <path class="cls-7" d="m108.06,18.92l-1.3-8.34c-1.17-4.04,2.46-6.26,6.39-4.77,0,0,14.94,9.61,14.98,9.63,5.22,2.08,2.2,15.43-3.33,16.05l-20.42,1.08c-3.93-1.49,4.81-7.92,3.69-13.64Z"/>
    <path class="cls-8" d="m111.8,45.14l-10.46,8.37c-4.66,4.93-10.43.73-11.34-6.75,0,0,1.94-31.4,1.93-31.47-1.07-10.01,19.5-15.16,24.51-6.68l16.83,32.23c.91,7.48-14.47-1.82-21.48,4.29Z"/>
    <path class="cls-8" d="m78.97,68.08l7.42-10.22c4.04-4.48,2.75-10.59-1.61-11.92,0,0-13.18-1.29-16.13-4.92-.71-.88-.86-3.34.62-6.3,2.13-4.26,8.2-7,8.16-6.97-7.9,4.78-11.07-4.27-16.12,18.37l-4.34,19.9,14.64,23.72c4.36,1.33,2.08-14.85,7.36-21.66Z"/>
  </g>
  <path class="cls-4" d="m96.82,97.03c-2.1-15.83,15.04-31.17,38.28-34.25,11.84-1.57,22.97.35,31.33,4.69-8.44-7.49-22.69-11.38-38.15-9.33-23.24,3.08-40.38,18.41-38.28,34.25,1.03,7.77,6.5,14.21,14.55,18.4-4.25-3.77-7.03-8.46-7.73-13.77Z"/>
  <ellipse class="cls-8" cx="223.44" cy="108.13" rx="97.05" ry="45.77" transform="translate(-12.27 30.29) rotate(-7.55)"/>
  <ellipse class="cls-8" cx="160.23" cy="98.59" rx="67.17" ry="45.77" transform="translate(-11.56 21.9) rotate(-7.55)"/>
</svg>