<?xml version="1.0" encoding="UTF-8"?>
<svg id="Capa_1" data-name="Capa 1" xmlns="http://www.w3.org/2000/svg" viewBox="0 0 381.11 641.13">
  <defs>
    <style>
      .cls-1 {
        fill: #999;
      }

      .cls-1, .cls-2, .cls-3, .cls-4, .cls-5, .cls-6, .cls-7, .cls-8, .cls-9, .cls-10, .cls-11, .cls-12, .cls-13, .cls-14 {
        stroke-width: 0px;
      }

      .cls-2 {
        fill: #c99;
      }

      .cls-3 {
        fill: #666;
      }

      .cls-4 {
        fill: #fcc;
      }

      .cls-5 {
        fill: #339;
      }

      .cls-6 {
        fill: #c60;
      }

      .cls-8 {
        fill: #e42320;
      }

      .cls-9 {
        fill: #930;
      }

      .cls-10 {
        fill: #600e0e;
      }

      .cls-11 {
        fill: #333;
      }

      .cls-12 {
        fill: #fff;
      }

      .cls-13 {
        opacity: .6;
      }

      .cls-14 {
        fill: #336;
      }
    </style>
  </defs>
  <ellipse class="cls-13" cx="192.26" cy="623.35" rx="177.76" ry="17.77"/>
  <g>
    <circle class="cls-6" cx="293.49" cy="550.65" r="58.52"/>
    <path class="cls-9" d="m349.78,555.25c-.41.43-.83.86-1.25,1.28-29.02,29.02-74.34,30.75-101.23,3.86-2.67-2.67-7.01-5.52-9.12-8.52-.56,14.17,5.68,28.44,16.08,38.84,20.75,20.75,56.76,19.92,79.15-2.46,9.22-9.22,14.37-21.38,16.38-32.99Z"/>
    <path class="cls-2" d="m120.27,272.06l-90.16,25.36c-9.39-1.67-19.67-3.71-25.38-10.44l-4.52-13.37c-2.19-10.84,13.29-22.78,17.69-23.57l57.03-10.28c4.4-.79,30.28,3.06,31.39,9.24l19.92,10.37c1.11,6.18-1.57,11.89-5.97,12.68Z"/>
    <path class="cls-4" d="m84.81,227.82l-40.57,56.06c-8.54,7.01-19.24,8.31-27.59,8.79l-11.05-4.93c-7.76-5.28-1.81-26.55,1.32-30.87l40.57-56.06c3.13-4.32,9.22-5.3,13.54-2.17l21.61,15.64c4.32,3.13,5.3,9.22,2.17,13.54Z"/>
    <path class="cls-9" d="m328.21,512.55c.56,2.75.41,4.18-3.02,5.93,0,0-20.33,4.93-28.99,2.58-9.53-2.59-17.79-8.05-17.79-8.05-1.58-1.69-1.12-8.42-.21-9.73l3.75-10,11.54,6.93,25.84-.81,7.48,2.96,1.02,9.15.39,1.05Z"/>
    <path class="cls-2" d="m148.02,514.77l-38.95-22.27-40.32-13.28-45.64-64.53c-2.31-2.1-2.72-10.74-.62-13.06l15.66-.64c2.1-2.31,5.71-2.48,8.02-.38l76.68,52.05,43.84,42.47c2.31,2.1,27.54,27.41,25.44,29.72l-8.79,9.9c-2.1,2.31-33.02-17.88-35.33-19.99Z"/>
    <path class="cls-2" d="m326.05,443.9l12.39-39.3,16.33-32.53,2.95-82.69c.45-3.09-4.33-11.47-7.42-11.91l-16.6-2.37c-3.09-.45-3.45,3.24-3.9,6.33l-24.89,97.93-4.22,60.26c-.45,3.09-4.28,34.57-1.19,35.02l16.17,2.49c3.09.45,9.94-30.14,10.38-33.23Z"/>
    <path class="cls-4" d="m55.86,375.34l54.76-19.61c3.12-.15,10.95,9.66,11.09,12.78l17.87,54.82c.15,3.12-2.29,5.79-5.41,5.94,0,0-12.61,9.25-29.05,12.82-15.44,3.35-61.44-12.81-61.44-12.81-14.43-5.34-26.42-22.5-21.58-28.31,5.24-6.28,33.75-25.64,33.75-25.64Z"/>
    <path class="cls-4" d="m288.93,290.68c-15.29,7.54-39.02,27.71-39.02,27.71-2.35,2.04-2.69,16.36-1.09,19.29l16.92,62.09c1.6,2.93,4.82,3.66,7.17,1.62,0,0,14.22-.39,28.11-8.59,13.05-7.7,47.53-48.41,47.53-48.41,16.1-18.07,6.51-58.48,3.59-64.25-4.35-8.6-14.89-5.61-26.61-3.5-11.04,1.98-31.62,11.59-36.6,14.05Z"/>
    <path class="cls-11" d="m36.06,430.08c2.41,1.91,11.91,21.93,59.5,18.94l18.71-5.4s29.9-8.83,38.34-11.63c14.18-4.7,23.69-23.29,23.69-23.29,2.42-.8,4.79-13.05,3.91-15.68,0,0,1.52-3.61-10.39-34.14-3.97-10.18-27.93-15.15-27.93-15.15-.87-2.63-3.79-13.24-6.2-12.44l-49.07,25.23-23.98,10.05c-2.42.8-23.93,15.45-26.5,20.31,0,0-3.74,8.25-3.96,19.15-.4,20.22,3.86,24.06,3.86,24.06Z"/>
    <path class="cls-11" d="m326.72,372.92c-1.17,3.39-17.54,22.2-33.61,34.7-10.68,8.31-40.36,24.21-48.45,25.93-13.6,2.88-35.22-17.47-35.22-17.47-2.32.49-9.41-11.3-9.8-14.61,0,0,.37,3.41-2.72-35.94-1.03-13.12,16.19-14.74,16.19-14.74-.39-3.31,8.42-21.6,10.74-22.09l21.05-13.77,36.13-11.54c2.32-.49,25.18,1.55,29.33,5.33,0,0,23.51,6.93,25.38,19.25,4.51,29.55-9.02,44.94-9.02,44.94Z"/>
    <path class="cls-7" d="m274,390.04c-3.52-32.42-7.24-49.85-7.24-49.85-2.41-5.56-14.21,8.41-17.39,6,0,0-12.64-14.91-27.47-14.9-8.36,0-31.62,9.57-34.03,10.57-2.4-1-25.66-10.57-34.03-10.57-14.83,0-27.47,14.9-27.47,14.9-3.18,2.41-13.21-.87-15.62,4.69,0,0-3.8,6.11-7.32,38.52-1.33,12.23,26.7,39.84,26.7,39.84,2.74,3.25,8.24,5.92,10.77,5.92h93.91c2.53,0,8.03-2.67,10.77-5.92,0,0,29.73-26.97,28.4-39.2Z"/>
    <g>
      <path class="cls-5" d="m273.71,141.48s-12.97-3.24-25.61-4.59c-13.46-1.43-27.29-8.32-31.93-9.37-11.45-2.6-11.8,14.6-23.64,14.54-2.84-.02-6.07-.42-9.5-1.01-3.43.59-6.66,1-9.5,1.01-7.08.04-20.44-15.5-25.6-13.62-11.54,4.19-52.3,9.88-65.62,17.95-4.29,2.6-10.74,9.61-14.31,14.31h231.24c-3.57-4.7-15.73-14.82-25.54-19.21Z"/>
      <path class="cls-4" d="m216.53,66.44c1.1-7.18,5.02-12.54,8.76-11.97,2.41.37,4.16,3.11,4.81,6.94.35,2.11-1.71,6.83-2.1,9.38-.27,1.8-.54,6.17-.54,7.43,0,4.2-4.48,3.9-7.29,3.47-3.74-.57-4.73-8.08-3.64-15.26Z"/>
      <ellipse class="cls-4" cx="141.13" cy="67" rx="6.85" ry="13.15"/>
      <path class="cls-7" d="m141.78,87.01c-.85,7.81,1.58,15.49,2.8,20.16,1.43,5.47,6.71,8.34,13.6,14.27,3.89,3.34,16.28,5.42,24.76,5.62,8.48-.19,20.87-2.28,24.76-5.62,6.9-5.93,12.17-8.8,13.6-14.27,1.22-4.67,3.65-12.35,2.8-20.16-.09-.85.48-11.29-.43-11.13-.87.15-2.4,1.06-2.39-4.18,0-5.4-4.35-17.91-8.62-24.08-1.97-2.85-6.05-6.53-8.79-9.02-6.81-6.17-10.72-6.2-20.94-6.12-10.22-.08-14.13-.05-20.94,6.12-2.74,2.49-6.82,6.17-8.79,9.02-4.27,6.17-8.63,18.68-8.62,24.08,0,5.25-1.52,4.34-2.39,4.18-.9-.16-.34,10.28-.43,11.13Z"/>
      <path class="cls-4" d="m222.53,64.76c0-27.62-18-50-40.2-50-13.46,0-37.44,4.38-38.18,17.47-.54,9.46-2.03,21.66-2.03,32.53,0,12.72,3.82,24.33,10.11,33.16,2.16,18.25,14.81,32.26,30.09,32.26s27.92-14.01,30.09-32.26c6.29-8.83,10.11-20.44,10.11-33.16Z"/>
      <path class="cls-2" d="m143.41,66.56c2.31,6.71,3.14,10.15-.79,10.16s-5.34-6.59-5.35-11.94c-.01-5.36.51-8.45,4.44-8.46s.07,5.56,1.69,10.25Z"/>
      <path class="cls-2" d="m222.03,67.37c-.1-1.16-1.22-11.45,2.26-9.63,7.17,3.73.73,9.07,1.48,14.38.84,5.96-1.79,7.64-4.8,7.12-2.21-.39,1.26-9.43,1.05-11.86Z"/>
      <path class="cls-3" d="m224.11,44.33c.85-7.81-1.58-15.49-2.8-20.16-1.43-5.47-6.71-8.34-13.6-14.27-3.89-3.34-16.28-5.42-24.76-5.62-8.48.19-20.87,2.28-24.76,5.62-6.9,5.93-12.17,8.8-13.6,14.27-1.22,4.67-3.65,12.35-2.8,20.16.09.85-.48,11.29.43,11.13.87-.15,2.4-1.06,2.39,4.18,0,5.4,4.35,17.91,8.62,24.08,1.97,2.85,6.05,6.53,8.79,9.02,6.81,6.17,10.72,6.2,20.94,6.12,10.22.08,14.13.05,20.94-6.12,2.74-2.49,6.82-6.17,8.79-9.02,4.27-6.17,8.63-18.68,8.62-24.08,0-5.25,1.52-4.34,2.39-4.18.9.16.34-10.28.43-11.13Z"/>
      <path class="cls-7" d="m196.5,28.77c0,17.65-4.11,41.04-5.24,49.97-.76,6.05-7.75,19.57-9.74,19.57-2.41,0-7.74-11.64-8.79-18.94-1.28-8.91-4.58-32.99-4.58-50.6,0-15.48,2.36-14.92,2.04-24.03-.09-2.61,9.2-4.75,12.14-4.75s10.51,1.04,10.14,4.28c-1.04,9.03,4.03,9.01,4.03,24.49Z"/>
      <path class="cls-4" d="m213.88,128.27c-3.86-10.46-3.61-24.76-.34-32,4.48-9.93-17.66,13.31-31.21,14.53-13.55-1.22-33.19-23.33-30.09-12.89,2.09,7.03,2.39,19.89-1.47,30.36-1.45,3.93-31.24,15.35-27.08,19.76,8.3,8.82,43.61,9.31,58.64,9.31s50.34-.49,58.64-9.31c4.16-4.42-25.63-15.84-27.08-19.76Z"/>
      <g>
        <rect class="cls-3" x="141.99" y="78.28" width="1.16" height="4.5" rx=".29" ry=".29" transform="translate(-3.22 5.99) rotate(-2.38)"/>
        <path class="cls-7" d="m143.14,84.69c-.09.38-.62.41-.74.03l-.88-2.72c0-.21.16-.39.37-.4l1.47-.06c.21,0,.39.16.4.37l-.62,2.78Z"/>
      </g>
      <g>
        <rect class="cls-3" x="222.08" y="79.92" width="1.16" height="4.5" rx=".29" ry=".29" transform="translate(8.9 -20.96) rotate(5.5)"/>
        <path class="cls-7" d="m222.65,86.37c-.14.37-.67.32-.74-.07l-.5-2.82c.02-.21.21-.37.42-.35l1.46.14c.21.02.37.21.35.42l-.99,2.67Z"/>
      </g>
    </g>
    <path class="cls-14" d="m59.16,272.19l27.48-33.01,18.07-16.98,23.2-16.75c1.29-1.9-3.29-31.63-4.63-32.53l-46.53-19.34c-1.33-.91-3.48-.1-4.78,1.8l-26.05,38.82-26.61,38.44c-1.29,1.9-3.26,6.43-1.93,7.33,0,0,.33,3.96,13.31,21.14,6.9,9.13,16.67,12.24,18.6,12.64.15.03,5.16.28,5.3.35,1.34.71,3.35-.11,4.58-1.92Z"/>
    <path class="cls-2" d="m239.71,281.83l111.36,7.32c10.67-2.84,22.31-6.12,27.58-12.61l2.45-11.85c.25-9.38-20.5-16.97-25.83-16.96l-69.2.19c-5.33.01-34.92,7.21-34.9,12.54l-21.18,11.71c.01,5.33,4.39,9.69,9.72,9.67Z"/>
    <path class="cls-4" d="m290.86,227.14l49.05,48.82c9.55,5.54,20.33,5.11,28.65,4.24l10.12-6.64c6.81-6.46-2.48-26.5-6.26-30.26l-49.05-48.82c-3.78-3.76-9.95-3.75-13.71.03l-18.82,18.91c-3.76,3.78-3.75,9.95.03,13.71Z"/>
    <path class="cls-14" d="m323.3,266.81l-32.42-28.17-20.56-13.86-25.59-12.81c-1.58-1.67-1.83-31.74-.66-32.85l42.82-26.56c1.17-1.11,3.42-.66,5.01,1.01l31.95,34.14,32.44,33.67c1.58,1.67,4.25,5.82,3.08,6.93,0,0,.31,3.96-9.74,23-5.35,10.12-14.49,14.76-16.32,15.47-.14.05-5.05,1.1-5.17,1.19-1.21.92-3.32.43-4.83-1.16Z"/>
    <path class="cls-5" d="m303.05,174.56c0-17.49-18.55-32.76-45.38-32.76-7.95,0-33.38-14.7-40-12.49-3.85-.63,2.41,3.52,0,4.66,0,0-2.68,17.78-32.52,17.87-37.42.11-39.11-21.52-39.11-21.52-2.44-.48-6.81,3.72-9.8,5.16-7.4-1.43-15.4,7.43-24.62,7.43-26.83,0-48.58,14.17-48.58,31.66,0,12.99,12.01,24.16,29.19,29.04l8.29,37.07c0,2.09,2.29,3.85,5.33,4.27l9.84,64.78-5.95,27.24c-9.29,10.52-3.17,25.79,6.67,29.55,0,0,38.21,6.84,46.16,8.31,7.74,1.43,20.66-4.53,28.53-4.58,6.66-.04,21.71,4.74,28.16,3.05,5.25-1.38,24.08-8.61,24.08-8.61,10.5-4.33,48.04-40.22,33.1-44.42l-9.66-26.32-8.02-48.99c3.07-.4,5.41-2.17,5.41-4.28l8.2-36.66c17.98-4.64,30.69-16.08,30.69-29.44Z"/>
    <path class="cls-14" d="m219.17,129.17c-.81-.51-6.21-3.61-6.01-3.05.21.6.34,1.06.62,1.87.31.88.97,1.37.97,1.37.83.68.96,2.31.46,3.18-2.87,5.06-8.89,14.62-32.49,14.65h0s-.09,0-.13,0h0s-.07,0-.11,0c-.04,0-.07,0-.11,0h0s-.09,0-.13,0h0c-23.6-.03-29.16-9.88-32.49-14.65-.22-.31-.08-1.9.33-3.44,0,0,.64-.24.83-1.15.14-.68.46-1.27.67-1.87.2-.56-4.99,2.58-5.8,3.1-.73.47-1.96,2.77-1.67,3.63,3.7,10.95,15.55,20.29,38.13,20.32h0c.08,0,.16,0,.24,0,.08,0,.16,0,.24,0h0c22.58-.03,34.43-9.37,38.13-20.32.29-.86-.94-3.16-1.67-3.63Z"/>
    <path class="cls-1" d="m322.11,468.93s-7.76-.08-14.67-1.21c-8.09-1.33-12.06-3.09-12.06-3.09-1.1-.18-1.94-.65-1.88-1.05l1.82-11.27c.06-.4,1.02-.59,2.11-.41,0,0,4.84,1.84,13.51,3.14,6.4.96,13.22,1.17,13.22,1.17,1.1.18,1.94.65,1.88,1.05l-1.82,11.27c-.06.4-1.02.59-2.11.41Z"/>
    <rect class="cls-7" x="291.48" y="457.08" width="32.89" height="32.89" rx="11.25" ry="11.25" transform="translate(79.28 -42.97) rotate(9.16)"/>
    <rect class="cls-11" x="295.58" y="460.64" width="25.71" height="19.41" rx="5.74" ry="5.74" transform="translate(78.78 -43.09) rotate(9.16)"/>
    <rect class="cls-7" x="282.84" y="472.79" width="46.38" height="32.89" rx="11.25" ry="11.25" transform="translate(81.76 -42.47) rotate(9.16)"/>
    <rect class="cls-3" x="279.95" y="503.25" width="46.06" height="9.89" rx="3.38" ry="3.38" transform="translate(84.73 -41.74) rotate(9.16)"/>
    <rect class="cls-12" x="282.27" y="501.92" width="43.54" height="2.77" rx=".95" ry=".95" transform="translate(83.97 -41.97) rotate(9.16)"/>
    <path class="cls-1" d="m185.43,510.76s-3.62,6.9-7.91,12.43c-5.03,6.48-8.61,9.02-8.61,9.02-.68.88-1.54,1.37-1.91,1.08l-10.47-8.06c-.37-.29-.12-1.24.56-2.12,0,0,4.05-3.28,9.31-10.29,3.88-5.18,7.2-11.16,7.2-11.16.68-.88,1.54-1.37,1.91-1.08l10.47,8.06c.37.29.12,1.24-.56,2.12Z"/>
    <rect class="cls-7" x="166.4" y="509.09" width="32.89" height="32.89" rx="11.25" ry="11.25" transform="translate(-345.13 349.85) rotate(-52.41)"/>
    <rect class="cls-11" x="167.44" y="513.86" width="25.71" height="19.41" rx="5.74" ry="5.74" transform="translate(-344.56 347.06) rotate(-52.41)"/>
    <rect class="cls-7" x="172.58" y="518.23" width="46.38" height="32.89" rx="11.25" ry="11.25" transform="translate(-347.33 363.65) rotate(-52.41)"/>
    <rect class="cls-3" x="187.95" y="541.44" width="46.06" height="9.89" rx="3.38" ry="3.38" transform="translate(-350.68 380.28) rotate(-52.41)"/>
    <rect class="cls-12" x="185.42" y="541.74" width="43.54" height="2.77" rx=".95" ry=".95" transform="translate(-349.57 376) rotate(-52.41)"/>
  </g>
  <g>
    <rect class="cls-7" x="179.71" y="596.94" width="18.63" height="28.06" rx="6.37" ry="6.37"/>
    <rect class="cls-3" x="177.76" y="582.02" width="22.53" height="28.06" rx="7.7" ry="7.7"/>
    <g>
      <circle class="cls-7" cx="93.43" cy="610.97" r="14.03"/>
      <circle class="cls-1" cx="93.43" cy="610.97" r="10.63"/>
      <circle class="cls-7" cx="93.43" cy="610.97" r="5.39"/>
    </g>
    <path class="cls-3" d="m93.43,601.65c7.5,0,13.85.64,15.93,7.46.47-1.54.73,1.15.73-.54,0-9.2-7.46-16.65-16.65-16.65s-16.65,7.46-16.65,16.65c0,1.69.26-1,.73.54,2.08-6.82,8.42-7.46,15.93-7.46Z"/>
    <g>
      <circle class="cls-7" cx="297.98" cy="610.97" r="14.03"/>
      <circle class="cls-1" cx="297.98" cy="610.97" r="10.63"/>
      <circle class="cls-7" cx="297.98" cy="610.97" r="5.39"/>
    </g>
    <path class="cls-3" d="m297.98,601.65c7.5,0,13.85.64,15.93,7.46.47-1.54.73,1.15.73-.54,0-9.2-7.46-16.65-16.65-16.65s-16.65,7.46-16.65,16.65c0,1.69.26-1,.73.54,2.08-6.82,8.42-7.46,15.93-7.46Z"/>
    <path class="cls-8" d="m109.24,188.33s59.49-39.79,79.79-39.79,79.79,39.79,79.79,39.79c4.7,0,8.55,8.95,8.55,19.89v59.68c0,10.94-3.85,19.89-8.55,19.89,0,0-59.81,26.34-79.79,26.34s-79.79-26.34-79.79-26.34c-4.7,0-8.55-8.95-8.55-19.89v-59.68c0-10.94,3.85-19.89,8.55-19.89Z"/>
    <path class="cls-10" d="m111.85,191.28s57.54-37.06,77.17-37.06,77.17,37.06,77.17,37.06c4.55,0,8.27,8.34,8.27,18.53v55.6c0,10.19-3.72,18.53-8.27,18.53,0,0-57.85,24.54-77.17,24.54s-77.17-24.54-77.17-24.54c-4.55,0-8.27-8.34-8.27-18.53v-55.6c0-10.19,3.72-18.53,8.27-18.53Z"/>
    <path class="cls-3" d="m113.47,198.29s56.34-35.1,75.56-35.1,75.56,35.1,75.56,35.1c4.45,0,8.1,7.9,8.1,17.55v46.18c0,9.65-3.64,17.55-8.1,17.55,0,0-56.64,29.72-75.56,29.72s-75.56-29.72-75.56-29.72c-4.45,0-8.1-7.9-8.1-17.55v-46.18c0-9.65,3.64-17.55,8.1-17.55Z"/>
    <path class="cls-8" d="m106.41,381.21h165.24c4.87,0,8.85,1.84,8.85,4.1v12.29c0,2.25-3.98,4.1-8.85,4.1,0,0-61.94,5.43-82.62,5.43s-82.62-5.43-82.62-5.43c-4.87,0-8.85-1.84-8.85-4.1v-12.29c0-2.25,3.98-4.1,8.85-4.1Z"/>
    <path class="cls-10" d="m106.41,383.93h165.24c4.87,0,8.85,1.84,8.85,4.1v12.29c0,2.25-3.98,4.1-8.85,4.1,0,0-61.94,5.43-82.62,5.43s-82.62-5.43-82.62-5.43c-4.87,0-8.85-1.84-8.85-4.1v-12.29c0-2.25,3.98-4.1,8.85-4.1Z"/>
    <path class="cls-1" d="m106.41,390.29s61.61,2.84,82.62,2.84,82.62-2.84,82.62-2.84c4.87,0,8.85,1.42,8.85,3.16v9.48c0,1.74-3.98,3.16-8.85,3.16,0,0-61.94,4.18-82.62,4.18s-82.62-4.18-82.62-4.18c-4.87,0-8.85-1.42-8.85-3.16v-9.48c0-1.74,3.98-3.16,8.85-3.16Z"/>
    <path class="cls-11" d="m308.18,589.82c0,12.8-53.35-.87-119.15-.87s-119.15,13.67-119.15.87,53.35-23.18,119.15-23.18,119.15,10.38,119.15,23.18Z"/>
    <rect class="cls-7" x="174.61" y="458.29" width="28.83" height="108.58" transform="translate(378.05 1025.16) rotate(180)"/>
    <path class="cls-3" d="m275.85,442.82s-64.74,18.6-86.82,18.6-86.82-18.6-86.82-18.6c-5.12,0-9.3-4.19-9.3-9.3v-27.91c0-5.12,4.19-9.3,9.3-9.3,0,0,65.08,9.3,86.82,9.3s86.82-9.3,86.82-9.3c5.12,0,9.3,4.19,9.3,9.3v27.91c0,5.12-4.19,9.3-9.3,9.3Z"/>
    <path class="cls-1" d="m127.89,202.19s45.73-25.31,61.33-25.31,61.33,25.31,61.33,25.31c3.61,0,6.57,5.7,6.57,12.66v37.97c0,6.96-2.96,12.66-6.57,12.66,0,0-45.97-12.66-61.33-12.66s-61.33,12.66-61.33,12.66c-3.61,0-6.57-5.7-6.57-12.66v-37.97c0-6.96,2.96-12.66,6.57-12.66Z"/>
    <path class="cls-11" d="m228.51,435.22s-29.44,8.46-39.49,8.46-39.49-8.46-39.49-8.46c-2.33,0-4.23-1.9-4.23-4.23v-12.69c0-2.33,1.9-4.23,4.23-4.23,0,0,29.6-2.57,39.49-2.57s39.49,2.57,39.49,2.57c2.33,0,4.23,1.9,4.23,4.23v12.69c0,2.33-1.9,4.23-4.23,4.23Z"/>
    <g>
      <path class="cls-3" d="m166.4,197.68s17.05-11.79,22.87-11.79,22.87,11.79,22.87,11.79c1.35,0,2.45,2.65,2.45,5.9v17.69c0,3.24-1.1,5.9-2.45,5.9,0,0-17.14,11.78-22.87,11.78s-22.87-11.78-22.87-11.78c-1.35,0-2.45-2.65-2.45-5.9v-17.69c0-3.24,1.1-5.9,2.45-5.9Z"/>
      <path class="cls-7" d="m170.69,202.11s13.86-9.58,18.58-9.58,18.58,9.58,18.58,9.58c1.1,0,1.99,2.16,1.99,4.79v14.37c0,2.64-.9,4.79-1.99,4.79,0,0-13.93,9.57-18.58,9.57s-18.58-9.57-18.58-9.57c-1.1,0-1.99-2.16-1.99-4.79v-14.37c0-2.64.9-4.79,1.99-4.79Z"/>
      <path class="cls-3" d="m189.03,207.96c-7.96,0-14.41,6.45-14.41,14.41v33.44h28.83v-33.44c0-7.96-6.45-14.41-14.41-14.41Z"/>
      <path class="cls-11" d="m203.43,255.54c-.15-7.83-6.53-14.13-14.4-14.13s-14.25,6.3-14.4,14.13h-.01v108.58h28.83v-108.58h-.01Z"/>
      <path class="cls-3" d="m202.96,360.38c-1.61-6.2-7.23-10.78-13.93-10.78s-12.32,4.58-13.93,10.78c-.3,1.16-.48,2.37-.48,3.63v57.63c0,1.26.18,2.47.48,3.63,1.61,6.2,7.23,10.78,13.93,10.78s12.32-4.58,13.93-10.78c.3-1.16.48-2.37.48-3.63v-57.63c0-1.26-.18-2.47-.48-3.63Z"/>
    </g>
  </g>
</svg>