<?xml version="1.0" encoding="UTF-8"?>
<svg class="Capa_1" data-name="Capa 1" xmlns="http://www.w3.org/2000/svg" viewBox="0 0 1000 1000">
  <defs>
    <style>
      .cls-1 {
        fill: #999;
      }

      .cls-1, .cls-2, .cls-3, .cls-4, .cls-5, .cls-6, .cls-7, .cls-8, .cls-9, .cls-10, .cls-11, .cls-12, .cls-13, .cls-14, .cls-15, .cls-16, .cls-17, .cls-18, .cls-19, .cls-20, .cls-21, .cls-22, .cls-23 {
        stroke-width: 0px;
      }

      .cls-2 {
        fill: #c99;
      }

      .cls-3 {
        fill: #4d4d4d;
      }

      .cls-4 {
        fill: #666;
      }

      .cls-5 {
        fill: #fcc;
      }

      .cls-6 {
        fill: #339;
      }

      .cls-7 {
        fill: #633;
      }

      .cls-8 {
        fill: #c60;
      }

      .cls-24 {
        fill: none;
        stroke: #e42320;
        stroke-miterlimit: 10;
        stroke-width: 4.28px;
      }

      .cls-10 {
        fill: #e42320;
      }

      .cls-11 {
        fill: #930;
      }

      .cls-12 {
        fill: #600e0e;
      }

      .cls-13 {
        fill: #39c;
      }

      .cls-14 {
        fill: #333;
      }

      .cls-15 {
        fill: #ccc;
      }

      .cls-16 {
        fill: #c6b198;
      }

      .cls-17 {
        fill: #fff;
      }

      .cls-18 {
        opacity: .6;
      }

      .cls-19 {
        fill: #963;
      }

      .cls-20 {
        fill: #68c2e7;
      }

      .cls-21 {
        fill: #336;
      }

      .cls-22 {
        fill: #c96;
      }

      .cls-23 {
        fill: #9cf;
      }
    </style>
  </defs>
  <g class="desk_deskwork">
    <g class="desk_tablet">
      <path class="cls-24" d="m491.57,407.34c-96.8,51.05-54.9,99.37-43.69,125.9,9.2,21.78,52.12,87.24,117.03,32.11,30.74-26.11,26.55-101.76,102.75-114.14,93.88-15.25-23.82-81.43,32.65-86.76"/>
      <path class="cls-9" d="m711.02,366.59l-13.12,2.79c-.97-.39-3.02-3.59-2.63-4.56l3.84-3.58c.39-.97,1.5-1.45,2.47-1.06l13.12-2.79c.97.39,1.45,1.5,1.06,2.47l-2.27,5.68c-.39.97-1.5,1.45-2.47,1.06Z"/>
      <path class="cls-4" d="m709.55,364.16l-13.12,2.79c-.97-.39-1.45-1.5-1.06-2.47l2.1-5.26c.39-.97,2.01-1.76,2.68-1.85,3.33-.42,13.67-3.11,13.67-3.11.97.39.85,2.18.46,3.15l-2.27,5.68c-.39.97-1.5,1.45-2.47,1.06Z"/>
      <g>
        <g>
          <ellipse class="cls-14" cx="795.65" cy="237.47" rx="26.8" ry="40.79" transform="translate(351.92 939.3) rotate(-74.31)"/>
          <rect class="cls-4" x="829.64" y="191.87" width="15.45" height="98.53" rx="5.28" ry="5.28" transform="translate(533.31 1057.77) rotate(-85.64)"/>
          <circle class="cls-14" cx="884.35" cy="244.6" r="19.76"/>
          <rect class="cls-4" x="852.77" y="231.3" width="15.45" height="98.53" rx="5.28" ry="5.28" transform="translate(324.99 -449.09) rotate(35.67)"/>
        </g>
        <g>
          <path class="cls-1" d="m708.18,421.85l151.82-34.34c6.4-1.49,10.35-5.45,13.06-12.63l34.42-92.97c2.71-7.19-5.45-11.69-11.85-10.2l-140.88,45.6c-6.4,1.49-13.86,8.58-16.56,15.77l-47.05,81.02c-2.71,7.19,10.64,9.24,17.05,7.75Z"/>
          <path class="cls-4" d="m706.01,422.34l152.34-34.39c6.4-1.49-3.85-.05-1.15-7.24,0,0-168.46-3.27-166.06,33.39.76,11.61,8.46,9.73,14.87,8.24Z"/>
          <path class="cls-9" d="m699.06,418.93l151.92-35.28c6.4-1.49,13.86-8.58,16.56-15.77l32.23-85.54c2.71-7.19-.32-11.85-6.72-10.36l-151.92,35.28c-6.4,1.49-13.86,8.58-16.56,15.77l-32.23,85.54c-2.71,7.19.32,11.85,6.72,10.36Z"/>
          <path class="cls-4" d="m732.13,325.87c1.88-5,7.46-9.96,10.83-10.75l148.85-34.56-31.82,84.47c-1.88,5-7.46,9.96-10.83,10.75l-148.85,34.56,31.82-84.47Z"/>
          <path class="cls-23" d="m733.78,327.86c1.88-5,7.46-9.96,10.83-10.75l146.19-33.89-30.82,81.8c-1.88,5-7.46,9.96-10.83,10.75l-146.23,33.95,30.85-81.87Z"/>
        </g>
      </g>
    </g>
    <g class="desk_desk">
      <g>
        <rect class="cls-19" x="752.12" y="533.24" width="26.88" height="312.11"/>
        <rect class="cls-19" x="221.01" y="533.24" width="26.88" height="312.11"/>
      </g>
      <g>
        <rect class="cls-19" x="660.88" y="477.13" width="12.34" height="53.47"/>
        <rect class="cls-19" x="326.79" y="477.13" width="12.34" height="53.47"/>
      </g>
      <rect class="cls-7" x="202.64" y="526.73" width="594.72" height="13.02" transform="translate(1000 1066.49) rotate(-180)"/>
      <rect class="cls-7" x="305.96" y="467.62" width="388.09" height="13.02" transform="translate(1000 948.26) rotate(-180)"/>
    </g>
    <g class="desk_pen">
      <g>
        <path class="cls-14" d="m338.09,465.97h-3.42c-.49,0-.88-.4-.88-.88v-42.42s1.17-18.9,1.17-18.9c0-.49.4-.88.88-.88h1.18c.49,0,.88.4.88.88l1.08,18.9v42.42c0,.49-.4.88-.88.88Z"/>
        <g>
          <path class="cls-17" d="m338.97,458.14v-14.09c-.18-.15-.41-.25-.67-.25h-.95c-.58,0-1.04.47-1.04,1.04v12.51c0,.58.47,1.04,1.04,1.04h.95c.26,0,.49-.1.67-.25Z"/>
          <rect class="cls-4" x="336.69" y="444.17" width="2.29" height="13.84" rx=".89" ry=".89"/>
          <g>
            <rect class="cls-14" x="337.83" y="453.12" width=".69" height="3.32" rx=".27" ry=".27"/>
            <rect class="cls-14" x="337.83" y="445.75" width=".69" height="3.32" rx=".27" ry=".27"/>
          </g>
        </g>
        <rect class="cls-17" x="333.78" y="435.78" width="5.19" height=".37"/>
        <path class="cls-9" d="m338.07,424.23h-2.31c-.33,0-.6-.33-.6-.74v-1.48s.79-15.87.79-15.87c0-.41.27-.74.6-.74h.8c.33,0,.6.33.6.74l.73,15.87v1.48c0,.41-.27.74-.6.74Z"/>
      </g>
      <rect class="cls-4" x="320.19" y="460.78" width="32.98" height="10.37" rx="5.18" ry="5.18"/>
      <path class="cls-1" d="m320.19,465.93v.07c0,.14,0,.28.02.42h32.94c.01-.14.02-.28.02-.42v-.07c0-.14,0-.28-.02-.42h-32.94c-.01.14-.02.28-.02.42Z"/>
    </g>
    <g class="desk_computer">
      <g>
        <rect class="cls-1" x="415.86" y="465.5" width="168.28" height="5.7" rx="2.78" ry="2.78" transform="translate(1000 936.7) rotate(-180)"/>
        <rect class="cls-3" x="476.71" y="435.46" width="46.59" height="31.37" transform="translate(1000 902.29) rotate(-180)"/>
      </g>
      <g class="computer_monitor">
        <g>
          <rect class="cls-15" x="350.75" y="248.75" width="298.51" height="189.07" transform="translate(1000 686.57) rotate(-180)"/>
          <rect class="cls-9" x="352.11" y="249.52" width="295.79" height="166.38" transform="translate(1000 665.41) rotate(-180)"/>
        </g>
        <g class="computer_screen">
          <rect class="cls-14" x="363.94" y="260.64" width="272.13" height="148.61" transform="translate(1000 669.88) rotate(-180)"/>
          <rect class="cls-23" x="367.32" y="262.54" width="265.37" height="144.8" transform="translate(1000 669.88) rotate(-180)"/>
        </g>
        <g>
          <circle class="cls-1" cx="500" cy="254.89" r="3.68"/>
          <circle class="cls-9" cx="500" cy="254.89" r="3.08"/>
          <circle class="cls-10" cx="500" cy="254.89" r="1.21"/>
        </g>
      </g>
    </g>
    <g class="desk_coffe">
      <rect class="cls-1" x="723.86" y="447.07" width="2.67" height="79.07" rx="1.04" ry="1.04" transform="translate(-117.17 256.14) rotate(-18.56)"/>
      <path class="cls-17" d="m717.95,484.38h-12.37c-4.67,0-8.49,3.82-8.49,8.49v21.23c0,4.67,3.82,8.49,8.49,8.49h12.37c4.67,0,8.49-3.82,8.49-8.49v-21.23c0-4.67-3.82-8.49-8.49-8.49Zm4.25,29.72c0,2.34-1.9,4.25-4.25,4.25h-12.37c-2.34,0-4.25-1.9-4.25-4.25v-21.23c0-2.34,1.9-4.25,4.25-4.25h12.37c2.34,0,4.25,1.9,4.25,4.25v21.23Z"/>
      <path class="cls-17" d="m716.28,474.75h44.77c1.3,0,2.35,1.05,2.35,2.35v53.71h-49.47v-53.71c0-1.3,1.05-2.35,2.35-2.35Z"/>
      <rect class="cls-13" x="713.93" y="481.73" width="49.47" height="42.1"/>
      <g>
        <circle class="cls-8" cx="715.97" cy="484.78" r="1.28"/>
        <circle class="cls-8" cx="720.15" cy="484.65" r="1.28"/>
        <circle class="cls-8" cx="724.77" cy="484.53" r="1.28"/>
        <circle class="cls-8" cx="729.24" cy="485.04" r="1.28"/>
        <circle class="cls-8" cx="733.5" cy="484.65" r="1.28"/>
        <circle class="cls-8" cx="737.83" cy="484.91" r="1.28"/>
        <circle class="cls-8" cx="742.37" cy="484.66" r="1.28"/>
        <circle class="cls-8" cx="746.39" cy="485.17" r="1.28"/>
        <circle class="cls-8" cx="749.94" cy="484.66" r="1.28"/>
        <circle class="cls-8" cx="753.78" cy="485.17" r="1.28"/>
        <circle class="cls-6" cx="716.01" cy="498.08" r="1.28"/>
        <circle class="cls-6" cx="720.2" cy="497.95" r="1.28"/>
        <circle class="cls-6" cx="724.82" cy="497.83" r="1.28"/>
        <circle class="cls-6" cx="729.28" cy="498.34" r="1.28"/>
        <circle class="cls-6" cx="733.54" cy="497.95" r="1.28"/>
        <circle class="cls-6" cx="737.88" cy="498.21" r="1.28"/>
        <circle class="cls-6" cx="742.41" cy="497.96" r="1.28"/>
        <circle class="cls-6" cx="746.44" cy="498.47" r="1.28"/>
        <circle class="cls-6" cx="749.99" cy="497.96" r="1.28"/>
        <circle class="cls-6" cx="753.83" cy="498.47" r="1.28"/>
        <circle class="cls-21" cx="716.01" cy="521.27" r="1.28"/>
        <circle class="cls-21" cx="720.2" cy="521.15" r="1.28"/>
        <circle class="cls-21" cx="724.82" cy="521.02" r="1.28"/>
        <circle class="cls-21" cx="729.28" cy="521.53" r="1.28"/>
        <circle class="cls-21" cx="733.54" cy="521.15" r="1.28"/>
        <circle class="cls-21" cx="737.88" cy="521.4" r="1.28"/>
        <circle class="cls-21" cx="742.41" cy="521.15" r="1.28"/>
        <circle class="cls-21" cx="746.44" cy="521.66" r="1.28"/>
        <circle class="cls-21" cx="749.99" cy="521.15" r="1.28"/>
        <circle class="cls-21" cx="753.83" cy="521.66" r="1.28"/>
        <circle class="cls-12" cx="715.44" cy="515.81" r="1.28"/>
        <circle class="cls-12" cx="719.63" cy="515.68" r="1.28"/>
        <circle class="cls-12" cx="724.25" cy="515.56" r="1.28"/>
        <circle class="cls-12" cx="728.71" cy="516.07" r="1.28"/>
        <circle class="cls-12" cx="732.97" cy="515.68" r="1.28"/>
        <circle class="cls-12" cx="737.31" cy="515.94" r="1.28"/>
        <circle class="cls-12" cx="741.84" cy="515.69" r="1.28"/>
        <circle class="cls-12" cx="745.87" cy="516.2" r="1.28"/>
        <circle class="cls-12" cx="749.42" cy="515.69" r="1.28"/>
        <circle class="cls-12" cx="753.26" cy="516.2" r="1.28"/>
        <circle class="cls-20" cx="716.39" cy="502.51" r="1.28"/>
        <circle class="cls-20" cx="720.58" cy="502.39" r="1.28"/>
        <circle class="cls-20" cx="725.2" cy="502.26" r="1.28"/>
        <circle class="cls-20" cx="729.66" cy="502.77" r="1.28"/>
        <circle class="cls-20" cx="733.92" cy="502.39" r="1.28"/>
        <circle class="cls-20" cx="738.25" cy="502.64" r="1.28"/>
        <circle class="cls-20" cx="742.79" cy="502.39" r="1.28"/>
        <circle class="cls-20" cx="746.81" cy="502.9" r="1.28"/>
        <circle class="cls-20" cx="750.36" cy="502.39" r="1.28"/>
        <circle class="cls-20" cx="754.2" cy="502.9" r="1.28"/>
        <circle class="cls-11" cx="715.34" cy="506.94" r="1.28"/>
        <circle class="cls-11" cx="719.53" cy="506.82" r="1.28"/>
        <circle class="cls-11" cx="724.15" cy="506.69" r="1.28"/>
        <circle class="cls-11" cx="728.61" cy="507.2" r="1.28"/>
        <circle class="cls-11" cx="732.87" cy="506.82" r="1.28"/>
        <circle class="cls-11" cx="737.2" cy="507.08" r="1.28"/>
        <circle class="cls-11" cx="741.74" cy="506.82" r="1.28"/>
        <circle class="cls-11" cx="745.77" cy="507.33" r="1.28"/>
        <circle class="cls-11" cx="749.31" cy="506.82" r="1.28"/>
        <circle class="cls-11" cx="753.16" cy="507.33" r="1.28"/>
        <circle class="cls-16" cx="753.78" cy="489.35" r="1.28"/>
        <circle class="cls-16" cx="749.6" cy="489.48" r="1.28"/>
        <circle class="cls-16" cx="744.98" cy="489.6" r="1.28"/>
        <circle class="cls-16" cx="740.51" cy="489.09" r="1.28"/>
        <circle class="cls-16" cx="736.25" cy="489.48" r="1.28"/>
        <circle class="cls-16" cx="731.92" cy="489.22" r="1.28"/>
        <circle class="cls-16" cx="727.38" cy="489.47" r="1.28"/>
        <circle class="cls-16" cx="723.36" cy="488.96" r="1.28"/>
        <circle class="cls-16" cx="719.81" cy="489.47" r="1.28"/>
        <circle class="cls-16" cx="715.97" cy="488.96" r="1.28"/>
        <circle class="cls-22" cx="753.68" cy="511.52" r="1.28"/>
        <circle class="cls-22" cx="749.5" cy="511.64" r="1.28"/>
        <circle class="cls-22" cx="744.87" cy="511.77" r="1.28"/>
        <circle class="cls-22" cx="740.41" cy="511.26" r="1.28"/>
        <circle class="cls-22" cx="736.15" cy="511.64" r="1.28"/>
        <circle class="cls-22" cx="731.82" cy="511.38" r="1.28"/>
        <circle class="cls-22" cx="727.28" cy="511.64" r="1.28"/>
        <circle class="cls-22" cx="723.26" cy="511.13" r="1.28"/>
        <circle class="cls-22" cx="719.71" cy="511.64" r="1.28"/>
        <circle class="cls-22" cx="715.87" cy="511.13" r="1.28"/>
        <circle class="cls-10" cx="753.88" cy="493.79" r="1.28"/>
        <circle class="cls-10" cx="749.7" cy="493.91" r="1.28"/>
        <circle class="cls-10" cx="745.08" cy="494.03" r="1.28"/>
        <circle class="cls-10" cx="740.61" cy="493.53" r="1.28"/>
        <circle class="cls-10" cx="736.36" cy="493.91" r="1.28"/>
        <circle class="cls-10" cx="732.02" cy="493.65" r="1.28"/>
        <circle class="cls-8" cx="757.49" cy="484.65" r="1.28"/>
        <circle class="cls-8" cx="761.83" cy="484.91" r="1.28"/>
        <circle class="cls-6" cx="757.54" cy="497.95" r="1.28"/>
        <circle class="cls-6" cx="761.53" cy="498.21" r="1.28"/>
        <circle class="cls-21" cx="757.54" cy="521.15" r="1.28"/>
        <circle class="cls-21" cx="761.3" cy="521.53" r="1.28"/>
        <circle class="cls-12" cx="757.2" cy="515.92" r="1.28"/>
        <circle class="cls-12" cx="761.3" cy="515.94" r="1.28"/>
        <circle class="cls-20" cx="757.91" cy="502.39" r="1.28"/>
        <circle class="cls-20" cx="761.74" cy="502.64" r="1.28"/>
        <circle class="cls-11" cx="757.49" cy="506.82" r="1.28"/>
        <circle class="cls-11" cx="761.32" cy="507.08" r="1.28"/>
        <circle class="cls-16" cx="761.87" cy="489.48" r="1.28"/>
        <circle class="cls-16" cx="757.54" cy="489.22" r="1.28"/>
        <circle class="cls-22" cx="761.63" cy="511.64" r="1.28"/>
        <circle class="cls-22" cx="757.29" cy="511.38" r="1.28"/>
        <circle class="cls-10" cx="761.3" cy="493.91" r="1.28"/>
        <circle class="cls-10" cx="757.54" cy="493.65" r="1.28"/>
        <circle class="cls-10" cx="727.48" cy="493.91" r="1.28"/>
        <circle class="cls-10" cx="723.46" cy="493.4" r="1.28"/>
        <circle class="cls-10" cx="719.91" cy="493.91" r="1.28"/>
        <circle class="cls-10" cx="716.07" cy="493.4" r="1.28"/>
      </g>
    </g>
    <g class="desk_keyboard">
      <polygon class="cls-4" points="353.18 532.27 554.78 532.27 554.78 527.44 525.26 520.86 381.88 520.86 353.18 527.44 353.18 532.27"/>
      <path class="cls-1" d="m358.01,527.44h191.94c2.66,0,4.83,2.16,4.83,4.83h-201.6c0-2.66,2.16-4.83,4.83-4.83Z" transform="translate(907.96 1059.72) rotate(-180)"/>
    </g>
    <g class="desk_mouse">
      <path class="cls-14" d="m632.56,524.63c-1-5.92-4.69-10.22-15.71-10.22h0c-11.03,0-14.72,4.3-15.71,10.22-.23,1.37.93,3.4,1.51,4.42.3.53,1.05,1.63,1.99,1.63h24.42c.95,0,1.69-1.1,1.99-1.63.57-1.02,1.74-3.05,1.51-4.42Z"/>
      <path class="cls-1" d="m632.53,524.48c-1.02-5.77-4.67-9.96-15.31-10.06v10.06h15.31Z"/>
      <path class="cls-1" d="m616.47,514.42c-10.63.1-14.29,4.29-15.31,10.06h15.31v-10.06Z"/>
      <path class="cls-4" d="m602.64,529.05c.3.53,1.05,1.63,1.99,1.63h24.42c.95,0,1.69-1.1,1.99-1.63.5-.88,1.43-2.52,1.52-3.83h-31.46c.1,1.31,1.03,2.95,1.52,3.83Z"/>
      <path class="cls-14" d="m632.56,524.63c0-.05-.02-.1-.03-.16h-15.31v-10.06c-.13,0-.25,0-.38,0s-.25,0-.37,0v10.06h-15.31c0,.05-.02.1-.03.16-.03.19-.03.39-.02.59h31.46c.02-.21.01-.41-.02-.59Z"/>
    </g>
    <g class="desk_watch">
      <path class="cls-1" d="m692.52,19.85h41.63c12.63,0,22.89,10.26,22.89,22.89v157.56c0,12.63-10.26,22.89-22.89,22.89h-41.63c-12.63,0-22.89-10.26-22.89-22.89V42.74c0-12.63,10.26-22.89,22.89-22.89Z" transform="translate(834.85 -591.82) rotate(90)"/>
      <rect class="cls-9" x="620.65" y="85.89" width="185.37" height="71.24" rx="12.34" ry="12.34"/>
      <g>
        <path class="cls-10" d="m646.9,108.98h11.57l3.41,3.73v17.47l-3.56,3.88h-11.27l-3.56-3.73v-17.62l3.41-3.73Zm1.77,5.67v13.74l1.19,1.3h5.5l1.34-1.45v-13.59l-1.49-1.45h-5.2l-1.34,1.45Z"/>
        <path class="cls-10" d="m668.23,108.98h4.36l.15.17h.15l-3.61,13.91h6.79v-13.76l.3-.32h4.68l.3.32v13.76h1.96l.3.32v3.9l-.3.32h-1.96v6.15l-.3.32h-4.53c-.3,0-.45-.7-.45-2.11v-4.36h-12.22l-.3-.32v-2.44c2.86-10.56,4.42-15.85,4.68-15.85Z"/>
        <path class="cls-10" d="m685.57,117.34h5.28l.28.27v5.27l-.28.27h-5.28l-.28-.27v-5.27l.28-.27Zm0,10.92h5.28l.28.27v5.27l-.28.27h-5.28l-.28-.27v-5.27l.28-.27Z"/>
        <path class="cls-10" d="m697.02,108.98h11.72l3.39,3.51v8.96l-2.89,2.99h-9.19l-.89.9v4.3h12.72l.25.25v3.89l-.25.27h-17.89l-.25-.27v-10.78l2.89-2.98h9.19l.89-.92v-4.93l-1-1.04h-5.55l-1,1.04v2.07l-.25.27h-4.91l-.25-.27v-3.76l3.28-3.51Z"/>
        <path class="cls-10" d="m718.05,108.98h11.57l3.41,3.73v17.47l-3.56,3.88h-11.27l-3.56-3.73v-17.62l3.41-3.73Zm1.77,5.67v13.74l1.19,1.3h5.5l1.34-1.45v-13.59l-1.49-1.45h-5.2l-1.34,1.45Z"/>
        <path class="cls-10" d="m756.07,116.5c.24,0,1.9,5.81,4.98,17.43l-.12.12h-3.67c-.21-.12-.61-1.43-1.19-3.91h-5.69c-.52,2.61-.88,3.91-1.07,3.91h-3.32l-.23-.23,4.74-17.2.12-.12h5.45Zm-2.84,2.49l-2.01,8.06h4.15l-2.02-8.06h-.12Z"/>
        <path class="cls-10" d="m763.19,116.5h5.66c.23.19,1.59,4.79,4.08,13.82.16,0,1.11-3.17,2.83-9.51.84-2.87,1.33-4.31,1.47-4.31h5.66l.1.12h.12l.05,17.21-.39.22h-3.29l-.22-.22v-14.04h-.12c-2.64,9.51-4.08,14.26-4.31,14.26h-4.07c-.23,0-1.66-4.79-4.31-14.38h-.12v14.16l-.22.22h-2.95l-.22-.22v-17.11l.22-.22Z"/>
      </g>
    </g>
  </g>
  <g class="desk_me">
    <ellipse class="cls-18" cx="507.63" cy="870.09" rx="177.76" ry="17.77"/>
    <g>
      <circle class="cls-8" cx="608.86" cy="797.38" r="58.52"/>
      <path class="cls-11" d="m665.15,801.98c-.41.43-.83.86-1.25,1.28-29.02,29.02-74.34,30.75-101.23,3.86-2.67-2.67-7.01-5.52-9.12-8.52-.56,14.17,5.68,28.44,16.08,38.84,20.75,20.75,56.76,19.92,79.15-2.46,9.22-9.22,14.37-21.38,16.38-32.99Z"/>
      <path class="cls-2" d="m435.64,518.79l-90.16,25.36c-9.39-1.67-19.67-3.71-25.38-10.44l-4.52-13.37c-2.19-10.84,13.29-22.78,17.69-23.57l57.03-10.28c4.4-.79,30.28,3.06,31.39,9.24l19.92,10.37c1.11,6.18-1.57,11.89-5.97,12.68Z"/>
      <path class="cls-5" d="m400.18,474.56l-40.57,56.06c-8.54,7.01-19.24,8.31-27.59,8.79l-11.05-4.93c-7.76-5.28-1.81-26.55,1.32-30.87l40.57-56.06c3.13-4.32,9.22-5.3,13.54-2.17l21.61,15.64c4.32,3.13,5.3,9.22,2.17,13.54Z"/>
      <path class="cls-11" d="m643.58,759.28c.56,2.75.41,4.18-3.02,5.93,0,0-20.33,4.93-28.99,2.58-9.53-2.59-17.79-8.05-17.79-8.05-1.58-1.69-1.12-8.42-.21-9.73l3.75-10,11.54,6.93,25.84-.81,7.48,2.96,1.02,9.15.39,1.05Z"/>
      <path class="cls-2" d="m463.38,761.5l-38.95-22.27-40.32-13.28-45.64-64.53c-2.31-2.1-2.72-10.74-.62-13.06l15.66-.64c2.1-2.31,5.71-2.48,8.02-.38l76.68,52.05,43.84,42.47c2.31,2.1,27.54,27.41,25.44,29.72l-8.79,9.9c-2.1,2.31-33.02-17.88-35.33-19.99Z"/>
      <path class="cls-2" d="m641.42,690.63l12.39-39.3,16.33-32.53,2.95-82.69c.45-3.09-4.33-11.47-7.42-11.91l-16.6-2.37c-3.09-.45-3.45,3.24-3.9,6.33l-24.89,97.93-4.22,60.26c-.45,3.09-4.28,34.57-1.19,35.02l16.17,2.49c3.09.45,9.94-30.14,10.38-33.23Z"/>
      <path class="cls-5" d="m371.23,622.07l54.76-19.61c3.12-.15,10.95,9.66,11.09,12.78l17.87,54.82c.15,3.12-2.29,5.79-5.41,5.94,0,0-12.61,9.25-29.05,12.82-15.44,3.35-61.44-12.81-61.44-12.81-14.43-5.34-26.42-22.5-21.58-28.31,5.24-6.28,33.75-25.64,33.75-25.64Z"/>
      <path class="cls-5" d="m604.3,537.41c-15.29,7.54-39.02,27.71-39.02,27.71-2.35,2.04-2.69,16.36-1.09,19.29l16.92,62.09c1.6,2.93,4.82,3.66,7.17,1.62,0,0,14.22-.39,28.11-8.59,13.05-7.7,47.53-48.41,47.53-48.41,16.1-18.07,6.51-58.48,3.59-64.25-4.35-8.6-14.89-5.61-26.61-3.5-11.04,1.98-31.62,11.59-36.6,14.05Z"/>
      <path class="cls-14" d="m351.43,676.81c2.41,1.91,11.91,21.93,59.5,18.94l18.71-5.4s29.9-8.83,38.34-11.63c14.18-4.7,23.69-23.29,23.69-23.29,2.42-.8,4.79-13.05,3.91-15.68,0,0,1.52-3.61-10.39-34.14-3.97-10.18-27.93-15.15-27.93-15.15-.87-2.63-3.79-13.24-6.2-12.44l-49.07,25.23-23.98,10.05c-2.42.8-23.93,15.45-26.5,20.31,0,0-3.74,8.25-3.96,19.15-.4,20.22,3.86,24.06,3.86,24.06Z"/>
      <path class="cls-14" d="m642.09,619.65c-1.17,3.39-17.54,22.2-33.61,34.7-10.68,8.31-40.36,24.21-48.45,25.93-13.6,2.88-35.22-17.47-35.22-17.47-2.32.49-9.41-11.3-9.8-14.61,0,0,.37,3.41-2.72-35.94-1.03-13.12,16.19-14.74,16.19-14.74-.39-3.31,8.42-21.6,10.74-22.09l21.05-13.77,36.13-11.54c2.32-.49,25.18,1.55,29.33,5.33,0,0,23.51,6.93,25.38,19.25,4.51,29.55-9.02,44.94-9.02,44.94Z"/>
      <path class="cls-9" d="m589.37,636.77c-3.52-32.42-7.24-49.85-7.24-49.85-2.41-5.56-14.21,8.41-17.39,6,0,0-12.64-14.91-27.47-14.9-8.36,0-31.62,9.57-34.03,10.57-2.4-1-25.66-10.57-34.03-10.57-14.83,0-27.47,14.9-27.47,14.9-3.18,2.41-13.21-.87-15.62,4.69,0,0-3.8,6.11-7.32,38.52-1.33,12.23,26.7,39.84,26.7,39.84,2.74,3.25,8.24,5.92,10.77,5.92h93.91c2.53,0,8.03-2.67,10.77-5.92,0,0,29.73-26.97,28.4-39.2Z"/>
      <g>
        <path class="cls-6" d="m589.08,388.21s-12.97-3.24-25.61-4.59c-13.46-1.43-27.29-8.32-31.93-9.37-11.45-2.6-11.8,14.6-23.64,14.54-2.84-.02-6.07-.42-9.5-1.01-3.43.59-6.66,1-9.5,1.01-7.08.04-20.44-15.5-25.6-13.62-11.54,4.19-52.3,9.88-65.62,17.95-4.29,2.6-10.74,9.61-14.31,14.31h231.24c-3.57-4.7-15.73-14.82-25.54-19.21Z"/>
        <path class="cls-5" d="m531.9,313.18c1.1-7.18,5.02-12.54,8.76-11.97,2.41.37,4.16,3.11,4.81,6.94.35,2.11-1.71,6.83-2.1,9.38-.27,1.8-.54,6.17-.54,7.43,0,4.2-4.48,3.9-7.29,3.47-3.74-.57-4.73-8.08-3.64-15.26Z"/>
        <ellipse class="cls-5" cx="456.5" cy="313.73" rx="6.85" ry="13.15"/>
        <path class="cls-9" d="m457.15,333.74c-.85,7.81,1.58,15.49,2.8,20.16,1.43,5.47,6.71,8.34,13.6,14.27,3.89,3.34,16.28,5.42,24.76,5.62,8.48-.19,20.87-2.28,24.76-5.62,6.9-5.93,12.17-8.8,13.6-14.27,1.22-4.67,3.65-12.35,2.8-20.16-.09-.85.48-11.29-.43-11.13-.87.15-2.4,1.06-2.39-4.18,0-5.4-4.35-17.91-8.62-24.08-1.97-2.85-6.05-6.53-8.79-9.02-6.81-6.17-10.72-6.2-20.94-6.12-10.22-.08-14.13-.05-20.94,6.12-2.74,2.49-6.82,6.17-8.79,9.02-4.27,6.17-8.63,18.68-8.62,24.08,0,5.25-1.52,4.34-2.39,4.18-.9-.16-.34,10.28-.43,11.13Z"/>
        <path class="cls-5" d="m537.9,311.49c0-27.62-18-50-40.2-50-13.46,0-37.44,4.38-38.18,17.47-.54,9.46-2.03,21.66-2.03,32.53,0,12.72,3.82,24.33,10.11,33.16,2.16,18.25,14.81,32.26,30.09,32.26s27.92-14.01,30.09-32.26c6.29-8.83,10.11-20.44,10.11-33.16Z"/>
        <path class="cls-2" d="m458.78,313.29c2.31,6.71,3.14,10.15-.79,10.16s-5.34-6.59-5.35-11.94c-.01-5.36.51-8.45,4.44-8.46s.07,5.56,1.69,10.25Z"/>
        <path class="cls-2" d="m537.4,314.11c-.1-1.16-1.22-11.45,2.26-9.63,7.17,3.73.73,9.07,1.48,14.38.84,5.96-1.79,7.64-4.8,7.12-2.21-.39,1.26-9.43,1.05-11.86Z"/>
        <path class="cls-4" d="m539.48,291.07c.85-7.81-1.58-15.49-2.8-20.16-1.43-5.47-6.71-8.34-13.6-14.27-3.89-3.34-16.28-5.42-24.76-5.62-8.48.19-20.87,2.28-24.76,5.62-6.9,5.93-12.17,8.8-13.6,14.27-1.22,4.67-3.65,12.35-2.8,20.16.09.85-.48,11.29.43,11.13.87-.15,2.4-1.06,2.39,4.18,0,5.4,4.35,17.91,8.62,24.08,1.97,2.85,6.05,6.53,8.79,9.02,6.81,6.17,10.72,6.2,20.94,6.12,10.22.08,14.13.05,20.94-6.12,2.74-2.49,6.82-6.17,8.79-9.02,4.27-6.17,8.63-18.68,8.62-24.08,0-5.25,1.52-4.34,2.39-4.18.9.16.34-10.28.43-11.13Z"/>
        <path class="cls-9" d="m511.87,275.5c0,17.65-4.11,41.04-5.24,49.97-.76,6.05-7.75,19.57-9.74,19.57-2.41,0-7.74-11.64-8.79-18.94-1.28-8.91-4.58-32.99-4.58-50.6,0-15.48,2.36-14.92,2.04-24.03-.09-2.61,9.2-4.75,12.14-4.75s10.51,1.04,10.14,4.28c-1.04,9.03,4.03,9.01,4.03,24.49Z"/>
        <path class="cls-5" d="m529.25,375.01c-3.86-10.46-3.61-24.76-.34-32,4.48-9.93-17.66,13.31-31.21,14.53-13.55-1.22-33.19-23.33-30.09-12.89,2.09,7.03,2.39,19.89-1.47,30.36-1.45,3.93-31.24,15.35-27.08,19.76,8.3,8.82,43.61,9.31,58.64,9.31s50.34-.49,58.64-9.31c4.16-4.42-25.63-15.84-27.08-19.76Z"/>
        <g>
          <rect class="cls-4" x="457.36" y="325.01" width="1.16" height="4.5" rx=".29" ry=".29" transform="translate(-13.2 19.31) rotate(-2.38)"/>
          <path class="cls-9" d="m458.51,331.42c-.09.38-.62.41-.74.03l-.88-2.72c0-.21.16-.39.37-.4l1.47-.06c.21,0,.39.16.4.37l-.62,2.78Z"/>
        </g>
        <g>
          <rect class="cls-4" x="537.45" y="326.65" width="1.16" height="4.5" rx=".29" ry=".29" transform="translate(33.99 -50.04) rotate(5.5)"/>
          <path class="cls-9" d="m538.02,333.1c-.14.37-.67.32-.74-.07l-.5-2.82c.02-.21.21-.37.42-.35l1.46.14c.21.02.37.21.35.42l-.99,2.67Z"/>
        </g>
      </g>
      <path class="cls-21" d="m374.53,518.92l27.48-33.01,18.07-16.98,23.2-16.75c1.29-1.9-3.29-31.63-4.63-32.53l-46.53-19.34c-1.33-.91-3.48-.1-4.78,1.8l-26.05,38.82-26.61,38.44c-1.29,1.9-3.26,6.43-1.93,7.33,0,0,.33,3.96,13.31,21.14,6.9,9.13,16.67,12.24,18.6,12.64.15.03,5.16.28,5.3.35,1.34.71,3.35-.11,4.58-1.92Z"/>
      <path class="cls-2" d="m555.08,528.56l111.36,7.32c10.67-2.84,22.31-6.12,27.58-12.61l2.45-11.85c.25-9.38-20.5-16.97-25.83-16.96l-69.2.19c-5.33.01-34.92,7.21-34.9,12.54l-21.18,11.71c.01,5.33,4.39,9.69,9.72,9.67Z"/>
      <path class="cls-5" d="m606.23,473.87l49.05,48.82c9.55,5.54,20.33,5.11,28.65,4.24l10.12-6.64c6.81-6.46-2.48-26.5-6.26-30.26l-49.05-48.82c-3.78-3.76-9.95-3.75-13.71.03l-18.82,18.91c-3.76,3.78-3.75,9.95.03,13.71Z"/>
      <path class="cls-21" d="m638.67,513.54l-32.42-28.17-20.56-13.86-25.59-12.81c-1.58-1.67-1.83-31.74-.66-32.85l42.82-26.56c1.17-1.11,3.42-.66,5.01,1.01l31.95,34.14,32.44,33.67c1.58,1.67,4.25,5.82,3.08,6.93,0,0,.31,3.96-9.74,23-5.35,10.12-14.49,14.76-16.32,15.47-.14.05-5.05,1.1-5.17,1.19-1.21.92-3.32.43-4.83-1.16Z"/>
      <path class="cls-6" d="m618.41,421.29c0-17.49-18.55-32.76-45.38-32.76-7.95,0-33.38-14.7-40-12.49-3.85-.63,2.41,3.52,0,4.66,0,0-2.68,17.78-32.52,17.87-37.42.11-39.11-21.52-39.11-21.52-2.44-.48-6.81,3.72-9.8,5.16-7.4-1.43-15.4,7.43-24.62,7.43-26.83,0-48.58,14.17-48.58,31.66,0,12.99,12.01,24.16,29.19,29.04l8.29,37.07c0,2.09,2.29,3.85,5.33,4.27l9.84,64.78-5.95,27.24c-9.29,10.52-3.17,25.79,6.67,29.55,0,0,38.21,6.84,46.16,8.31,7.74,1.43,20.66-4.53,28.53-4.58,6.66-.04,21.71,4.74,28.16,3.05,5.25-1.38,24.08-8.61,24.08-8.61,10.5-4.33,48.04-40.22,33.1-44.42l-9.66-26.32-8.02-48.99c3.07-.4,5.41-2.17,5.41-4.28l8.2-36.66c17.98-4.64,30.69-16.08,30.69-29.44Z"/>
      <path class="cls-21" d="m534.54,375.9c-.81-.51-6.21-3.61-6.01-3.05.21.6.34,1.06.62,1.87.31.88.97,1.37.97,1.37.83.68.96,2.31.46,3.18-2.87,5.06-8.89,14.62-32.49,14.65h0s-.09,0-.13,0h0s-.07,0-.11,0c-.04,0-.07,0-.11,0h0s-.09,0-.13,0h0c-23.6-.03-29.16-9.88-32.49-14.65-.22-.31-.08-1.9.33-3.44,0,0,.64-.24.83-1.15.14-.68.46-1.27.67-1.87.2-.56-4.99,2.58-5.8,3.1-.73.47-1.96,2.77-1.67,3.63,3.7,10.95,15.55,20.29,38.13,20.32h0c.08,0,.16,0,.24,0,.08,0,.16,0,.24,0h0c22.58-.03,34.43-9.37,38.13-20.32.29-.86-.94-3.16-1.67-3.63Z"/>
      <path class="cls-1" d="m637.48,715.67s-7.76-.08-14.67-1.21c-8.09-1.33-12.06-3.09-12.06-3.09-1.1-.18-1.94-.65-1.88-1.05l1.82-11.27c.06-.4,1.02-.59,2.11-.41,0,0,4.84,1.84,13.51,3.14,6.4.96,13.22,1.17,13.22,1.17,1.1.18,1.94.65,1.88,1.05l-1.82,11.27c-.06.4-1.02.59-2.11.41Z"/>
      <rect class="cls-9" x="606.84" y="703.81" width="32.89" height="32.89" rx="11.25" ry="11.25" transform="translate(122.56 -90.01) rotate(9.16)"/>
      <rect class="cls-14" x="610.95" y="707.37" width="25.71" height="19.41" rx="5.74" ry="5.74" transform="translate(122.07 -90.13) rotate(9.16)"/>
      <rect class="cls-9" x="598.21" y="719.53" width="46.38" height="32.89" rx="11.25" ry="11.25" transform="translate(125.04 -89.51) rotate(9.16)"/>
      <rect class="cls-4" x="595.32" y="749.98" width="46.06" height="9.89" rx="3.38" ry="3.38" transform="translate(128.02 -88.78) rotate(9.16)"/>
      <rect class="cls-17" x="597.64" y="748.66" width="43.54" height="2.77" rx=".95" ry=".95" transform="translate(127.26 -89.01) rotate(9.16)"/>
      <path class="cls-1" d="m500.8,757.49s-3.62,6.9-7.91,12.43c-5.03,6.48-8.61,9.02-8.61,9.02-.68.88-1.54,1.37-1.91,1.08l-10.47-8.06c-.37-.29-.12-1.24.56-2.12,0,0,4.05-3.28,9.31-10.29,3.88-5.18,7.2-11.16,7.2-11.16.68-.88,1.54-1.37,1.91-1.08l10.47,8.06c.37.29.12,1.24-.56,2.12Z"/>
      <rect class="cls-9" x="481.77" y="755.82" width="32.89" height="32.89" rx="11.25" ry="11.25" transform="translate(-417.64 695.98) rotate(-52.41)"/>
      <rect class="cls-14" x="482.81" y="760.59" width="25.71" height="19.41" rx="5.74" ry="5.74" transform="translate(-417.08 693.19) rotate(-52.41)"/>
      <rect class="cls-9" x="487.95" y="764.96" width="46.38" height="32.89" rx="11.25" ry="11.25" transform="translate(-419.85 709.78) rotate(-52.41)"/>
      <rect class="cls-4" x="503.32" y="788.18" width="46.06" height="9.89" rx="3.38" ry="3.38" transform="translate(-423.19 726.41) rotate(-52.41)"/>
      <rect class="cls-17" x="500.79" y="788.47" width="43.54" height="2.77" rx=".95" ry=".95" transform="translate(-422.08 722.13) rotate(-52.41)"/>
    </g>
    <g>
      <rect class="cls-9" x="495.08" y="843.67" width="18.63" height="28.06" rx="6.37" ry="6.37"/>
      <rect class="cls-4" x="493.13" y="828.75" width="22.53" height="28.06" rx="7.7" ry="7.7"/>
      <g>
        <circle class="cls-9" cx="408.79" cy="857.71" r="14.03"/>
        <circle class="cls-1" cx="408.79" cy="857.71" r="10.63"/>
        <circle class="cls-9" cx="408.79" cy="857.71" r="5.39"/>
      </g>
      <path class="cls-4" d="m408.79,848.38c7.5,0,13.85.64,15.93,7.46.47-1.54.73,1.15.73-.54,0-9.2-7.46-16.65-16.65-16.65s-16.65,7.46-16.65,16.65c0,1.69.26-1,.73.54,2.08-6.82,8.42-7.46,15.93-7.46Z"/>
      <g>
        <circle class="cls-9" cx="613.35" cy="857.71" r="14.03"/>
        <circle class="cls-1" cx="613.35" cy="857.71" r="10.63"/>
        <circle class="cls-9" cx="613.35" cy="857.71" r="5.39"/>
      </g>
      <path class="cls-4" d="m613.35,848.38c7.5,0,13.85.64,15.93,7.46.47-1.54.73,1.15.73-.54,0-9.2-7.46-16.65-16.65-16.65s-16.65,7.46-16.65,16.65c0,1.69.26-1,.73.54,2.08-6.82,8.42-7.46,15.93-7.46Z"/>
      <path class="cls-10" d="m424.61,435.07s59.49-39.79,79.79-39.79,79.79,39.79,79.79,39.79c4.7,0,8.55,8.95,8.55,19.89v59.68c0,10.94-3.85,19.89-8.55,19.89,0,0-59.81,26.34-79.79,26.34s-79.79-26.34-79.79-26.34c-4.7,0-8.55-8.95-8.55-19.89v-59.68c0-10.94,3.85-19.89,8.55-19.89Z"/>
      <path class="cls-12" d="m427.22,438.01s57.54-37.06,77.17-37.06,77.17,37.06,77.17,37.06c4.55,0,8.27,8.34,8.27,18.53v55.6c0,10.19-3.72,18.53-8.27,18.53,0,0-57.85,24.54-77.17,24.54s-77.17-24.54-77.17-24.54c-4.55,0-8.27-8.34-8.27-18.53v-55.6c0-10.19,3.72-18.53,8.27-18.53Z"/>
      <path class="cls-4" d="m428.84,445.02s56.34-35.1,75.56-35.1,75.56,35.1,75.56,35.1c4.45,0,8.1,7.9,8.1,17.55v46.18c0,9.65-3.64,17.55-8.1,17.55,0,0-56.64,29.72-75.56,29.72s-75.56-29.72-75.56-29.72c-4.45,0-8.1-7.9-8.1-17.55v-46.18c0-9.65,3.64-17.55,8.1-17.55Z"/>
      <path class="cls-10" d="m421.78,627.95h165.24c4.87,0,8.85,1.84,8.85,4.1v12.29c0,2.25-3.98,4.1-8.85,4.1,0,0-61.94,5.43-82.62,5.43s-82.62-5.43-82.62-5.43c-4.87,0-8.85-1.84-8.85-4.1v-12.29c0-2.25,3.98-4.1,8.85-4.1Z"/>
      <path class="cls-12" d="m421.78,630.67h165.24c4.87,0,8.85,1.84,8.85,4.1v12.29c0,2.25-3.98,4.1-8.85,4.1,0,0-61.94,5.43-82.62,5.43s-82.62-5.43-82.62-5.43c-4.87,0-8.85-1.84-8.85-4.1v-12.29c0-2.25,3.98-4.1,8.85-4.1Z"/>
      <path class="cls-1" d="m421.78,637.02s61.61,2.84,82.62,2.84,82.62-2.84,82.62-2.84c4.87,0,8.85,1.42,8.85,3.16v9.48c0,1.74-3.98,3.16-8.85,3.16,0,0-61.94,4.18-82.62,4.18s-82.62-4.18-82.62-4.18c-4.87,0-8.85-1.42-8.85-3.16v-9.48c0-1.74,3.98-3.16,8.85-3.16Z"/>
      <path class="cls-14" d="m623.55,836.55c0,12.8-53.35-.87-119.15-.87s-119.15,13.67-119.15.87,53.35-23.18,119.15-23.18,119.15,10.38,119.15,23.18Z"/>
      <rect class="cls-9" x="489.98" y="705.02" width="28.83" height="108.58" transform="translate(1008.79 1518.63) rotate(180)"/>
      <path class="cls-4" d="m591.22,689.56s-64.74,18.6-86.82,18.6-86.82-18.6-86.82-18.6c-5.12,0-9.3-4.19-9.3-9.3v-27.91c0-5.12,4.19-9.3,9.3-9.3,0,0,65.08,9.3,86.82,9.3s86.82-9.3,86.82-9.3c5.12,0,9.3,4.19,9.3,9.3v27.91c0,5.12-4.19,9.3-9.3,9.3Z"/>
      <path class="cls-1" d="m443.26,448.92s45.73-25.31,61.33-25.31,61.33,25.31,61.33,25.31c3.61,0,6.57,5.7,6.57,12.66v37.97c0,6.96-2.96,12.66-6.57,12.66,0,0-45.97-12.66-61.33-12.66s-61.33,12.66-61.33,12.66c-3.61,0-6.57-5.7-6.57-12.66v-37.97c0-6.96,2.96-12.66,6.57-12.66Z"/>
      <path class="cls-14" d="m543.88,681.95s-29.44,8.46-39.49,8.46-39.49-8.46-39.49-8.46c-2.33,0-4.23-1.9-4.23-4.23v-12.69c0-2.33,1.9-4.23,4.23-4.23,0,0,29.6-2.57,39.49-2.57s39.49,2.57,39.49,2.57c2.33,0,4.23,1.9,4.23,4.23v12.69c0,2.33-1.9,4.23-4.23,4.23Z"/>
      <g>
        <path class="cls-4" d="m481.77,444.42s17.05-11.79,22.87-11.79,22.87,11.79,22.87,11.79c1.35,0,2.45,2.65,2.45,5.9v17.69c0,3.24-1.1,5.9-2.45,5.9,0,0-17.14,11.78-22.87,11.78s-22.87-11.78-22.87-11.78c-1.35,0-2.45-2.65-2.45-5.9v-17.69c0-3.24,1.1-5.9,2.45-5.9Z"/>
        <path class="cls-9" d="m486.06,448.84s13.86-9.58,18.58-9.58,18.58,9.58,18.58,9.58c1.1,0,1.99,2.16,1.99,4.79v14.37c0,2.64-.9,4.79-1.99,4.79,0,0-13.93,9.57-18.58,9.57s-18.58-9.57-18.58-9.57c-1.1,0-1.99-2.16-1.99-4.79v-14.37c0-2.64.9-4.79,1.99-4.79Z"/>
        <path class="cls-4" d="m504.4,454.69c-7.96,0-14.41,6.45-14.41,14.41v33.44h28.83v-33.44c0-7.96-6.45-14.41-14.41-14.41Z"/>
        <path class="cls-14" d="m518.8,502.27c-.15-7.83-6.53-14.13-14.4-14.13s-14.25,6.3-14.4,14.13h-.01v108.58h28.83v-108.58h-.01Z"/>
        <path class="cls-4" d="m518.33,607.12c-1.61-6.2-7.23-10.78-13.93-10.78s-12.32,4.58-13.93,10.78c-.3,1.16-.48,2.37-.48,3.63v57.63c0,1.26.18,2.47.48,3.63,1.61,6.2,7.23,10.78,13.93,10.78s12.32-4.58,13.93-10.78c.3-1.16.48-2.37.48-3.63v-57.63c0-1.26-.18-2.47-.48-3.63Z"/>
      </g>
    </g>
  </g>
  <g class="desk_dog">
    <ellipse class="cls-18" cx="101.07" cy="859.57" rx="49.26" ry="15.19"/>
    <path class="cls-18" d="m345.29,881.75c0,15.07-49.31,27.29-110.13,27.29s-105.37-25.58-105.37-40.65,44.55-13.92,105.37-13.92,110.13,12.22,110.13,27.29Z"/>
    <path class="cls-8" d="m125.21,866.14l-81.18-26.29c-4.52.6-8.67-10.91-9.4-15.41-2.31-14.09,45.81-69.86,45.81-69.86,9.96-7.32,21.11-5.52,25.63-6.12l48.22,35.7c4.52-.6,8.81,9.94,9.41,14.46,0,0-18.93,64.93-38.48,67.53Z"/>
    <path class="cls-11" d="m125.21,866.14s-43.74,1.12-58.71-3.33c-34.18-10.15-31.27-33.85-31.87-38.37,0,0,101.03,29.71,101.63,34.23,0,0,4.76,5.38-11.05,7.47Z"/>
    <ellipse class="cls-9" cx="189.28" cy="787.04" rx="8.25" ry="6.16" transform="translate(-548.37 453.68) rotate(-52.16)"/>
    <ellipse class="cls-16" cx="174.29" cy="812.88" rx="37.48" ry="27.97" transform="translate(-406.61 218.15) rotate(-32.22)"/>
    <ellipse class="cls-16" cx="157.06" cy="787.87" rx="20.12" ry="8.9" transform="translate(-21.81 4.66) rotate(-1.59)"/>
    <path class="cls-8" d="m108.02,831.61c.99,12.45-8.12-7.99-8.9-8.42-5.87-3.23,7.37-26.9,5.48-26.26-9.49,3.2-16.2,20.99-15.05,23.65,1.9,4.4,9.58,19.25,9.58,19.25.07.03,3.13,5.5,3.19,5.53,5.99,14.48,22.42,20.08,44.47,20.87,27.45.97-32.65-7.15-31.96-26.81s-4.81-10.85-6.81-7.8Z"/>
    <g>
      <path class="cls-19" d="m111.91,791.89s-12.02-5.65-10.54-8.61c2.13-4.26,6.16-9.12,6.11-9.09-7.9,4.78-9.03-2.15-14.07,20.49l18.5-2.78Z"/>
      <ellipse class="cls-22" cx="147.45" cy="818.95" rx="49.74" ry="35.63" transform="translate(-106.31 26.47) rotate(-7.55)"/>
      <path class="cls-19" d="m138.28,765.27l-1.3-8.34c-1.17-4.04,2.46-6.26,6.39-4.77,0,0,14.94,9.61,14.98,9.63,5.22,2.08,2.2,15.43-3.33,16.05l-20.42,1.08c-3.93-1.49,4.81-7.92,3.69-13.64Z"/>
      <path class="cls-22" d="m142.02,791.49l-10.46,8.37c-4.66,4.93-10.43.73-11.34-6.75,0,0,1.94-31.4,1.93-31.47-1.07-10.01,19.5-15.16,24.51-6.68l16.83,32.23c.91,7.48-14.47-1.82-21.48,4.29Z"/>
      <path class="cls-22" d="m109.19,814.43l7.42-10.22c4.04-4.48,2.75-10.59-1.61-11.92,0,0-13.18-1.29-16.13-4.92-.71-.88-.86-3.34.62-6.3,2.13-4.26,8.2-7,8.16-6.97-7.9,4.78-11.07-4.27-16.12,18.37l-4.34,19.9,14.64,23.72c4.36,1.33,2.08-14.85,7.36-21.66Z"/>
    </g>
    <path class="cls-12" d="m127.04,843.38c-2.1-15.83,15.04-31.17,38.28-34.25,11.84-1.57,22.97.35,31.33,4.69-8.44-7.49-22.69-11.38-38.15-9.33-23.24,3.08-40.38,18.41-38.28,34.25,1.03,7.77,6.5,14.21,14.55,18.4-4.25-3.77-7.03-8.46-7.73-13.77Z"/>
    <ellipse class="cls-22" cx="253.66" cy="854.47" rx="97.05" ry="45.77" transform="translate(-110.06 40.73) rotate(-7.55)"/>
    <ellipse class="cls-22" cx="190.45" cy="844.94" rx="67.17" ry="45.77" transform="translate(-109.35 32.34) rotate(-7.55)"/>
  </g>
</svg>