<?xml version="1.0" encoding="UTF-8"?>
<svg id="Capa_1" data-name="Capa 1" xmlns="http://www.w3.org/2000/svg" viewBox="0 0 705.38 731.46">
  <defs>
    <style>
      .cls-1 {
        fill: #999;
      }

      .cls-1, .cls-2, .cls-3, .cls-4, .cls-5, .cls-6, .cls-7, .cls-8, .cls-9, .cls-10, .cls-11, .cls-12, .cls-13, .cls-14, .cls-15, .cls-16, .cls-17, .cls-18, .cls-19, .cls-20 {
        stroke-width: 0px;
      }

      .cls-2 {
        fill: #4d4d4d;
      }

      .cls-3 {
        fill: #666;
      }

      .cls-4 {
        fill: #339;
      }

      .cls-5 {
        fill: #633;
      }

      .cls-6 {
        fill: #c60;
      }

      .cls-21 {
        fill: none;
        stroke: #e42320;
        stroke-miterlimit: 10;
        stroke-width: 4.28px;
      }

      .cls-8 {
        fill: #e42320;
      }

      .cls-9 {
        fill: #930;
      }

      .cls-10 {
        fill: #600e0e;
      }

      .cls-11 {
        fill: #39c;
      }

      .cls-12 {
        fill: #333;
      }

      .cls-13 {
        fill: #ccc;
      }

      .cls-14 {
        fill: #c6b198;
      }

      .cls-15 {
        fill: #fff;
      }

      .cls-16 {
        fill: #963;
      }

      .cls-17 {
        fill: #68c2e7;
      }

      .cls-18 {
        fill: #336;
      }

      .cls-19 {
        fill: #c96;
      }

      .cls-20 {
        fill: #9cf;
      }
    </style>
  </defs>
  <g id="desk_new">
    <g id="desk">
      <g>
        <path class="cls-21" d="m288.92,329.53c-96.8,51.05-54.9,99.37-43.69,125.9,9.2,21.78,52.12,87.24,117.03,32.11,30.74-26.11,26.55-101.76,102.75-114.14,93.88-15.25-23.82-81.43,32.65-86.76"/>
        <path class="cls-7" d="m508.38,288.78l-13.12,2.79c-.97-.39-3.02-3.59-2.63-4.56l3.84-3.58c.39-.97,1.5-1.45,2.47-1.06l13.12-2.79c.97.39,1.45,1.5,1.06,2.47l-2.27,5.68c-.39.97-1.5,1.45-2.47,1.06Z"/>
        <path class="cls-3" d="m506.91,286.35l-13.12,2.79c-.97-.39-1.45-1.5-1.06-2.47l2.1-5.26c.39-.97,2.01-1.76,2.68-1.85,3.33-.42,13.67-3.11,13.67-3.11.97.39.85,2.18.46,3.15l-2.27,5.68c-.39.97-1.5,1.45-2.47,1.06Z"/>
        <g>
          <g>
            <ellipse class="cls-12" cx="593.01" cy="159.66" rx="26.8" ry="40.79" transform="translate(278.97 687.42) rotate(-74.31)"/>
            <rect class="cls-3" x="627" y="114.06" width="15.45" height="98.53" rx="5.28" ry="5.28" transform="translate(423.65 783.81) rotate(-85.64)"/>
            <circle class="cls-12" cx="681.71" cy="166.78" r="19.76"/>
            <rect class="cls-3" x="650.13" y="153.49" width="15.45" height="98.53" rx="5.28" ry="5.28" transform="translate(241.61 -345.54) rotate(35.67)"/>
          </g>
          <g>
            <path class="cls-1" d="m505.54,344.04l151.82-34.34c6.4-1.49,10.35-5.45,13.06-12.63l34.42-92.97c2.71-7.19-5.45-11.69-11.85-10.2l-140.88,45.6c-6.4,1.49-13.86,8.58-16.56,15.77l-47.05,81.02c-2.71,7.19,10.64,9.24,17.05,7.75Z"/>
            <path class="cls-3" d="m503.36,344.53l152.34-34.39c6.4-1.49-3.85-.05-1.15-7.24,0,0-168.46-3.27-166.06,33.39.76,11.61,8.46,9.73,14.87,8.24Z"/>
            <path class="cls-7" d="m496.42,341.11l151.92-35.28c6.4-1.49,13.86-8.58,16.56-15.77l32.23-85.54c2.71-7.19-.32-11.85-6.72-10.36l-151.92,35.28c-6.4,1.49-13.86,8.58-16.56,15.77l-32.23,85.54c-2.71,7.19.32,11.85,6.72,10.36Z"/>
            <path class="cls-3" d="m529.49,248.06c1.88-5,7.46-9.96,10.83-10.75l148.85-34.56-31.82,84.47c-1.88,5-7.46,9.96-10.83,10.75l-148.85,34.56,31.82-84.47Z"/>
            <path class="cls-20" d="m531.14,250.05c1.88-5,7.46-9.96,10.83-10.75l146.19-33.89-30.82,81.8c-1.88,5-7.46,9.96-10.83,10.75l-146.23,33.95,30.85-81.87Z"/>
          </g>
        </g>
      </g>
      <g>
        <path class="cls-1" d="m489.88-57.97h41.63c12.63,0,22.89,10.26,22.89,22.89V122.48c0,12.63-10.26,22.89-22.89,22.89h-41.63c-12.63,0-22.89-10.26-22.89-22.89V-35.08c0-12.63,10.26-22.89,22.89-22.89Z" transform="translate(554.39 -466.99) rotate(90)"/>
        <rect class="cls-7" x="418.01" y="8.08" width="185.37" height="71.24" rx="12.34" ry="12.34"/>
        <g>
          <path class="cls-8" d="m444.26,31.17h11.57l3.41,3.73v17.47l-3.56,3.88h-11.27l-3.56-3.73v-17.62l3.41-3.73Zm1.77,5.67v13.74l1.19,1.3h5.5l1.34-1.45v-13.59l-1.49-1.45h-5.2l-1.34,1.45Z"/>
          <path class="cls-8" d="m465.59,31.17h4.36l.15.17h.15l-3.61,13.91h6.79v-13.76l.3-.32h4.68l.3.32v13.76h1.96l.3.32v3.9l-.3.32h-1.96v6.15l-.3.32h-4.53c-.3,0-.45-.7-.45-2.11v-4.36h-12.22l-.3-.32v-2.44c2.86-10.56,4.42-15.85,4.68-15.85Z"/>
          <path class="cls-8" d="m482.93,39.52h5.28l.28.27v5.27l-.28.27h-5.28l-.28-.27v-5.27l.28-.27Zm0,10.92h5.28l.28.27v5.27l-.28.27h-5.28l-.28-.27v-5.27l.28-.27Z"/>
          <path class="cls-8" d="m494.38,31.17h11.72l3.39,3.51v8.96l-2.89,2.99h-9.19l-.89.9v4.3h12.72l.25.25v3.89l-.25.27h-17.89l-.25-.27v-10.78l2.89-2.98h9.19l.89-.92v-4.93l-1-1.04h-5.55l-1,1.04v2.07l-.25.27h-4.91l-.25-.27v-3.76l3.28-3.51Z"/>
          <path class="cls-8" d="m515.4,31.17h11.57l3.41,3.73v17.47l-3.56,3.88h-11.27l-3.56-3.73v-17.62l3.41-3.73Zm1.77,5.67v13.74l1.19,1.3h5.5l1.34-1.45v-13.59l-1.49-1.45h-5.2l-1.34,1.45Z"/>
          <path class="cls-8" d="m553.43,38.69c.24,0,1.9,5.81,4.98,17.43l-.12.12h-3.67c-.21-.12-.61-1.43-1.19-3.91h-5.69c-.52,2.61-.88,3.91-1.07,3.91h-3.32l-.23-.23,4.74-17.2.12-.12h5.45Zm-2.84,2.49l-2.01,8.06h4.15l-2.02-8.06h-.12Z"/>
          <path class="cls-8" d="m560.54,38.69h5.66c.23.19,1.59,4.79,4.08,13.82.16,0,1.11-3.17,2.83-9.51.84-2.87,1.33-4.31,1.47-4.31h5.66l.1.12h.12l.05,17.21-.39.22h-3.29l-.22-.22v-14.04h-.12c-2.64,9.51-4.08,14.26-4.31,14.26h-4.07c-.23,0-1.66-4.79-4.31-14.38h-.12v14.16l-.22.22h-2.95l-.22-.22v-17.11l.22-.22Z"/>
        </g>
      </g>
      <g>
        <g>
          <rect class="cls-16" x="549.48" y="455.43" width="26.88" height="276.03"/>
          <rect class="cls-16" x="18.36" y="455.43" width="26.88" height="276.03"/>
        </g>
        <g>
          <rect class="cls-16" x="458.24" y="399.32" width="12.34" height="53.47"/>
          <rect class="cls-16" x="124.14" y="399.32" width="12.34" height="53.47"/>
        </g>
        <rect class="cls-5" x="0" y="448.92" width="594.72" height="13.02" transform="translate(594.72 910.86) rotate(-180)"/>
        <rect class="cls-5" x="103.32" y="389.81" width="388.09" height="13.02" transform="translate(594.72 792.63) rotate(-180)"/>
      </g>
      <g>
        <g>
          <path class="cls-12" d="m135.45,388.15h-3.42c-.49,0-.88-.4-.88-.88v-42.42s1.17-18.9,1.17-18.9c0-.49.4-.88.88-.88h1.18c.49,0,.88.4.88.88l1.08,18.9v42.42c0,.49-.4.88-.88.88Z"/>
          <g>
            <path class="cls-15" d="m136.33,380.33v-14.09c-.18-.15-.41-.25-.67-.25h-.95c-.58,0-1.04.47-1.04,1.04v12.51c0,.58.47,1.04,1.04,1.04h.95c.26,0,.49-.1.67-.25Z"/>
            <rect class="cls-3" x="134.05" y="366.36" width="2.29" height="13.84" rx=".89" ry=".89"/>
            <g>
              <rect class="cls-12" x="135.19" y="375.31" width=".69" height="3.32" rx=".27" ry=".27"/>
              <rect class="cls-12" x="135.19" y="367.94" width=".69" height="3.32" rx=".27" ry=".27"/>
            </g>
          </g>
          <rect class="cls-15" x="131.14" y="357.97" width="5.19" height=".37"/>
          <path class="cls-7" d="m135.42,346.42h-2.31c-.33,0-.6-.33-.6-.74v-1.48s.79-15.87.79-15.87c0-.41.27-.74.6-.74h.8c.33,0,.6.33.6.74l.73,15.87v1.48c0,.41-.27.74-.6.74Z"/>
        </g>
        <rect class="cls-3" x="117.55" y="382.97" width="32.98" height="10.37" rx="5.18" ry="5.18"/>
        <path class="cls-1" d="m117.55,388.12v.07c0,.14,0,.28.02.42h32.94c.01-.14.02-.28.02-.42v-.07c0-.14,0-.28-.02-.42h-32.94c-.01.14-.02.28-.02.42Z"/>
      </g>
      <g>
        <g>
          <rect class="cls-1" x="213.22" y="387.69" width="168.28" height="5.7" rx="2.78" ry="2.78" transform="translate(594.72 781.08) rotate(-180)"/>
          <rect class="cls-2" x="274.07" y="357.64" width="46.59" height="31.37" transform="translate(594.72 746.66) rotate(-180)"/>
        </g>
        <g>
          <g>
            <rect class="cls-13" x="148.1" y="170.94" width="298.51" height="189.07" transform="translate(594.72 530.94) rotate(-180)"/>
            <rect class="cls-7" x="149.46" y="171.7" width="295.79" height="166.38" transform="translate(594.72 509.79) rotate(-180)"/>
          </g>
          <g>
            <rect class="cls-12" x="161.3" y="182.82" width="272.13" height="148.61" transform="translate(594.72 514.25) rotate(-180)"/>
            <rect class="cls-20" x="164.68" y="184.72" width="265.37" height="144.8" transform="translate(594.72 514.25) rotate(-180)"/>
          </g>
          <g>
            <circle class="cls-1" cx="297.36" cy="177.08" r="3.68"/>
            <circle class="cls-7" cx="297.36" cy="177.08" r="3.08"/>
            <circle class="cls-8" cx="297.36" cy="177.08" r="1.21"/>
          </g>
        </g>
      </g>
      <g>
        <rect class="cls-1" x="521.22" y="369.26" width="2.67" height="79.07" rx="1.04" ry="1.04" transform="translate(-102.94 187.59) rotate(-18.56)"/>
        <path class="cls-15" d="m515.31,406.57h-12.37c-4.67,0-8.49,3.82-8.49,8.49v21.23c0,4.67,3.82,8.49,8.49,8.49h12.37c4.67,0,8.49-3.82,8.49-8.49v-21.23c0-4.67-3.82-8.49-8.49-8.49Zm4.25,29.72c0,2.34-1.9,4.25-4.25,4.25h-12.37c-2.34,0-4.25-1.9-4.25-4.25v-21.23c0-2.34,1.9-4.25,4.25-4.25h12.37c2.34,0,4.25,1.9,4.25,4.25v21.23Z"/>
        <path class="cls-15" d="m513.64,396.94h44.77c1.3,0,2.35,1.05,2.35,2.35v53.71h-49.47v-53.71c0-1.3,1.05-2.35,2.35-2.35Z"/>
        <rect class="cls-11" x="511.29" y="403.91" width="49.47" height="42.1"/>
        <g>
          <circle class="cls-6" cx="513.33" cy="406.97" r="1.28"/>
          <circle class="cls-6" cx="517.51" cy="406.84" r="1.28"/>
          <circle class="cls-6" cx="522.13" cy="406.72" r="1.28"/>
          <circle class="cls-6" cx="526.6" cy="407.23" r="1.28"/>
          <circle class="cls-6" cx="530.86" cy="406.84" r="1.28"/>
          <circle class="cls-6" cx="535.19" cy="407.1" r="1.28"/>
          <circle class="cls-6" cx="539.73" cy="406.84" r="1.28"/>
          <circle class="cls-6" cx="543.75" cy="407.36" r="1.28"/>
          <circle class="cls-6" cx="547.3" cy="406.84" r="1.28"/>
          <circle class="cls-6" cx="551.14" cy="407.36" r="1.28"/>
          <circle class="cls-4" cx="513.37" cy="420.26" r="1.28"/>
          <circle class="cls-4" cx="517.56" cy="420.14" r="1.28"/>
          <circle class="cls-4" cx="522.18" cy="420.02" r="1.28"/>
          <circle class="cls-4" cx="526.64" cy="420.52" r="1.28"/>
          <circle class="cls-4" cx="530.9" cy="420.14" r="1.28"/>
          <circle class="cls-4" cx="535.23" cy="420.4" r="1.28"/>
          <circle class="cls-4" cx="539.77" cy="420.14" r="1.28"/>
          <circle class="cls-4" cx="543.8" cy="420.65" r="1.28"/>
          <circle class="cls-4" cx="547.34" cy="420.14" r="1.28"/>
          <circle class="cls-4" cx="551.19" cy="420.65" r="1.28"/>
          <circle class="cls-18" cx="513.37" cy="443.46" r="1.28"/>
          <circle class="cls-18" cx="517.56" cy="443.33" r="1.28"/>
          <circle class="cls-18" cx="522.18" cy="443.21" r="1.28"/>
          <circle class="cls-18" cx="526.64" cy="443.72" r="1.28"/>
          <circle class="cls-18" cx="530.9" cy="443.33" r="1.28"/>
          <circle class="cls-18" cx="535.23" cy="443.59" r="1.28"/>
          <circle class="cls-18" cx="539.77" cy="443.34" r="1.28"/>
          <circle class="cls-18" cx="543.8" cy="443.85" r="1.28"/>
          <circle class="cls-18" cx="547.34" cy="443.34" r="1.28"/>
          <circle class="cls-18" cx="551.19" cy="443.85" r="1.28"/>
          <circle class="cls-10" cx="512.8" cy="438" r="1.28"/>
          <circle class="cls-10" cx="516.99" cy="437.87" r="1.28"/>
          <circle class="cls-10" cx="521.61" cy="437.75" r="1.28"/>
          <circle class="cls-10" cx="526.07" cy="438.26" r="1.28"/>
          <circle class="cls-10" cx="530.33" cy="437.87" r="1.28"/>
          <circle class="cls-10" cx="534.66" cy="438.13" r="1.28"/>
          <circle class="cls-10" cx="539.2" cy="437.87" r="1.28"/>
          <circle class="cls-10" cx="543.23" cy="438.39" r="1.28"/>
          <circle class="cls-10" cx="546.77" cy="437.87" r="1.28"/>
          <circle class="cls-10" cx="550.62" cy="438.39" r="1.28"/>
          <circle class="cls-17" cx="513.75" cy="424.7" r="1.28"/>
          <circle class="cls-17" cx="517.93" cy="424.57" r="1.28"/>
          <circle class="cls-17" cx="522.56" cy="424.45" r="1.28"/>
          <circle class="cls-17" cx="527.02" cy="424.96" r="1.28"/>
          <circle class="cls-17" cx="531.28" cy="424.57" r="1.28"/>
          <circle class="cls-17" cx="535.61" cy="424.83" r="1.28"/>
          <circle class="cls-17" cx="540.15" cy="424.58" r="1.28"/>
          <circle class="cls-17" cx="544.17" cy="425.09" r="1.28"/>
          <circle class="cls-17" cx="547.72" cy="424.58" r="1.28"/>
          <circle class="cls-17" cx="551.56" cy="425.09" r="1.28"/>
          <circle class="cls-9" cx="512.7" cy="429.13" r="1.28"/>
          <circle class="cls-9" cx="516.89" cy="429.01" r="1.28"/>
          <circle class="cls-9" cx="521.51" cy="428.88" r="1.28"/>
          <circle class="cls-9" cx="525.97" cy="429.39" r="1.28"/>
          <circle class="cls-9" cx="530.23" cy="429.01" r="1.28"/>
          <circle class="cls-9" cx="534.56" cy="429.26" r="1.28"/>
          <circle class="cls-9" cx="539.1" cy="429.01" r="1.28"/>
          <circle class="cls-9" cx="543.12" cy="429.52" r="1.28"/>
          <circle class="cls-9" cx="546.67" cy="429.01" r="1.28"/>
          <circle class="cls-9" cx="550.51" cy="429.52" r="1.28"/>
          <circle class="cls-14" cx="551.14" cy="411.54" r="1.28"/>
          <circle class="cls-14" cx="546.96" cy="411.66" r="1.28"/>
          <circle class="cls-14" cx="542.33" cy="411.79" r="1.28"/>
          <circle class="cls-14" cx="537.87" cy="411.28" r="1.28"/>
          <circle class="cls-14" cx="533.61" cy="411.66" r="1.28"/>
          <circle class="cls-14" cx="529.28" cy="411.41" r="1.28"/>
          <circle class="cls-14" cx="524.74" cy="411.66" r="1.28"/>
          <circle class="cls-14" cx="520.72" cy="411.15" r="1.28"/>
          <circle class="cls-14" cx="517.17" cy="411.66" r="1.28"/>
          <circle class="cls-14" cx="513.33" cy="411.15" r="1.28"/>
          <circle class="cls-19" cx="551.04" cy="433.7" r="1.28"/>
          <circle class="cls-19" cx="546.85" cy="433.83" r="1.28"/>
          <circle class="cls-19" cx="542.23" cy="433.95" r="1.28"/>
          <circle class="cls-19" cx="537.77" cy="433.44" r="1.28"/>
          <circle class="cls-19" cx="533.51" cy="433.83" r="1.28"/>
          <circle class="cls-19" cx="529.18" cy="433.57" r="1.28"/>
          <circle class="cls-19" cx="524.64" cy="433.83" r="1.28"/>
          <circle class="cls-19" cx="520.62" cy="433.31" r="1.28"/>
          <circle class="cls-19" cx="517.07" cy="433.83" r="1.28"/>
          <circle class="cls-19" cx="513.23" cy="433.31" r="1.28"/>
          <circle class="cls-8" cx="551.24" cy="415.97" r="1.28"/>
          <circle class="cls-8" cx="547.06" cy="416.1" r="1.28"/>
          <circle class="cls-8" cx="542.44" cy="416.22" r="1.28"/>
          <circle class="cls-8" cx="537.97" cy="415.71" r="1.28"/>
          <circle class="cls-8" cx="533.71" cy="416.1" r="1.28"/>
          <circle class="cls-8" cx="529.38" cy="415.84" r="1.28"/>
          <circle class="cls-6" cx="554.85" cy="406.84" r="1.28"/>
          <circle class="cls-6" cx="559.19" cy="407.1" r="1.28"/>
          <circle class="cls-4" cx="554.89" cy="420.14" r="1.28"/>
          <circle class="cls-4" cx="558.89" cy="420.4" r="1.28"/>
          <circle class="cls-18" cx="554.89" cy="443.33" r="1.28"/>
          <circle class="cls-18" cx="558.66" cy="443.72" r="1.28"/>
          <circle class="cls-10" cx="554.56" cy="438.11" r="1.28"/>
          <circle class="cls-10" cx="558.66" cy="438.13" r="1.28"/>
          <circle class="cls-17" cx="555.27" cy="424.57" r="1.28"/>
          <circle class="cls-17" cx="559.1" cy="424.83" r="1.28"/>
          <circle class="cls-9" cx="554.85" cy="429.01" r="1.28"/>
          <circle class="cls-9" cx="558.68" cy="429.26" r="1.28"/>
          <circle class="cls-14" cx="559.23" cy="411.66" r="1.28"/>
          <circle class="cls-14" cx="554.89" cy="411.41" r="1.28"/>
          <circle class="cls-19" cx="558.99" cy="433.83" r="1.28"/>
          <circle class="cls-19" cx="554.65" cy="433.57" r="1.28"/>
          <circle class="cls-8" cx="558.66" cy="416.1" r="1.28"/>
          <circle class="cls-8" cx="554.89" cy="415.84" r="1.28"/>
          <circle class="cls-8" cx="524.84" cy="416.09" r="1.28"/>
          <circle class="cls-8" cx="520.82" cy="415.58" r="1.28"/>
          <circle class="cls-8" cx="517.27" cy="416.09" r="1.28"/>
          <circle class="cls-8" cx="513.43" cy="415.58" r="1.28"/>
        </g>
      </g>
      <g>
        <polygon class="cls-3" points="150.54 454.46 352.14 454.46 352.14 449.63 322.62 443.05 179.24 443.05 150.54 449.63 150.54 454.46"/>
        <path class="cls-1" d="m155.37,449.63h191.94c2.66,0,4.83,2.16,4.83,4.83h-201.6c0-2.66,2.16-4.83,4.83-4.83Z" transform="translate(502.68 904.09) rotate(180)"/>
      </g>
      <g>
        <path class="cls-12" d="m429.92,446.82c-1-5.92-4.69-10.22-15.71-10.22h0c-11.03,0-14.72,4.3-15.71,10.22-.23,1.37.93,3.4,1.51,4.42.3.53,1.05,1.63,1.99,1.63h24.42c.95,0,1.69-1.1,1.99-1.63.57-1.02,1.74-3.05,1.51-4.42Z"/>
        <path class="cls-1" d="m429.89,446.66c-1.02-5.77-4.67-9.96-15.31-10.06v10.06h15.31Z"/>
        <path class="cls-1" d="m413.83,436.6c-10.63.1-14.29,4.29-15.31,10.06h15.31v-10.06Z"/>
        <path class="cls-3" d="m400,451.24c.3.53,1.05,1.63,1.99,1.63h24.42c.95,0,1.69-1.1,1.99-1.63.5-.88,1.43-2.52,1.52-3.83h-31.46c.1,1.31,1.03,2.95,1.52,3.83Z"/>
        <path class="cls-12" d="m429.92,446.82c0-.05-.02-.1-.03-.16h-15.31v-10.06c-.13,0-.25,0-.38,0s-.25,0-.37,0v10.06h-15.31c0,.05-.02.1-.03.16-.03.19-.03.39-.02.59h31.46c.02-.21.01-.41-.02-.59Z"/>
      </g>
    </g>
  </g>
</svg>