<?xml version="1.0" encoding="UTF-8"?>
<svg id="Capa_1" data-name="Capa 1" xmlns="http://www.w3.org/2000/svg" viewBox="0 0 25 25">
  <defs>
    <style>
      .cls-1 {
        fill: #539e43;
        stroke-width: 0px;
      }
    </style>
  </defs>
  <path class="cls-1" d="m12.5,24.86c-.34,0-.66-.09-.95-.25l-3.02-1.79c-.45-.25-.23-.34-.09-.39.61-.2.73-.25,1.36-.61.07-.05.16-.02.23.02l2.32,1.39c.09.05.2.05.27,0l9.06-5.25c.09-.05.14-.14.14-.25V7.26c0-.11-.05-.2-.14-.25L12.61,1.79c-.09-.05-.2-.05-.27,0L3.28,7.01c-.09.05-.14.16-.14.25v10.47c0,.09.05.2.14.25l2.48,1.43c1.34.68,2.18-.11,2.18-.91v-10.33c0-.14.11-.27.27-.27h1.16c.14,0,.27.11.27.27v10.33c0,1.79-.98,2.84-2.68,2.84-.52,0-.93,0-2.09-.57l-2.38-1.36c-.59-.34-.95-.98-.95-1.66V7.28c0-.68.36-1.32.95-1.66L11.55.38c.57-.32,1.34-.32,1.91,0l9.06,5.25c.59.34.95.98.95,1.66v10.47c0,.68-.36,1.32-.95,1.66l-9.06,5.25c-.3.14-.64.2-.95.2h0Zm2.79-7.2c-3.97,0-4.79-1.82-4.79-3.36,0-.14.11-.27.27-.27h1.18c.14,0,.25.09.25.23.18,1.2.7,1.79,3.11,1.79,1.91,0,2.72-.43,2.72-1.45,0-.59-.23-1.02-3.2-1.32-2.48-.25-4.02-.79-4.02-2.77,0-1.84,1.54-2.93,4.13-2.93,2.91,0,4.34,1,4.52,3.18,0,.07-.02.14-.07.2-.05.05-.11.09-.18.09h-1.18c-.11,0-.23-.09-.25-.2-.27-1.25-.98-1.66-2.84-1.66-2.09,0-2.34.73-2.34,1.27,0,.66.3.86,3.11,1.23,2.79.36,4.11.89,4.11,2.84-.02,2-1.66,3.13-4.54,3.13h0Z"/>
</svg>