<?xml version="1.0" encoding="UTF-8"?>
<svg id="Capa_1" data-name="Capa 1" xmlns="http://www.w3.org/2000/svg" viewBox="0 0 25 25">
  <defs>
    <style>
      .cls-1 {
        fill: #9193c9;
      }

      .cls-1, .cls-2 {
        stroke-width: 0px;
      }

      .cls-2 {
        fill: #20264d;
      }
    </style>
  </defs>
  <path class="cls-2" d="m3.91,0h17.19c2.16,0,3.91,1.75,3.91,3.91v17.19c0,2.16-1.75,3.91-3.91,3.91H3.91c-2.16,0-3.91-1.75-3.91-3.91V3.91C0,1.75,1.75,0,3.91,0"/>
  <path class="cls-1" d="m10.27,15.26h-3.82l-.78,2.52c-.02.09-.11.15-.2.15h-1.93c-.11,0-.15-.06-.12-.18l3.3-9.38c.03-.1.07-.21.1-.34.04-.22.07-.44.07-.67,0-.06.03-.11.09-.12,0,0,.02,0,.03,0h2.63c.08,0,.12.03.13.08l3.75,10.44c.03.11,0,.17-.1.17h-2.15c-.08,0-.15-.04-.17-.12l-.84-2.55Zm-3.22-1.76h2.61c-.07-.22-.14-.67-.23-.95-.09-.28-.18-.57-.28-.88-.1-.31-.2-.63-.3-.94s-.19-.62-.27-.91c-.08-.29-.16-.56-.22-.8h-.02c-.09.45-.21.89-.35,1.32-.15.5-.31,1-.47,1.52-.16.52-.32,1.2-.47,1.64"/>
  <path class="cls-1" d="m19.58,14.36h-3.25c.05.33.16.66.34.95.18.28.45.49.75.62.42.19.88.29,1.34.28.31,0,.62-.02.92-.07.33-.06.66-.16.97-.29.05-.04.08-.02.08.08v1.57s0,.09-.02.12c-.02.03-.04.06-.07.07-.34.16-.7.28-1.07.36-.44.06-.89.08-1.34.05-.67.02-1.34-.1-1.97-.36-.5-.22-.94-.55-1.29-.97-.32-.4-.57-.85-.71-1.35-.14-.49-.22-.99-.21-1.49,0-.55.08-1.1.26-1.63.16-.51.43-.99.77-1.4.34-.41.76-.74,1.24-.97.54-.25,1.13-.37,1.72-.36.58,0,1.15.11,1.68.33.42.19.8.48,1.08.85.27.35.48.74.61,1.16.13.41.2.83.2,1.26,0,.24,0,.46-.02.66-.01.12-.04.24-.06.35,0,.08-.07.13-.15.13-.07,0-.18,0-.34.02-.16.02-.44,0-.68.02s-.49,0-.75,0m-3.26-1.31h2.16c.26,0,.46,0,.59,0,.08,0,.16,0,.24-.02v-.1c0-.2,0-.4-.03-.59-.18-.58-.73-.96-1.34-.94-.57-.03-1.1.27-1.36.78-.12.28-.21.58-.25.89"/>
</svg>