<?xml version="1.0" encoding="UTF-8"?>
<svg id="Capa_1" data-name="Capa 1" xmlns="http://www.w3.org/2000/svg" viewBox="0 0 25 25">
  <defs>
    <style>
      .cls-1 {
        fill: #e73c69;
      }

      .cls-1, .cls-2 {
        stroke-width: 0px;
      }

      .cls-2 {
        fill: #441023;
      }
    </style>
  </defs>
  <path class="cls-2" d="m3.91,0h17.19c2.16,0,3.91,1.75,3.91,3.91v17.19c0,2.16-1.75,3.91-3.91,3.91H3.91c-2.16,0-3.91-1.75-3.91-3.91V3.91C0,1.75,1.75,0,3.91,0"/>
  <path class="cls-1" d="m8.88,7.4v10.35c0,.11-.05.17-.15.17h-1.89c-.09,0-.13-.05-.13-.17V7.4c0-.09.05-.13.15-.13h1.89c.06,0,.12.04.13.1,0,.01,0,.02,0,.03h0Z"/>
  <path class="cls-1" d="m15.01,18.14c-.76.01-1.51-.15-2.21-.46-.64-.3-1.18-.78-1.54-1.4-.4-.71-.59-1.52-.56-2.34,0-.76.19-1.5.56-2.16.39-.67.95-1.22,1.64-1.59.8-.42,1.69-.62,2.59-.59.05,0,.13,0,.21,0,.09,0,.28.01.4.02v-3.13c0-.08.03-.12.1-.12h1.92s.09.03.1.07c0,0,0,.02,0,.02v9.63c0,.19,0,.39.02.61.02.22.03.42.04.59,0,.07-.04.14-.1.17-.51.22-1.04.39-1.59.5-.52.1-1.05.15-1.59.15m1.1-2.05v-4.51c-.12-.02-.24-.04-.36-.05-.11-.01-.23-.02-.34-.02-.4,0-.8.09-1.16.26-.79.38-1.27,1.19-1.21,2.06,0,.36.05.72.17,1.06.1.27.26.52.46.73.2.19.43.33.69.41.27.09.56.13.85.13.15,0,.3,0,.43-.02.15,0,.3-.03.45-.07h0Z"/>
</svg>