<svg id="Capa_1" data-name="Capa 1" xmlns="http://www.w3.org/2000/svg" xmlns:xlink="http://www.w3.org/1999/xlink" viewBox="0 0 300 200"><defs><style>.cls-1{fill:#2e0760;}.cls-2{fill:url(#Dorado_3);}</style><linearGradient id="Dorado_3" x1="0.27" y1="73.07" x2="273.7" y2="73.07" gradientUnits="userSpaceOnUse"><stop offset="0.01" stop-color="#c8941e"/><stop offset="0.25" stop-color="#c8941e"/><stop offset="0.6" stop-color="#c8941e"/><stop offset="0.87" stop-color="#c8941e"/><stop offset="1" stop-color="#c8941e"/></linearGradient></defs><title>bucefalos_logo</title><path class="cls-1" d="M31.4,159.7c-.26,2-.39,3-.64,5S28,168.75,28,168.75a2.94,2.94,0,0,1,1.17.56,3.12,3.12,0,0,1,.75,1.4,2.9,2.9,0,0,1,.06,1c-.34,3.34-.51,5-.82,8.33a4.25,4.25,0,0,1-3.26,4.14c-10.41,2.73-15.59,4.25-25.88,7.6q.54-15.26,1.69-30.46c9.36-2.81,14.07-4.1,23.51-6.45a6.69,6.69,0,0,1,4,.08,3.33,3.33,0,0,1,2.12,2.5A6.73,6.73,0,0,1,31.4,159.7Zm-9.47,15.62a1.49,1.49,0,0,0-.06-.51c-.25-.92-.9-1.25-2-1-4.64,1.25-6.95,1.9-11.56,3.27-.13,2-.19,3.06-.31,5.1,4.49-1.35,6.74-2,11.25-3.23,1.56-.43,2.39-1.19,2.5-2.32C21.84,176.13,21.87,175.87,21.93,175.32Zm1.13-11.47a1.43,1.43,0,0,0,0-.29c-.19-.73-.9-.94-2.14-.61-4.69,1.22-7,1.86-11.71,3.21-.13,1.54-.19,2.32-.31,3.86,4.74-1.38,7.11-2,11.87-3.29a4.59,4.59,0,0,0,1.77-.76,1.53,1.53,0,0,0,.43-1.07C23,164.48,23,164.27,23.06,163.85Z"/><path class="cls-1" d="M66.54,146.47c-2.22,10.85-3.23,16.28-5,27.14a3.62,3.62,0,0,1-1.41,2.4,5.13,5.13,0,0,1-2.2,1c-8.29,1.57-12.42,2.45-20.66,4.4-2.82.66-4.51-.17-5.1-2.53a11.49,11.49,0,0,1-.09-4c1-8.91,1.57-13.37,2.85-22.29,3.25-.74,4.87-1.09,8.13-1.77-1.28,8.28-1.87,12.42-2.92,20.69a2.47,2.47,0,0,0,.06.76c.22.95.74,1.33,1.59,1.15,4.19-.94,6.29-1.38,10.5-2.22a2.87,2.87,0,0,0,2.46-2.63c1.29-8.28,2-12.42,3.53-20.7C61.56,147.28,63.21,147,66.54,146.47Z"/><path class="cls-1" d="M91.84,171.81c-8.2.94-12.29,1.5-20.46,2.81a6.11,6.11,0,0,1-3.7-.43,3.4,3.4,0,0,1-1.88-2.64,6.55,6.55,0,0,1,0-2.2c1.44-8.06,2.22-12.09,3.89-20.16a4.36,4.36,0,0,1,3.87-3.8c10.29-1.5,15.46-2.11,25.8-3.07-.77,2.77-1.15,4.16-1.88,6.94-7.14.7-10.71,1.12-17.83,2.08a4.79,4.79,0,0,0-2.83,2A81.63,81.63,0,0,0,74.19,166a1.43,1.43,0,0,0,0,.29c.11.73.78,1,2,.83,6.93-1,10.39-1.47,17.34-2.22C92.84,167.63,92.5,169,91.84,171.81Z"/><path class="cls-1" d="M133.94,147.5c-1.47,4.25-2.19,6.37-3.6,10.62-9.35.3-14,.56-23.35,1.31-.2.75-.29,1.13-.48,1.89a3.42,3.42,0,0,0-.17,1.17c.07.75.59,1.08,1.57,1,8.42-.67,12.64-.91,21.09-1.2-.88,2.73-1.31,4.09-2.16,6.82-9,.35-13.46.64-22.42,1.43-4.24.37-6.5-.71-6.76-3.32a11.22,11.22,0,0,1,.47-3.47c1.93-7.83,3-11.73,5.1-19.54.43-1.53,1.74-2.38,3.91-2.55,9-.69,13.53-.94,22.56-1.23,3.23-.1,4.88,1.11,4.93,3.59A10.4,10.4,0,0,1,133.94,147.5Zm-8.77,1.69a1.22,1.22,0,0,0,.06-.47c0-.92-.68-1.36-1.92-1.31-4.24.19-6.37.32-10.61.6a6.88,6.88,0,0,0-1.92.31,1.63,1.63,0,0,0-1,1.14l-.8,3c6.18-.46,9.26-.64,15.45-.91Z"/><path class="cls-1" d="M160.28,150.72c.18-.24-.71,2-2.61,6.6-6-.16-8.94-.18-14.9-.15-1.67,4.64-2.49,7-4.07,11.61-3.17.05-4.75.09-7.91.19q4.68-14.52,10-28.84c9.52-.1,14.27,0,23.78.33-1.1,2.66-1.65,4-2.73,6.65-6.1-.2-9.15-.25-15.25-.27-.55,1.47-.82,2.19-1.36,3.66C151.22,150.49,154.24,150.53,160.28,150.72Z"/><path class="cls-1" d="M198.91,148.76c-4.4,8.72-6.52,13.11-10.6,21.92-9.71-.89-14.57-1.2-24.3-1.59a3.5,3.5,0,0,1-2.93-1.39,4.7,4.7,0,0,1-.71-2.83,6,6,0,0,1,.43-2.11c1.38-3.5,2.08-5.25,3.51-8.74a4.55,4.55,0,0,1,4.9-3c7.74.37,11.61.63,19.34,1.32.28-.65.42-1,.71-1.62a1.93,1.93,0,0,0,.16-.59c.07-.82-.45-1.29-1.59-1.38-8.31-.72-12.47-1-20.8-1.35,1.12-2.65,1.68-4,2.83-6.61,10.39.5,15.58.89,25.95,1.94,2.71.27,3.92,1.68,3.65,4.2A5,5,0,0,1,198.91,148.76Zm-13.4,10.06c-5.1-.43-7.66-.6-12.76-.89a2.19,2.19,0,0,0-2.38,1.4l-.55,1.21a3,3,0,0,0-.19.86c0,.8.36,1.22,1.19,1.27,5,.26,7.54.43,12.57.82C184.23,161.62,184.65,160.69,185.51,158.82Z"/><path class="cls-1" d="M223.55,168.4c-1.4,2.5-2.09,3.76-3.46,6.26-10.77-1.72-16.18-2.43-27-3.53q6.39-13.75,13.3-27.24c3.3.4,5,.62,8.26,1.08-4.4,8.2-6.53,12.32-10.66,20.61C211.83,166.55,215.74,167.11,223.55,168.4Z"/><path class="cls-1" d="M264.86,162.41c-4.46,6.45-6.64,9.7-10.91,16.23a3.86,3.86,0,0,1-2.3,1.64,5.08,5.08,0,0,1-2.36,0c-8.25-1.86-12.39-2.7-20.7-4.19-2.86-.51-4.1-2-3.69-4.39a11,11,0,0,1,1.48-3.63l.88-1.38c3.55-6.22,5.36-9.32,9.07-15.48a3.7,3.7,0,0,1,2.28-1.73,5.41,5.41,0,0,1,2.53-.09c8.79,1.71,13.17,2.67,21.9,4.78,3,.72,4.18,2.29,3.58,4.68A12.17,12.17,0,0,1,264.86,162.41Zm-9-.72a1.81,1.81,0,0,0,.31-.66c.22-1-.11-1.57-1-1.77-4.32-1-6.48-1.46-10.81-2.35a3,3,0,0,0-3.38,1.52c-2.38,3.9-3.55,5.85-5.87,9.77a2.09,2.09,0,0,0-.29.71c-.18,1,.16,1.53,1,1.7,4.21.81,6.31,1.24,10.51,2.14a2.86,2.86,0,0,0,2.13-.2,4.14,4.14,0,0,0,1.15-1.24C252.13,167.45,253.37,165.52,255.9,161.69Z"/><path class="cls-1" d="M300,164.63c-1.81,2.25-2.7,3.38-4.49,5.64-6.91-2.21-10.38-3.25-17.35-5.2a3.86,3.86,0,0,0-2.25-.06,4,4,0,0,0-1.16.78,1.11,1.11,0,0,0-.22.5,1.6,1.6,0,0,1-.14.4c-.06,0-.15.22-.18.35-.19.69.27,1.18,1.37,1.48,5.31,1.47,8,2.25,13.25,3.86a6.39,6.39,0,0,1,3.32,2.1,3.34,3.34,0,0,1,.5,3.23,5.91,5.91,0,0,1-1.09,1.95c-1.29,1.62-3.25,4-5.66,7.11a5.75,5.75,0,0,1-2,1.78,4.1,4.1,0,0,1-2.93,0c-9.47-2.84-14.23-4.13-23.81-6.47,1.6-2.38,2.39-3.57,4-5.95,6.78,1.69,10.16,2.6,16.88,4.54q2.3.66,3.39-.69a5,5,0,0,1,1.05-1.05,1,1,0,0,0,.12-.27c.21-.72-.29-1.26-1.52-1.62-5.23-1.53-7.85-2.26-13.11-3.64a6.26,6.26,0,0,1-3.31-1.92,3.41,3.41,0,0,1-.68-3.23,6.05,6.05,0,0,1,.93-2c3.14-4.63,4.81-7,4.9-7.19,1.08-1.9,2.77-2.56,5.08-1.95C285,159.9,290,161.39,300,164.63Z"/><path class="cls-2" d="M57.22,87.41c1-.15,1.89-.31,2.69-.46l3.54-.7-2,2.83c-5,7.07-16.24,12.55-30.13,14.68C20,105.49,7,104.7.27,99.75c4.81,11,24.43,14,31.06,14.69,7.25.77,24.44-.7,25.32-.81l3.69-.56-2.27,2.8a38.56,38.56,0,0,1-24.14,13.5c-10.73,1.64-21.46-1-29.23-6.77,3.39,5.81,9.8,13.39,20.63,15A40.17,40.17,0,0,0,37,137.43a49.12,49.12,0,0,0,26.61-13.58c4.11-3.93,9.06-10.33,14.79-17.74C91.76,88.88,110.05,65.29,136,48,163.47,29.78,181,25.59,187.22,24.63a27.22,27.22,0,0,1,3.48-.35h.43l10,5.82-5,.17a31,31,0,0,0-3.77.34c-21.9,3.36-59.68,27.44-80.81,51.52-14.27,16.27-30.4,35.28-41.64,53l-.2.32-.35.19c-7.51,4.17,64.92-13.77,136.92,2.13-.76-1.44-1.52-2.87-2.37-4.32-4.6-7.92-9-15.41-8-21.3.13-1.66.17-3.56.2-5.57.15-7.9.33-17.6,6.88-23.17-2.89-2.67-9.06-9.76-6-19.11a14.78,14.78,0,0,1,12.25-10c5-.77,9.68.71,11.05,3.52l.76,1.55-1.83.41c-6.75,1.54-10.74,4.69-11.82,9.4-2.2,9.46,7.4,23,15,28.08,1.9,1.28,5.29,2.3,8.59,3.29,5.71,1.74,11.63,3.52,13.18,7.29,1.22,2.77,1,5.89.82,8.89a30.39,30.39,0,0,0,.06,6.11c5-.86,6.49-1.67,6.94-2.16a15.12,15.12,0,0,0-1.26-3.65,18.54,18.54,0,0,1-1.4-4l-.17-1.14,1.17-.42a5.71,5.71,0,0,1,.88-.23c3.44-.52,6.24,2.5,9.23,5.69,2.46,2.65,5.24,5.66,7.62,5.29a3.87,3.87,0,0,0,1.9-1c.34-.76.25-3.48.2-5a18.88,18.88,0,0,1,.12-4c.5-1.39,1-2.63,1.52-3.83a34.63,34.63,0,0,0,2-5.48c-3.47-1.78-6.66-5.62-6.56-9.68a20.53,20.53,0,0,1,.25-4c.25-1.87.32-2.44-2.1-5.37-3.43-3.48-9.6-16.11-10.88-19.85-.39-1.34-.72-2.34-1-3.15-1-2.8-1.22-3.91.64-6.89,1.1-1.75,0-3.4-2-5.93a23.69,23.69,0,0,1-1.41-2l-.69-.83c-4.06-4.88-9.61-11.55-10.63-18.24l0-.17v-.18a6.79,6.79,0,0,1,1.71-3.4A7.4,7.4,0,0,0,243,18.89c.21-2.41-2.71-5.92-6-7.87a10.34,10.34,0,0,1,.51,5.67,5.83,5.83,0,0,1-4.72,5.14,7,7,0,0,1-4.34-.88,22.41,22.41,0,0,1-4.93-4.4c-2-2.14-4-4.33-6.23-5.13,1.33,1.86,2.58,4.25,1.88,6a3.36,3.36,0,0,1-2.84,2l-.81.07c-4.75.17-6.92-3.63-7.89-6.45a11.53,11.53,0,0,1-5.88,3,10.29,10.29,0,0,1-6.86-1.47c-5.08-3-13-6.49-21.74-6.31a34,34,0,0,0-4.48.43C156.52,10.5,139,17.83,129.54,21.77l-2.17.91c-3.12,1.18-6.14,2.43-9,3.64-7.3,3.05-14.19,5.92-21.9,7.11a47,47,0,0,1-9.81.49c-1.39-.05-3.17,0-5.16,0-9.16.19-23,.47-28.26-6.19a9.6,9.6,0,0,1-2-4.9c-1.88,4.54-2.08,9.47,1.65,13.07,1.77,2.31,8.88,4,15.16,5.44,5.9,1.37,11.49,2.66,13.87,4.7l2.28,2-3.1.48C69.6,50.34,64.7,56,59.06,62.65a75.64,75.64,0,0,1-10.5,10.58,41.64,41.64,0,0,1-19.65,8.61c-10.66,1.63-20.12-1-25.86-6.8a18.61,18.61,0,0,0,4.74,5.57C19.76,90.12,44.49,89.35,57.22,87.41Z"/></svg>