<svg id="Capa_1" data-name="Capa 1" xmlns="http://www.w3.org/2000/svg" viewBox="0 0 300 200"><defs><style>.cls-1{fill:#e74346;}.cls-2{fill:#12110b;}</style></defs><title>trips_logo</title><path class="cls-1" d="M268.21,114.24l.14-1.14c0-1.65-.36-4.35-1.45-5-2.6-1.66-8.32-5.24-8.38-5.27l-.38-.24-.25-.38L251.16,92l-7.95-5.45.86,3.13-3.36-.74-4.58-1,1,.9L235,90.27l-1.75,1.2-.18.13-.21.08a43.22,43.22,0,0,0-18.73,9.94l7.83-3.39-13.57,10.54-3,14.56a76.45,76.45,0,0,1,16.48-21l-11,21.11s-3.36,17.59,2.24,24.62c0,0,4.88-23.66,16.11-31.82,0,0-6.2,14.07-5.72,18.55a29.45,29.45,0,0,1,23.38-19,12.47,12.47,0,0,0-5.35.1c-5.34,1.23-7.31,1.23-8.94,0s-7.34,0-7.34,0,2.62-3.08,5.39-3.85a16,16,0,0,0-3.69-.31s1-1.32,2.31-2.67l1-5.14V96l1.38,5.55,2.74,4.71a41.5,41.5,0,0,1,7.1,1.24l-3.19-4.32s4.78,2.16,5.86,3.55a53.06,53.06,0,0,0,3.71,3.89l2-.66,3.94,1.7a63.64,63.64,0,0,1,7.93-3.86l-3.85,4.09a54.13,54.13,0,0,1,7,.07A4.56,4.56,0,0,1,268.21,114.24Z"/><path class="cls-1" d="M263,121.65c-2.16-1.08-4.93-3.08-6.47-2.93a23.59,23.59,0,0,1-4.77-.46l-1.7-1.08a9.19,9.19,0,0,0-3.3-1.33c-.89.24-5,1.44-7,3.93-.49.6.9,2,.9,2a31.62,31.62,0,0,1,3.5,1.15,53.86,53.86,0,0,0-15,20.7h0v0h0a45.34,45.34,0,0,0-2.76,10.9c-2.24,19.51-.54,27.54,6.56,31a17.9,17.9,0,0,0,5.79,1.86l9.75-7.52c.09-.23.17-.47.26-.7-2.74.51-7.27,1.08-10.7.06-5.25-1.58-6.51-5.24-6.51-5.24-3.27-7.32-2.35-28.89-2.35-28.89l7.43-8.65c4.21-3.67,9.06-7.21,12.57-7.69,5.52-.76,11.76,1.39,14.91,4.81.16-.65.33-1.31.5-2,.21-.82.36-1.4.41-1.58.09-.39.44-1.55.83-2.84C265.44,125.38,264.52,122.39,263,121.65Zm-19.93-1.17,3-2.43,4.77,2.14,2.27,1.77S247.06,120,243.11,120.48ZM264,126a30.49,30.49,0,0,0-5.71-3.07l3.82-.52,1.89,2.39Z"/><path class="cls-2" d="M246.08,118.05l-3,2.43c3.95-.47,10,1.48,10,1.48l-2.27-1.78Z"/><path class="cls-2" d="M258.27,122.91A31.73,31.73,0,0,1,264,126v-1.19l-1.9-2.39Z"/><path class="cls-2" d="M284.54,36.2q-3.65-2.31-11-2.26t-18.61,1a26.06,26.06,0,0,1-8.43-.19c-1.89-.49-3.08-1.22-3.57-2.21A4.29,4.29,0,0,1,243,29a18,18,0,0,1,2.67-4.38q4.22-5.31,13.21-12.56a24.93,24.93,0,0,0,8.35,6.64,13.21,13.21,0,0,0,3.92,1.14,10.15,10.15,0,0,0,4.24-.38,12.44,12.44,0,0,0,4.33-2.48,23.13,23.13,0,0,0,4.3-5.15,8.09,8.09,0,0,1-5.08-.24,15.25,15.25,0,0,1-5.07-3.31A28.91,28.91,0,0,1,268.2,0,253.32,253.32,0,0,0,249,16.7a113.37,113.37,0,0,0-11.22,12.45c-.63.84-1.2,1.66-1.71,2.44q.54-8.43.31-18.18c-1.5-1.12-3-2.17-4.54-3.13A46.41,46.41,0,0,0,227.73,8a12.29,12.29,0,0,0-3.89-1.31q-.15.38-2.49,4.41t-5.92,10.06q-3.59,6-7.8,13t-8,13.22q1.09-6.37,2.23-11.75c.75-3.58,1.42-6.69,2-9.35q1.09-4.69,2.06-8.35l-11.19-4.52a125.9,125.9,0,0,0-4.26,15.67q-1.68,8.22-2.73,16.6t-1.55,16.64q-.49,8.28-.59,15.79-.24,17.63,1,34.95c2.22,1.81,4.33,3.63,6.34,5.48,1.72,1.6,3.47,3.27,5.23,5l.82.83-.89,3.58a45,45,0,0,1-6.45,4.82,35.19,35.19,0,0,1-14.2,5.25,27.91,27.91,0,0,1-13.06-1.52,46.41,46.41,0,0,1-11.73-6.43,66.43,66.43,0,0,1-10.12-9.38,116.59,116.59,0,0,1-8.21-10.42q-3.58-5.17-6.08-9.61c-1.66-3-2.92-5.25-3.76-6.87a15.24,15.24,0,0,0,9.21-2.43,23,23,0,0,0,6.68-7,41.7,41.7,0,0,0,4.51-10.12A99.88,99.88,0,0,0,147.7,62.5c.4-2.38.74-4.83,1-7.38A37.58,37.58,0,0,0,154,51.47a63.5,63.5,0,0,0,5.71-5.38c1.86-2,3.56-3.92,5.12-5.87q-1.23,6.84-2,13.82t-1.17,13.72q-.41,6.75-.56,13.1T161,92.79q.1,13.08,1.12,25.09,3.33,2.7,6.34,5.47,2.59,2.4,5.23,5t4.25,4.54a35.47,35.47,0,0,1-5.26-12.57,93.07,93.07,0,0,1-2.1-16.1,161.55,161.55,0,0,1,.21-18.07c.4-6.27,1-12.44,1.85-18.5a387.5,387.5,0,0,1,8.76-44.93l-11.19-4.52a143.29,143.29,0,0,1-13.07,24.06,58.36,58.36,0,0,1-5.87,7.2,26.35,26.35,0,0,1-2.24,2.06,180.34,180.34,0,0,0,.41-21.07c-1.49-1.13-3-2.17-4.53-3.14q-1.92-1.2-4.09-2.28A12.63,12.63,0,0,0,137,23.74c-.11.25-.93,1.72-2.49,4.41s-3.54,6.05-5.92,10.06-5,8.35-7.81,13-5.49,9.06-8,13.22q1.1-6.37,2.22-11.74c.06-.26.11-.5.16-.75a16.62,16.62,0,0,0,7-3.8,7.71,7.71,0,0,0,2.29-6.27q-.23-3.75-3.92-8.86,2.36,5.7,1,8.7a7.39,7.39,0,0,1-5.1,4.08c.19-.86.38-1.68.55-2.46q1.1-4.7,2.05-8.35l-11.18-4.52a126.53,126.53,0,0,0-4.26,15.65q-4.18-.45-8.7-1.24-6.32-1.11-12.63-2.5T70.83,40.19a58,58,0,0,0-15-.42A108.67,108.67,0,0,0,42.73,41.9,88.38,88.38,0,0,0,29.9,46.1l-18,15.4a86.22,86.22,0,0,1,15-6.86A97.12,97.12,0,0,1,43,50.58a72.57,72.57,0,0,1,19.76-.53Q59,63.11,56.29,75.62t-4.1,23.59a173.8,173.8,0,0,0-1.48,20.44,74,74,0,0,0,1.44,16.18q1.51,6.81,4.72,10.6a10.31,10.31,0,0,0,8.19,3.82q5,0,12-4.08T93.19,133q-9.94,8.67-16.3,10.81t-10-.5q-3.66-2.64-5-9.22A64.43,64.43,0,0,1,61,118.86a178.32,178.32,0,0,1,1.85-18.5q1.48-9.87,3.47-19.1t4-17.07q2-7.83,3.23-12.33,8.1,1.32,15.76,1.89a103.11,103.11,0,0,0,12.79.21c-.49,2.92-.91,5.84-1.28,8.78q-1.05,8.38-1.55,16.65T98.7,95.18q-.24,17.61,1,34.95,3.33,2.7,6.33,5.47,2.59,2.4,5.24,5t4.25,4.54a34.84,34.84,0,0,1-4.82-10.87,79.1,79.1,0,0,1-2.31-13.76,131.13,131.13,0,0,1-.32-15.61q.3-8.17,1.15-16.41a3.31,3.31,0,0,0,.5.3,4.4,4.4,0,0,1,.51.29q1.52,3.18,4.67,9t7.64,12.66a165.59,165.59,0,0,0,10.16,13.85A82.82,82.82,0,0,0,145.07,137a52,52,0,0,0,14,8.17,28,28,0,0,0,15.17,1.44q7.84-1.37,16-7.85a52.63,52.63,0,0,0,6.82-6.58l-.47,1.87,1.66,17,2.49-3.76,1.69,13.42,4-5.92,6.18,9.09,5.06,19,7,8.39-1.47,4,7-.92L228.47,200l23.15-17.87.95-2.56,3.07-2.62,0-.14a12.48,12.48,0,0,0,5.75-8.59,16.79,16.79,0,0,0,.09-5.86l-.59-3,2.72-8.62,1.48,1.76,1.08-2.2c.16-.32,3.77-7.82,1.25-14.49.32-1.24.61-2.38.84-3.25s.36-1.43.41-1.61c.19-.75,1.6-5.39,2.13-7.11l0-.14L272,113.39v0c0-.64.19-6.27-3.14-8.38-2.27-1.45-6.9-4.34-8.11-5.1l-4.42-6.72a15.64,15.64,0,0,0,5.16-1.2Q268.23,89.1,274,80.52a96.55,96.55,0,0,0,10.45-21.47q3.57-9.78,3.63-15.16C288.16,40.3,287,37.74,284.54,36.2ZM121.21,87.79q-4.93,1.71-11.6-2,.6-6.06,1.49-11.26,3.38-7.27,7.69-14.72t8.13-13.58q4.54-7.16,9.15-13.88-.18,11-1,19.92a18.71,18.71,0,0,1-2.28-2.83A19.74,19.74,0,0,0,135,53.3c-.24,2.54-.51,5-.83,7.26q-1.65,11.86-4.84,18.7T121.21,87.79ZM198,57.44q3.39-7.26,7.69-14.72t8.14-13.57Q218.33,22,223,15.26a235,235,0,0,1-1.9,28.25c-1.1,7.91-2.71,14.13-4.84,18.7s-4.83,7.4-8.12,8.53-7.15.45-11.59-2Q197.08,62.66,198,57.44ZM252,175c-1.43,1.07-4.63,2.85-9.93,2.41-2.68-.22-5.59-.78-6.93-3.27a33.47,33.47,0,0,1-2.64-8.82h.83a1.53,1.53,0,0,1,1,1.11,27.93,27.93,0,0,0,2.31,4.08,12.47,12.47,0,0,0,7.8-3.76,11.32,11.32,0,0,1-3.52,6.75.78.78,0,0,0,.51.32h3.25l5.8-.91,1.48-1.25a20.7,20.7,0,0,0,6.31-4.91S258.51,171.7,252,175Zm12-29.1s-.23-.94-.4-1.61a.31.31,0,0,0,0-.08c-.05-.19-.1-.38-.16-.56h0a31.6,31.6,0,0,0-5.07-9.25l-1.6,2.48c-1.58-1.64-3.66-3.71-3.66-3.71-1.9,3.12-2.31,3.71-2.31,3.71L247,134.61a57,57,0,0,1-2.7,9.34c-.48-8-2.85-9.18-2.85-9.18,6.21-3.45,12.09-4.82,16.57-3,5.54,2.24,6.64,6.47,6.82,8.68A14.9,14.9,0,0,1,264,145.88ZM265.05,130c0,.17-.19.76-.4,1.57l-.51,2c-3.14-3.42-9.38-5.57-14.9-4.81l-.64.12-.22.06-.44.12-.27.09-.41.15-.29.11-.43.18-.29.13-.45.21-.27.14-.52.28-.23.12c-.25.14-.5.28-.75.44l-.05,0-.72.45a1.64,1.64,0,0,0-.22.14l-.57.38-.24.16-.56.39-.23.17-.59.43-.19.14-.68.52-.1.07c-1.09.85-2.17,1.75-3.21,2.66l-7.44,8.66s-.91,21.57,2.36,28.89c0,0,1.25,3.66,6.51,5.23,3.42,1,8,.46,10.69-.06-.08.23-.17.47-.26.7l-9.75,7.53a18,18,0,0,1-5.79-1.86c-7.09-3.48-8.79-11.51-6.55-31,0-.22.05-.44.09-.67a45.44,45.44,0,0,1,2.53-9.87.31.31,0,0,1,0-.07h0l.1-.28h0v0h0c0-.14.11-.27.16-.4l.33-.79c0-.11.09-.21.14-.32.13-.29.25-.58.38-.86l.1-.21.44-.93.06-.11.51-1v0A54.65,54.65,0,0,1,244,123.07l0,0,.23-.18a35,35,0,0,0-3.51-1.15s-1.38-1.34-.9-2c2-2.48,6.1-3.68,7-3.92a9.18,9.18,0,0,1,3.29,1.33l1.7,1.08a24.37,24.37,0,0,0,4.77.46c1.55-.16,4.32,1.85,6.48,2.93,1.48.73,2.39,3.73,2.83,5.54C265.49,128.47,265.15,129.63,265.05,130Zm-5.55-12.26s2.19-1.55,4-1,1,2.67,1,2.67C263.22,118.43,259.5,117.77,259.5,117.77Zm-1.61-15.59.25.37.39.24c.06,0,5.78,3.62,8.38,5.27,1.08.69,1.49,3.39,1.44,5l-.14,1.13a4.51,4.51,0,0,0-3.39-2.29,53,53,0,0,0-7-.08l3.85-4.08a63.72,63.72,0,0,0-7.92,3.85l-3.94-1.69-2,.65a50.45,50.45,0,0,1-3.72-3.89c-1.07-1.39-5.85-3.54-5.85-3.54l3.19,4.31a42.11,42.11,0,0,0-7.1-1.23l-2.75-4.72L230.2,96v8l-1,5.13c-1.27,1.35-2.32,2.67-2.32,2.67a16,16,0,0,1,3.69.31c-2.77.77-5.38,3.85-5.38,3.85s5.7-1.23,7.33,0,3.6,1.24,9,0a12.42,12.42,0,0,1,5.34-.1,29.44,29.44,0,0,0-23.37,19c-.48-4.47,5.72-18.55,5.72-18.55C217.88,124.44,213,148.11,213,148.11c-5.59-7-2.24-24.63-2.24-24.63l11-21.11a76.45,76.45,0,0,0-16.47,20.95l3-14.55,13.57-10.54-7.83,3.38a43.26,43.26,0,0,1,18.72-9.93l.21-.08.19-.13,1.74-1.2,2.13-1.46-1-.91,4.57,1,3.36.74-.85-3.13L251.16,92ZM243.54,113.7c-2.85-1.48-9.44-2-9.44-2s2.48-2.82,4.73-2.34S243.54,113.7,243.54,113.7Zm36.74-57.3a96.31,96.31,0,0,1-7.57,19.34q-4,7.23-8.26,10.64A14.88,14.88,0,0,1,255.8,90c-.51,0-1,0-1.54,0l-.42-.64L237,77.82l1.29,4.73A89,89,0,0,1,231,75.49a73.9,73.9,0,0,0,7.63,9.19l-14.78-3.26,7.43,6.94c-2.17.9-19.3,8.23-27.24,16.86l-.27.3-4.27,17.09a40.26,40.26,0,0,1-1.84-5.37,80.06,80.06,0,0,1-2.31-13.76A131.25,131.25,0,0,1,195,87.86q.3-8.16,1.15-16.4,8.38,5.07,14.58,5.26a17.05,17.05,0,0,0,10.62-2.93,22.69,22.69,0,0,0,7.23-8.8,64.16,64.16,0,0,0,4.5-12.42c.56-2.29,1-4.7,1.46-7.23a7.63,7.63,0,0,0,2.28,1.46,18.7,18.7,0,0,0,5.47,1.39,30.88,30.88,0,0,0,5.84.08,42.55,42.55,0,0,0,4.7-.58c1.58-.31,3.45-.64,5.63-1s4.4-.6,6.68-.75a44,44,0,0,1,6.61.05,14.85,14.85,0,0,1,5.43,1.4,6.75,6.75,0,0,1,3.22,3.28C281,52.11,281,54,280.28,56.4Z"/></svg>