<svg id="Capa_1" data-name="Capa 1" xmlns="http://www.w3.org/2000/svg" viewBox="0 0 300 200"><defs><style>.cls-1{fill:#fff;}.cls-2{fill:#e20613;}</style></defs><title>cerberus_logo</title><path d="M244.09,104.35c-9-4.92-17.3-11.72-26-21.32.16-4.59-2-8.65-6.39-12.09l-2.22-1.73a4.09,4.09,0,0,0,.14-1V46.7a4.09,4.09,0,0,0-.83-2.48L176.37,1.61A4.1,4.1,0,0,0,173.12,0a4.22,4.22,0,0,0-1.31.21A4.09,4.09,0,0,0,169,4.09V30.4a4,4,0,0,0-1.65,1.7l-.63-.77c-.71-.87-1.45-1.78-2.15-2.67-.58-.73-1.14-1.48-1.73-2.28s-1.15-1.53-1.75-2.3c-1.12-1.43-2.26-2.85-3.48-4.37l-1.72-2.15a4.1,4.1,0,0,0-3.2-1.54,4.21,4.21,0,0,0-1.35.23,4.06,4.06,0,0,0-1.52,1,4.06,4.06,0,0,0-1.86-1.4,4.18,4.18,0,0,0-1.42-.26A4.09,4.09,0,0,0,143.46,17c-3.69,4.29-6.92,8.63-9.92,12.71a4.66,4.66,0,0,0-.3.47,4,4,0,0,0-1.09.8L131,32.14v-.8c0-8.59,0-17.47,0-26.29a4.32,4.32,0,0,0-2.09-3.68,5,5,0,0,0-1.27-.58l-.32-.11A4.21,4.21,0,0,0,126,.45a4.1,4.1,0,0,0-3.25,1.61l-24,31.47A4.19,4.19,0,0,0,98,35a3.73,3.73,0,0,0-.45.44,4.16,4.16,0,0,0-.9,1.58,4.14,4.14,0,0,0-1.51,1.22l-4,5.25a4.08,4.08,0,0,0-.84,2.48V68a4.27,4.27,0,0,0,.19,1.23,72.64,72.64,0,0,0-6.09,5.71,4,4,0,0,0-1,2l-1.25,6.32c-1,1-2.08,2.07-3.08,3.08-3,3-5.83,5.87-8.92,8.44s-6.29,4.75-9.78,7.13c-1.58,1.07-3.22,2.19-4.86,3.35a4.08,4.08,0,0,0-.47,6.29l9.54,9.18a4.1,4.1,0,0,0,2.35,1.11c.83.1,1.69.23,2.51.35a39.46,39.46,0,0,0,6,.59h.26a62.46,62.46,0,0,0,11.63-1h0c1-.2,2-.4,3-.63v6.84l-.42-.21a4.11,4.11,0,0,0-4.46.52l-1.08.43-.19.09a4.37,4.37,0,0,0-.44-.42A7.72,7.72,0,0,0,80,126.58a3.35,3.35,0,0,0-.63,0,4.07,4.07,0,0,0-4.08,3.79,6.94,6.94,0,0,1-.1.84,7.34,7.34,0,0,0-1,3.1,4.08,4.08,0,0,0,.08,1.26,4.27,4.27,0,0,0-.64.93l-.68,1.38-.53.69-1,.75a2.69,2.69,0,0,0-.32.27l-2.78,2.57-.28-.55a4.07,4.07,0,0,0-5.32-1.9l-1.09.48a4.1,4.1,0,0,0-2.38,3.07l-.36,2.19a3.71,3.71,0,0,0-.06.67v1.59l0,.08a4.07,4.07,0,0,0-.33,1.61v3.56l-.31,1.85a4.06,4.06,0,0,0,.2,2.1l-.22,1.7a4.55,4.55,0,0,0,0,.53v2.55a4,4,0,0,0,.3,1.52l.56,1.42,1,6.13a4.31,4.31,0,0,0,.24.85l.57,1.42.66,3.83a4.07,4.07,0,0,0,.67,1.64l.58.84.21,1.19a4,4,0,0,0,.24.84l.07.17-.56,1a4.08,4.08,0,0,0-.25,3.54l.2.51a4.09,4.09,0,0,0,4,5.11h1a4.23,4.23,0,0,0,1.41-.25,8.69,8.69,0,0,0,2.73.6h1.82a4.09,4.09,0,0,0,4.09-4.09v-1a4.06,4.06,0,0,0-.42-1.79l.79-.53a4.15,4.15,0,0,0,.88-.79l2-2.48L82.61,180a4.17,4.17,0,0,0,1.65,1.88h0a4.08,4.08,0,0,0,2.92,1.75l.72.08.45,0a4.05,4.05,0,0,0,1.29-.21,5.55,5.55,0,0,0,3.28-2.76,8.68,8.68,0,0,0,.45-.92h1.34a3,3,0,0,0,.52,0l1.57-.2h4.58a3.71,3.71,0,0,0,.67-.06l1.43-.23a4.25,4.25,0,0,0,.94-.28l.56-.24.12-.06a4.08,4.08,0,0,0,1.59,1.75l.14.42a4.07,4.07,0,0,0,3.87,2.79,4.27,4.27,0,0,0,1-.12l1-.24a4.08,4.08,0,0,0,2.65-2.1,4.09,4.09,0,0,0,3.31-4v-.56a4.07,4.07,0,0,0-1.32-3,3.91,3.91,0,0,0,.35-1.36,4.22,4.22,0,0,0,.93.11h.16l2.26,1.26.25.22a3.89,3.89,0,0,0,.76.51,4.09,4.09,0,0,0,.4.94c-.06.13-.12.26-.17.4a4.06,4.06,0,0,0,1,4.34,4.09,4.09,0,0,0,5.43,3.31h.53a4.12,4.12,0,0,0,.86-.09,23.75,23.75,0,0,0,2.13,2.13c.35.32.68.62,1,.92l1.11,1.11c.87.89,1.78,1.81,2.73,2.71.18.17.41.41.64.67a12.43,12.43,0,0,0,2.65,2.34,10.61,10.61,0,0,0,2.59,2.89,7.48,7.48,0,0,1,.72.66A8.6,8.6,0,0,0,150,200h0a7.89,7.89,0,0,0,.84-.05,4.09,4.09,0,0,0,2.34-1.12l7.69-7.43,8.2-7.92a4.12,4.12,0,0,0,1.21.18,4.27,4.27,0,0,0,1-.12l.95-.24a4.08,4.08,0,0,0,2.65-2.1,4.09,4.09,0,0,0,3.31-4v-.56a4,4,0,0,0-.38-1.71,4.25,4.25,0,0,0,.57-.46l1.09-1.05.23-.25.87.48.25.22a4.1,4.1,0,0,0,2.66,1h1.61a4.05,4.05,0,0,0,2.16,2.22,3.62,3.62,0,0,0,.42.36l.87.63a4.1,4.1,0,0,0,2.41.78,4,4,0,0,0,.84-.08l.33.16a3.8,3.8,0,0,0,.8.28,4.09,4.09,0,0,0,1.77,2.11l.95.55a4.11,4.11,0,0,0,1.26.48h0a4.14,4.14,0,0,0,2.05.55h1.2a4.34,4.34,0,0,0,.8-.08l.41-.09.5.1a4.65,4.65,0,0,0,.75.07h1l.32.06.59.28a4.12,4.12,0,0,0,4.61-.83l.71-.71a3.65,3.65,0,0,0,.27-.3,4.1,4.1,0,0,0,2.09-2.24l.35-.92.24-.21a4.07,4.07,0,0,0,1.16-4.24l1.13,1.59a4,4,0,0,0,.54.62l1,.95,1.3,2.47-.57.91-.49.55a4.1,4.1,0,0,0-1,2.95l-1.39,2a4.06,4.06,0,0,0-.6,1.3l-.3,1.09a4.3,4.3,0,0,0-.14,1.07v.82a4.09,4.09,0,0,0,5.83,3.7l1.5-.71a4.13,4.13,0,0,0,1.54-1.24l.2-.27.3-.2a4.11,4.11,0,0,0,1.66-2.26,4.18,4.18,0,0,0,.68-.83l1.23-2h0a4.11,4.11,0,0,0,3.6-.41l.92-.59a4.09,4.09,0,0,0,.67-6.33l-.07-.07s0-.06,0-.1a.78.78,0,0,1,0-.14l1.05-1.47a4,4,0,0,0,.65-1.42l.12-.49,1.92-2.81a4.06,4.06,0,0,0,.4-.74,4.06,4.06,0,0,0,2.38-2.71l.3-1.09a4.21,4.21,0,0,0,.12-.71,3.27,3.27,0,0,0,.25-.36l1.82-3a4.1,4.1,0,0,0,1-4.55l-.29-.71a4.15,4.15,0,0,0-1.16-1.56,4.15,4.15,0,0,0-.59-1.07l-.29-.38a4.09,4.09,0,0,0-3.25-1.6,4.15,4.15,0,0,0-1.29.21l-.62.21a4.11,4.11,0,0,0-1.48.87l-.58.54a2.14,2.14,0,0,0-.43.07l-.39-.28a4.06,4.06,0,0,0-.53-1.23l-.2-.33a4.07,4.07,0,0,0-2.37-1.74l-.2-.24a4.26,4.26,0,0,0-.88-.76l-.3-.2-.18-.24a4,4,0,0,0-.56-.6l-.29-.26-.16-.29a4.25,4.25,0,0,0-1-1.22l-.31-.24-.27-.38a4.12,4.12,0,0,0-.84-.88c.12-.13.22-.26.32-.39a4.15,4.15,0,0,0,1.13-1.08l.86-1.22.11-.08a3.9,3.9,0,0,0,1,.92l.26.17.77,1.09a3.72,3.72,0,0,0,.68.75l.82.71a4.07,4.07,0,0,0,1,.61l1.72.79,1.45,1a4.13,4.13,0,0,0,.92.45l1.12.38a4,4,0,0,0,1.33.22,4.58,4.58,0,0,0,1-.11l1.21-.3a4.09,4.09,0,0,0,3.05-4.71l-.21-1.12a4.08,4.08,0,0,0-1.13-2.16l-1.29-1.29a4.16,4.16,0,0,0-.6-1.48,3.81,3.81,0,0,0-.27-.93l-.29-.71a4.09,4.09,0,0,0-2.64-2.35,4,4,0,0,0-1.34-1.43l-.25-.16.61-.76a4.09,4.09,0,0,0,.89-3.1l-.12-.92a4.11,4.11,0,0,0-.71-1.82l-.2-.3a4.09,4.09,0,0,0-3.35-1.74,3.91,3.91,0,0,0-.76.07,3.67,3.67,0,0,0-.75-.07h-.59a4.1,4.1,0,0,0-1.63.34,3.81,3.81,0,0,0-.59-.05,4.35,4.35,0,0,0-1.32.22l-1.12.39A4.06,4.06,0,0,0,222.3,128a3.33,3.33,0,0,0-.64.35l-1.51,1a4.09,4.09,0,0,0-1.5,5l.24.59L217.38,137a4,4,0,0,0-1.73.63l-.5.32a4.51,4.51,0,0,0-.59.47l-.11.06-1.13.69-.7.24a3.94,3.94,0,0,0-1.18.63,4.12,4.12,0,0,0-1.84.71V121a79.18,79.18,0,0,0,14.78,1.77h.67a35.72,35.72,0,0,0,5.87-.62c.74-.12,1.44-.24,2.06-.31a4.14,4.14,0,0,0,2.21-1c.8-.71,1.59-1.39,2.36-2.06,2.18-1.9,4.24-3.69,6.26-5.55a7,7,0,0,0,1.79-3c.08-.23.16-.45.24-.63A4.08,4.08,0,0,0,244.09,104.35Zm-23.63,56.11.4.1,1.26.91.17.26a4.27,4.27,0,0,0,1.05,1.11,5.27,5.27,0,0,0,1,1.19l1.23,1.3.08.09L224.53,167l-.12.17-.39-.87a4.11,4.11,0,0,0-.43-.73l-3.13-4.25a4.17,4.17,0,0,0-.86-.87l-.13-.09-.05-.21c0-.05,0-.1,0-.15A4.14,4.14,0,0,0,220.46,160.46Zm-71.67-6.71a4.18,4.18,0,0,0,.65-1.48l.16-.72a3,3,0,0,0,.08-.51,4.14,4.14,0,0,0,1.56,1.08l0,0a4.2,4.2,0,0,0,.19,1l-.11.6a7.42,7.42,0,0,1-1.74,1.89,2.4,2.4,0,0,0-.38-.12l-.77-.19a3.91,3.91,0,0,0-.57-.31ZM170.44,132a4.09,4.09,0,0,0-3,3.95v.26l-1.15-.36a4,4,0,0,0-1.2-.18h-1.19l-.45,0,2.46-1.39a4.08,4.08,0,0,0,2.05-3.07l1.36-11.15.19-.34c.29-.52.62-1.08,1-1.63Zm-10.53,8.78a.94.94,0,0,1,0,.16,5.11,5.11,0,0,0,2.44,3l.09.08a4,4,0,0,0,1.43.79l1.3.41a4.59,4.59,0,0,0,.53.55,3.61,3.61,0,0,0,.07.73,3.89,3.89,0,0,0-1,.75l-1.92,1.92-.34-.41c0-.09,0-.18,0-.27l-.16-1.59a4.08,4.08,0,0,0-1.93-3.07l-1-.64a4,4,0,0,0-2.14-.61l-.31,0a3.93,3.93,0,0,0-.78-.36,23.27,23.27,0,0,0,3-1.07A3.55,3.55,0,0,0,159.91,140.78Zm-9.85,3.46a4.08,4.08,0,0,0-1.43,3.11v.56l-.13-.13-1.2-1.2-.18-.36a4.08,4.08,0,0,0-.76-1.07l-.3-.29-.2-.36a4.06,4.06,0,0,0-1.39-1.49l-.5-.32-.4-.4-.23-.22a22.68,22.68,0,0,0,6.79,1.07l.81,0A4,4,0,0,0,150.06,144.24Zm-17.73-10.62a5.75,5.75,0,0,0-.54.68,4.06,4.06,0,0,0-1.68-.36,4.44,4.44,0,0,0-.62.05v-1.75c0-4.9,0-9.8,0-14.71a7.15,7.15,0,0,1,1.31,1.82l1.55,12A4.1,4.1,0,0,0,133,133,3.9,3.9,0,0,0,132.33,133.62Zm15.61-79a13.64,13.64,0,0,0,1.54-2.48v0l3.72,4.79-3.16.82-3.74-1C146.9,56,147.43,55.27,147.94,54.61ZM90,137.23l.2-.16.15-.13v2.82l-.56-1.47ZM75,171a4.1,4.1,0,0,0-.63.62l-.8,1L73,173l-.22-1.22a4.42,4.42,0,0,0-.23-.81L72,169.54l-.23-1.42v-1.73a4,4,0,0,0-.37-1.69v-7.1a3.9,3.9,0,0,0,1-.73l.73-.73a4.07,4.07,0,0,0,1.2-3l1.37-1.83a3.72,3.72,0,0,0,.55-1l3-3.21h0l.92,2.78a3.76,3.76,0,0,0,.23.55l.85,1.71a4.07,4.07,0,0,0,1.2,1.44l2.92,2.19a4.08,4.08,0,0,0,1.72.75l0,.08A5.2,5.2,0,0,0,85,159.19a4,4,0,0,0,0,2.9,4,4,0,0,0-.15,1.47s0,.08,0,.12l-.07.08-.77.84-2.69,1.5a3.25,3.25,0,0,0-.55.36Zm130.83-19.25-.18.46a4,4,0,0,0-.29,1.52v.86l0,.13a4.15,4.15,0,0,0-.45,2.07.88.88,0,0,1-.05.15,4.06,4.06,0,0,0-1.38,3.06v.88a3.81,3.81,0,0,0,.07.75l.05.3a4.2,4.2,0,0,0,0,1.93,3.85,3.85,0,0,0-.1.83l-.06,2.94a4.06,4.06,0,0,0-.18,1.2v.72l-.24,1.24-2,.86a4.78,4.78,0,0,0-.45.23l-.26-.06-.59-.27a4.19,4.19,0,0,0-.59-.22l-.42-.12-.29-.21a4.66,4.66,0,0,0-.47-.3l-.16-.13L196,169.18a1.09,1.09,0,0,1-.17-.13c0-.11,0-.23,0-.34v-2.55l1.6-8.2a4,4,0,0,0,.07-.78V157a4,4,0,0,0,.24-1.38v-.72l.05-.28a4.08,4.08,0,0,0,1.77-1c1.82-1.81,3.75-3.75,5.65-5.69.48-.48.93-1,1.35-1.46,0,0,0,.05,0,.07a4,4,0,0,0-.09.85v1l-.2,1a4,4,0,0,0-.52,2Z"/><path class="cls-1" d="M128.42,110.23h.19l-.08-.12Z"/><path class="cls-1" d="M100.59,38.18l.08,0v-.14Z"/><path class="cls-1" d="M213.81,84.41c.81-4.46-1.29-7.62-4.65-10.24-3.87-3-7.71-6.09-11.54-9.17-1.71-1.39-3.35-2.87-5.18-4.43.4-2,.65-3.9,1.16-5.7.76-2.72,1.67-5.4,2.61-8.06.47-1.35,1-2.69,1.48-4a1.1,1.1,0,0,1-.18,0l-.78-.14-.7.14a2.94,2.94,0,0,1-.51.05h-1.19a2.57,2.57,0,0,1-1.41-.43c-2.29,1.78-4.45,3.73-6.6,5.68-1.94,1.74-3.72,3.66-6.12,6C178.82,46.25,175.42,39.91,171,34a2.58,2.58,0,0,1-.2.55l-.24.48a2.5,2.5,0,0,1-.39.57A2.59,2.59,0,0,1,172,38.06v.55a2.58,2.58,0,0,1-2.58,2.59h-.31a2.61,2.61,0,0,1-1.93,2.07l-.95.24a2.7,2.7,0,0,1-.63.07,2.63,2.63,0,0,1-1.29-.35l-4.69,16.28L150,62l-9.37-2.49c-1.18-3.72-2.35-7-3.23-10.3-.85-3.18-2.28-6.16-2.4-9.6-.07-1.92,0-3.83.05-5.78l-1.5,1.54a1.87,1.87,0,0,1-.3.26v2a2.59,2.59,0,0,1-2.59,2.59h-.47a2.6,2.6,0,0,1-1.55-.52l0,0A3.89,3.89,0,0,1,127,41.32l-.16.37a2.58,2.58,0,0,1-2.38,1.6h-.83a2.29,2.29,0,0,1-.28.09,39.22,39.22,0,0,0-3.29,10.85c-2.44-2.43-4.26-4.4-6.24-6.18s-3.76-3.39-5.72-5a3.28,3.28,0,0,1-.52.2l-1,.24a2.7,2.7,0,0,1-.63.07,2.58,2.58,0,0,1-2.45-1.77l-.34-1a2.61,2.61,0,0,1-1.68-2.12c-.3-.16-.59-.32-.9-.46a3.07,3.07,0,0,0,.07,1.22c1.69,4.08,3.61,8.08,5.09,12.23,1.11,3.09,2.2,6.31,1.37,9.73-6.69,5.34-13.92,10-19.79,16.29-.51,2.55-1,5-1.5,7.57C81.55,89.51,77.42,94,72.77,97.9s-9.68,7-14.9,10.67l9.55,9.18a63.69,63.69,0,0,0,8.19.91,58.13,58.13,0,0,0,10.87-1c5.53-1.12,11.12-2.25,15.46-6.45a19.64,19.64,0,0,1,10.15-4.81,38.41,38.41,0,0,1,4.56-.38v-.38l-4.15-.74,11.09-3.29c2,2.1,4,4,5.73,6.06a8.58,8.58,0,0,1,1,2.45l-1.75.07c2.17,3.19,5.58,5.5,6.21,8.36.64,4.93,1.12,8.66,1.59,12.25l3.86,2.17c.87,1.62,1.69,3.14,2.43,4.5a18.34,18.34,0,0,0,14.84,0L160,133l3.9-2.2c.47-3.85.93-7.61,1.46-12a48.35,48.35,0,0,1,2.65-4.31,53.71,53.71,0,0,1,3.74-4.12l-1.91-.18a9,9,0,0,1,1-2.45c1.83-2.2,3.8-4.28,5.48-6.16L187.75,105c-1.63.27-2.25.35-2.85.47-.41.08-.81.22-1.21.33a24.27,24.27,0,0,1,15.65,6.38,16.65,16.65,0,0,0,6.11,3.45,67.64,67.64,0,0,0,19.07,3.07c2.79.09,5.62-.61,8-.89,3.09-2.71,5.86-5.08,8.55-7.55.51-.46.65-1.32,1.09-2.28C231.06,101.89,222.06,93.7,213.81,84.41ZM92,87.69c.44-1.5.89-3.06,1.41-4.85l14.06-2.36C102.9,84.76,97.5,86,92,87.69ZM137.49,92c-2-.92-4.19-1.25-5.83-3-1.5-1.56-3.29-2.83-4.76-4.66,3.76,1.23,7.6,2.23,11.24,3.75,2.76,1.15,4,2.86,4.52,8.76A10.05,10.05,0,0,0,137.49,92Zm27.65-1c-2.91,1.11-6,2.14-7.44,5.64.06-5,2.11-8.16,6-9.39,3.13-1,6.29-1.87,10-3C171.05,87.36,168.58,89.73,165.14,91.05Zm27.23-10.59,14.11,2.29,1.86,4.94C202.71,86.14,197.38,84.67,192.37,80.46Z"/><path class="cls-2" d="M102.34,36.3l0,0,.25.13A2.53,2.53,0,0,1,104,38.38s0,0,0,0A2.57,2.57,0,0,1,105.55,40l.33,1a.07.07,0,0,0,.06,0l1-.24a2.54,2.54,0,0,1,1.14-.26,2.46,2.46,0,0,1,1.57.55c1.88,1.51,3.68,3.14,5.43,4.71l.4.36c.22.19.43.4.64.6,3.66-4.67,7.41-9.16,10.83-14,0-9.14,0-18.45,0-27.77,0-.09-.15-.19-.25-.26a5.78,5.78,0,0,0-.69-.25L102,36A2.54,2.54,0,0,1,102.34,36.3Z"/><path class="cls-2" d="M99.71,63.91c1.68-1.27,3.41-2.57,5.09-3.89.31-2.33-.44-4.7-1.44-7.49s-2.1-5.29-3.23-7.86c-.56-1.3-1.15-2.64-1.71-4l-4,5.25V68C96.18,66.57,98,65.23,99.71,63.91Z"/><path class="cls-2" d="M161.83,42.53a2.52,2.52,0,0,1,3.69-1.48l1-.23a.05.05,0,0,0,.05,0,2.52,2.52,0,0,1,1.09-1.66c-2-2.73-4.18-5.27-6.27-7.92-1.18-1.51-2.3-3.08-3.48-4.59-1.6-2-3.24-4.06-5.18-6.49V49.64q2.58,3.31,5.15,6.64Z"/><path class="cls-2" d="M146.56,19.64c-3.59,4.18-6.71,8.37-9.72,12.47a2.52,2.52,0,0,1,.66,1.81c-.09,2.12-.11,3.89-.05,5.58a21.94,21.94,0,0,0,1.38,6c.32,1,.66,2,.94,3,.58,2.22,1.32,4.44,2.09,6.79,0,.14.09.28.14.41q1.32-1.85,2.71-3.64a8.81,8.81,0,0,0,1.91-5.62c-.14-7.93-.06-15.87-.06-23.8Z"/><path class="cls-2" d="M183.86,46.81c.22-.21.44-.42.67-.62l.22-.2c2.08-1.88,4.24-3.83,6.53-5.6a2.52,2.52,0,0,1,1.54-.53,2.56,2.56,0,0,1,1.38.41l1.23,0,.71-.14a2,2,0,0,1,.49,0,2.49,2.49,0,0,1,.47,0l.67.12.12,0a2.51,2.51,0,0,1,2.06,3.4c-.41,1.09-.95,2.53-1.46,4-1.13,3.19-1.92,5.62-2.56,7.91-.32,1.11-.53,2.31-.76,3.58,0,.15,0,.31-.08.47l.6.52c1.17,1,2.28,2,3.42,2.9,2.37,1.91,4.46,3.59,6.4,5.13V46.7c-10.68-14.06-21.34-28.07-32.39-42.61V32.67c2.79,3.66,5.79,7.56,8.76,11.48C182.55,45,183.21,45.92,183.86,46.81Z"/><path class="cls-2" d="M126.3,173.75l.08-.05.17-.16.26-.49a2.58,2.58,0,0,1-.88.21C126.05,173.43,126.17,173.59,126.3,173.75Z"/><path class="cls-2" d="M160.44,168a2.06,2.06,0,0,1,.48-.21,2.44,2.44,0,0,1,.92-.54l.47-.16a2.52,2.52,0,0,1,2,.18,2.53,2.53,0,0,1,1.24,1.6l0,.08.23.18a2.55,2.55,0,0,1,.88,1.22l.17.5a1.83,1.83,0,0,1,.11-.33v-.76a2.12,2.12,0,0,1,0-.44,2.57,2.57,0,0,1-.28-1.15v-2a2.51,2.51,0,0,1,.11-.72l0-.18a2.6,2.6,0,0,1-.43-1l-.16-.87a2.54,2.54,0,0,1,0-.87h-.44a2.31,2.31,0,0,1-.11.62,2.51,2.51,0,0,1-1.84,1.66,2.7,2.7,0,0,1-.48.16l-2.46.55a3,3,0,0,1-.54.46,4.88,4.88,0,0,1-1.63.67,2.33,2.33,0,0,1-.1.94l-.32,1.09,1.52-.25A2.25,2.25,0,0,1,160.44,168Z"/><polygon class="cls-2" points="116.33 151.48 116.09 152.24 116.08 152.36 116.84 151.83 116.33 151.48"/><path class="cls-2" d="M138,163.57l.2-.19-.15,0,0,.06Z"/><path class="cls-2" d="M121.26,162.49l2,2.1.26.12a2.36,2.36,0,0,1,.83.6l.6.65.24.1a2.67,2.67,0,0,1,.76.53l.15.14.28.13a2.53,2.53,0,0,1,.89.66l1,1.11a2.54,2.54,0,0,1,.58,1.94l.8-.6.61-3a2.5,2.5,0,0,1-2-2.75l.06-.6a2.49,2.49,0,0,1,0-1.3l.24-.87a2.56,2.56,0,0,1,.93-1.37,2.09,2.09,0,0,1-.28-.24l-.48-.47a2.53,2.53,0,0,1-.55-2.75l.09-.19a2.51,2.51,0,0,1,2-2l1.19-.24.12,0V154a2.25,2.25,0,0,1-.19-.57l-.24-1.2a2.63,2.63,0,0,1-.05-.49v-.65a2.33,2.33,0,0,1-.81.47l-.68.24-.13.4a2.5,2.5,0,0,1-.75,1.12l-.56.47a2.1,2.1,0,0,1-.46.32l-1,.54-.21.2a2.67,2.67,0,0,1-.76.53l-.45.19-1.43,1.1a2.62,2.62,0,0,1-.59.33l-.6.24-1.31.8a2.52,2.52,0,0,1,1.24,2.57A2.58,2.58,0,0,1,121.26,162.49Z"/><path class="cls-2" d="M167.69,152.51v-2.34l-3.16,3.17a1.75,1.75,0,0,1,.22.43l.3.8a3.3,3.3,0,0,1,1.39-.79h0a2.51,2.51,0,0,1,1.11-1.21Z"/><path class="cls-2" d="M176.56,170.44a2.39,2.39,0,0,1-1-.61l-.48-.47a2.09,2.09,0,0,1-.24-.28l-.1.19-.24.4-.1.14a2.52,2.52,0,0,1,1.14,1.72l1.08-1.06Z"/><path class="cls-2" d="M167.47,179.33a2.52,2.52,0,0,1-1.69-2.38v-.4a2.32,2.32,0,0,1,.07-.59,2.9,2.9,0,0,1-.07-.66,2.52,2.52,0,0,1,1.2-2.09.76.76,0,0,1,0-.15v-.36s0,0,0-.08a2.49,2.49,0,0,1-1.47,1.62l-.12.16,0,.06a2.51,2.51,0,0,1-1.47,2.86l-.55.24a2.41,2.41,0,0,1-.58.17l-1.43.24a3,3,0,0,1-.42,0H156.2l-1.67.22-.32,0H152.1l-.18.08-.18.07-.09.17A6.54,6.54,0,0,1,151,180a3.92,3.92,0,0,1-2.39,2,2.44,2.44,0,0,1-.8.13h-.28l-.71-.08a2.51,2.51,0,0,1-1.9-1.24s-.05-.09-.08-.14a2.2,2.2,0,0,1-.31-.15,2.52,2.52,0,0,1-1.2-1.83s-.17-1.22-.17-1.23a2.47,2.47,0,0,1-.8-.35l-.24-.16a2.51,2.51,0,0,1-.75-.77l-.37-.6a2.54,2.54,0,0,1-.78-2.61l.16-.56a2.52,2.52,0,0,1,2.42-1.83l.36,0a2.48,2.48,0,0,1,.81.26l2.66-.43.15-.07.23-.36.89-2.06.37-1.25-.25-.09a3.72,3.72,0,0,1-1.28-.89l-.4.38-.28.57a2.61,2.61,0,0,1-.58.75L144,168.76a2.21,2.21,0,0,1-.47.33l-.55.3-1.18,1.18a2.51,2.51,0,0,1-.65.47l-.57.29-2.49,2.55a2.14,2.14,0,0,1-.32.28v2a2.52,2.52,0,0,1-2.52,2.52h-.48a2.47,2.47,0,0,1-1.56-.55l-.06.09a3.72,3.72,0,0,1-1,1.17,4.91,4.91,0,0,1,.39.51,26.87,26.87,0,0,0,3.42,3.5c1.25,1.25,2.46,2.53,3.75,3.73s2,2.54,3.68,2.95c.34,1.91,2.13,2.66,3.23,3.94a4.44,4.44,0,0,0,3.69,1.85l17.12-16.54Z"/><polygon class="cls-2" points="175.69 152.24 175.68 152.36 176.44 151.83 175.93 151.48 175.69 152.24"/><path class="cls-2" d="M115,134.61l.4.64a2.51,2.51,0,0,1,.38,1.33v.67s.14.45.14.46a2.26,2.26,0,0,1,.54.53,2.51,2.51,0,0,1,.42,2.2l-.35,1.26a2.45,2.45,0,0,1,.56,1.17l1.83.91a2.6,2.6,0,0,1,.64.46l.66.16,1.72.07a2.51,2.51,0,0,1,2.26,1.64l.17.43h.17a2.43,2.43,0,0,1,1,.19l1.78-.56a2.72,2.72,0,0,1,.75-.11h.24l-2.85-2.85q0-17.88,0-35.95c-.66-.7-1.33-1.4-2-2.13l-.62-.64-3.67,1.09v.47a2.53,2.53,0,0,1-2.33,2.52c-.5,0-1,.06-1.52.08s-1.25.06-1.84.12v24.72A2.49,2.49,0,0,1,115,134.61Z"/><path class="cls-2" d="M174.57,134.61l.4.64a2.51,2.51,0,0,1,.38,1.33v.67s.14.45.14.46a2.26,2.26,0,0,1,.54.53,2.51,2.51,0,0,1,.42,2.2l-.35,1.26a2.45,2.45,0,0,1,.56,1.17l1.83.91a2.6,2.6,0,0,1,.64.46l.66.16,1.73.07a2.53,2.53,0,0,1,2.26,1.64l.16.43h.17a2.43,2.43,0,0,1,1,.19l1.54-.48q0-18.87,0-37.59a26.43,26.43,0,0,0-3.17-.38,2.53,2.53,0,0,1-2.36-2.26,1.7,1.7,0,0,1,0-.39L177,104.42l-.36.39c-.71.78-1.43,1.58-2.14,2.38v27.36Z"/><path class="cls-2" d="M186.62,160.11V154.5l-.35.19-.21.2a2.67,2.67,0,0,1-.76.53l-.45.19-1.43,1.1a2.62,2.62,0,0,1-.59.33l-.6.24-1.31.8a2.52,2.52,0,0,1,1.24,2.57,2.56,2.56,0,0,1-1.3,1.84l1.94,2,.5-.49A49.16,49.16,0,0,0,186.62,160.11Z"/><path class="cls-1" d="M79.32,130.62a3.67,3.67,0,0,1,1.82.85l1.1,2.8,2.19-.73,1.46-1.1,1.82-.73.37-.36.73.36v.85l-1.22,1.34L86.25,135l-.73,3.65,2.8,7.3,1.83,3.28h.48l-.36,1.71,1.82,3.28-.36.85-1-.36-.86-1.83-2.06-.36-2.92-2.19-.86-1.71-2.67-8.15-1.34.49-.73.61.36.73-.36.73-1.22-.37-1.34,1.1-3.77,4-1,.37.36.73-2.19,2.92-1.09.36h1l.12,1.1-.73.73-1.09-.37-.73.37-.37,2.07v10l.37.37v2.07l.36,2.19.73,1.82.37,2.07a3.6,3.6,0,0,0,.73,1.82l-.37.73.13,1.34a2.4,2.4,0,0,0,1.09,1.46l5.72-4.38,1.09-1.34,5.72-4.5,3.29-1.82,1.21-1.34,1.1-.12.36,1.09L87.35,170a2.71,2.71,0,0,0-1.1,1.46,3.75,3.75,0,0,0-1.46,1.09l-1.46,1.1L82.24,175,78,178.43l-2.31,2.8-1.46,1-1.1,1.46-.73,1.83,1.1,1.46v1H71.9a5,5,0,0,1-2.07-.61V186.1l-.85.36-1.46,1.1h-1l.37-1.22-.73-1.82,1-1.71.85-.36-1.09-2.68-.37-2.07-1.09-1.58-.73-4.26L64,170l-1.1-6.57-.73-1.83v-2.55l.37-2.8-.37-.85.37-2.19v-3.9l.36-.85v-2.43l.37-2.19,1.09-.49.37.73.36,2.19.73.37v1.46l.37.73,1.09-.25,6.57-6.08,1.46-1.09L76.4,140l.85-1.71,2.8-2.31.73-.24-.37-1.1v-1.09H79L78.59,135l-.37-.37a3.42,3.42,0,0,1,.73-1.82A10.18,10.18,0,0,0,79.32,130.62Z"/><path class="cls-1" d="M94.07,146.16h1.19l.24.4,1.27,1,.8-.24.31.24v-.4l-.23-.48,1,.64.16,1.59-.24.32.16,1,3.18,3.74,1,.71.48,1.27.71,1,2.15,1.35c.43.12.67.3.71.55a2.9,2.9,0,0,0-1.19.48l-.24.71-3.1-1.19-.47-1.19-2.39-2.86-1.43,3.58a2.53,2.53,0,0,0-.47,1.27l.47.39-.16.72-1,.72,1.11.47h5.17l.63.48h-.39l-.08.16-2.86.63a.94.94,0,0,0-1,.72,2.72,2.72,0,0,1-1.35.4l-1.51.23-1,.72a2,2,0,0,0-.72,1l-2.06,6h.47a2.78,2.78,0,0,0,.8-.95l.79-.95,1-2.31.79-1L96.14,169l-.64,1L95,171.35l.08.32,1-.24H97.8l2.94-.48h.88l.55-.24v-.47l.8.47.16-1,.48-.16.23.95,1,.72.24.71-.64.24-.72,1-.55,1.19.24.71-.56.24-1.43.24H96.53l-1.82.24h-3l-.16.24-1.27.47a3.77,3.77,0,0,1-.48,1.2,3.82,3.82,0,0,1-.48,1.19,1.45,1.45,0,0,1-1,.79l-.72-.08.72-1.67v-.47l-.72.47-1.27.48-.16-1.19h.48l.95-1.43-.47-.48L85.65,175H84.3l-.24-.16-.64-1-.24-.16.16-.55v.39l.16.08,4.45-.71,1.11-.56.72-1.11,1-2.38,1.35-4.53H89.54a1.12,1.12,0,0,1-.71-1,1.49,1.49,0,0,0,1-.79l1.19-.56,1.43-.24-2.22-.71H88.9l-.15-.24a1.27,1.27,0,0,1,.79-.72l1.51-.23h.87l.56-.24h1.11l.24-1.43h-.56l.8-.24.56-1.19.87-.8.72-3.73-.48-.24.48-1.19-1-.72a2.81,2.81,0,0,1-.79-.95l-1-.72h-.39v-1h.47A10.34,10.34,0,0,0,94.07,146.16Z"/><path class="cls-1" d="M126.68,150.41l.55-.4,2.31-.79a.66.66,0,0,0-.4-.64h-1l-3.82,1.19.48-.47-.16-.24-1.19.48-1.59-1.43-.56-.24.88-.24-.24-.64-2-.08-1.59-.39-.47-.48-2.07-1-.79-.24a.55.55,0,0,0-.48-.48l-.87-.95.16-.24.47.48.4-.24-.48-.48h-.39v-.56l.71-2.54h-.79l-.32-.48.16-.87-.24-.79v-1l-.4-.63h-1V140l-.24,1.19.24.32-.72.16-.47-.56a2.86,2.86,0,0,0-1.43-.63l-.72.23-3.1-1h-1.19a1,1,0,0,0,.71.72l.56.47,3,1,.24.79,2.14.88.48.47.24,1.19h-.56l-.87.56.24.4,1.19.79v1l-.24-.56-.71.4v5.8l-.24.79-.4.56-.79-.24-.24.79.47.56v.56l-1.9-.48a.61.61,0,0,0-.48.56l.08.63h.4V158l.47.16.16-.24.08.48h-.71l.24.47h1l-.56.48h-.95l-.8-.24-.79.24.4.71h2l.72.24.24.48v-.4l.47-.32v1.12l.48.47-.48.56-.23.79.15.88.32.24v-1l.48.48-.24.8v1l-.24.79v2l.48.63-.24,1v1.67l-.24.16.24.39v1l.24.16-.24.15v1.2l-.24.71-1,.08,1.19.16v.72l.24.23-1.43.08v.4l1.43.16v1l.48,1.43,1-.24v-2l.24-.4,1.11.24h1.51v-.56l-1.91-.47.24-.4-.95-.24.24-1.19v-1l.23-.23v.47l.24.24.16-.95.56-.48.24-.48h-.4a1.93,1.93,0,0,1-.8-1.11v-2.06l.24-.64.24.24.24-.4-.48-.56.48-.55.48-1.51.47.32.48-1.27.72.23,1.43,1.59.71,1.35.48.48.71.24.48-.56-.24-.32h.4l1.59,1.43,2.54,1.44.56.47h2l.56-.47-1-1.12-.72-.32-.48-.47-.71-.32-1-1-.72-.32-6.2-6.44h.4l.56.24.71-.48.8.24h2l-1.51-.47h-2.94l-.71-.32.24-.8.31.16.64-.71.16.24.87-.72a3.15,3.15,0,0,0,1.11-.95l1.43-.56,1.83-1.11.8-.32,1.67-1.27.71-.32.48-.48,1.35-.71.56-.48.23-.71h-.71Zm-6.84,2.22-.55.64-4.93,3.42-.55-1.83v-1.19l-.24-1,.16-1,.55-1.83-.24-.55-.47.24v-.4l.47-.72-.23-.55h.39l-.39-.72H115l.71.48.48.63,4.29,2.94a.8.8,0,0,1,.72.4Z"/><path class="cls-1" d="M146.32,159l-.08-.24h-1.11l-1.11-.24-.08.24h-1.11l-2.31-.47.56-.56.48-.87.95-.48.64-.72.31-.71.24-1.11,1.75-2.47.16-.71L143.94,149l-.48-.95-.71-.72-.48-.87-.87-.56-.72-.72-1-.47L139,144l-1.59-1.19-.63-.71-.24-1.2v-1.43l-.24-1.19v-1.35l-.95-.56a2,2,0,0,0-.48,1l-.24,1.11v1.75l-.79-.24L130.11,138a.78.78,0,0,0-.63.72l.87.48.72.63,1,.56-.32,1,.48.72,1.75,1,.24,1.19v1.35l-.4,2.39.16,1.11v1.51h-.24v1.11l.24,1.19.24.08v2.47l-.24.15v1.43h-1l-.95-.47-1.19.24.48.23-.24.48h-.48l.48.48,1.19.16,1,.47a1.47,1.47,0,0,1,.64.8l-.48.71-.87.56-.48.87-1,.48-.24.87.24.08.24.72h-.4l-.08.71h.71l.88-.47.79-.24-.24,1.51v1.43l-.95,4.69-1.59,1.19-.55.87-.72.72-.48.87-.71.72-1,.47-.47.88h-.48l.56.48,1.35-.08.24.31h-.4l-.48,1-.08.71.48-.24h1.43l.4-1a1.32,1.32,0,0,1,.79-.63,1.4,1.4,0,0,0,.72-.72l.55-.79.88-.56,1.43-1.35.47.95a1.39,1.39,0,0,0,.48,1h.48v-2.31l.24-1.19.79-.56,2.78-2.86,1-.47,1.43-1.43.87-.48,1.51-1.35.48-1,2.14-2.06,1.43-2.78.24-.24ZM137,153.93l-.24-.88v-1.19l.24-.24-.48-1.43.24-2.14v-1.2l.24-.95a4.31,4.31,0,0,1,.87.24l.72.48,2.3,2.38.88.32.55.63h.4v.72l-.24,1-2.78,1.91-3.42,3.73-.24.08Zm5.88,9.13-1.35.8-4.93,4.45-.79.24-.24-.16.24-.4-.24-.79V163l.24-.79.47-.56.32-.71.64-.48,1.58.48h1l2.38.71,1,.08.71.32Z"/><path class="cls-1" d="M153.67,146.16h1.19l.24.4,1.27,1,.8-.24.31.24v-.4l-.23-.48,1,.64.16,1.59-.24.32.16,1,3.18,3.74,1,.71.48,1.27.71,1,2.15,1.35c.44.12.67.3.71.55a2.9,2.9,0,0,0-1.19.48l-.24.71-3.1-1.19-.47-1.19-2.39-2.86-1.43,3.58a2.53,2.53,0,0,0-.47,1.27l.47.39-.16.72-1,.72,1.11.47h5.17l.63.48h-.39l-.08.16-2.86.63a.94.94,0,0,0-1,.72,2.72,2.72,0,0,1-1.35.4l-1.51.23-1,.72a2,2,0,0,0-.72,1l-2.06,6H153a2.87,2.87,0,0,0,.79-.95l.79-.95,1-2.31.79-1-.63,2.14-.64,1-.48,1.27.08.32,1-.24h1.67l2.94-.48h.87l.56-.24v-.47l.79.47.16-1,.48-.16.23.95,1,.72.24.71-.64.24-.71,1-.56,1.19.24.71-.56.24-1.43.24h-4.85l-1.82.24h-3l-.16.24-1.27.47a3.77,3.77,0,0,1-.48,1.2,3.82,3.82,0,0,1-.48,1.19,1.45,1.45,0,0,1-1,.79l-.72-.08.72-1.67v-.47l-.72.47-1.27.48-.16-1.19h.48l.95-1.43-.47-.48-1.51-.24H143.9l-.24-.16-.64-1-.24-.16.16-.55v.39l.16.08,4.45-.71,1.11-.56.72-1.11,1-2.38,1.35-4.53h-2.62a1.13,1.13,0,0,1-.71-1,1.49,1.49,0,0,0,.95-.79l1.19-.56,1.43-.24-2.22-.71h-1.27l-.16-.24a1.27,1.27,0,0,1,.79-.72l1.51-.23h.87l.56-.24h1.11l.24-1.43h-.55l.79-.24.56-1.19.87-.8.72-3.73-.48-.24.48-1.19-1-.72a2.81,2.81,0,0,1-.79-.95l-1-.72h-.39v-1h.47A10.34,10.34,0,0,0,153.67,146.16Z"/><path class="cls-1" d="M186.28,150.41l.56-.4,2.3-.79a.66.66,0,0,0-.4-.64h-1l-3.81,1.19.47-.47-.16-.24-1.19.48-1.59-1.43-.55-.24.87-.24-.24-.64-2-.08-1.58-.39-.48-.48-2.07-1-.79-.24a.55.55,0,0,0-.48-.48l-.87-.95.16-.24.47.48.4-.24-.48-.48h-.39v-.56l.71-2.54h-.79l-.32-.48.16-.87-.24-.79v-1l-.4-.63h-1V140l-.24,1.19.24.32-.72.16-.47-.56a2.86,2.86,0,0,0-1.43-.63l-.72.23-3.1-1h-1.19a1,1,0,0,0,.72.72l.55.47,3,1,.24.79,2.15.88.47.47.24,1.19h-.56l-.87.56.24.4,1.19.79v1l-.24-.56-.71.4v5.8l-.24.79-.4.56-.79-.24-.24.79.47.56v.56l-1.9-.48a.61.61,0,0,0-.48.56l.08.63h.4V158l.47.16.16-.24.08.48h-.71l.24.47h1l-.56.48h-1l-.79-.24-.8.24.4.71h2l.72.24.24.48v-.4l.47-.32v1.12l.48.47-.48.56-.23.79.16.88.31.24v-1l.48.48-.24.8v1l-.24.79v2l.48.63-.24,1v1.67l-.24.16.24.39v1l.24.16-.24.15v1.2l-.24.71-.95.08,1.19.16v.72l.24.23-1.43.08v.4l1.43.16v1l.48,1.43.95-.24v-2l.24-.4,1.11.24h1.51v-.56l-1.91-.47.24-.4-.95-.24.24-1.19v-1l.24-.23v.47l.23.24.16-.95.56-.48.24-.48h-.4a1.87,1.87,0,0,1-.79-1.11v-2.06l.23-.64.24.24.24-.4-.48-.56.48-.55.48-1.51.47.32.48-1.27.72.23,1.43,1.59.71,1.35.48.48.71.24.48-.56-.24-.32h.4l1.59,1.43,2.54,1.44.56.47h2l.56-.47-.95-1.12-.72-.32-.47-.47-.72-.32-1-1-.72-.32-6.2-6.44h.4l.56.24L177,160l.8.24h2l-1.51-.47h-2.94l-.71-.32.24-.8.31.16.64-.71.16.24.87-.72a3.28,3.28,0,0,0,1.12-.95l1.43-.56,1.82-1.11.8-.32,1.67-1.27.71-.32.48-.48,1.35-.71.56-.48.23-.71h-.71Zm-6.83,2.22-.56.64L174,156.69l-.55-1.83v-1.19l-.24-1,.16-1,.55-1.83-.24-.55-.47.24v-.4l.47-.72-.23-.55h.39l-.39-.72h1.19l.71.48.48.63,4.29,2.94a.8.8,0,0,1,.72.4Z"/><path class="cls-1" d="M210.6,147.33a1.11,1.11,0,0,1,1,.56l.24.31-.24.72v1.43l-.24,1.27v1.11l-.24.08v1.51l-.24,1.2v1.11h.32l.88.63-.72,3.74v1.43l-.16.87-.55,1v1.35l-.24,1.27v1.43l-1.19,6.2a1.22,1.22,0,0,1,1,.47l-.79.72a1.08,1.08,0,0,0-.48,1l-.4,1-.87.15-.56,1-.71.71-1-.47-1.19-.24h-1.43l-1.27-.24-1.19.24H199l-.07-.24-1.2-.24-.95-.56a1.06,1.06,0,0,1,.87-.63l-.63-.64-1.91-1-1.19-.24-2-.95-.95.48-.88-.64a1.19,1.19,0,0,0-.63-.8h-.56v-.95l-.24-1.19-2.86-1.59-.23-.32.71-.24h.48l-.24-.71,2.14.48.32-1.43.16-2.39.24-.16.24-1.19-.24-1,.08-.24.4.24v-.8l.47-.95.24-.88-.24-.15-.24-.88.24-.16-.24-1.19.48-1v-.8l.32-.39.87-.08.72-3.74v-1H193l1.35.71-.24.64-.48,2.46v1.11l-.24.16v1.43l-1.67,8.59v2.94l-.23,1.19v1h.39l.56.95,1,.48,1.67,1.35a1.33,1.33,0,0,0,.8.56l.87.63,1.11.32,1,.48,1.19.24h1.43l1-.56,2.07-.87,1.19-.24.79-.64.72-3.73v-1.11l.16-.24.08-3.82.24-.16v-1.51l-.24-.15.24-.8-.24-1.27V160h1.19l-.24-.63.24-1.19.48-1-.24-.55.24-.4.23-1.19v-1.27l.48-1.19v-1.12l.24-.16.48-2.46Z"/><path class="cls-1" d="M228.77,129.9h.59v.88l.83-.59.68-.29.2.29.12.92L229,133.83l-.83.59.32,1.12,1.81,1.09.59.83.91.59.5.91,1.33,1.72.59.08-.59-.91.59.12.3.71-.3.2.92,1.39.21,1.21,2.21,2.22.21,1.12-1.21.29-1.13-.38-1.71-1.12-2-.92-.82-.71-1.21-1.71-.89-.59L227.56,140l-.3-1.12-.62-.8-.59-.42-.82.71-2,2.42-.8.63-1.21,1.71-.92.5a1.06,1.06,0,0,1-.59.89l-1.21,1.71-.32,1.12-.3.41,1.21,1,.62.8.89.62.62.88.8.62.5.89.8.71.62.82.91.59,1.3,1.51.71.32.21-.32.2.32-.2.6.59.91,1.71,1.21.62.89,1.6,1.21.2-1.21.71-.3.21.3.91.62.3-1.12,1.5-1.39L236,158l.3.38v.92l1.21.8.3.71-.3.2-2.21,3.64-.83.59v1.53l-.3,1.09-1.09.42-.71.71-.41,1.09-2.33,3.42-.3,1.22-1.8,2.51-.3.7.3.21-1.12.39-.09.82,2.42,2.42-.92.59-.91-.41-1,.21-1.22-.3-.79.62-2.22,3.61-.8.62-.32,1.21-.89.59-.62.82-1.5.71v-.82l.29-1.1,2.42-3.42-.29-1.12.71-.8,1.71-2.72.3-1.12-.71-.71-2-3.81L218.49,173l-1.21-1.71-.32-1.21-.8-.59-1.09-1.83-.83-.71-1.71-2.6-1.42-1.51-.8-1.83h.42l1.71.62v-.5l.5-1,.71.32.21-.32-1.13-.59.3-.62-.3-.59.62-.92.89.62.62,2.3.59.83.3,1.18.62.83.79.59,3.13,4.25.92,2,.71.71,1.09,1.92.3,1.09,1.12,1.83.41-.2-.32-.51.91-.5.62-.91.3-1.13,1.09-1.89.41-1,1.81-2.51.91-2-1.09-1.71-.92-.62L227.15,161a1.1,1.1,0,0,1-.51-.91l-.91-.59-.59-.92-2.51-1.8-1.12-.3-.6-.91-1.71-1.21-1.42-1.51L215.16,151h-1.42l-.71.33-.3-.21-.29-.71.59-1.21-1.71-2.72-.71-.82,1.33-1.6h1.41l.6-.82,1.12-.39,1.5-.91.21.29.59-.88.5-.33-.29.5.71.71,1.71-1.21.29-1.09,2.43-3.43.59-2.33-.59-.8-.3-.71,1.51-1,.59.41.91-1.53,1.13-.39,1,1.21-.5.3-.71,1.62.29.18.62-.8.89-2Z"/><path class="cls-2" d="M191.44,148.33a2.46,2.46,0,0,1,.94-.18h.56a2.57,2.57,0,0,1,1.18.29l1.35.71a2.5,2.5,0,0,1,1.22,1.51c1.9-1.89,3.77-3.76,5.62-5.65,1.18-1.21,2.24-2.54,3.2-3.64V118.28l-.95-.29a19.15,19.15,0,0,1-7-4,21.16,21.16,0,0,0-6.23-4v38C191.35,148.12,191.4,148.22,191.44,148.33Z"/><path class="cls-2" d="M96.9,144.28a2.37,2.37,0,0,1,.65-.09,2.55,2.55,0,0,1,1.32.38l1,.63a2.54,2.54,0,0,1,1.19,1.9l.16,1.57c1.74,1.75,3.5,3.49,5.25,5.22l.34-.11h0a2.51,2.51,0,0,1,1.11-1.21l.11-.05v-4.64a1.94,1.94,0,0,1,0-.49l-.17-.28a2.53,2.53,0,0,1-.24-2.07,2.49,2.49,0,0,1-1.23-1.1l-1.82-.57a2.55,2.55,0,0,1-.88-.49l-.22-.19a3.45,3.45,0,0,1-1.82-2.2,2.51,2.51,0,0,1,.39-2.23,2.55,2.55,0,0,1,2-1h1.19a2.67,2.67,0,0,1,.75.11l2.32.72a1,1,0,0,1,.22,0V110a14.31,14.31,0,0,0-5.05,3.09,22.79,22.79,0,0,1-9.18,5.28v22.76A27.38,27.38,0,0,0,96.57,144Z"/></svg>